<?xml version="1.0" standalone="no"?>
<!DOCTYPE svg PUBLIC "-//W3C//DTD SVG 20010904//EN"
 "http://www.w3.org/TR/2001/REC-SVG-20010904/DTD/svg10.dtd">
<svg version="1.0" xmlns="http://www.w3.org/2000/svg"
 width="700.000000pt" height="700.000000pt" viewBox="0 0 700.000000 700.000000"
 preserveAspectRatio="xMidYMid meet">
<metadata>
Created by potrace 1.14, written by Peter Selinger 2001-2017
</metadata>
<g transform="translate(0.000000,700.000000) scale(0.100000,-0.100000)"
fill="#000000" stroke="none">
<path d="M3280 6994 c-19 -2 -84 -9 -145 -14 -578 -56 -1180 -283 -1660 -625
-237 -169 -531 -446 -709 -670 -416 -521 -673 -1147 -748 -1820 -17 -154 -17
-585 0 -730 69 -588 254 -1099 567 -1570 126 -189 242 -332 410 -504 580 -595
1295 -943 2140 -1043 145 -17 576 -17 730 0 822 91 1556 447 2131 1034 203
206 348 390 487 618 274 449 432 915 499 1465 16 135 16 591 0 730 -100 846
-447 1557 -1043 2141 -555 542 -1249 874 -2029 970 -117 15 -553 27 -630 18z
m-1696 -2896 c13 -19 16 -60 16 -245 l0 -223 138 0 c268 0 384 -30 466 -121
58 -64 76 -125 76 -253 0 -132 -17 -189 -75 -253 -90 -102 -189 -123 -561
-123 l-245 0 -24 25 -25 24 0 573 c0 503 2 576 16 596 14 20 23 22 109 22 86
0 95 -2 109 -22z m424 -15 c115 -71 137 -248 44 -346 -85 -90 -235 -96 -329
-14 -128 112 -80 335 83 387 55 18 151 5 202 -27z m1116 17 c201 -51 360 -199
420 -389 105 -336 -53 -679 -362 -787 -350 -121 -710 46 -818 380 -37 112 -39
276 -5 386 62 204 220 356 423 410 100 26 241 26 342 0z m1170 0 c201 -51 335
-179 398 -380 20 -64 23 -95 23 -220 -1 -132 -3 -152 -28 -225 -68 -194 -208
-323 -404 -372 -91 -23 -560 -26 -586 -4 -16 12 -17 66 -17 602 0 521 2 589
16 603 13 14 52 16 268 16 219 0 263 -3 330 -20z m839 2 c27 -30 507 -1065
507 -1093 0 -35 -20 -51 -119 -94 -83 -37 -84 -37 -109 -18 -18 13 -98 176
-275 553 -209 448 -248 539 -240 560 6 18 31 37 93 67 94 47 119 52 143 25z
m-84 -768 c199 -59 219 -349 29 -428 -21 -9 -63 -16 -95 -16 -272 1 -321 387
-58 451 47 11 68 10 124 -7z"/>
<path d="M1600 3261 l0 -171 153 0 c139 0 157 2 197 23 54 27 80 73 80 142 0
67 -26 114 -81 145 -40 22 -57 25 -196 28 l-153 4 0 -171z"/>
<path d="M2849 3887 c-107 -30 -191 -105 -231 -206 -19 -47 -23 -75 -23 -176
0 -101 4 -129 23 -176 32 -80 90 -142 170 -181 62 -31 74 -33 167 -33 89 0
107 3 163 29 77 36 142 104 174 184 19 48 23 75 23 177 0 141 -20 203 -86 279
-61 69 -147 107 -251 112 -50 2 -101 -1 -129 -9z"/>
<path d="M3922 3508 l3 -403 124 2 c167 3 239 24 314 93 36 33 63 70 83 112
27 59 29 71 29 193 0 125 -1 133 -31 196 -73 153 -187 209 -427 209 l-97 0 2
-402z"/>
</g>
</svg>
