<svg xmlns="http://www.w3.org/2000/svg" xmlns:xlink="http://www.w3.org/1999/xlink" viewBox="0 0 200.25 335.51"><defs><style>.cls-1,.cls-10,.cls-11,.cls-12,.cls-13,.cls-14,.cls-15,.cls-16,.cls-17,.cls-18,.cls-19,.cls-2,.cls-20,.cls-21,.cls-22,.cls-23,.cls-24,.cls-25,.cls-26,.cls-27,.cls-28,.cls-29,.cls-3,.cls-30,.cls-31,.cls-32,.cls-33,.cls-34,.cls-35,.cls-36,.cls-37,.cls-38,.cls-39,.cls-4,.cls-40,.cls-41,.cls-42,.cls-43,.cls-44,.cls-45,.cls-46,.cls-47,.cls-48,.cls-49,.cls-5,.cls-50,.cls-51,.cls-52,.cls-53,.cls-54,.cls-55,.cls-56,.cls-57,.cls-58,.cls-59,.cls-6,.cls-60,.cls-61,.cls-62,.cls-63,.cls-64,.cls-65,.cls-66,.cls-67,.cls-7,.cls-8,.cls-9{fill:none;stroke-miterlimit:10;stroke-width:0.25px;}.cls-1{stroke:url(#Градієнт_без_назви_2);}.cls-2{stroke:url(#Безымянный_градиент_3248);}.cls-3{stroke:url(#Безымянный_градиент_3247);}.cls-4{stroke:url(#Безымянный_градиент_3246);}.cls-5{stroke:url(#Безымянный_градиент_3245);}.cls-6{stroke:url(#Безымянный_градиент_3244);}.cls-7{stroke:url(#Безымянный_градиент_3243);}.cls-8{stroke:url(#Безымянный_градиент_3242);}.cls-9{stroke:url(#Безымянный_градиент_3241);}.cls-10{stroke:url(#Безымянный_градиент_3240);}.cls-11{stroke:url(#Безымянный_градиент_3239);}.cls-12{stroke:url(#Безымянный_градиент_3238);}.cls-13{stroke:url(#Безымянный_градиент_3237);}.cls-14{stroke:url(#Безымянный_градиент_3236);}.cls-15{stroke:url(#Безымянный_градиент_3235);}.cls-16{stroke:url(#Безымянный_градиент_3234);}.cls-17{stroke:url(#Безымянный_градиент_3233);}.cls-18{stroke:url(#Безымянный_градиент_3232);}.cls-19{stroke:url(#Безымянный_градиент_3231);}.cls-20{stroke:url(#Безымянный_градиент_3230);}.cls-21{stroke:url(#Безымянный_градиент_3229);}.cls-22{stroke:url(#Безымянный_градиент_3228);}.cls-23{stroke:url(#Безымянный_градиент_3227);}.cls-24{stroke:url(#Безымянный_градиент_3226);}.cls-25{stroke:url(#Безымянный_градиент_3225);}.cls-26{stroke:url(#Безымянный_градиент_3224);}.cls-27{stroke:url(#Безымянный_градиент_3223);}.cls-28{stroke:url(#Безымянный_градиент_3222);}.cls-29{stroke:url(#Безымянный_градиент_3221);}.cls-30{stroke:url(#Безымянный_градиент_3220);}.cls-31{stroke:url(#Безымянный_градиент_3219);}.cls-32{stroke:url(#Безымянный_градиент_3218);}.cls-33{stroke:url(#Безымянный_градиент_3217);}.cls-34{stroke:url(#Безымянный_градиент_3216);}.cls-35{stroke:url(#Безымянный_градиент_3215);}.cls-36{stroke:url(#Безымянный_градиент_3214);}.cls-37{stroke:url(#Безымянный_градиент_3213);}.cls-38{stroke:url(#Безымянный_градиент_3212);}.cls-39{stroke:url(#Безымянный_градиент_3211);}.cls-40{stroke:url(#Безымянный_градиент_3210);}.cls-41{stroke:url(#Безымянный_градиент_3209);}.cls-42{stroke:url(#Безымянный_градиент_3208);}.cls-43{stroke:url(#Безымянный_градиент_3207);}.cls-44{stroke:url(#Безымянный_градиент_3206);}.cls-45{stroke:url(#Безымянный_градиент_3205);}.cls-46{stroke:url(#Безымянный_градиент_3204);}.cls-47{stroke:url(#Безымянный_градиент_3203);}.cls-48{stroke:url(#Безымянный_градиент_3202);}.cls-49{stroke:url(#Безымянный_градиент_3201);}.cls-50{stroke:url(#Безымянный_градиент_3200);}.cls-51{stroke:url(#Безымянный_градиент_3199);}.cls-52{stroke:url(#Безымянный_градиент_3198);}.cls-53{stroke:url(#Безымянный_градиент_3197);}.cls-54{stroke:url(#Безымянный_градиент_3196);}.cls-55{stroke:url(#Безымянный_градиент_3195);}.cls-56{stroke:url(#Безымянный_градиент_3194);}.cls-57{stroke:url(#Безымянный_градиент_3193);}.cls-58{stroke:url(#Безымянный_градиент_3192);}.cls-59{stroke:url(#Безымянный_градиент_3191);}.cls-60{stroke:url(#Безымянный_градиент_3190);}.cls-61{stroke:url(#Безымянный_градиент_3189);}.cls-62{stroke:url(#Безымянный_градиент_3188);}.cls-63{stroke:url(#Безымянный_градиент_3187);}.cls-64{stroke:url(#Безымянный_градиент_3186);}.cls-65{stroke:url(#Безымянный_градиент_3185);}.cls-66{stroke:url(#Безымянный_градиент_3184);}.cls-67{stroke:#fff;}</style><linearGradient id="Градієнт_без_назви_2" x1="-1163.12" y1="220.82" x2="-909.37" y2="220.82" gradientTransform="translate(-950.47 10.63) rotate(-159.79)" gradientUnits="userSpaceOnUse"><stop offset="0" stop-color="#7fb7e7"/><stop offset="0.5" stop-color="#8e6aaa"/><stop offset="1" stop-color="#d8b5d5"/></linearGradient><linearGradient id="Безымянный_градиент_3248" x1="-1182.85" y1="227.27" x2="-922.01" y2="227.27" gradientTransform="translate(-936.07 10.47) rotate(-159.48) scale(0.97)" gradientUnits="userSpaceOnUse"><stop offset="0" stop-color="#81b7e8"/><stop offset="0.5" stop-color="#8f6bab"/><stop offset="1" stop-color="#d9b6d6"/></linearGradient><linearGradient id="Безымянный_градиент_3247" x1="-1203.77" y1="234.34" x2="-935.33" y2="234.34" gradientTransform="translate(-921.67 10.31) rotate(-159.15) scale(0.94)" gradientUnits="userSpaceOnUse"><stop offset="0" stop-color="#82b8e8"/><stop offset="0.5" stop-color="#916cab"/><stop offset="1" stop-color="#d9b7d6"/></linearGradient><linearGradient id="Безымянный_градиент_3246" x1="-1225.98" y1="242.11" x2="-949.37" y2="242.11" gradientTransform="translate(-907.26 10.15) rotate(-158.8) scale(0.91)" gradientUnits="userSpaceOnUse"><stop offset="0" stop-color="#83b9e8"/><stop offset="0.5" stop-color="#926dac"/><stop offset="1" stop-color="#dab8d7"/></linearGradient><linearGradient id="Безымянный_градиент_3245" x1="-1249.6" y1="250.64" x2="-964.21" y2="250.64" gradientTransform="translate(-892.86 9.99) rotate(-158.43) scale(0.88)" gradientUnits="userSpaceOnUse"><stop offset="0" stop-color="#85bae9"/><stop offset="0.5" stop-color="#936eac"/><stop offset="1" stop-color="#dab9d7"/></linearGradient><linearGradient id="Безымянный_градиент_3244" x1="-1274.77" y1="260.06" x2="-979.9" y2="260.06" gradientTransform="translate(-878.46 9.83) rotate(-158.03) scale(0.85)" gradientUnits="userSpaceOnUse"><stop offset="0" stop-color="#86bae9"/><stop offset="0.5" stop-color="#9470ad"/><stop offset="1" stop-color="#dbbad8"/></linearGradient><linearGradient id="Безымянный_градиент_3243" x1="-1301.64" y1="270.48" x2="-996.5" y2="270.48" gradientTransform="translate(-864.06 9.66) rotate(-157.6) scale(0.82)" gradientUnits="userSpaceOnUse"><stop offset="0" stop-color="#88bbe9"/><stop offset="0.5" stop-color="#9571ae"/><stop offset="1" stop-color="#dbbbd8"/></linearGradient><linearGradient id="Безымянный_градиент_3242" x1="-1330.37" y1="282.06" x2="-1014.1" y2="282.06" gradientTransform="translate(-849.66 9.5) rotate(-157.15) scale(0.8)" gradientUnits="userSpaceOnUse"><stop offset="0" stop-color="#89bce9"/><stop offset="0.5" stop-color="#9672ae"/><stop offset="1" stop-color="#dcbcd9"/></linearGradient><linearGradient id="Безымянный_градиент_3241" x1="-1361.14" y1="294.95" x2="-1032.76" y2="294.95" gradientTransform="matrix(-0.7, -0.3, 0.3, -0.7, -835.26, 9.34)" gradientUnits="userSpaceOnUse"><stop offset="0" stop-color="#8bbdea"/><stop offset="0.5" stop-color="#9773af"/><stop offset="1" stop-color="#dcbdda"/></linearGradient><linearGradient id="Безымянный_градиент_3240" x1="-1394.18" y1="309.37" x2="-1052.57" y2="309.37" gradientTransform="translate(-820.86 9.18) rotate(-156.12) scale(0.74)" gradientUnits="userSpaceOnUse"><stop offset="0" stop-color="#8cbdea"/><stop offset="0.5" stop-color="#9974b0"/><stop offset="1" stop-color="#dcbeda"/></linearGradient><linearGradient id="Безымянный_градиент_3239" x1="-1429.71" y1="325.56" x2="-1073.62" y2="325.56" gradientTransform="translate(-806.46 9.02) rotate(-155.55) scale(0.71)" gradientUnits="userSpaceOnUse"><stop offset="0" stop-color="#8ebeea"/><stop offset="0.5" stop-color="#9a75b1"/><stop offset="1" stop-color="#ddbfdb"/></linearGradient><linearGradient id="Безымянный_градиент_3238" x1="-1468.01" y1="343.82" x2="-1096.01" y2="343.82" gradientTransform="translate(-792.06 8.86) rotate(-154.92) scale(0.68)" gradientUnits="userSpaceOnUse"><stop offset="0" stop-color="#8fbfeb"/><stop offset="0.5" stop-color="#9b77b1"/><stop offset="1" stop-color="#ddc0dc"/></linearGradient><linearGradient id="Безымянный_градиент_3237" x1="-1509.37" y1="364.51" x2="-1119.84" y2="364.51" gradientTransform="matrix(-0.59, -0.28, 0.28, -0.59, -777.66, 8.7)" gradientUnits="userSpaceOnUse"><stop offset="0" stop-color="#91c0eb"/><stop offset="0.5" stop-color="#9c78b2"/><stop offset="1" stop-color="#dec1dc"/></linearGradient><linearGradient id="Безымянный_градиент_3236" x1="-1554.15" y1="388.06" x2="-1145.19" y2="388.06" gradientTransform="matrix(-0.56, -0.28, 0.28, -0.56, -763.25, 8.54)" gradientUnits="userSpaceOnUse"><stop offset="0" stop-color="#93c1eb"/><stop offset="0.5" stop-color="#9e79b3"/><stop offset="1" stop-color="#dec2dd"/></linearGradient><linearGradient id="Безымянный_градиент_3235" x1="-1602.7" y1="414.99" x2="-1172.15" y2="414.99" gradientTransform="translate(-748.85 8.38) rotate(-152.69) scale(0.59)" gradientUnits="userSpaceOnUse"><stop offset="0" stop-color="#94c2ec"/><stop offset="0.5" stop-color="#9f7bb4"/><stop offset="1" stop-color="#dfc3dd"/></linearGradient><linearGradient id="Безымянный_градиент_3234" x1="-1655.47" y1="445.95" x2="-1200.82" y2="445.95" gradientTransform="translate(-734.45 8.21) rotate(-151.8) scale(0.56)" gradientUnits="userSpaceOnUse"><stop offset="0" stop-color="#96c2ec"/><stop offset="0.5" stop-color="#a07cb5"/><stop offset="1" stop-color="#dfc4de"/></linearGradient><linearGradient id="Безымянный_градиент_3233" x1="-1712.91" y1="481.77" x2="-1231.23" y2="481.77" gradientTransform="translate(-720.05 8.05) rotate(-150.81) scale(0.54)" gradientUnits="userSpaceOnUse"><stop offset="0" stop-color="#97c3ec"/><stop offset="0.5" stop-color="#a27eb6"/><stop offset="1" stop-color="#e0c5df"/></linearGradient><linearGradient id="Безымянный_градиент_3232" x1="-1775.53" y1="523.45" x2="-1263.39" y2="523.45" gradientTransform="translate(-705.65 7.89) rotate(-149.71) scale(0.51)" gradientUnits="userSpaceOnUse"><stop offset="0" stop-color="#99c4ed"/><stop offset="0.5" stop-color="#a37fb7"/><stop offset="1" stop-color="#e1c6df"/></linearGradient><linearGradient id="Безымянный_градиент_3231" x1="-1843.86" y1="572.24" x2="-1297.22" y2="572.24" gradientTransform="translate(-691.25 7.73) rotate(-148.48) scale(0.48)" gradientUnits="userSpaceOnUse"><stop offset="0" stop-color="#9bc5ed"/><stop offset="0.5" stop-color="#a481b8"/><stop offset="1" stop-color="#e1c7e0"/></linearGradient><linearGradient id="Безымянный_градиент_3230" x1="-1918.42" y1="629.73" x2="-1332.52" y2="629.73" gradientTransform="translate(-676.85 7.57) rotate(-147.1) scale(0.45)" gradientUnits="userSpaceOnUse"><stop offset="0" stop-color="#9dc6ed"/><stop offset="0.5" stop-color="#a683b9"/><stop offset="1" stop-color="#e2c8e0"/></linearGradient><linearGradient id="Безымянный_градиент_3229" x1="-1999.66" y1="697.93" x2="-1368.87" y2="697.93" gradientTransform="matrix(-0.35, -0.24, 0.24, -0.35, -662.45, 7.41)" gradientUnits="userSpaceOnUse"><stop offset="0" stop-color="#9ec7ee"/><stop offset="0.5" stop-color="#a784ba"/><stop offset="1" stop-color="#e2c9e1"/></linearGradient><linearGradient id="Безымянный_градиент_3228" x1="-2087.91" y1="779.36" x2="-1405.53" y2="779.36" gradientTransform="translate(-648.05 7.25) rotate(-143.78) scale(0.4)" gradientUnits="userSpaceOnUse"><stop offset="0" stop-color="#a0c8ee"/><stop offset="0.5" stop-color="#a886bb"/><stop offset="1" stop-color="#e3cae2"/></linearGradient><linearGradient id="Безымянный_градиент_3227" x1="-2183.13" y1="877.23" x2="-1441.24" y2="877.23" gradientTransform="translate(-633.65 7.09) rotate(-141.76) scale(0.37)" gradientUnits="userSpaceOnUse"><stop offset="0" stop-color="#a2c9ee"/><stop offset="0.5" stop-color="#aa88bc"/><stop offset="1" stop-color="#e3cbe2"/></linearGradient><linearGradient id="Безымянный_градиент_3226" x1="-2284.65" y1="995.55" x2="-1473.92" y2="995.55" gradientTransform="matrix(-0.26, -0.23, 0.23, -0.26, -619.24, 6.93)" gradientUnits="userSpaceOnUse"><stop offset="0" stop-color="#a4caef"/><stop offset="0.5" stop-color="#ab8abd"/><stop offset="1" stop-color="#e4cce3"/></linearGradient><linearGradient id="Безымянный_градиент_3225" x1="-2390.62" y1="1139.27" x2="-1500.2" y2="1139.27" gradientTransform="translate(-604.84 6.77) rotate(-136.73) scale(0.32)" gradientUnits="userSpaceOnUse"><stop offset="0" stop-color="#a6cbef"/><stop offset="0.5" stop-color="#ad8bbe"/><stop offset="1" stop-color="#e4cde3"/></linearGradient><linearGradient id="Безымянный_градиент_3224" x1="-2497.2" y1="1314.24" x2="-1514.81" y2="1314.24" gradientTransform="translate(-590.44 6.6) rotate(-133.57) scale(0.3)" gradientUnits="userSpaceOnUse"><stop offset="0" stop-color="#a8ccef"/><stop offset="0.5" stop-color="#ae8dbf"/><stop offset="1" stop-color="#e5cee4"/></linearGradient><linearGradient id="Безымянный_градиент_3223" x1="-2597.08" y1="1526.76" x2="-1509.57" y2="1526.76" gradientTransform="matrix(-0.17, -0.21, 0.21, -0.17, -576.04, 6.44)" gradientUnits="userSpaceOnUse"><stop offset="0" stop-color="#aacdf0"/><stop offset="0.5" stop-color="#b08fc0"/><stop offset="1" stop-color="#e5cfe5"/></linearGradient><linearGradient id="Безымянный_градиент_3222" x1="-2677.51" y1="1782.38" x2="-1472.28" y2="1782.38" gradientTransform="translate(-561.64 6.28) rotate(-125.46) scale(0.25)" gradientUnits="userSpaceOnUse"><stop offset="0" stop-color="#accef0"/><stop offset="0.5" stop-color="#b191c2"/><stop offset="1" stop-color="#e6d0e5"/></linearGradient><linearGradient id="Безымянный_градиент_3221" x1="-2717.67" y1="2083.73" x2="-1385.71" y2="2083.73" gradientTransform="translate(-547.24 6.12) rotate(-120.26) scale(0.23)" gradientUnits="userSpaceOnUse"><stop offset="0" stop-color="#adcff0"/><stop offset="0.5" stop-color="#b393c3"/><stop offset="1" stop-color="#e6d1e6"/></linearGradient><linearGradient id="Безымянный_градиент_3220" x1="-2686.53" y1="2425.33" x2="-1228" y2="2425.33" gradientTransform="translate(-532.84 5.96) rotate(-114.11) scale(0.21)" gradientUnits="userSpaceOnUse"><stop offset="0" stop-color="#afd0f1"/><stop offset="0.5" stop-color="#b495c4"/><stop offset="1" stop-color="#e7d2e7"/></linearGradient><linearGradient id="Безымянный_градиент_3219" x1="-2544.24" y1="2783.7" x2="-976.78" y2="2783.7" gradientTransform="matrix(-0.06, -0.19, 0.19, -0.06, -518.44, 5.8)" gradientUnits="userSpaceOnUse"><stop offset="0" stop-color="#b1d1f1"/><stop offset="0.5" stop-color="#b697c5"/><stop offset="1" stop-color="#e7d4e7"/></linearGradient><linearGradient id="Безымянный_градиент_3218" x1="-2252.42" y1="3110.55" x2="-620.24" y2="3110.55" gradientTransform="translate(-504.04 5.64) rotate(-98.67) scale(0.19)" gradientUnits="userSpaceOnUse"><stop offset="0" stop-color="#b3d2f2"/><stop offset="0.5" stop-color="#b799c7"/><stop offset="1" stop-color="#e8d5e8"/></linearGradient><linearGradient id="Безымянный_градиент_3217" x1="-1797.27" y1="3326.86" x2="-174.09" y2="3326.86" gradientTransform="matrix(0, -0.18, 0.18, 0, -489.63, 5.48)" gradientUnits="userSpaceOnUse"><stop offset="0" stop-color="#b5d3f2"/><stop offset="0.5" stop-color="#b99cc8"/><stop offset="1" stop-color="#e8d6e8"/></linearGradient><linearGradient id="Безымянный_градиент_3216" x1="-1217.63" y1="3329.7" x2="326.74" y2="3329.7" gradientTransform="matrix(0.03, -0.17, 0.17, 0.03, -475.23, 5.32)" gradientUnits="userSpaceOnUse"><stop offset="0" stop-color="#b7d5f2"/><stop offset="0.5" stop-color="#bb9ec9"/><stop offset="1" stop-color="#e9d7e9"/></linearGradient><linearGradient id="Безымянный_градиент_3215" x1="-613" y1="3234.79" x2="824.41" y2="3234.79" gradientTransform="translate(-460.83 5.15) rotate(-70.24) scale(0.18)" gradientUnits="userSpaceOnUse"><stop offset="0" stop-color="#b9d6f3"/><stop offset="0.5" stop-color="#bca0cb"/><stop offset="1" stop-color="#ead8ea"/></linearGradient><linearGradient id="Безымянный_градиент_3214" x1="-81.71" y1="2988.09" x2="1231.83" y2="2988.09" gradientTransform="matrix(0.09, -0.16, 0.16, 0.09, -446.43, 4.99)" gradientUnits="userSpaceOnUse"><stop offset="0" stop-color="#bbd7f3"/><stop offset="0.5" stop-color="#bea2cc"/><stop offset="1" stop-color="#ead9ea"/></linearGradient><linearGradient id="Безымянный_градиент_3213" x1="321.73" y1="2654.89" x2="1496.59" y2="2654.89" gradientTransform="translate(-432.03 4.83) rotate(-52.87) scale(0.2)" gradientUnits="userSpaceOnUse"><stop offset="0" stop-color="#bdd8f3"/><stop offset="0.5" stop-color="#bfa5ce"/><stop offset="1" stop-color="#ebdaeb"/></linearGradient><linearGradient id="Безымянный_градиент_3212" x1="588.49" y1="2300.33" x2="1624.59" y2="2300.33" gradientTransform="translate(-417.63 4.67) rotate(-45.68) scale(0.21)" gradientUnits="userSpaceOnUse"><stop offset="0" stop-color="#bfd9f4"/><stop offset="0.5" stop-color="#c1a7cf"/><stop offset="1" stop-color="#ebdbec"/></linearGradient><linearGradient id="Безымянный_градиент_3211" x1="741" y1="1967.64" x2="1649.46" y2="1967.64" gradientTransform="matrix(0.18, -0.15, 0.15, 0.18, -403.23, 4.51)" gradientUnits="userSpaceOnUse"><stop offset="0" stop-color="#c1daf4"/><stop offset="0.5" stop-color="#c3aad1"/><stop offset="1" stop-color="#ecdcec"/></linearGradient><linearGradient id="Безымянный_градиент_3210" x1="811.12" y1="1676.73" x2="1607.81" y2="1676.73" gradientTransform="translate(-388.83 4.35) rotate(-34.33) scale(0.25)" gradientUnits="userSpaceOnUse"><stop offset="0" stop-color="#c3dbf4"/><stop offset="0.5" stop-color="#c5acd2"/><stop offset="1" stop-color="#ecdded"/></linearGradient><linearGradient id="Безымянный_градиент_3209" x1="827.43" y1="1431.98" x2="1528.56" y2="1431.98" gradientTransform="translate(-374.43 4.19) rotate(-29.93) scale(0.27)" gradientUnits="userSpaceOnUse"><stop offset="0" stop-color="#c5dcf5"/><stop offset="0.5" stop-color="#c6afd4"/><stop offset="1" stop-color="#eddeed"/></linearGradient><linearGradient id="Безымянный_градиент_3208" x1="810.67" y1="1230.03" x2="1431.34" y2="1230.03" gradientTransform="matrix(0.27, -0.13, 0.13, 0.27, -360.03, 4.03)" gradientUnits="userSpaceOnUse"><stop offset="0" stop-color="#c7def5"/><stop offset="0.5" stop-color="#c8b1d5"/><stop offset="1" stop-color="#ede0ee"/></linearGradient><linearGradient id="Безымянный_градиент_3207" x1="773.83" y1="1064.7" x2="1328.09" y2="1064.7" gradientTransform="translate(-345.62 3.87) rotate(-23.06) scale(0.32)" gradientUnits="userSpaceOnUse"><stop offset="0" stop-color="#c9dff5"/><stop offset="0.5" stop-color="#cab4d7"/><stop offset="1" stop-color="#eee1ef"/></linearGradient><linearGradient id="Безымянный_градиент_3206" x1="726.51" y1="929.48" x2="1225.6" y2="929.48" gradientTransform="translate(-331.22 3.7) rotate(-20.36) scale(0.35)" gradientUnits="userSpaceOnUse"><stop offset="0" stop-color="#cbe0f6"/><stop offset="0.5" stop-color="#ccb6d8"/><stop offset="1" stop-color="#efe2ef"/></linearGradient><linearGradient id="Безымянный_градиент_3205" x1="675.02" y1="818.56" x2="1127.48" y2="818.56" gradientTransform="translate(-316.82 3.54) rotate(-18.03) scale(0.37)" gradientUnits="userSpaceOnUse"><stop offset="0" stop-color="#cde1f6"/><stop offset="0.5" stop-color="#ceb9da"/><stop offset="1" stop-color="#efe3f0"/></linearGradient><linearGradient id="Безымянный_градиент_3204" x1="622.66" y1="727.09" x2="1035.45" y2="727.09" gradientTransform="matrix(0.38, -0.11, 0.11, 0.38, -302.42, 3.38)" gradientUnits="userSpaceOnUse"><stop offset="0" stop-color="#cfe2f7"/><stop offset="0.5" stop-color="#cfbcdb"/><stop offset="1" stop-color="#f0e4f1"/></linearGradient><linearGradient id="Безымянный_градиент_3203" x1="571.31" y1="651.18" x2="950.11" y2="651.18" gradientTransform="translate(-288.02 3.22) rotate(-14.24) scale(0.43)" gradientUnits="userSpaceOnUse"><stop offset="0" stop-color="#d1e3f7"/><stop offset="0.5" stop-color="#d1bfdd"/><stop offset="1" stop-color="#f0e5f1"/></linearGradient><linearGradient id="Безымянный_градиент_3202" x1="522.02" y1="587.74" x2="871.5" y2="587.74" gradientTransform="translate(-273.62 3.06) rotate(-12.68) scale(0.45)" gradientUnits="userSpaceOnUse"><stop offset="0" stop-color="#d4e5f7"/><stop offset="0.5" stop-color="#d3c1de"/><stop offset="1" stop-color="#f1e6f2"/></linearGradient><linearGradient id="Безымянный_градиент_3201" x1="475.29" y1="534.35" x2="799.34" y2="534.35" gradientTransform="matrix(0.47, -0.09, 0.09, 0.47, -259.22, 2.9)" gradientUnits="userSpaceOnUse"><stop offset="0" stop-color="#d6e6f8"/><stop offset="0.5" stop-color="#d5c4e0"/><stop offset="1" stop-color="#f2e8f3"/></linearGradient><linearGradient id="Безымянный_градиент_3200" x1="431.34" y1="489.1" x2="733.15" y2="489.1" gradientTransform="translate(-244.82 2.74) rotate(-10.08) scale(0.51)" gradientUnits="userSpaceOnUse"><stop offset="0" stop-color="#d8e7f8"/><stop offset="0.5" stop-color="#d7c7e2"/><stop offset="1" stop-color="#f2e9f3"/></linearGradient><linearGradient id="Безымянный_градиент_3199" x1="390.19" y1="450.49" x2="672.45" y2="450.49" gradientTransform="translate(-230.42 2.58) rotate(-8.98) scale(0.54)" gradientUnits="userSpaceOnUse"><stop offset="0" stop-color="#dae8f8"/><stop offset="0.5" stop-color="#d9cae3"/><stop offset="1" stop-color="#f3eaf4"/></linearGradient><linearGradient id="Безымянный_градиент_3198" x1="351.77" y1="417.33" x2="616.74" y2="417.33" gradientTransform="matrix(0.56, -0.08, 0.08, 0.56, -216.02, 2.42)" gradientUnits="userSpaceOnUse"><stop offset="0" stop-color="#dce9f9"/><stop offset="0.5" stop-color="#dbcde5"/><stop offset="1" stop-color="#f4ebf4"/></linearGradient><linearGradient id="Безымянный_градиент_3197" x1="315.94" y1="388.68" x2="565.53" y2="388.68" gradientTransform="translate(-201.61 2.26) rotate(-7.1) scale(0.59)" gradientUnits="userSpaceOnUse"><stop offset="0" stop-color="#deebf9"/><stop offset="0.5" stop-color="#ddd0e7"/><stop offset="1" stop-color="#f4ecf5"/></linearGradient><linearGradient id="Безымянный_градиент_3196" x1="282.53" y1="363.52" x2="518.38" y2="363.52" gradientTransform="translate(-187.21 2.09) rotate(-6.28) scale(0.62)" gradientUnits="userSpaceOnUse"><stop offset="0" stop-color="#e0ecf9"/><stop offset="0.5" stop-color="#dfd3e8"/><stop offset="1" stop-color="#f5edf6"/></linearGradient><linearGradient id="Безымянный_градиент_3195" x1="251.37" y1="341.32" x2="474.89" y2="341.32" gradientTransform="translate(-172.81 1.93) rotate(-5.54) scale(0.65)" gradientUnits="userSpaceOnUse"><stop offset="0" stop-color="#e2edfa"/><stop offset="0.5" stop-color="#e1d6ea"/><stop offset="1" stop-color="#f5eef6"/></linearGradient><linearGradient id="Безымянный_градиент_3194" x1="222.29" y1="321.76" x2="434.69" y2="321.76" gradientTransform="matrix(0.68, -0.06, 0.06, 0.68, -158.41, 1.77)" gradientUnits="userSpaceOnUse"><stop offset="0" stop-color="#e4effa"/><stop offset="0.5" stop-color="#e3d9eb"/><stop offset="1" stop-color="#f6f0f7"/></linearGradient><linearGradient id="Безымянный_градиент_3193" x1="195.12" y1="304.45" x2="397.45" y2="304.45" gradientTransform="matrix(0.71, -0.05, 0.05, 0.71, -144.01, 1.61)" gradientUnits="userSpaceOnUse"><stop offset="0" stop-color="#e7f0fb"/><stop offset="0.5" stop-color="#e6dced"/><stop offset="1" stop-color="#f7f1f7"/></linearGradient><linearGradient id="Безымянный_градиент_3192" x1="169.72" y1="289.07" x2="362.89" y2="289.07" gradientTransform="matrix(0.74, -0.05, 0.05, 0.74, -129.61, 1.45)" gradientUnits="userSpaceOnUse"><stop offset="0" stop-color="#e9f1fb"/><stop offset="0.5" stop-color="#e8dfef"/><stop offset="1" stop-color="#f8f2f8"/></linearGradient><linearGradient id="Безымянный_градиент_3191" x1="145.93" y1="275.36" x2="330.74" y2="275.36" gradientTransform="translate(-115.21 1.29) rotate(-3.13) scale(0.77)" gradientUnits="userSpaceOnUse"><stop offset="0" stop-color="#ebf3fb"/><stop offset="0.5" stop-color="#eae2f0"/><stop offset="1" stop-color="#f8f3f9"/></linearGradient><linearGradient id="Безымянный_градиент_3190" x1="123.62" y1="263.1" x2="300.78" y2="263.1" gradientTransform="translate(-100.81 1.13) rotate(-2.64) scale(0.8)" gradientUnits="userSpaceOnUse"><stop offset="0" stop-color="#edf4fc"/><stop offset="0.5" stop-color="#ece5f2"/><stop offset="1" stop-color="#f9f4f9"/></linearGradient><linearGradient id="Безымянный_градиент_3189" x1="102.67" y1="252.07" x2="272.81" y2="252.07" gradientTransform="matrix(0.82, -0.03, 0.03, 0.82, -86.41, 0.97)" gradientUnits="userSpaceOnUse"><stop offset="0" stop-color="#eff5fc"/><stop offset="0.5" stop-color="#eee8f4"/><stop offset="1" stop-color="#faf6fa"/></linearGradient><linearGradient id="Безымянный_градиент_3188" x1="82.96" y1="242.14" x2="246.65" y2="242.14" gradientTransform="translate(-72.01 0.81) rotate(-1.76) scale(0.85)" gradientUnits="userSpaceOnUse"><stop offset="0" stop-color="#f1f7fd"/><stop offset="0.5" stop-color="#f1ecf5"/><stop offset="1" stop-color="#faf7fb"/></linearGradient><linearGradient id="Безымянный_градиент_3187" x1="64.41" y1="233.15" x2="222.12" y2="233.15" gradientTransform="translate(-57.6 0.64) rotate(-1.36) scale(0.88)" gradientUnits="userSpaceOnUse"><stop offset="0" stop-color="#f4f8fd"/><stop offset="0.5" stop-color="#f3eff7"/><stop offset="1" stop-color="#fbf8fc"/></linearGradient><linearGradient id="Безымянный_градиент_3186" x1="46.92" y1="225" x2="199.1" y2="225" gradientTransform="translate(-43.2 0.48) rotate(-0.99) scale(0.91)" gradientUnits="userSpaceOnUse"><stop offset="0" stop-color="#f6fafd"/><stop offset="0.5" stop-color="#f5f2f9"/><stop offset="1" stop-color="#fcfafc"/></linearGradient><linearGradient id="Безымянный_градиент_3185" x1="30.4" y1="217.58" x2="177.45" y2="217.58" gradientTransform="translate(-28.8 0.32) rotate(-0.64) scale(0.94)" gradientUnits="userSpaceOnUse"><stop offset="0" stop-color="#f9fbfe"/><stop offset="0.5" stop-color="#f8f6fb"/><stop offset="1" stop-color="#fdfbfd"/></linearGradient><linearGradient id="Безымянный_градиент_3184" x1="14.79" y1="210.77" x2="157.06" y2="210.77" gradientTransform="translate(-14.4 0.16) rotate(-0.31) scale(0.97)" gradientUnits="userSpaceOnUse"><stop offset="0" stop-color="#fbfdfe"/><stop offset="0.5" stop-color="#fbfafd"/><stop offset="1" stop-color="#fefdfe"/></linearGradient></defs><g id="Слой_2" data-name="Слой 2"><g id="Слой_5" data-name="Слой 5"><path class="cls-1" d="M173,325.67a106,106,0,0,1-46.78-13.43,110.82,110.82,0,0,1-31.8-27.61c-8.85-11.21-18.83-23.57-19.51-41.74a54.31,54.31,0,0,1,5.92-27.84c6.77-12.84,17.34-19.07,29.8-26.25,11.47-6.6,13-5.3,33.35-14.29,20.6-9.1,31.07-13.83,39.41-22.52,4.09-4.26,13.86-14.43,16.25-29.46,3.26-20.48-9.48-37.21-17.55-48.51-7.89-11-22.8-26.66-60.57-44.55A341.76,341.76,0,0,0,22.48.12"/><path class="cls-2" d="M171.78,325.82a105.86,105.86,0,0,1-46.54-13.36,110.26,110.26,0,0,1-31.68-27.4C84.73,273.93,74.9,261.65,74,243.62a54.71,54.71,0,0,1,5.55-28.3c6.63-12.94,17.16-19.27,29.51-26.48a73.82,73.82,0,0,1,10.26-5.17c5-2,10.34-3.72,22.94-9.37,20.44-9.1,31-13.91,39.44-22.57a71.11,71.11,0,0,0,9.74-11.95,47.06,47.06,0,0,0,6.81-17.15,43.68,43.68,0,0,0-1.57-20.92c-3.46-11-10.3-20.29-15.38-27.43-7.94-11.17-23-26.53-60.37-44.14A341.43,341.43,0,0,0,23,1.39"/><path class="cls-3" d="M170.6,326a106,106,0,0,1-46.29-13.28,109.8,109.8,0,0,1-31.57-27.2c-8.81-11.05-18.5-23.26-19.57-41.14-.26-4.39-1.11-16.14,5.18-28.76,6.49-13,17-19.43,29.22-26.7a73.43,73.43,0,0,1,10.2-5.26c4.88-2,10.28-3.85,22.85-9.53,20.26-9.15,30.85-14,39.47-22.62a72.54,72.54,0,0,0,9.84-11.83,47.2,47.2,0,0,0,7-16.91A43,43,0,0,0,195.72,102c-3.28-10.93-10.05-20.33-15.14-27.5-8-11.28-23.23-26.5-60.16-43.72a338.65,338.65,0,0,0-97-28.15"/><path class="cls-4" d="M169.43,326.11a106.5,106.5,0,0,1-46.06-13.2,109.36,109.36,0,0,1-31.45-27c-8.79-11-18.35-23.1-19.59-40.85-.31-4.42-1.44-16.34,4.79-29.2,6.36-13.13,16.85-19.62,28.94-26.94a74.2,74.2,0,0,1,10.14-5.35c4.82-2,10.22-4,22.77-9.69,20.08-9.17,30.73-14.09,39.49-22.66a73,73,0,0,0,9.93-11.72,46.84,46.84,0,0,0,7.22-16.66,42.11,42.11,0,0,0-.88-20.5c-3.1-10.89-9.79-20.37-14.89-27.57-8-11.4-23.45-26.42-59.94-43.29-21.23-9.82-53.68-21.8-96-27.56"/><path class="cls-5" d="M168.25,326.26a106.55,106.55,0,0,1-45.81-13.13,108.7,108.7,0,0,1-31.33-26.78c-8.78-10.88-18.21-23-19.63-40.55-.36-4.47-1.76-16.54,4.42-29.66s16.68-19.8,28.65-27.17a74.19,74.19,0,0,1,10.08-5.43c4.75-2,10.16-4.07,22.68-9.85,19.91-9.2,30.62-14.19,39.52-22.72a75.12,75.12,0,0,0,10-11.59A47.1,47.1,0,0,0,194.28,123a41.5,41.5,0,0,0-.53-20.29c-2.93-10.86-9.55-20.4-14.64-27.64C171,63.52,155.44,48.7,119.37,32.16c-21.12-9.69-53.25-21.35-95-27"/><path class="cls-6" d="M167.08,326.41a107,107,0,0,1-45.58-13.06,108.14,108.14,0,0,1-31.21-26.57C81.54,276,72.22,264,70.64,246.53c-.41-4.51-2.09-16.74,4-30.12s16.51-20,28.36-27.4a73.68,73.68,0,0,1,10-5.51c4.69-2,10.1-4.18,22.59-10,19.74-9.22,30.5-14.29,39.55-22.76a77.63,77.63,0,0,0,10.13-11.47A47.22,47.22,0,0,0,193,123.06a40.63,40.63,0,0,0-.19-20.07c-2.75-10.83-9.29-20.44-14.39-27.71C170.26,63.66,154.48,49,118.84,32.83c-21-9.55-52.83-20.9-94-26.37"/><path class="cls-7" d="M165.9,326.55a106.88,106.88,0,0,1-45.33-13,108.52,108.52,0,0,1-31.1-26.36c-8.71-10.74-17.93-22.65-19.68-39.95-.46-4.56-2.41-16.94,3.67-30.58,6-13.39,16.34-20.16,28.07-27.63a71.57,71.57,0,0,1,10-5.59c4.62-2,10-4.29,22.51-10.18,19.56-9.25,30.38-14.38,39.57-22.82a77.46,77.46,0,0,0,10.22-11.34,47.26,47.26,0,0,0,7.82-16,39.91,39.91,0,0,0,.17-19.86c-2.58-10.79-9-20.48-14.14-27.78-8.16-11.73-24.11-26.16-59.32-42-20.91-9.42-52.41-20.45-93-25.77"/><path class="cls-8" d="M164.72,326.7a107.17,107.17,0,0,1-45.09-12.91,108.31,108.31,0,0,1-31-26.15C80,277,70.85,265.14,69,248c-.52-4.6-2.74-17.14,3.29-31,5.83-13.47,16.18-20.34,27.78-27.86a71.16,71.16,0,0,1,9.9-5.67c4.56-2,10-4.41,22.42-10.35,19.39-9.26,30.27-14.47,39.6-22.86A80,80,0,0,0,182.26,139a47.41,47.41,0,0,0,8-15.7,39.09,39.09,0,0,0,.51-19.65C188.38,92.88,182,83.12,176.9,75.78c-8.19-11.85-24.33-26.07-59.11-41.61-20.8-9.29-52-20-92-25.17"/><path class="cls-9" d="M163.55,326.85a104.22,104.22,0,0,1-75.71-38.78c-8.67-10.58-17.68-22.35-19.74-39.35-.56-4.65-3-17.34,2.92-31.5,5.71-13.55,16-20.52,27.49-28.08a70.44,70.44,0,0,1,9.84-5.76c4.49-2,9.93-4.52,22.33-10.51,19.23-9.29,30.16-14.57,39.62-22.91a81.94,81.94,0,0,0,10.43-11.11A47.54,47.54,0,0,0,189,123.38a38.45,38.45,0,0,0,.86-19.43C187.57,93.23,181.28,83.4,176.16,76c-8.23-12-24.55-26-58.9-41.18-20.69-9.16-51.56-19.56-91-24.58"/><path class="cls-10" d="M162.37,327A104.2,104.2,0,0,1,87,288.5c-8.64-10.5-17.56-22.2-19.77-39.05-.61-4.7-3.37-17.54,2.54-32,5.59-13.63,15.85-20.7,27.21-28.31a71.34,71.34,0,0,1,9.78-5.85c4.42-2,9.87-4.62,22.25-10.67,19.05-9.3,30-14.65,39.64-23a83.37,83.37,0,0,0,10.52-11,47.83,47.83,0,0,0,8.43-15.23,37.65,37.65,0,0,0,1.2-19.22c-2.06-10.68-8.27-20.59-13.39-28-8.28-12.07-24.77-25.89-58.69-40.76-20.59-9-51.15-19.11-90-24"/><path class="cls-11" d="M161.2,327.14a104.08,104.08,0,0,1-75-38.21c-8.62-10.42-17.44-22.05-19.79-38.75-.67-4.75-3.69-17.73,2.16-32.42,5.47-13.71,15.68-20.88,26.92-28.54a70.44,70.44,0,0,1,9.72-5.93c4.36-2,9.81-4.73,22.16-10.83,18.88-9.33,29.93-14.75,39.67-23a84.66,84.66,0,0,0,10.62-10.87,48.22,48.22,0,0,0,8.63-15,37.06,37.06,0,0,0,1.55-19C186,94,179.82,84,174.69,76.53c-8.32-12.19-25-25.79-58.48-40.34-20.48-8.9-50.73-18.66-89-23.38"/><path class="cls-12" d="M160,327.29a107.63,107.63,0,0,1-44.13-12.62,106.51,106.51,0,0,1-30.51-25.31C76.79,279,68.05,267.45,65.56,250.91c-.72-4.8-4-17.93,1.79-32.88C72.7,204.24,82.86,197,94,189.26a71.18,71.18,0,0,1,9.66-6c4.29-2,9.75-4.85,22.07-11,18.71-9.34,29.82-14.84,39.7-23.06a87.09,87.09,0,0,0,10.72-10.74A48.68,48.68,0,0,0,185,123.71a36.28,36.28,0,0,0,1.89-18.8C185.13,94.3,179.07,84.26,174,76.78c-8.39-12.28-25.22-25.7-58.28-39.92C95.31,28.1,65.38,18.65,27.62,14.07"/><path class="cls-13" d="M158.85,327.44A108,108,0,0,1,115,314.89a106,106,0,0,1-30.38-25.1C76,279.53,67.34,268,64.72,251.64c-.78-4.84-4.33-18.12,1.41-33.34,5.23-13.87,15.34-21.25,26.34-29a70.33,70.33,0,0,1,9.6-6.09c4.23-2,9.69-5,22-11.17,18.53-9.36,29.7-14.92,39.72-23.1a89.35,89.35,0,0,0,10.81-10.62,49.18,49.18,0,0,0,9-14.51,35.57,35.57,0,0,0,2.24-18.58c-1.55-10.57-7.53-20.69-12.65-28.2-8.43-12.39-25.45-25.6-58.06-39.49C94.89,28.9,65.27,19.77,28.09,15.34"/><path class="cls-14" d="M157.67,327.58A108,108,0,0,1,114,315.12a106,106,0,0,1-30.27-24.9C75.2,280,66.63,268.61,63.87,252.36c-.83-4.88-4.64-18.3,1-33.79C70,204.62,80.08,197.14,91,189.34a70.14,70.14,0,0,1,9.54-6.17c4.16-2,9.63-5.07,21.9-11.33,18.37-9.38,29.59-15,39.75-23.15a94.26,94.26,0,0,0,10.91-10.5,49.61,49.61,0,0,0,9.23-14.27,34.69,34.69,0,0,0,2.59-18.36C183.51,95,177.6,84.83,172.49,77.28c-8.48-12.5-25.68-25.51-57.86-39.07-20.16-8.5-49.46-17.32-86.07-21.6"/><path class="cls-15" d="M156.49,327.73a108.16,108.16,0,0,1-43.41-12.39,105.65,105.65,0,0,1-30.15-24.69c-8.53-10.1-17-21.46-19.91-37.56-.88-4.93-5-18.5.66-34.25,5-14,15-21.62,25.77-29.45a68.64,68.64,0,0,1,9.48-6.26c4.1-2,9.58-5.18,21.81-11.5,18.2-9.39,29.48-15.11,39.78-23.2a95.36,95.36,0,0,0,11-10.38A50.2,50.2,0,0,0,181,124a34.16,34.16,0,0,0,2.94-18.15c-1.21-10.5-7-20.77-12.15-28.35-8.52-12.62-25.9-25.41-57.64-38.65C94,30.51,65.06,22,29,17.88"/><path class="cls-16" d="M155.32,327.88a108.32,108.32,0,0,1-43.17-12.32,105.27,105.27,0,0,1-30-24.48c-8.51-10-16.92-21.32-19.93-37.26-.94-5-5.27-18.69.28-34.71,4.89-14.1,14.85-21.8,25.48-29.68a69.07,69.07,0,0,1,9.42-6.35c4-2,9.52-5.28,21.73-11.65,18-9.41,29.36-15.2,39.8-23.25A99.57,99.57,0,0,0,170,137.92a51.31,51.31,0,0,0,9.64-13.78c2.75-6.07,3.91-11.57,3.28-17.94-1-10.46-6.77-20.81-11.9-28.42-8.56-12.73-26.12-25.31-57.43-38.23-20-8.23-48.62-16.42-84.09-20.4"/><path class="cls-17" d="M154.14,328a108.57,108.57,0,0,1-42.93-12.25A104.91,104.91,0,0,1,81.3,291.51c-8.49-9.94-16.83-21.17-20-37-1-5-5.57-18.88-.09-35.16,4.77-14.18,14.68-22,25.19-29.92,3.94-3,6.62-5,9.36-6.43,4-2,9.46-5.39,21.64-11.82,17.86-9.42,29.25-15.29,39.83-23.29a103.28,103.28,0,0,0,11.2-10.14,52.27,52.27,0,0,0,9.84-13.55c2.86-6,4.16-11.35,3.63-17.72-.87-10.42-6.52-20.84-11.65-28.49-8.61-12.84-26.36-25.21-57.23-37.81-19.85-8.1-48.2-16-83.09-19.8"/><path class="cls-18" d="M153,328.17A108.6,108.6,0,0,1,110.27,316a104.51,104.51,0,0,1-29.79-24.06c-8.47-9.86-16.74-21-20-36.66-1.06-5.08-5.89-19.07-.47-35.62,4.66-14.26,14.51-22.19,24.91-30.15,3.9-3,6.57-5.1,9.29-6.51,3.9-2,9.4-5.5,21.55-12,17.69-9.44,29.14-15.38,39.86-23.35a105.1,105.1,0,0,0,11.3-10,53,53,0,0,0,10-13.3c3-5.87,4.4-11.14,4-17.51-.69-10.38-6.27-20.88-11.4-28.56-8.65-13-26.59-25.1-57-37.38-19.76-8-47.79-15.53-82.1-19.22"/><path class="cls-19" d="M151.79,328.32a108.75,108.75,0,0,1-42.45-12.1,104.12,104.12,0,0,1-29.68-23.85c-8.44-9.78-16.66-20.88-20-36.36-1.11-5.13-6.19-19.26-.84-36.08,4.55-14.33,14.34-22.37,24.62-30.38,3.88-3,6.52-5.17,9.23-6.59,3.84-2,9.34-5.61,21.47-12.15,17.51-9.45,29-15.47,39.88-23.39a110.94,110.94,0,0,0,11.39-9.9,54.44,54.44,0,0,0,10.25-13.06c3.07-5.78,4.64-10.94,4.32-17.3-.53-10.34-6-20.92-11.15-28.63-8.7-13.06-26.82-25-56.81-37C92.35,33.73,64.64,26.49,30.9,23"/><path class="cls-20" d="M150.61,328.47a109,109,0,0,1-42.21-12A104.08,104.08,0,0,1,78.84,292.8c-8.42-9.7-16.57-20.73-20.05-36.06-1.17-5.18-6.5-19.45-1.22-36.54,4.45-14.4,14.18-22.56,24.34-30.61,3.85-3.05,6.48-5.24,9.17-6.67,3.77-2,9.28-5.72,21.38-12.31,17.35-9.47,28.91-15.56,39.91-23.45a114.43,114.43,0,0,0,11.49-9.77,55.91,55.91,0,0,0,10.45-12.83c3.18-5.68,4.88-10.72,4.66-17.08-.36-10.3-5.76-21-10.9-28.7-8.74-13.18-27-24.89-56.6-36.54-19.55-7.7-46.94-14.63-80.11-18"/><path class="cls-21" d="M149.44,328.62a109,109,0,0,1-42-12A103.5,103.5,0,0,1,78,293.23c-8.4-9.62-16.5-20.58-20.08-35.76-1.23-5.23-6.81-19.63-1.6-37,4.34-14.47,14-22.75,24.05-30.84,3.83-3.08,6.44-5.31,9.11-6.76,3.71-2,9.23-5.81,21.29-12.47,17.18-9.47,28.81-15.65,39.93-23.49a120.33,120.33,0,0,0,11.6-9.65A57.23,57.23,0,0,0,173,124.67c3.29-5.59,5.12-10.51,5-16.87-.19-10.26-5.51-21-10.66-28.77C158.55,65.74,140.05,54.24,111,42.91,91.5,35.34,64.43,28.73,31.83,25.49"/><path class="cls-22" d="M148.26,328.76a109.05,109.05,0,0,1-41.73-11.88,103.31,103.31,0,0,1-29.32-23.22c-8.38-9.54-16.43-20.43-20.11-35.46-1.29-5.28-7.11-19.82-2-37.46C59.36,206.2,69,197.8,78.89,189.68c3.8-3.12,6.4-5.39,9-6.85,3.64-2,9.17-5.92,21.21-12.63,17-9.49,28.69-15.74,39.95-23.54a126,126,0,0,0,11.69-9.54,58.71,58.71,0,0,0,10.85-12.34c3.42-5.49,5.38-10.31,5.36-16.66,0-10.22-5.25-21-10.4-28.84-8.83-13.4-27.52-24.68-56.18-35.69C91.07,36.15,64.32,29.85,32.3,26.76"/><path class="cls-23" d="M147.09,328.91A109.29,109.29,0,0,1,105.6,317.1a102.85,102.85,0,0,1-29.21-23C68,284.63,60,273.81,56.26,258.93c-1.36-5.33-7.42-20-2.35-37.92C58,206.4,67.58,197.88,77.38,189.72c3.78-3.15,6.36-5.45,9-6.93,3.58-2,9.11-6,21.12-12.8,16.84-9.49,28.58-15.83,40-23.59A131.62,131.62,0,0,0,159.26,137a60.5,60.5,0,0,0,11.05-12.1c3.53-5.4,5.62-10.1,5.71-16.45.14-10.18-5-21.06-10.16-28.91C157,66,138.11,55,109.89,44.26,90.64,37,64.22,31,32.77,28"/><path class="cls-24" d="M145.91,329.06a109.4,109.4,0,0,1-41.25-11.74,102.88,102.88,0,0,1-29.09-22.8c-8.33-9.37-16.28-20.13-20.16-34.87-1.42-5.37-7.71-20.18-2.72-38.37,4-14.68,13.49-23.32,23.18-31.52,3.75-3.18,6.32-5.52,8.93-7,3.51-2,9-6.14,21-13,16.68-9.51,28.47-15.92,40-23.64a140.58,140.58,0,0,0,11.89-9.29A62.64,62.64,0,0,0,169,125c3.64-5.3,5.86-9.88,6.05-16.23.31-10.14-4.75-21.1-9.9-29-8.92-13.63-28-24.46-55.76-34.85C90.22,37.76,64.11,32.09,33.24,29.29"/><path class="cls-25" d="M144.73,329.2a109.41,109.41,0,0,1-41-11.66,102.18,102.18,0,0,1-29-22.59c-8.32-9.29-16.22-20-20.2-34.57-1.47-5.42-8-20.37-3.1-38.83C55.39,206.8,64.79,198,74.36,189.8c3.72-3.21,6.28-5.59,8.87-7.09,3.45-2,9-6.24,21-13.13,16.5-9.51,28.35-16,40-23.69a144.36,144.36,0,0,0,12-9.17,64.74,64.74,0,0,0,11.46-11.62c3.76-5.21,6.1-9.67,6.4-16,.47-10.1-4.5-21.14-9.66-29-9-13.74-28.23-24.34-55.55-34.43-19-7-44.84-12.39-75.14-15"/><path class="cls-26" d="M143.56,329.35a109.66,109.66,0,0,1-40.77-11.58,102.4,102.4,0,0,1-28.85-22.39c-8.3-9.21-16.16-19.84-20.22-34.27-1.54-5.47-8.31-20.56-3.48-39.29,3.83-14.82,13.16-23.7,22.61-32,3.7-3.24,6.24-5.66,8.81-7.17,3.39-2,8.94-6.35,20.86-13.3,16.34-9.52,28.25-16.09,40.06-23.73,3.29-2.13,7.57-5.41,12.08-9a67.51,67.51,0,0,0,11.66-11.38c3.87-5.12,6.34-9.47,6.74-15.81.64-10.06-4.24-21.17-9.41-29.12-9-13.85-28.46-24.23-55.34-34-19-6.89-44.41-11.94-74.14-14.44"/><path class="cls-27" d="M142.38,329.5A109.8,109.8,0,0,1,101.85,318a102.1,102.1,0,0,1-28.73-22.18c-8.27-9.13-16.09-19.69-20.25-34-1.6-5.52-8.61-20.74-3.85-39.75,3.73-14.89,13-23.89,22.32-32.21,3.67-3.27,6.2-5.73,8.75-7.26,3.32-2,8.88-6.45,20.77-13.45C117,159.64,129,153,141,145.39c3.34-2.12,7.64-5.37,12.18-8.93A71.12,71.12,0,0,0,165,125.32c4-5,6.58-9.26,7.09-15.6.8-10-4-21.21-9.16-29.19-9-14-28.71-24.11-55.13-33.58-18.86-6.76-44-11.5-73.15-13.85"/><path class="cls-28" d="M141.21,329.65a110.06,110.06,0,0,1-40.29-11.44,101.8,101.8,0,0,1-28.62-22c-8.25-9.05-16-19.54-20.27-33.67-1.67-5.57-8.91-20.93-4.23-40.21,3.63-15,12.82-24.08,22-32.43,3.65-3.31,6.16-5.81,8.69-7.35,3.26-2,8.83-6.55,20.69-13.62,16-9.53,28-16.27,40.11-23.83,3.38-2.11,7.71-5.32,12.27-8.8a73.75,73.75,0,0,0,12.07-10.91c4.11-4.92,6.82-9,7.43-15.38,1-10-3.73-21.25-8.91-29.26-9.09-14.08-28.94-24-54.92-33.16C88.5,41,63.69,36.57,35.11,34.37"/><path class="cls-29" d="M140,329.79a110,110,0,0,1-40-11.36,101.79,101.79,0,0,1-28.49-21.76c-8.24-9-16-19.38-20.31-33.37-1.74-5.62-9.2-21.11-4.6-40.66,3.53-15,12.64-24.28,21.74-32.67,3.62-3.34,6.11-5.87,8.63-7.43,3.19-2,8.77-6.66,20.6-13.78,15.84-9.54,27.91-16.36,40.14-23.88,3.42-2.1,7.77-5.28,12.37-8.69a77,77,0,0,0,12.26-10.66c4.24-4.83,7.07-8.83,7.79-15.17,1.12-9.93-3.49-21.28-8.66-29.33-9.14-14.19-29.19-23.87-54.71-32.74C88.07,41.8,63.58,37.69,35.57,35.63"/><path class="cls-30" d="M138.85,329.94a110.31,110.31,0,0,1-39.8-11.29A101.27,101.27,0,0,1,70.67,297.1c-8.21-8.89-15.93-19.23-20.34-33.07-1.8-5.67-9.49-21.29-5-41.12,3.44-15.11,12.48-24.47,21.46-32.9,3.59-3.37,6.07-5.94,8.57-7.51,3.13-2,8.71-6.76,20.51-13.95,15.68-9.54,27.8-16.45,40.17-23.93,3.46-2.09,7.84-5.23,12.47-8.56A82,82,0,0,0,161,125.64c4.36-4.73,7.31-8.62,8.13-15,1.29-9.89-3.23-21.32-8.41-29.4C151.53,67,131.28,57.54,106.21,49,87.64,42.61,63.48,38.81,36,36.9"/><path class="cls-31" d="M137.68,330.09a110.49,110.49,0,0,1-39.57-11.22,101.18,101.18,0,0,1-28.26-21.34c-8.19-8.81-15.88-19.08-20.36-32.77-1.87-5.72-9.78-21.48-5.36-41.58C47.47,208,56.44,198.51,65.3,190.05c3.57-3.4,6-6,8.51-7.59,3.07-2,8.66-6.86,20.43-14.11,15.51-9.55,27.69-16.54,40.19-24,3.5-2.09,7.91-5.18,12.56-8.44a86.83,86.83,0,0,0,12.67-10.18c4.49-4.64,7.54-8.42,8.48-14.75,1.45-9.85-3-21.36-8.17-29.47-9.21-14.41-29.67-23.62-54.29-31.89-18.47-6.22-42.31-9.71-69.17-11.47"/><path class="cls-32" d="M136.5,330.23a110.58,110.58,0,0,1-39.32-11.14A101,101,0,0,1,69,298C60.86,289.23,53.2,279,48.64,265.49c-1.94-5.77-10.07-21.66-5.73-42C46.16,208.2,55,198.59,63.79,190.09c3.54-3.43,6-6.07,8.45-7.67,3-1.95,8.6-7,20.34-14.28,15.34-9.55,27.58-16.63,40.22-24,3.55-2.08,8-5.14,12.66-8.33a91.67,91.67,0,0,0,12.87-9.94c4.61-4.53,7.78-8.2,8.82-14.53,1.61-9.8-2.72-21.39-7.91-29.54C150,67.25,129.32,58.29,105.16,50.31,86.78,44.24,63.26,41.05,37,39.44"/><path class="cls-33" d="M135.33,330.38a110.51,110.51,0,0,1-39.09-11.07,100.79,100.79,0,0,1-28-20.92c-8.16-8.65-15.79-18.77-20.42-32.17-2-5.81-10.36-21.85-6.11-42.5,3.15-15.31,12-25.05,20.59-33.59,3.51-3.47,6-6.14,8.39-7.76,2.94-1.94,8.55-7.06,20.25-14.43,15.18-9.56,27.47-16.72,40.24-24.08,3.6-2.07,8.05-5.09,12.77-8.2A98.86,98.86,0,0,0,157,126c4.74-4.44,8-8,9.17-14.32,1.77-9.76-2.47-21.43-7.67-29.61C149.2,67.39,128.34,58.67,104.63,51c-18.29-5.93-41.47-8.81-67.19-10.27"/><path class="cls-34" d="M134.15,330.53a110.65,110.65,0,0,1-38.84-11A100.42,100.42,0,0,1,67.4,298.82C59.27,290.26,51.66,280.2,47,267c-2.08-5.86-10.65-22-6.48-43,3.06-15.38,11.78-25.25,20.3-33.82,3.49-3.5,5.91-6.21,8.33-7.84,2.88-1.93,8.49-7.16,20.17-14.6,15-9.56,27.35-16.8,40.26-24.12,3.64-2.06,8.12-5,12.86-8.08a106.21,106.21,0,0,0,13.28-9.46c4.86-4.34,8.26-7.78,9.51-14.11,1.93-9.72-2.21-21.47-7.41-29.68-9.35-14.75-30.42-23.23-53.67-30.63-18.19-5.79-41-8.36-66.19-9.68"/><path class="cls-35" d="M133,330.68a111.19,111.19,0,0,1-38.6-10.93,100.57,100.57,0,0,1-27.79-20.5c-8.11-8.48-15.7-18.46-20.47-31.58-2.16-5.9-10.94-22.2-6.87-43.41,3-15.45,11.62-25.44,20-34,3.46-3.54,5.87-6.28,8.27-7.93,2.81-1.92,8.43-7.27,20.08-14.76,14.85-9.57,27.25-16.9,40.29-24.17,3.68-2.06,8.19-5,13-8a115.36,115.36,0,0,0,13.48-9.23c5-4.23,8.49-7.57,9.86-13.89,2.08-9.68-2-21.51-7.17-29.75-9.39-14.86-30.66-23.09-53.45-30.21C85.47,46.67,63,44.41,38.38,43.24"/><path class="cls-36" d="M131.8,330.82A111.12,111.12,0,0,1,93.43,320a100.32,100.32,0,0,1-27.67-20.29c-8.09-8.4-15.66-18.31-20.5-31.28C43,262.45,34,246,38,224.53,40.9,209,49.46,198.89,57.75,190.26c3.43-3.57,5.83-6.35,8.21-8,2.75-1.92,8.38-7.37,20-14.93,14.69-9.56,27.14-17,40.32-24.22,3.73-2,8.26-4.94,13.06-7.84a125.56,125.56,0,0,0,13.68-9c5.12-4.13,8.73-7.36,10.2-13.68,2.25-9.64-1.71-21.54-6.92-29.82-9.43-15-30.91-23-53.24-29.78-18-5.51-40.21-7.47-64.2-8.49"/><path class="cls-37" d="M130.62,331A111.46,111.46,0,0,1,92.5,320.2,100.33,100.33,0,0,1,65,300.11c-8.08-8.32-15.63-18.15-20.54-31-2.29-6-11.5-22.57-7.61-44.33,2.79-15.59,11.27-25.83,19.45-34.5,3.39-3.6,5.78-6.41,8.14-8.09,2.69-1.91,8.33-7.47,19.91-15.1,14.52-9.56,27-17.06,40.34-24.26,3.77-2,8.33-4.9,13.15-7.72a136.43,136.43,0,0,0,13.88-8.74c5.26-4,9-7.15,10.56-13.47,2.4-9.6-1.46-21.58-6.67-29.89-9.47-15.09-31.16-22.81-53-29.36-17.92-5.36-39.78-7-63.21-7.89"/><path class="cls-38" d="M129.45,331.12a111.68,111.68,0,0,1-37.89-10.7,100.36,100.36,0,0,1-27.43-19.88c-8.06-8.24-15.59-18-20.56-30.68-2.37-6-11.79-22.75-8-44.79,2.7-15.66,11.09-26,19.16-34.73,3.37-3.63,5.74-6.48,8.08-8.17,2.63-1.9,8.27-7.57,19.82-15.26A466.59,466.59,0,0,1,123,142.59c3.81-2,8.4-4.84,13.25-7.59a151.78,151.78,0,0,0,14.08-8.5c5.38-3.93,9.21-6.94,10.9-13.26,2.56-9.56-1.2-21.62-6.42-30-9.51-15.2-31.41-22.67-52.82-28.94-17.83-5.22-39.37-6.57-62.22-7.29"/><path class="cls-39" d="M128.27,331.27a111.72,111.72,0,0,1-37.64-10.63A100.13,100.13,0,0,1,63.31,301c-8-8.15-15.55-17.83-20.59-30.38-2.44-6.09-12.07-22.94-8.36-45.25,2.61-15.72,10.91-26.22,18.87-35,3.34-3.67,5.7-6.54,8-8.26,2.57-1.88,8.22-7.66,19.73-15.42a418,418,0,0,1,40.4-24.36c3.85-2,8.46-4.79,13.35-7.47,5.47-3,10.33-5.53,14.28-8.27,5.51-3.82,9.45-6.73,11.25-13,2.71-9.52-.95-21.65-6.17-30C144.53,68.21,122.42,61,101.47,55c-17.74-5.07-38.94-6.12-61.22-6.69"/><path class="cls-40" d="M127.09,331.41a112,112,0,0,1-37.4-10.55,100,100,0,0,1-27.2-19.46c-8-8.07-15.51-17.67-20.61-30.08-2.53-6.13-12.35-23.12-8.75-45.71,2.53-15.79,10.75-26.42,18.59-35.19,3.31-3.7,5.66-6.61,8-8.34,2.5-1.87,8.16-7.76,19.65-15.58a377.82,377.82,0,0,1,40.42-24.41c3.89-2,8.53-4.75,13.44-7.36,5.55-2.95,10.48-5.38,14.49-8,5.65-3.71,9.68-6.52,11.59-12.83,2.87-9.48-.69-21.69-5.92-30.1-9.6-15.43-31.92-22.38-52.41-28.09C83.29,50.76,62.42,50,40.72,49.58"/><path class="cls-41" d="M125.92,331.56a112,112,0,0,1-37.16-10.48,99.88,99.88,0,0,1-27.08-19.25c-8-8-15.49-17.51-20.65-29.78-2.6-6.18-12.63-23.3-9.12-46.17,2.44-15.86,10.57-26.62,18.3-35.41,3.28-3.74,5.62-6.68,7.9-8.43,2.44-1.86,8.11-7.86,19.56-15.75a347,347,0,0,1,40.45-24.46c3.94-2,8.6-4.69,13.54-7.23,5.63-2.9,10.61-5.24,14.69-7.78,5.78-3.61,9.92-6.31,11.94-12.61,3-9.45-.44-21.74-5.68-30.18C143,68.49,120.44,61.8,100.42,56.36c-17.57-4.78-38.11-5.23-59.24-5.51"/><path class="cls-42" d="M124.74,331.71A112.57,112.57,0,0,1,87.82,321.3a100,100,0,0,1-27-19c-8-7.91-15.46-17.35-20.68-29.48-2.67-6.22-12.9-23.49-9.49-46.62,2.35-15.94,10.39-26.83,18-35.65,3.25-3.78,5.58-6.75,7.84-8.51S64.6,174,76,166.09a320,320,0,0,1,40.48-24.51c4-2,8.67-4.64,13.64-7.11,5.7-2.85,10.75-5.1,14.89-7.54,5.91-3.5,10.15-6.11,12.28-12.4,3.18-9.41-.18-21.77-5.42-30.25C142.2,68.62,119.44,62.2,99.89,57c-17.48-4.62-37.68-4.78-58.24-4.91"/><path class="cls-43" d="M123.57,331.85a112.22,112.22,0,0,1-36.68-10.33A100,100,0,0,1,60,302.69a93.5,93.5,0,0,1-20.7-29.18c-2.76-6.26-13.18-23.67-9.87-47.08,2.26-16,10.21-27,17.72-35.88,3.22-3.81,5.54-6.81,7.78-8.59s8-8.06,19.39-16.08a298.12,298.12,0,0,1,40.5-24.56c4-2,8.74-4.58,13.73-7,5.79-2.78,10.9-5,15.1-7.3,6-3.38,10.38-5.89,12.63-12.18,3.33-9.37.06-21.81-5.18-30.31-9.72-15.78-32.69-21.93-51.77-26.84C82,53.23,62.1,53.37,42.12,53.39"/><path class="cls-44" d="M122.39,332A112.63,112.63,0,0,1,86,321.74a100.1,100.1,0,0,1-26.73-18.62,94.14,94.14,0,0,1-20.73-28.88C35.66,267.93,25,250.39,28.25,226.7c2.17-16.07,10-27.22,17.43-36.11,3.19-3.84,5.5-6.87,7.72-8.67s8-8.15,19.3-16.24C86.09,156.13,99,148,113.23,141.07c4.06-2,8.82-4.53,13.83-6.87,5.86-2.73,11-4.81,15.29-7.06,6.18-3.27,10.63-5.69,13-12,3.49-9.33.32-21.85-4.92-30.38C140.64,68.9,117.46,63,98.84,58.38,81.53,54.06,62,54.49,42.59,54.66"/><path class="cls-45" d="M121.21,332.15A113,113,0,0,1,85,322a100.06,100.06,0,0,1-26.61-18.41A94.11,94.11,0,0,1,37.65,275c-2.92-6.34-13.73-24-10.62-48,2.09-16.14,9.85-27.42,17.14-36.34,3.17-3.87,5.47-6.94,7.66-8.76s7.9-8.24,19.21-16.4c13.24-9.54,26.15-17.76,40.55-24.65,4.12-2,8.9-4.48,13.94-6.75,5.93-2.68,11.18-4.67,15.49-6.82,6.32-3.16,10.86-5.48,13.33-11.76,3.64-9.29.57-21.89-4.68-30.45-9.81-16-33.21-21.61-51.36-26-17.22-4.16-36.42-3.44-55.25-3.12"/><path class="cls-46" d="M120,332.3a113.11,113.11,0,0,1-36-10.12A100,100,0,0,1,57.59,304,94.68,94.68,0,0,1,36.8,275.69c-3-6.38-14-24.21-11-48.45,2-16.21,9.68-27.62,16.86-36.57,3.14-3.91,5.43-7,7.6-8.84s7.85-8.34,19.13-16.56c13.07-9.54,26-17.86,40.57-24.71,4.16-1.95,9-4.42,14-6.62,6-2.62,11.33-4.53,15.7-6.58,6.45-3,11.09-5.27,13.67-11.55,3.8-9.25.83-21.92-4.43-30.52-9.85-16.12-33.47-21.44-51.14-25.57-17.15-4-36-3-54.27-2.53"/><path class="cls-47" d="M118.86,332.44a113.48,113.48,0,0,1-35.72-10,100.34,100.34,0,0,1-26.37-18,95.29,95.29,0,0,1-20.82-28C32.87,270,21.68,252,24.58,227.51c1.93-16.28,9.5-27.82,16.57-36.79,3.11-3.95,5.39-7.07,7.54-8.93s7.8-8.43,19-16.73c12.91-9.53,25.92-17.94,40.6-24.75,4.2-1.95,9-4.37,14.13-6.51,6.09-2.55,11.47-4.37,15.9-6.34,6.58-2.92,11.32-5.06,14-11.33,4-9.21,1.08-22-4.18-30.59-9.89-16.23-33.73-21.27-50.94-25.15S61.68,57.85,44,58.46"/><path class="cls-48" d="M117.69,332.59a113.56,113.56,0,0,1-35.48-10A100.2,100.2,0,0,1,56,304.84a95.73,95.73,0,0,1-20.84-27.69c-3.17-6.46-14.54-24.58-11.75-49.37,1.84-16.35,9.32-28,16.28-37,3.08-4,5.35-7.13,7.48-9s7.75-8.53,18.95-16.9c12.76-9.52,25.82-18,40.63-24.79,4.24-1.94,9.11-4.32,14.23-6.39,6.17-2.5,11.61-4.23,16.1-6.1,6.71-2.8,11.56-4.85,14.36-11.12,4.11-9.17,1.34-22-3.93-30.66-9.93-16.35-34-21.1-50.73-24.73-17-3.67-35.16-2.09-52.27-1.33"/><path class="cls-49" d="M116.51,332.74a114.27,114.27,0,0,1-35.24-9.89,100.91,100.91,0,0,1-26.13-17.58,95.93,95.93,0,0,1-20.88-27.39c-3.25-6.5-14.81-24.76-12.12-49.83,1.76-16.42,9.14-28.22,16-37.25,3-4,5.32-7.19,7.42-9.09s7.7-8.62,18.87-17.06c12.59-9.52,25.7-18.11,40.65-24.85,4.29-1.93,9.18-4.25,14.32-6.26,6.25-2.44,11.76-4.08,16.31-5.86,6.84-2.68,11.79-4.65,14.71-10.91,4.25-9.14,1.61-22-3.68-30.73-9.95-16.48-34.26-20.93-50.52-24.3-16.9-3.51-34.74-1.65-51.28-.74"/><path class="cls-50" d="M115.33,332.88a113.93,113.93,0,0,1-35-9.81,100.86,100.86,0,0,1-26-17.37,96.25,96.25,0,0,1-20.9-27.09c-3.34-6.54-15.08-24.94-12.5-50.29,1.67-16.49,9-28.42,15.7-37.48,3-4.05,5.28-7.26,7.36-9.17,1.9-1.75,7.65-8.72,18.78-17.23,12.44-9.51,25.59-18.19,40.68-24.89,4.33-1.92,9.25-4.2,14.42-6.15,6.32-2.37,11.9-3.93,16.51-5.62,7-2.55,12-4.44,15-10.69,4.41-9.1,1.86-22.08-3.43-30.8C136,69.7,111.47,65.54,95.68,62.41c-16.82-3.34-34.32-1.2-50.29-.14"/><path class="cls-51" d="M114.16,333a114.54,114.54,0,0,1-34.76-9.74,101.17,101.17,0,0,1-25.9-17.16,96.84,96.84,0,0,1-20.93-26.79c-3.43-6.58-15.35-25.13-12.88-50.75C21.29,212,28.48,200,35.11,190.88c3-4.09,5.24-7.32,7.3-9.26,1.85-1.73,7.6-8.8,18.69-17.38,12.29-9.51,25.48-18.28,40.71-25,4.37-1.91,9.32-4.14,14.52-6,6.4-2.31,12-3.78,16.7-5.38,7.12-2.43,12.26-4.23,15.41-10.48,4.56-9.06,2.11-22.12-3.19-30.87-10-16.7-34.78-20.57-50.1-23.46-16.73-3.16-33.89-.75-49.29.45"/><path class="cls-52" d="M113,333.18a115,115,0,0,1-34.51-9.67,101.67,101.67,0,0,1-25.79-16.95,97.43,97.43,0,0,1-21-26.49c-3.51-6.62-15.61-25.31-13.25-51.21,1.52-16.63,8.6-28.81,15.13-37.94,2.95-4.12,5.21-7.38,7.24-9.34A148.55,148.55,0,0,1,59.45,164c12.12-9.5,25.37-18.37,40.73-25,4.41-1.9,9.39-4.08,14.61-5.9,6.48-2.25,12.19-3.63,16.91-5.14,7.25-2.31,12.49-4,15.75-10.27,4.71-9,2.37-22.16-2.93-30.94-10.07-16.82-35.06-20.38-49.89-23-16.66-3-33.48-.3-48.3,1"/><path class="cls-53" d="M111.81,333.33a115.32,115.32,0,0,1-34.28-9.6A101.93,101.93,0,0,1,51.86,307a97.68,97.68,0,0,1-21-26.19c-3.61-6.65-15.88-25.5-13.63-51.67,1.43-16.7,8.42-29,14.84-38.17,2.92-4.16,5.17-7.43,7.18-9.42a145.72,145.72,0,0,1,18.52-17.71c12-9.49,25.26-18.46,40.76-25,4.46-1.9,9.46-4,14.71-5.78,6.56-2.19,12.32-3.49,17.11-4.9,7.38-2.19,12.72-3.83,16.1-10.06,4.86-9,2.62-22.19-2.69-31C133.67,70.11,108.46,66.85,94.1,64.43c-16.58-2.8-33,.14-47.3,1.64"/><path class="cls-54" d="M110.63,333.47a115.42,115.42,0,0,1-34-9.52,102.06,102.06,0,0,1-25.55-16.53,97.81,97.81,0,0,1-21-25.89c-3.69-6.69-16.14-25.68-14-52.13,1.35-16.77,8.24-29.21,14.55-38.39,2.89-4.2,5.14-7.5,7.12-9.51a142,142,0,0,1,18.43-17.88c11.82-9.48,25.15-18.54,40.79-25.09,4.5-1.88,9.53-4,14.81-5.66,6.63-2.12,12.46-3.33,17.31-4.66,7.51-2.05,13-3.61,16.44-9.84,5-9,2.88-22.23-2.43-31.08-10.16-17-35.59-20-49.48-22.19-16.5-2.61-32.63.59-46.31,2.24"/><path class="cls-55" d="M109.45,333.62a115.79,115.79,0,0,1-33.79-9.45,102.26,102.26,0,0,1-25.43-16.32,98.1,98.1,0,0,1-21-25.59c-3.79-6.72-16.41-25.86-14.38-52.58,1.27-16.85,8-29.43,14.26-38.63,2.86-4.23,5.1-7.56,7.06-9.59a139.76,139.76,0,0,1,18.35-18c11.66-9.48,25-18.63,40.81-25.14,4.54-1.88,9.6-3.91,14.9-5.54,6.71-2.06,12.61-3.18,17.52-4.42,7.63-1.93,13.19-3.41,16.79-9.63,5.16-8.92,3.13-22.27-2.19-31.15-10.2-17.16-35.85-19.8-49.26-21.77-16.43-2.42-32.22,1-45.32,2.84"/><path class="cls-56" d="M108.28,333.77a116.06,116.06,0,0,1-33.56-9.38,103,103,0,0,1-25.31-16.11A98.37,98.37,0,0,1,28.34,283c-3.88-6.74-16.67-26-14.76-53,1.2-16.92,7.88-29.63,14-38.86a82.41,82.41,0,0,1,7-9.68,138.48,138.48,0,0,1,18.26-18.2c11.51-9.46,24.94-18.68,40.84-25.19,4.59-1.85,9.67-3.84,15-5.41,6.79-2,12.74-3,17.72-4.18,7.76-1.8,13.42-3.21,17.13-9.42,5.32-8.89,3.39-22.3-1.93-31.22-10.25-17.27-36.13-19.6-49.06-21.35-16.35-2.21-31.79,1.49-44.32,3.44"/><path class="cls-57" d="M107.1,333.92a116.7,116.7,0,0,1-33.31-9.31,103.25,103.25,0,0,1-25.2-15.9,99.11,99.11,0,0,1-21.1-25c-4-6.78-16.92-26.22-15.13-53.49,1.12-17,7.69-29.83,13.7-39.09A82.46,82.46,0,0,1,33,181.37,136.61,136.61,0,0,1,51.16,163C62.52,153.55,76,144.24,92,137.77a152,152,0,0,1,15.11-5.3c6.86-1.93,12.88-2.87,17.92-3.93,7.89-1.67,13.65-3,17.48-9.21C148,110.47,146.16,97,140.84,88,130.56,70.66,104.45,68.65,92,67.11c-16.28-2-31.38,1.94-43.33,4"/><path class="cls-58" d="M105.93,334.06a116.61,116.61,0,0,1-33.08-9.23,103.63,103.63,0,0,1-25.07-15.69,98.92,98.92,0,0,1-21.13-24.7C22.58,277.63,9.46,258,11.14,230.49c1-17.06,7.5-30,13.41-39.32a84.77,84.77,0,0,1,6.87-9.84A134.17,134.17,0,0,1,49.51,162.8c11.2-9.44,24.72-18.86,40.88-25.28a141.48,141.48,0,0,1,15.2-5.18c7-1.86,13-2.72,18.13-3.7,8-1.53,13.88-2.79,17.82-9,5.62-8.82,3.89-22.38-1.44-31.36-10.32-17.49-36.65-19.18-48.63-20.5C75.27,66,60.52,70.17,49.13,72.41"/><path class="cls-59" d="M104.75,334.21a117.68,117.68,0,0,1-32.83-9.16,104.15,104.15,0,0,1-25-15.48,99.37,99.37,0,0,1-21.16-24.4c-4.17-6.84-17.44-26.6-15.88-54.41,1-17.13,7.32-30.23,13.12-39.55a87.2,87.2,0,0,1,6.81-9.92,132.38,132.38,0,0,1,18-18.69c11-9.43,24.61-18.95,40.91-25.34a133.84,133.84,0,0,1,15.3-5c7-1.8,13.16-2.57,18.32-3.46,8.15-1.41,14.12-2.59,18.18-8.78,5.76-8.79,4.14-22.42-1.19-31.43-10.37-17.61-36.92-19-48.43-20.08C74.82,66.9,60.41,71.29,49.6,73.68"/><path class="cls-60" d="M103.57,334.36A118.2,118.2,0,0,1,71,325.27,105.25,105.25,0,0,1,46.14,310,99.59,99.59,0,0,1,25,285.9C20.69,279,7.25,259.12,8.7,231c.88-17.2,7.13-30.43,12.83-39.77a88.2,88.2,0,0,1,6.75-10,131.52,131.52,0,0,1,17.91-18.86c10.9-9.42,24.5-19,40.94-25.38a125.27,125.27,0,0,1,15.4-4.93c7.09-1.73,13.29-2.42,18.52-3.22,8.28-1.28,14.35-2.39,18.52-8.57,5.92-8.76,4.4-22.45-.94-31.5C128.22,71.07,101.45,70,90.42,69.13c-16-1.32-30.11,3.28-40.35,5.82"/><path class="cls-61" d="M102.4,334.5a117.89,117.89,0,0,1-32.35-9,106,106,0,0,1-24.73-15.07,99.87,99.87,0,0,1-21.21-23.8c-4.36-6.89-18-27-16.64-55.33A84.8,84.8,0,0,1,20,191.3a90.41,90.41,0,0,1,6.69-10.09,129.87,129.87,0,0,1,17.83-19c10.75-9.4,24.38-19.12,41-25.43A123.34,123.34,0,0,1,101,131.94a185.14,185.14,0,0,1,18.73-3c8.4-1.15,14.58-2.19,18.87-8.36,6.06-8.73,4.65-22.49-.69-31.57-10.46-17.83-37.45-18.53-48-19.24-16-1.07-29.69,3.73-39.35,6.42"/><path class="cls-62" d="M101.22,334.65a118.75,118.75,0,0,1-32.11-8.93,106.78,106.78,0,0,1-24.6-14.86,100,100,0,0,1-21.24-23.5c-4.47-6.92-18.22-27.15-17-55.79a86,86,0,0,1,12.26-40.23,95,95,0,0,1,6.63-10.18A129.41,129.41,0,0,1,42.88,162c10.6-9.39,24.27-19.21,41-25.48a116.06,116.06,0,0,1,15.59-4.69,180.79,180.79,0,0,1,18.93-2.74c8.53-1,14.81-2,19.21-8.14,6.22-8.69,4.91-22.53-.44-31.64C126.66,71.35,99.45,71,89.36,70.48c-15.89-.82-29.27,4.17-38.36,7"/><path class="cls-63" d="M100.05,334.8a119.17,119.17,0,0,1-31.87-8.86,107.93,107.93,0,0,1-24.49-14.65,100.07,100.07,0,0,1-21.27-23.2C17.85,281.15,4,260.75,5,231.84a87.37,87.37,0,0,1,12-40.46,97.52,97.52,0,0,1,6.57-10.26,128,128,0,0,1,17.65-19.35c10.45-9.38,24.17-19.3,41-25.52a110.58,110.58,0,0,1,15.69-4.57,172.15,172.15,0,0,1,19.13-2.5c8.65-.87,15-1.78,19.56-7.93,6.36-8.66,5.15-22.56-.2-31.71-10.54-18.06-38-18.07-47.58-18.39C73,70.61,60,75.77,51.47,78.75"/><path class="cls-64" d="M98.87,335a120.23,120.23,0,0,1-31.63-8.79,108.88,108.88,0,0,1-24.37-14.43,100.67,100.67,0,0,1-21.3-22.91c-4.67-7-18.72-27.53-17.76-56.71a88.66,88.66,0,0,1,11.68-40.69A100.46,100.46,0,0,1,22,181.08a125.56,125.56,0,0,1,17.56-19.51c10.3-9.37,24-19.39,41-25.58a106.2,106.2,0,0,1,15.78-4.45,166.77,166.77,0,0,1,19.34-2.25c8.77-.74,15.27-1.58,19.9-7.72,6.52-8.63,5.41-22.6.06-31.78C125.11,71.62,97.46,72,88.31,71.82c-15.73-.24-28.43,5.07-36.37,8.2"/><path class="cls-65" d="M97.69,335.09a119.4,119.4,0,0,1-31.39-8.71,109.87,109.87,0,0,1-24.25-14.22,100.78,100.78,0,0,1-21.32-22.61c-4.78-7-19-27.71-18.14-57.17A90.09,90.09,0,0,1,14,191.46,103.82,103.82,0,0,1,20.44,181a124.73,124.73,0,0,1,17.47-19.68C48.06,152,61.85,141.89,79,135.74a102,102,0,0,1,15.88-4.33,160.14,160.14,0,0,1,19.54-2c8.89-.6,15.5-1.37,20.25-7.5,6.66-8.6,5.66-22.64.3-31.85C124.33,71.76,96.47,72.45,87.78,72.49c-15.64.07-28,5.52-35.37,8.8"/><path class="cls-66" d="M96.52,335.24a120.87,120.87,0,0,1-31.15-8.64,110.54,110.54,0,0,1-24.13-14,100.37,100.37,0,0,1-21.36-22.32C15,283.27.69,262.38,1.36,232.65A91.57,91.57,0,0,1,12.47,191.5a105.46,105.46,0,0,1,6.4-10.5,125.71,125.71,0,0,1,17.38-19.84c10-9.33,23.83-19.57,41.1-25.67a97.39,97.39,0,0,1,16-4.21,156.22,156.22,0,0,1,19.73-1.78c9-.47,15.73-1.18,20.6-7.29,6.81-8.58,5.92-22.67.56-31.92-10.67-18.4-38.73-17.34-47-17.13-15.55.41-27.59,6-34.38,9.4"/><path class="cls-67" d="M95.34,335.39C86.93,334.26,45.13,327.77,19,291c-5-7-19.49-28.08-18.9-58.07.52-26.37,12.41-44.81,17.16-52,2.17-3.29,29-42.44,74.49-49.81,19.84-3.22,32.8,1.3,40.89-8.62,7-8.54,6.17-22.71.8-32-10.71-18.51-39-17.09-46.75-16.7a74.69,74.69,0,0,0-33.39,10"/></g></g></svg>