<svg id="Слой_5" data-name="Слой 5" xmlns="http://www.w3.org/2000/svg" xmlns:xlink="http://www.w3.org/1999/xlink" viewBox="0 0 323.69 400"> <g transform="rotate(-97 80 180)"><defs><style>.cls-1,.cls-10,.cls-11,.cls-12,.cls-13,.cls-14,.cls-15,.cls-16,.cls-17,.cls-18,.cls-19,.cls-2,.cls-20,.cls-21,.cls-22,.cls-23,.cls-24,.cls-25,.cls-26,.cls-27,.cls-28,.cls-29,.cls-3,.cls-30,.cls-31,.cls-32,.cls-33,.cls-34,.cls-35,.cls-36,.cls-37,.cls-38,.cls-39,.cls-4,.cls-40,.cls-41,.cls-42,.cls-43,.cls-44,.cls-45,.cls-46,.cls-47,.cls-48,.cls-49,.cls-5,.cls-50,.cls-51,.cls-52,.cls-53,.cls-54,.cls-55,.cls-56,.cls-57,.cls-58,.cls-59,.cls-6,.cls-60,.cls-61,.cls-62,.cls-63,.cls-64,.cls-65,.cls-66,.cls-67,.cls-68,.cls-69,.cls-7,.cls-70,.cls-71,.cls-72,.cls-8,.cls-9{fill:none;stroke-miterlimit:10;stroke-width:0.5px;}.cls-1{stroke:url(#Градієнт_без_назви_2);}.cls-2{stroke:url(#Безымянный_градиент_71);}.cls-3{stroke:url(#Безымянный_градиент_70);}.cls-4{stroke:url(#Безымянный_градиент_69);}.cls-5{stroke:url(#Безымянный_градиент_68);}.cls-6{stroke:url(#Безымянный_градиент_67);}.cls-7{stroke:url(#Безымянный_градиент_66);}.cls-8{stroke:url(#Безымянный_градиент_65);}.cls-9{stroke:url(#Безымянный_градиент_64);}.cls-10{stroke:url(#Безымянный_градиент_63);}.cls-11{stroke:url(#Безымянный_градиент_62);}.cls-12{stroke:url(#Безымянный_градиент_61);}.cls-13{stroke:url(#Безымянный_градиент_60);}.cls-14{stroke:url(#Безымянный_градиент_59);}.cls-15{stroke:url(#Безымянный_градиент_58);}.cls-16{stroke:url(#Безымянный_градиент_57);}.cls-17{stroke:url(#Безымянный_градиент_56);}.cls-18{stroke:url(#Безымянный_градиент_55);}.cls-19{stroke:url(#Безымянный_градиент_54);}.cls-20{stroke:url(#Безымянный_градиент_53);}.cls-21{stroke:url(#Безымянный_градиент_52);}.cls-22{stroke:url(#Безымянный_градиент_51);}.cls-23{stroke:url(#Безымянный_градиент_50);}.cls-24{stroke:url(#Безымянный_градиент_49);}.cls-25{stroke:url(#Безымянный_градиент_48);}.cls-26{stroke:url(#Безымянный_градиент_47);}.cls-27{stroke:url(#Безымянный_градиент_46);}.cls-28{stroke:url(#Безымянный_градиент_45);}.cls-29{stroke:url(#Безымянный_градиент_44);}.cls-30{stroke:url(#Безымянный_градиент_43);}.cls-31{stroke:url(#Безымянный_градиент_42);}.cls-32{stroke:url(#Безымянный_градиент_41);}.cls-33{stroke:url(#Безымянный_градиент_40);}.cls-34{stroke:url(#Безымянный_градиент_39);}.cls-35{stroke:url(#Безымянный_градиент_38);}.cls-36{stroke:url(#Безымянный_градиент_37);}.cls-37{stroke:url(#Безымянный_градиент_36);}.cls-38{stroke:url(#Безымянный_градиент_35);}.cls-39{stroke:url(#Безымянный_градиент_34);}.cls-40{stroke:url(#Безымянный_градиент_33);}.cls-41{stroke:url(#Безымянный_градиент_32);}.cls-42{stroke:url(#Безымянный_градиент_31);}.cls-43{stroke:url(#Безымянный_градиент_30);}.cls-44{stroke:url(#Безымянный_градиент_29);}.cls-45{stroke:url(#Безымянный_градиент_28);}.cls-46{stroke:url(#Безымянный_градиент_27);}.cls-47{stroke:url(#Безымянный_градиент_26);}.cls-48{stroke:url(#Безымянный_градиент_25);}.cls-49{stroke:url(#Безымянный_градиент_24);}.cls-50{stroke:url(#Безымянный_градиент_23);}.cls-51{stroke:url(#Безымянный_градиент_22);}.cls-52{stroke:url(#Безымянный_градиент_21);}.cls-53{stroke:url(#Безымянный_градиент_20);}.cls-54{stroke:url(#Безымянный_градиент_19);}.cls-55{stroke:url(#Безымянный_градиент_18);}.cls-56{stroke:url(#Безымянный_градиент_17);}.cls-57{stroke:url(#Безымянный_градиент_16);}.cls-58{stroke:url(#Безымянный_градиент_15);}.cls-59{stroke:url(#Безымянный_градиент_14);}.cls-60{stroke:url(#Безымянный_градиент_13);}.cls-61{stroke:url(#Безымянный_градиент_12);}.cls-62{stroke:url(#Безымянный_градиент_11);}.cls-63{stroke:url(#Безымянный_градиент_10);}.cls-64{stroke:url(#Безымянный_градиент_9);}.cls-65{stroke:url(#Безымянный_градиент_8);}.cls-66{stroke:url(#Безымянный_градиент_7);}.cls-67{stroke:url(#Безымянный_градиент_6);}.cls-68{stroke:url(#Безымянный_градиент_5);}.cls-69{stroke:url(#Безымянный_градиент_4);}.cls-70{stroke:url(#Безымянный_градиент_3);}.cls-71{stroke:url(#Безымянный_градиент_2);}.cls-72{stroke:#fff;}</style><linearGradient id="Градієнт_без_назви_2" x1="-1219.99" y1="116.88" x2="-679.19" y2="116.88" gradientTransform="translate(-720.96 -167.66) rotate(-159.79)" gradientUnits="userSpaceOnUse"><stop offset="0" stop-color="#7fb7e7"/><stop offset="0.5" stop-color="#8e6aaa"/><stop offset="1" stop-color="#d8b5d5"/></linearGradient><linearGradient id="Безымянный_градиент_71" x1="-1242.23" y1="122.41" x2="-687.43" y2="122.41" gradientTransform="translate(-710.81 -165.3) rotate(-159.5) scale(0.97)" gradientUnits="userSpaceOnUse"><stop offset="0" stop-color="#81b7e8"/><stop offset="0.5" stop-color="#8f6baa"/><stop offset="1" stop-color="#d9b6d5"/></linearGradient><linearGradient id="Безымянный_градиент_70" x1="-1265.77" y1="128.52" x2="-696.03" y2="128.52" gradientTransform="translate(-700.65 -162.94) rotate(-159.2) scale(0.95)" gradientUnits="userSpaceOnUse"><stop offset="0" stop-color="#82b8e8"/><stop offset="0.5" stop-color="#906cab"/><stop offset="1" stop-color="#d9b7d6"/></linearGradient><linearGradient id="Безымянный_градиент_69" x1="-1290.71" y1="135.17" x2="-705" y2="135.17" gradientTransform="translate(-690.5 -160.58) rotate(-158.88) scale(0.92)" gradientUnits="userSpaceOnUse"><stop offset="0" stop-color="#83b9e8"/><stop offset="0.5" stop-color="#916dac"/><stop offset="1" stop-color="#dab8d7"/></linearGradient><linearGradient id="Безымянный_градиент_68" x1="-1317.17" y1="142.48" x2="-714.38" y2="142.48" gradientTransform="translate(-680.34 -158.22) rotate(-158.53) scale(0.89)" gradientUnits="userSpaceOnUse"><stop offset="0" stop-color="#84b9e8"/><stop offset="0.5" stop-color="#926eac"/><stop offset="1" stop-color="#dab8d7"/></linearGradient><linearGradient id="Безымянный_градиент_67" x1="-1345.29" y1="150.52" x2="-724.17" y2="150.52" gradientTransform="translate(-670.19 -155.86) rotate(-158.17) scale(0.86)" gradientUnits="userSpaceOnUse"><stop offset="0" stop-color="#86bae9"/><stop offset="0.5" stop-color="#946fad"/><stop offset="1" stop-color="#dab9d8"/></linearGradient><linearGradient id="Безымянный_градиент_66" x1="-1375.23" y1="159.38" x2="-734.4" y2="159.38" gradientTransform="matrix(-0.77, -0.32, 0.32, -0.77, -660.03, -153.49)" gradientUnits="userSpaceOnUse"><stop offset="0" stop-color="#87bbe9"/><stop offset="0.5" stop-color="#9570ad"/><stop offset="1" stop-color="#dbbad8"/></linearGradient><linearGradient id="Безымянный_градиент_65" x1="-1407.16" y1="169.19" x2="-745.08" y2="169.19" gradientTransform="translate(-649.88 -151.13) rotate(-157.37) scale(0.81)" gradientUnits="userSpaceOnUse"><stop offset="0" stop-color="#88bbe9"/><stop offset="0.5" stop-color="#9671ae"/><stop offset="1" stop-color="#dbbbd9"/></linearGradient><linearGradient id="Безымянный_градиент_64" x1="-1441.27" y1="180.07" x2="-756.25" y2="180.07" gradientTransform="translate(-639.73 -148.77) rotate(-156.93) scale(0.78)" gradientUnits="userSpaceOnUse"><stop offset="0" stop-color="#8abcea"/><stop offset="0.5" stop-color="#9772af"/><stop offset="1" stop-color="#dcbcd9"/></linearGradient><linearGradient id="Безымянный_градиент_63" x1="-1477.79" y1="192.16" x2="-767.92" y2="192.16" gradientTransform="translate(-629.57 -146.41) rotate(-156.46) scale(0.76)" gradientUnits="userSpaceOnUse"><stop offset="0" stop-color="#8bbdea"/><stop offset="0.5" stop-color="#9873af"/><stop offset="1" stop-color="#dcbdda"/></linearGradient><linearGradient id="Безымянный_градиент_62" x1="-1516.95" y1="205.66" x2="-780.09" y2="205.66" gradientTransform="translate(-619.42 -144.05) rotate(-155.96) scale(0.73)" gradientUnits="userSpaceOnUse"><stop offset="0" stop-color="#8dbeea"/><stop offset="0.5" stop-color="#9975b0"/><stop offset="1" stop-color="#ddbedb"/></linearGradient><linearGradient id="Безымянный_градиент_61" x1="-1559.03" y1="220.79" x2="-792.8" y2="220.79" gradientTransform="translate(-609.26 -141.69) rotate(-155.41) scale(0.7)" gradientUnits="userSpaceOnUse"><stop offset="0" stop-color="#8ebeea"/><stop offset="0.5" stop-color="#9a76b1"/><stop offset="1" stop-color="#ddbfdb"/></linearGradient><linearGradient id="Безымянный_градиент_60" x1="-1604.36" y1="237.8" x2="-806.02" y2="237.8" gradientTransform="translate(-599.11 -139.33) rotate(-154.82) scale(0.67)" gradientUnits="userSpaceOnUse"><stop offset="0" stop-color="#90bfeb"/><stop offset="0.5" stop-color="#9b77b2"/><stop offset="1" stop-color="#dec0dc"/></linearGradient><linearGradient id="Безымянный_градиент_59" x1="-1653.28" y1="257.01" x2="-819.77" y2="257.01" gradientTransform="translate(-588.95 -136.96) rotate(-154.19) scale(0.65)" gradientUnits="userSpaceOnUse"><stop offset="0" stop-color="#91c0eb"/><stop offset="0.5" stop-color="#9d78b2"/><stop offset="1" stop-color="#dec1dc"/></linearGradient><linearGradient id="Безымянный_градиент_58" x1="-1706.2" y1="278.78" x2="-834.02" y2="278.78" gradientTransform="translate(-578.8 -134.6) rotate(-153.49) scale(0.62)" gradientUnits="userSpaceOnUse"><stop offset="0" stop-color="#93c1eb"/><stop offset="0.5" stop-color="#9e79b3"/><stop offset="1" stop-color="#dec2dd"/></linearGradient><linearGradient id="Безымянный_градиент_57" x1="-1763.58" y1="303.57" x2="-848.73" y2="303.57" gradientTransform="translate(-568.64 -132.24) rotate(-152.74) scale(0.59)" gradientUnits="userSpaceOnUse"><stop offset="0" stop-color="#94c2ec"/><stop offset="0.5" stop-color="#9f7bb4"/><stop offset="1" stop-color="#dfc3dd"/></linearGradient><linearGradient id="Безымянный_градиент_56" x1="-1825.93" y1="331.9" x2="-863.83" y2="331.9" gradientTransform="translate(-558.49 -129.88) rotate(-151.91) scale(0.57)" gradientUnits="userSpaceOnUse"><stop offset="0" stop-color="#96c2ec"/><stop offset="0.5" stop-color="#a07cb5"/><stop offset="1" stop-color="#dfc4de"/></linearGradient><linearGradient id="Безымянный_градиент_55" x1="-1893.83" y1="364.48" x2="-879.19" y2="364.48" gradientTransform="matrix(-0.47, -0.26, 0.26, -0.47, -548.34, -127.52)" gradientUnits="userSpaceOnUse"><stop offset="0" stop-color="#97c3ec"/><stop offset="0.5" stop-color="#a17eb5"/><stop offset="1" stop-color="#e0c5de"/></linearGradient><linearGradient id="Безымянный_градиент_54" x1="-1967.95" y1="402.11" x2="-894.64" y2="402.11" gradientTransform="matrix(-0.45, -0.26, 0.26, -0.45, -538.18, -125.16)" gradientUnits="userSpaceOnUse"><stop offset="0" stop-color="#99c4ed"/><stop offset="0.5" stop-color="#a37fb6"/><stop offset="1" stop-color="#e0c6df"/></linearGradient><linearGradient id="Безымянный_градиент_53" x1="-2049" y1="445.8" x2="-909.92" y2="445.8" gradientTransform="translate(-528.03 -122.8) rotate(-148.91) scale(0.49)" gradientUnits="userSpaceOnUse"><stop offset="0" stop-color="#9ac5ed"/><stop offset="0.5" stop-color="#a480b7"/><stop offset="1" stop-color="#e1c6e0"/></linearGradient><linearGradient id="Безымянный_градиент_52" x1="-2137.77" y1="496.79" x2="-924.64" y2="496.79" gradientTransform="matrix(-0.39, -0.25, 0.25, -0.39, -517.87, -120.43)" gradientUnits="userSpaceOnUse"><stop offset="0" stop-color="#9cc6ed"/><stop offset="0.5" stop-color="#a582b8"/><stop offset="1" stop-color="#e1c7e0"/></linearGradient><linearGradient id="Безымянный_градиент_51" x1="-2235.09" y1="556.63" x2="-938.22" y2="556.63" gradientTransform="translate(-507.72 -118.07) rotate(-146.32) scale(0.44)" gradientUnits="userSpaceOnUse"><stop offset="0" stop-color="#9ec7ed"/><stop offset="0.5" stop-color="#a683b9"/><stop offset="1" stop-color="#e2c8e1"/></linearGradient><linearGradient id="Безымянный_градиент_50" x1="-2341.8" y1="627.25" x2="-949.84" y2="627.25" gradientTransform="translate(-497.56 -115.71) rotate(-144.78) scale(0.41)" gradientUnits="userSpaceOnUse"><stop offset="0" stop-color="#9fc7ee"/><stop offset="0.5" stop-color="#a885ba"/><stop offset="1" stop-color="#e2c9e1"/></linearGradient><linearGradient id="Безымянный_градиент_49" x1="-2458.66" y1="711.05" x2="-958.31" y2="711.05" gradientTransform="matrix(-0.31, -0.23, 0.23, -0.31, -487.41, -113.35)" gradientUnits="userSpaceOnUse"><stop offset="0" stop-color="#a1c8ee"/><stop offset="0.5" stop-color="#a987bb"/><stop offset="1" stop-color="#e3cae2"/></linearGradient><linearGradient id="Безымянный_градиент_48" x1="-2586.19" y1="810.99" x2="-961.91" y2="810.99" gradientTransform="translate(-477.26 -110.99) rotate(-141.07) scale(0.36)" gradientUnits="userSpaceOnUse"><stop offset="0" stop-color="#a3c9ee"/><stop offset="0.5" stop-color="#aa88bc"/><stop offset="1" stop-color="#e3cbe2"/></linearGradient><linearGradient id="Безымянный_градиент_47" x1="-2724.4" y1="930.76" x2="-958.16" y2="930.76" gradientTransform="translate(-467.1 -108.63) rotate(-138.82) scale(0.34)" gradientUnits="userSpaceOnUse"><stop offset="0" stop-color="#a4caef"/><stop offset="0.5" stop-color="#ac8abd"/><stop offset="1" stop-color="#e4cce3"/></linearGradient><linearGradient id="Безымянный_градиент_46" x1="-2872.35" y1="1074.74" x2="-943.5" y2="1074.74" gradientTransform="translate(-456.95 -106.27) rotate(-136.23) scale(0.32)" gradientUnits="userSpaceOnUse"><stop offset="0" stop-color="#a6cbef"/><stop offset="0.5" stop-color="#ad8cbe"/><stop offset="1" stop-color="#e4cde4"/></linearGradient><linearGradient id="Безымянный_градиент_45" x1="-3027.35" y1="1248.04" x2="-912.89" y2="1248.04" gradientTransform="translate(-446.79 -103.9) rotate(-133.23) scale(0.29)" gradientUnits="userSpaceOnUse"><stop offset="0" stop-color="#a8ccef"/><stop offset="0.5" stop-color="#ae8dbf"/><stop offset="1" stop-color="#e5cee4"/></linearGradient><linearGradient id="Безымянный_градиент_44" x1="-3183.66" y1="1456.12" x2="-859.29" y2="1456.12" gradientTransform="translate(-436.64 -101.54) rotate(-129.74) scale(0.27)" gradientUnits="userSpaceOnUse"><stop offset="0" stop-color="#aacdf0"/><stop offset="0.5" stop-color="#b08fc0"/><stop offset="1" stop-color="#e5cfe5"/></linearGradient><linearGradient id="Безымянный_градиент_43" x1="-3330.68" y1="1703.87" x2="-773.21" y2="1703.87" gradientTransform="matrix(-0.15, -0.2, 0.2, -0.15, -426.48, -99.18)" gradientUnits="userSpaceOnUse"><stop offset="0" stop-color="#abcef0"/><stop offset="0.5" stop-color="#b191c2"/><stop offset="1" stop-color="#e6d0e5"/></linearGradient><linearGradient id="Безымянный_градиент_42" x1="-3450.3" y1="1993.45" x2="-642.58" y2="1993.45" gradientTransform="matrix(-0.12, -0.2, 0.2, -0.12, -416.33, -96.82)" gradientUnits="userSpaceOnUse"><stop offset="0" stop-color="#adcff0"/><stop offset="0.5" stop-color="#b393c3"/><stop offset="1" stop-color="#e6d1e6"/></linearGradient><linearGradient id="Безымянный_градиент_41" x1="-3514.25" y1="2321.3" x2="-453.81" y2="2321.3" gradientTransform="matrix(-0.09, -0.19, 0.19, -0.09, -406.17, -94.46)" gradientUnits="userSpaceOnUse"><stop offset="0" stop-color="#afd0f1"/><stop offset="0.5" stop-color="#b495c4"/><stop offset="1" stop-color="#e7d2e6"/></linearGradient><linearGradient id="Безымянный_градиент_40" x1="-3483.25" y1="2670.04" x2="-195.18" y2="2670.04" gradientTransform="matrix(-0.06, -0.19, 0.19, -0.06, -396.02, -92.1)" gradientUnits="userSpaceOnUse"><stop offset="0" stop-color="#b1d1f1"/><stop offset="0.5" stop-color="#b597c5"/><stop offset="1" stop-color="#e7d3e7"/></linearGradient><linearGradient id="Безымянный_градиент_39" x1="-3312.11" y1="3005.42" x2="135.98" y2="3005.42" gradientTransform="translate(-385.87 -89.74) rotate(-101.45) scale(0.19)" gradientUnits="userSpaceOnUse"><stop offset="0" stop-color="#b3d2f1"/><stop offset="0.5" stop-color="#b799c6"/><stop offset="1" stop-color="#e8d4e8"/></linearGradient><linearGradient id="Безымянный_градиент_38" x1="-2965.46" y1="3273.12" x2="523.58" y2="3273.12" gradientTransform="translate(-375.71 -87.37) rotate(-93.23) scale(0.18)" gradientUnits="userSpaceOnUse"><stop offset="0" stop-color="#b4d3f2"/><stop offset="0.5" stop-color="#b89bc8"/><stop offset="1" stop-color="#e8d5e8"/></linearGradient><linearGradient id="Безымянный_градиент_37" x1="-2442.73" y1="3283.54" x2="932.9" y2="3283.54" gradientTransform="translate(-365.56 -85.01) rotate(-84.41) scale(0.18)" gradientUnits="userSpaceOnUse"><stop offset="0" stop-color="#b6d4f2"/><stop offset="0.5" stop-color="#ba9dc9"/><stop offset="1" stop-color="#e9d6e9"/></linearGradient><linearGradient id="Безымянный_градиент_36" x1="-1812.28" y1="3233.82" x2="1380.38" y2="3233.82" gradientTransform="matrix(0.04, -0.17, 0.17, 0.04, -355.4, -82.65)" gradientUnits="userSpaceOnUse"><stop offset="0" stop-color="#b8d5f2"/><stop offset="0.5" stop-color="#bb9fca"/><stop offset="1" stop-color="#e9d7e9"/></linearGradient><linearGradient id="Безымянный_градиент_35" x1="-1179.61" y1="3099.76" x2="1784.46" y2="3099.76" gradientTransform="matrix(0.07, -0.17, 0.17, 0.07, -345.25, -80.29)" gradientUnits="userSpaceOnUse"><stop offset="0" stop-color="#bad6f3"/><stop offset="0.5" stop-color="#bda1cb"/><stop offset="1" stop-color="#ead8ea"/></linearGradient><linearGradient id="Безымянный_градиент_34" x1="-623.8" y1="2850.65" x2="2082.7" y2="2850.65" gradientTransform="matrix(0.1, -0.16, 0.16, 0.1, -335.09, -77.93)" gradientUnits="userSpaceOnUse"><stop offset="0" stop-color="#bcd7f3"/><stop offset="0.5" stop-color="#bea3cd"/><stop offset="1" stop-color="#ead9ea"/></linearGradient><linearGradient id="Безымянный_градиент_33" x1="-185.79" y1="2541.47" x2="2243.5" y2="2541.47" gradientTransform="translate(-324.94 -75.57) rotate(-50.95) scale(0.2)" gradientUnits="userSpaceOnUse"><stop offset="0" stop-color="#bed8f3"/><stop offset="0.5" stop-color="#c0a5ce"/><stop offset="1" stop-color="#ebdaeb"/></linearGradient><linearGradient id="Безымянный_градиент_32" x1="127.99" y1="2220.93" x2="2285.95" y2="2220.93" gradientTransform="matrix(0.15, -0.15, 0.15, 0.15, -314.79, -73.21)" gradientUnits="userSpaceOnUse"><stop offset="0" stop-color="#c0d9f4"/><stop offset="0.5" stop-color="#c1a8cf"/><stop offset="1" stop-color="#ebdbec"/></linearGradient><linearGradient id="Безымянный_градиент_31" x1="335.96" y1="1920.26" x2="2244.47" y2="1920.26" gradientTransform="matrix(0.18, -0.15, 0.15, 0.18, -304.63, -70.84)" gradientUnits="userSpaceOnUse"><stop offset="0" stop-color="#c2daf4"/><stop offset="0.5" stop-color="#c3aad1"/><stop offset="1" stop-color="#ecdcec"/></linearGradient><linearGradient id="Безымянный_градиент_30" x1="463.08" y1="1654.15" x2="2151.56" y2="1654.15" gradientTransform="translate(-294.48 -68.48) rotate(-34.12) scale(0.25)" gradientUnits="userSpaceOnUse"><stop offset="0" stop-color="#c3dbf4"/><stop offset="0.5" stop-color="#c5acd2"/><stop offset="1" stop-color="#ecdded"/></linearGradient><linearGradient id="Безымянный_градиент_29" x1="532.44" y1="1426.25" x2="2031.74" y2="1426.25" gradientTransform="matrix(0.24, -0.14, 0.14, 0.24, -284.32, -66.12)" gradientUnits="userSpaceOnUse"><stop offset="0" stop-color="#c5dcf5"/><stop offset="0.5" stop-color="#c6aed3"/><stop offset="1" stop-color="#eddeed"/></linearGradient><linearGradient id="Безымянный_градиент_28" x1="562.44" y1="1234.45" x2="1901.58" y2="1234.45" gradientTransform="translate(-274.17 -63.76) rotate(-26.56) scale(0.29)" gradientUnits="userSpaceOnUse"><stop offset="0" stop-color="#c7ddf5"/><stop offset="0.5" stop-color="#c8b1d5"/><stop offset="1" stop-color="#eddfee"/></linearGradient><linearGradient id="Безымянный_градиент_27" x1="566.74" y1="1074.29" x2="1770.63" y2="1074.29" gradientTransform="translate(-264.01 -61.4) rotate(-23.56) scale(0.32)" gradientUnits="userSpaceOnUse"><stop offset="0" stop-color="#c9dff5"/><stop offset="0.5" stop-color="#cab3d6"/><stop offset="1" stop-color="#eee1ef"/></linearGradient><linearGradient id="Безымянный_градиент_26" x1="555.2" y1="940.78" x2="1644.18" y2="940.78" gradientTransform="matrix(0.32, -0.12, 0.12, 0.32, -253.86, -59.04)" gradientUnits="userSpaceOnUse"><stop offset="0" stop-color="#cbe0f6"/><stop offset="0.5" stop-color="#cbb6d8"/><stop offset="1" stop-color="#eee2ef"/></linearGradient><linearGradient id="Безымянный_градиент_25" x1="533.94" y1="829.31" x2="1524.89" y2="829.31" gradientTransform="matrix(0.34, -0.12, 0.12, 0.34, -243.7, -56.67)" gradientUnits="userSpaceOnUse"><stop offset="0" stop-color="#cde1f6"/><stop offset="0.5" stop-color="#cdb8d9"/><stop offset="1" stop-color="#efe3f0"/></linearGradient><linearGradient id="Безымянный_градиент_24" x1="507" y1="735.86" x2="1413.91" y2="735.86" gradientTransform="translate(-233.55 -54.31) rotate(-16.74) scale(0.39)" gradientUnits="userSpaceOnUse"><stop offset="0" stop-color="#cfe2f6"/><stop offset="0.5" stop-color="#cfbbdb"/><stop offset="1" stop-color="#f0e4f0"/></linearGradient><linearGradient id="Безымянный_градиент_23" x1="477.04" y1="657.12" x2="1311.48" y2="657.12" gradientTransform="matrix(0.4, -0.11, 0.11, 0.4, -223.4, -51.95)" gradientUnits="userSpaceOnUse"><stop offset="0" stop-color="#d1e3f7"/><stop offset="0.5" stop-color="#d1bddc"/><stop offset="1" stop-color="#f0e5f1"/></linearGradient><linearGradient id="Безымянный_градиент_22" x1="445.8" y1="590.39" x2="1217.34" y2="590.39" gradientTransform="translate(-213.24 -49.59) rotate(-13.47) scale(0.44)" gradientUnits="userSpaceOnUse"><stop offset="0" stop-color="#d2e4f7"/><stop offset="0.5" stop-color="#d2c0de"/><stop offset="1" stop-color="#f1e6f2"/></linearGradient><linearGradient id="Безымянный_градиент_21" x1="414.38" y1="533.51" x2="1131" y2="533.51" gradientTransform="translate(-203.09 -47.23) rotate(-12.1) scale(0.46)" gradientUnits="userSpaceOnUse"><stop offset="0" stop-color="#d4e5f7"/><stop offset="0.5" stop-color="#d4c2df"/><stop offset="1" stop-color="#f1e7f2"/></linearGradient><linearGradient id="Безымянный_градиент_20" x1="383.48" y1="484.72" x2="1051.85" y2="484.72" gradientTransform="translate(-192.93 -44.87) rotate(-10.88) scale(0.49)" gradientUnits="userSpaceOnUse"><stop offset="0" stop-color="#d6e6f8"/><stop offset="0.5" stop-color="#d6c5e1"/><stop offset="1" stop-color="#f2e8f3"/></linearGradient><linearGradient id="Безымянный_градиент_19" x1="353.52" y1="442.63" x2="979.25" y2="442.63" gradientTransform="translate(-182.78 -42.51) rotate(-9.77) scale(0.52)" gradientUnits="userSpaceOnUse"><stop offset="0" stop-color="#d8e7f8"/><stop offset="0.5" stop-color="#d8c8e2"/><stop offset="1" stop-color="#f2e9f3"/></linearGradient><linearGradient id="Безымянный_градиент_18" x1="324.73" y1="406.12" x2="912.59" y2="406.12" gradientTransform="matrix(0.54, -0.08, 0.08, 0.54, -172.62, -40.14)" gradientUnits="userSpaceOnUse"><stop offset="0" stop-color="#dae8f8"/><stop offset="0.5" stop-color="#dacae4"/><stop offset="1" stop-color="#f3eaf4"/></linearGradient><linearGradient id="Безымянный_градиент_17" x1="297.25" y1="374.27" x2="851.29" y2="374.27" gradientTransform="matrix(0.56, -0.08, 0.08, 0.56, -162.47, -37.78)" gradientUnits="userSpaceOnUse"><stop offset="0" stop-color="#dceaf9"/><stop offset="0.5" stop-color="#dbcde5"/><stop offset="1" stop-color="#f4ebf4"/></linearGradient><linearGradient id="Безымянный_градиент_16" x1="271.12" y1="346.34" x2="794.81" y2="346.34" gradientTransform="matrix(0.59, -0.07, 0.07, 0.59, -152.32, -35.42)" gradientUnits="userSpaceOnUse"><stop offset="0" stop-color="#deebf9"/><stop offset="0.5" stop-color="#ddd0e7"/><stop offset="1" stop-color="#f4ecf5"/></linearGradient><linearGradient id="Безымянный_градиент_15" x1="246.34" y1="321.17" x2="742.68" y2="321.17" gradientTransform="translate(-142.16 -33.06) rotate(-6.29) scale(0.62)" gradientUnits="userSpaceOnUse"><stop offset="0" stop-color="#e0ecf9"/><stop offset="0.5" stop-color="#dfd3e8"/><stop offset="1" stop-color="#f5edf6"/></linearGradient><linearGradient id="Безымянный_градиент_14" x1="222.88" y1="298.51" x2="694.46" y2="298.51" gradientTransform="translate(-132.01 -30.7) rotate(-5.6) scale(0.65)" gradientUnits="userSpaceOnUse"><stop offset="0" stop-color="#e2edfa"/><stop offset="0.5" stop-color="#e1d5ea"/><stop offset="1" stop-color="#f5eef6"/></linearGradient><linearGradient id="Безымянный_градиент_13" x1="200.69" y1="278.22" x2="649.77" y2="278.22" gradientTransform="translate(-121.85 -28.34) rotate(-4.96) scale(0.67)" gradientUnits="userSpaceOnUse"><stop offset="0" stop-color="#e4eefa"/><stop offset="0.5" stop-color="#e3d8eb"/><stop offset="1" stop-color="#f6eff7"/></linearGradient><linearGradient id="Безымянный_градиент_12" x1="179.7" y1="260.02" x2="608.26" y2="260.02" gradientTransform="matrix(0.7, -0.05, 0.05, 0.7, -111.7, -25.98)" gradientUnits="userSpaceOnUse"><stop offset="0" stop-color="#e6f0fb"/><stop offset="0.5" stop-color="#e5dbed"/><stop offset="1" stop-color="#f7f0f7"/></linearGradient><linearGradient id="Безымянный_градиент_11" x1="159.86" y1="243.65" x2="569.64" y2="243.65" gradientTransform="matrix(0.73, -0.05, 0.05, 0.73, -101.54, -23.61)" gradientUnits="userSpaceOnUse"><stop offset="0" stop-color="#e8f1fb"/><stop offset="0.5" stop-color="#e7deee"/><stop offset="1" stop-color="#f7f2f8"/></linearGradient><linearGradient id="Безымянный_градиент_10" x1="141.08" y1="228.87" x2="533.62" y2="228.87" gradientTransform="translate(-91.39 -21.25) rotate(-3.32) scale(0.76)" gradientUnits="userSpaceOnUse"><stop offset="0" stop-color="#eaf2fb"/><stop offset="0.5" stop-color="#e9e1f0"/><stop offset="1" stop-color="#f8f3f9"/></linearGradient><linearGradient id="Безымянный_градиент_9" x1="123.31" y1="215.5" x2="500" y2="215.5" gradientTransform="translate(-81.23 -18.89) rotate(-2.85) scale(0.78)" gradientUnits="userSpaceOnUse"><stop offset="0" stop-color="#ecf3fc"/><stop offset="0.5" stop-color="#ebe4f1"/><stop offset="1" stop-color="#f9f4f9"/></linearGradient><linearGradient id="Безымянный_градиент_8" x1="106.48" y1="203.36" x2="468.51" y2="203.36" gradientTransform="translate(-71.08 -16.53) rotate(-2.41) scale(0.81)" gradientUnits="userSpaceOnUse"><stop offset="0" stop-color="#eef5fc"/><stop offset="0.5" stop-color="#ede7f3"/><stop offset="1" stop-color="#f9f5fa"/></linearGradient><linearGradient id="Безымянный_градиент_7" x1="90.53" y1="192.3" x2="438.99" y2="192.3" gradientTransform="translate(-60.93 -14.17) rotate(-2) scale(0.84)" gradientUnits="userSpaceOnUse"><stop offset="0" stop-color="#f0f6fc"/><stop offset="0.5" stop-color="#efeaf4"/><stop offset="1" stop-color="#faf6fa"/></linearGradient><linearGradient id="Безымянный_градиент_6" x1="75.4" y1="182.2" x2="411.27" y2="182.2" gradientTransform="matrix(0.86, -0.02, 0.02, 0.86, -50.77, -11.81)" gradientUnits="userSpaceOnUse"><stop offset="0" stop-color="#f2f7fd"/><stop offset="0.5" stop-color="#f1edf6"/><stop offset="1" stop-color="#fbf8fb"/></linearGradient><linearGradient id="Безымянный_градиент_5" x1="61.04" y1="172.96" x2="385.19" y2="172.96" gradientTransform="translate(-40.62 -9.45) rotate(-1.25) scale(0.89)" gradientUnits="userSpaceOnUse"><stop offset="0" stop-color="#f4f8fd"/><stop offset="0.5" stop-color="#f4f0f8"/><stop offset="1" stop-color="#fcf9fc"/></linearGradient><linearGradient id="Безымянный_градиент_4" x1="47.39" y1="164.46" x2="360.62" y2="164.46" gradientTransform="translate(-30.46 -7.08) rotate(-0.91) scale(0.92)" gradientUnits="userSpaceOnUse"><stop offset="0" stop-color="#f6fafe"/><stop offset="0.5" stop-color="#f6f3f9"/><stop offset="1" stop-color="#fcfafc"/></linearGradient><linearGradient id="Безымянный_градиент_3" x1="34.42" y1="156.63" x2="337.43" y2="156.63" gradientTransform="translate(-20.31 -4.72) rotate(-0.59) scale(0.95)" gradientUnits="userSpaceOnUse"><stop offset="0" stop-color="#f9fbfe"/><stop offset="0.5" stop-color="#f9f6fb"/><stop offset="1" stop-color="#fdfcfd"/></linearGradient><linearGradient id="Безымянный_градиент_2" x1="22.06" y1="149.32" x2="315.52" y2="149.32" gradientTransform="translate(-10.15 -2.36) rotate(-0.29) scale(0.97)" gradientUnits="userSpaceOnUse"><stop offset="0" stop-color="#fcfdfe"/><stop offset="0.5" stop-color="#fcfafd"/><stop offset="1" stop-color="#fefdfe"/></linearGradient></defs><path class="cls-1" d="M369.73,400.74A225.76,225.76,0,0,1,270,372.12c-8.17-4.6-39.34-22.84-67.78-58.86-18.86-23.89-40.11-50.22-41.58-88.95-.35-9.15-1-33.51,12.63-59.32,14.41-27.37,36.95-40.66,63.5-55.94C261.25,95,264.54,97.74,307.88,78.58c43.9-19.39,66.22-29.47,84-48,8.72-9.07,29.54-30.75,34.64-62.78,7-43.65-20.21-79.3-37.41-103.37-16.82-23.56-48.59-56.83-129.1-95-45.93-21.75-117.07-49.32-211-62.54"/><path class="cls-2" d="M367.4,401a225.62,225.62,0,0,1-99.22-28.47c-8.28-4.63-39.27-22.75-67.55-58.44-18.83-23.73-38.79-50-41.63-88.37a118.5,118.5,0,0,1,1.88-31.65,111.14,111.14,0,0,1,10.56-29.76c14.34-27.21,36.77-40.6,63.21-56,24.3-14.09,27.77-11.56,70.76-30.62C349,58.42,371.36,48.33,389.28,30c2.15-2.2,5-5.15,8.2-8.8C407.38,9.89,420.27-8.1,424.26-32a89.73,89.73,0,0,0,.53-26.16c-4-31.54-23.57-57.85-37.13-76.89C370.74-158.85,338.58-191.62,259-229.2c-45.75-21.42-116.24-48.43-209-61.35"/><path class="cls-3" d="M365.07,401.32A226.89,226.89,0,0,1,266.32,373c-8.39-4.68-39.2-22.65-67.32-58-18.79-23.57-37.73-49.75-41.69-87.78a114.75,114.75,0,0,1,1.43-32.69,111.63,111.63,0,0,1,10.84-30.81c14.27-27,36.58-40.55,62.92-56,24.14-14.1,27.8-11.83,70.44-30.79,43.29-19.27,65.68-29.39,83.73-47.51,2.17-2.17,5-5.1,8.23-8.69,10-11.2,22.93-28.92,27.11-52.57a89.35,89.35,0,0,0,.76-26c-3.74-31.35-23-57.71-36.57-76.77-17-24-49.45-56.5-128.27-93.28-45.51-21.24-115.41-47.55-207-60.18"/><path class="cls-4" d="M362.74,401.61a227.43,227.43,0,0,1-98.28-28.17c-8.51-4.72-39.13-22.56-67.09-57.61-18.76-23.4-36.85-49.53-41.75-87.19a110.27,110.27,0,0,1,12.1-65.59c14.19-26.89,36.39-40.49,62.62-56,24-14.11,27.84-12.08,70.13-30.94,43-19.21,65.41-29.35,83.59-47.27,2.18-2.15,5-5.05,8.26-8.59C402.4,9.17,415.41-8.27,419.75-31.66a88.29,88.29,0,0,0,1-25.78c-3.39-31.17-22.51-57.57-36-76.64-17.08-24.23-49.88-56.34-127.86-92.45-45.28-21-114.57-46.66-205.07-59"/><path class="cls-5" d="M360.41,401.9a227.77,227.77,0,0,1-97.8-28c-8.63-4.77-39.07-22.47-66.87-57.19-18.73-23.24-36.13-49.32-41.8-86.6a111.88,111.88,0,0,1,.5-34.76,114.66,114.66,0,0,1,11.42-32.93c14.11-26.72,36.2-40.43,62.33-56C252,92.27,256.07,94.05,298,75.28c42.67-19.15,65.14-29.3,83.45-47,2.2-2.13,5.05-5,8.28-8.48C399.92,8.81,413-8.35,417.5-31.47a88,88,0,0,0,1.25-25.6c-3.1-31-22-57.43-35.47-76.52C366.12-158,333-189.75,255.84-225.2,210.77-245.92,142.1-271,52.74-283"/><path class="cls-6" d="M358.08,402.2a228.45,228.45,0,0,1-97.33-27.89c-8.74-4.8-39-22.37-66.64-56.76-18.69-23.08-35.53-49.11-41.86-86a111.78,111.78,0,0,1,0-35.79,116.45,116.45,0,0,1,11.71-34c14-26.55,36-40.37,62-56,23.71-14.14,27.92-12.6,69.5-31.27,42.37-19.09,64.87-29.27,83.31-46.78,2.22-2.1,5.07-4.95,8.31-8.37,10.28-10.86,23.43-27.75,28.09-50.6a86.8,86.8,0,0,0,1.49-25.4c-2.8-30.79-21.45-57.3-34.91-76.4-17.25-24.68-50.74-56-127-90.78-44.86-20.46-112.91-44.88-201.13-56.63"/><path class="cls-7" d="M355.75,402.49a229.06,229.06,0,0,1-96.86-27.74C250,369.91,220,352.4,192.48,318.41c-18.61-23-35-48.89-41.91-85.44a111.66,111.66,0,0,1-.43-36.83,117.92,117.92,0,0,1,12-35c14-26.4,35.78-40.38,61.74-56.05,23.52-14.2,28-12.85,69.17-31.43,42.07-19,64.61-29.22,83.18-46.53,2.24-2.08,5.09-4.89,8.34-8.26C395,8.09,408.16-8.52,413-31.11a86.38,86.38,0,0,0,1.73-25.21c-2.5-30.6-21-57.13-34.35-76.27-17.39-24.87-51.18-55.82-126.61-89.95-44.65-20.19-112.08-44-199.17-55.45"/><path class="cls-8" d="M353.42,402.78A229.51,229.51,0,0,1,257,375.19c-9-4.88-38.78-22.27-66.18-55.93-18.57-22.79-34.6-48.66-42-84.84a112.06,112.06,0,0,1-.88-37.87,119.32,119.32,0,0,1,12.28-36.09c13.87-26.23,35.59-40.33,61.44-56.06,23.37-14.22,28-13.12,68.86-31.6,41.76-19,64.34-29.18,83-46.28,2.25-2.05,5.1-4.84,8.36-8.15,10.49-10.64,23.76-27,28.76-49.3a85.94,85.94,0,0,0,2-25c-2.21-30.41-20.45-57-33.8-76.15-17.48-25.08-51.62-55.64-126.2-89.1-44.43-19.94-111.24-43.11-197.19-54.28"/><path class="cls-9" d="M351.09,403.07a230.17,230.17,0,0,1-95.92-27.44c-9.09-4.93-38.7-22.19-65.95-55.51-18.53-22.64-34.23-48.42-42-84.26a112.92,112.92,0,0,1-1.35-38.9,121.34,121.34,0,0,1,12.56-37.15c13.8-26.06,35.4-40.28,61.16-56.07,23.22-14.24,28-13.38,68.54-31.76,41.46-18.9,64.07-29.14,82.9-46,2.27-2,5.12-4.79,8.39-8C390,7.37,403.32-8.69,408.48-30.74a85.25,85.25,0,0,0,2.22-24.84c-1.93-30.22-19.93-56.84-33.25-76-17.57-25.3-52.06-55.47-125.78-88.27C207.45-239.55,141.26-262.09,56.45-273"/><path class="cls-10" d="M348.76,403.36a230.51,230.51,0,0,1-95.45-27.29c-9.2-5-38.62-22.1-65.73-55.09-18.47-22.49-33.91-48.19-42.07-83.67-2.57-11.21-3.84-26.65-1.81-39.94a123.27,123.27,0,0,1,12.85-38.21c13.72-25.9,35.2-40.23,60.86-56.09,23.07-14.26,28.06-13.63,68.23-31.92,41.15-18.84,63.81-29.09,82.76-45.79,2.29-2,5.14-4.74,8.42-7.93,10.69-10.42,24.09-26.2,29.41-48a84.44,84.44,0,0,0,2.45-24.65c-1.63-30-19.4-56.69-32.69-75.9-17.66-25.52-52.49-55.28-125.36-87.43-44-19.42-109.58-41.34-193.26-51.91"/><path class="cls-11" d="M346.43,403.65a230.85,230.85,0,0,1-95-27.15c-9.33-5-38.54-22-65.51-54.66-18.43-22.33-33.64-47.94-42.12-83.09-2.87-11.85-4.24-27.74-2.28-41a125,125,0,0,1,13.14-39.26c13.64-25.74,35-40.19,60.57-56.11,22.91-14.28,28.09-13.89,67.91-32.08C324,51.55,346.71,41.27,365.79,24.78c2.3-2,5.15-4.69,8.44-7.83C385,6.65,398.49-8.85,404-30.38a83.33,83.33,0,0,0,2.7-24.46c-1.34-29.83-18.88-56.55-32.13-75.77-17.76-25.74-52.94-55.1-125-86.6-43.8-19.16-108.74-40.45-191.28-50.73"/><path class="cls-12" d="M344.1,404a231.61,231.61,0,0,1-94.5-27c-9.44-5-38.46-21.93-65.28-54.25-18.39-22.17-33.4-47.68-42.18-82.49-3.15-12.51-4.64-28.84-2.73-42a126.69,126.69,0,0,1,13.42-40.32c13.56-25.58,34.81-40.13,60.27-56.12,22.76-14.3,28.14-14.15,67.6-32.25,40.53-18.71,63.27-29,82.48-45.3,2.32-2,5.17-4.63,8.47-7.72,10.9-10.19,24.43-25.42,30.07-46.67a83,83,0,0,0,2.94-24.28c-1.05-29.64-18.36-56.41-31.58-75.65-17.85-26-53.38-54.91-124.54-85.76C205-234.77,140.64-255.44,59.23-265.43"/><path class="cls-13" d="M341.77,404.24a232,232,0,0,1-94-26.86c-9.55-5.08-38.39-21.85-65.05-53.83a204.32,204.32,0,0,1-42.23-81.91c-3.45-13.15-5.05-29.94-3.2-43A128.44,128.44,0,0,1,151,157.22c13.48-25.41,34.62-40.08,60-56.14,22.61-14.31,28.17-14.41,67.27-32.41,40.24-18.65,63-29,82.35-45,2.34-1.94,5.19-4.58,8.5-7.61,11-10.08,24.59-25,30.39-46a81.76,81.76,0,0,0,3.18-24.08c-.76-29.46-17.83-56.27-31-75.53-17.94-26.18-53.83-54.73-124.12-84.93-43.39-18.63-107.07-38.67-187.35-48.37"/><path class="cls-14" d="M339.44,404.53a232.61,232.61,0,0,1-93.56-26.71c-9.67-5.12-38.31-21.77-64.82-53.41-18.31-21.86-33-47.17-42.29-81.33-3.74-13.79-5.45-31-3.66-44.07a131,131,0,0,1,14-42.43c13.45-25.23,34.42-40,59.68-56.16,22.46-14.34,28.21-14.67,67-32.57C315.68,49.26,338.49,38.92,358,23c2.36-1.91,5.21-4.53,8.52-7.5,11.12-10,24.77-24.65,30.73-45.37a81.24,81.24,0,0,0,3.42-23.89c-.47-29.26-17.31-56.13-30.47-75.4-18-26.4-54.27-54.55-123.7-84.09C203.28-231.59,140.22-251,61.08-260.4"/><path class="cls-15" d="M337.11,404.82A233.07,233.07,0,0,1,244,378.26c-9.78-5.16-38.23-21.69-64.59-53-18.27-21.71-32.86-46.9-42.34-80.74-4.05-14.44-5.86-32.13-4.13-45.12a132.88,132.88,0,0,1,14.29-43.48c13.38-25.06,34.22-40,59.39-56.18C228.94,85.4,234.88,84.83,273.28,67c39.62-18.53,62.47-28.88,82.08-44.56,2.36-1.89,5.22-4.47,8.54-7.39C375.12,5.21,388.84-9.19,395-29.65a80.4,80.4,0,0,0,3.67-23.7c-.19-29.07-16.78-56-29.92-75.28C350.59-155.25,314-183,245.41-211.88c-43-18.12-105.4-36.9-183.41-46"/><path class="cls-16" d="M334.78,405.11c-18.74-1.14-54.08-6.2-92.61-26.42-9.91-5.19-38.16-21.6-64.37-52.57-18.23-21.54-32.72-46.63-42.4-80.15-4.35-15.08-6.27-33.23-4.58-46.15a134.74,134.74,0,0,1,14.56-44.54c13.31-24.89,34-39.94,59.1-56.19,22.16-14.37,28.28-15.18,66.33-32.89,39.31-18.47,62.2-28.84,81.94-44.32,2.38-1.86,5.24-4.42,8.57-7.28,11.33-9.75,25.1-23.88,31.38-44.06A80,80,0,0,0,396.61-53c.1-28.87-16.26-55.84-29.36-75.15C349-155,312.08-182.29,244.37-210.55c-42.77-17.85-104.57-36-181.44-44.83"/><path class="cls-17" d="M332.45,405.4c-18.61-1.15-53.77-6.22-92.14-26.27-10-5.23-38.08-21.51-64.14-52.15-18.19-21.39-32.6-46.35-42.45-79.56-4.67-15.73-6.69-34.33-5.05-47.19,2.27-17.87,8.81-34.3,14.85-45.6,13.23-24.72,33.84-39.88,58.81-56.2,22-14.39,28.31-15.44,66-33.06,39-18.4,61.93-28.8,81.8-44.07,2.4-1.84,5.26-4.37,8.59-7.17C370.18,4.49,384-9.37,390.44-29.28a78.46,78.46,0,0,0,4.15-23.33c.39-28.68-15.73-55.7-28.8-75-18.3-27.06-55.62-54-122.46-81.58-42.57-17.59-103.74-35.12-179.47-43.65"/><path class="cls-18" d="M330.13,405.7c-18.49-1.17-53.46-6.25-91.68-26.13-10.14-5.27-38-21.43-63.91-51.73-18.15-21.24-32.5-46.08-42.51-79-5-16.37-7.1-35.43-5.51-48.22,2.29-18.44,9-35.28,15.14-46.65,13.16-24.57,33.65-39.84,58.51-56.23,21.85-14.4,28.35-15.69,65.69-33.21,38.71-18.35,61.67-28.76,81.67-43.83,2.42-1.82,5.28-4.31,8.62-7.07,11.56-9.52,25.45-23.1,32-42.75a78.22,78.22,0,0,0,4.39-23.14c.67-28.48-15.21-55.55-28.25-74.9-18.39-27.28-56.08-53.76-122-80.75-42.35-17.32-102.9-34.23-177.5-42.46"/><path class="cls-19" d="M327.8,406c-18.36-1.18-53.15-6.27-91.21-26-10.26-5.31-37.93-21.35-63.68-51.32-18.11-21.07-32.41-45.79-42.56-78.38-5.31-17-7.52-36.54-6-49.26,2.31-19,9.29-36.26,15.43-47.71,13.08-24.4,33.45-39.79,58.22-56.24,21.7-14.42,28.42-15.88,65.37-33.38C301.83,45.52,324.8,35,344.92,20.14c2.43-1.79,5.3-4.26,8.65-7,11.67-9.41,25.62-22.72,32.36-42.1a77.34,77.34,0,0,0,4.64-22.95c.95-28.28-14.69-55.41-27.7-74.78-18.47-27.5-56.53-53.55-121.63-79.91-42.15-17.06-102.07-33.34-175.53-41.28"/><path class="cls-20" d="M325.47,406.28c-18.23-1.19-52.83-6.28-90.74-25.83-10.37-5.35-37.85-21.26-63.45-50.9C153.2,308.63,139,284,128.66,251.75c-5.63-17.65-7.93-37.63-6.44-50.29,2.32-19.59,9.54-37.24,15.72-48.77,13-24.23,33.26-39.73,57.92-56.25C217.41,82,224.32,80.3,260.92,62.89c38.13-18.13,61.14-28.67,81.39-43.33,2.45-1.77,5.32-4.2,8.67-6.85,11.79-9.3,25.8-22.34,32.7-41.44a76.55,76.55,0,0,0,4.87-22.77c1.24-28.08-14.16-55.27-27.14-74.65-18.56-27.72-57-53.35-121.21-79.07C198.24-222,139-237.69,66.64-245.33"/><path class="cls-21" d="M323.14,406.57c-18.1-1.19-52.52-6.3-90.27-25.68-10.49-5.39-37.77-21.18-63.22-50.48-18-20.76-32.25-45.22-42.68-77.22-6-18.29-8.35-38.73-6.89-51.32,2.33-20.16,9.77-38.22,16-49.82C149,128,169.14,112.36,193.71,95.77c21.39-14.45,28.5-16.39,64.74-33.7C296.28,44,319.32,33.44,339.7,19c2.47-1.75,5.34-4.15,8.7-6.74,11.9-9.19,26-22,33-40.79a75.42,75.42,0,0,0,5.12-22.57c1.52-27.9-13.63-55.14-26.58-74.53-18.66-27.95-57.45-53.15-120.8-78.24-41.76-16.54-100.41-31.58-171.6-38.93"/><path class="cls-22" d="M320.81,406.86c-18-1.2-52.21-6.32-89.79-25.54-10.61-5.42-37.71-21.09-63-50.05-18-20.61-32.19-44.93-42.73-76.63-6.29-18.93-8.78-39.84-7.36-52.36,2.34-20.73,10-39.2,16.29-50.88,12.85-23.91,32.87-39.63,57.33-56.29C212.8,80.64,220.09,78.46,256,61.24c37.52-18,60.6-28.58,81.11-42.85,2.48-1.71,5.37-4.09,8.73-6.62C357.84,2.7,372-9.8,379.17-28.37a74.82,74.82,0,0,0,5.36-22.38c1.8-27.7-13.11-55-26-74.41-18.75-28.16-57.91-52.93-120.39-77.4-41.55-16.27-99.57-30.69-169.62-37.75"/><path class="cls-23" d="M318.48,407.15c-17.84-1.21-51.89-6.33-89.32-25.39-10.73-5.46-37.63-21-62.77-49.64-18-20.44-32.14-44.63-42.79-76-6.63-19.56-9.19-40.93-7.82-53.4,2.35-21.3,10.25-40.17,16.57-51.93C145.13,127,165,111.17,189.4,94.44c21.09-14.48,28.57-16.9,64.11-34,37.22-17.94,60.33-28.55,81-42.61,2.5-1.69,5.39-4,8.75-6.51,12.14-9,26.33-21.19,33.68-39.48a74.36,74.36,0,0,0,5.61-22.2c2.07-27.5-12.59-54.85-25.48-74.28-18.83-28.39-58.37-52.72-120-76.57-41.35-16-98.74-29.8-167.65-36.56"/><path class="cls-24" d="M316.15,407.45c-17.71-1.23-51.58-6.35-88.85-25.25-10.85-5.5-37.55-20.92-62.54-49.22-17.92-20.29-32.09-44.34-42.84-75.45-7-20.2-9.62-42-8.29-54.44,2.36-21.87,10.49-41.16,16.86-53,12.7-23.57,32.49-39.52,56.75-56.32,20.95-14.5,28.61-17.16,63.79-34.19C288,41.72,311.1,31.09,331.87,17.23c2.52-1.66,5.41-4,8.78-6.4C352.91,2,367.15-10,374.66-28a73,73,0,0,0,5.84-22c2.36-27.3-12.06-54.71-24.92-74.16-18.92-28.6-58.83-52.5-119.55-75.73-41.16-15.74-97.91-28.91-165.69-35.38"/><path class="cls-25" d="M313.82,407.74c-17.58-1.24-51.27-6.36-88.38-25.1-11-5.54-37.48-20.84-62.31-48.8-17.88-20.13-32-44-42.9-74.87-7.32-20.83-10-43.14-8.74-55.47,2.36-22.44,10.72-42.14,17.14-54C141.25,126,160.92,110,185.08,93.12c20.8-14.52,28.66-17.42,63.48-34.36,36.62-17.81,59.8-28.45,80.7-42.11,2.54-1.64,5.43-3.92,8.81-6.3,12.38-8.72,26.67-20.41,34.34-38.17a72.41,72.41,0,0,0,6.08-21.82c2.64-27.1-11.53-54.57-24.37-74-19-28.83-59.3-52.29-119.14-74.89C194-214,137.91-226.59,71.27-232.77"/><path class="cls-26" d="M311.49,408c-17.45-1.25-51-6.37-87.91-24.95-11.08-5.58-37.4-20.75-62.09-48.38-17.84-20-32-43.74-42.94-74.29-7.69-21.46-10.47-44.23-9.21-56.5,2.36-23,11-43.12,17.43-55.1,12.54-23.25,32.1-39.42,56.16-56.36,20.65-14.53,28.69-17.67,63.16-34.51,36.31-17.75,59.53-28.42,80.56-41.87,2.55-1.62,5.46-3.86,8.83-6.19,12.51-8.61,26.86-20,34.67-37.52a71.57,71.57,0,0,0,6.33-21.63c2.91-26.9-11-54.42-23.81-73.91-19.1-29-59.78-52.06-118.73-74-40.76-15.21-96.24-27.14-161.74-33"/><path class="cls-27" d="M309.16,408.32c-17.32-1.25-50.65-6.38-87.43-24.81-11.2-5.61-37.34-20.66-61.87-48-17.8-19.81-32-43.43-43-73.69-8-22.09-10.89-45.34-9.67-57.54,2.37-23.59,11.21-44.1,17.72-56.16,12.46-23.08,31.91-39.37,55.86-56.37,20.5-14.55,28.73-17.92,62.85-34.68,36-17.68,59.26-28.37,80.43-41.62,2.56-1.59,5.47-3.81,8.85-6.08,12.63-8.49,27-19.65,35-36.86,3.18-6.9,5.66-13.85,6.56-21.45,3.19-26.7-10.48-54.28-23.25-73.78C332-151.95,291-174.52,232.9-195.9c-40.57-14.94-95.41-26.25-159.78-31.84"/><path class="cls-28" d="M306.83,408.61c-17.19-1.26-50.34-6.39-87-24.66-11.32-5.64-37.27-20.57-61.64-47.54-17.76-19.66-31.95-43.13-43-73.11-8.41-22.71-11.33-46.44-10.14-58.57,2.37-24.17,11.45-45.08,18-57.21,12.39-22.93,31.71-39.32,55.57-56.39C199,76.57,207.39,73,241.15,56.29c35.7-17.62,59-28.33,80.29-41.38,2.58-1.57,5.5-3.75,8.88-6,12.75-8.37,27.21-19.26,35.32-36.21,3.26-6.81,5.82-13.69,6.81-21.25,3.46-26.51-9.95-54.15-22.7-73.66-19.27-29.5-60.72-51.61-117.89-72.39-40.38-14.67-94.57-25.36-157.81-30.66"/><path class="cls-29" d="M304.5,408.9c-17.06-1.27-50-6.4-86.49-24.51-11.44-5.68-37.19-20.49-61.41-47.12-17.73-19.5-31.93-42.82-43.11-72.52-8.78-23.34-11.75-47.54-10.6-59.61,2.37-24.74,11.69-46.06,18.3-58.27,12.31-22.76,31.52-39.27,55.27-56.41,20.2-14.57,28.81-18.43,62.22-35,35.39-17.55,58.73-28.29,80.15-41.13,2.6-1.54,5.52-3.69,8.9-5.86,12.88-8.26,27.4-18.88,35.66-35.56,3.32-6.72,6-13.53,7.05-21.06,3.73-26.31-9.43-54-22.15-73.54-19.35-29.72-61.19-51.37-117.48-71.55-40.18-14.4-93.73-24.48-155.84-29.48"/><path class="cls-30" d="M302.17,409.2c-16.93-1.29-49.72-6.42-86-24.37-11.55-5.72-37.12-20.4-61.18-46.7-17.69-19.34-31.91-42.52-43.16-71.94-9.16-24-12.18-48.64-11.06-60.65,2.36-25.3,11.92-47,18.57-59.32,12.24-22.59,31.33-39.21,55-56.42,20.05-14.59,28.84-18.69,61.89-35.16,35.1-17.49,58.47-28.25,80-40.89,2.61-1.52,5.55-3.64,8.93-5.75,13-8.14,27.58-18.5,36-34.91,3.4-6.63,6.14-13.36,7.3-20.87,4-26.11-8.91-53.87-21.6-73.41-19.44-29.94-61.66-51.14-117.06-70.72-40-14.13-92.9-23.59-153.87-28.3"/><path class="cls-31" d="M299.84,409.49c-16.8-1.3-49.41-6.42-85.55-24.22A215.88,215.88,0,0,1,153.34,339c-17.65-19.18-31.9-42.2-43.22-71.34C100.58,243.06,97.51,217.89,98.6,206c2.35-25.88,12.16-48,18.86-60.38,12.16-22.43,31.14-39.15,54.69-56.44,19.9-14.6,28.88-18.94,61.58-35.32,34.79-17.42,58.2-28.2,79.88-40.64,2.63-1.5,5.57-3.58,9-5.64,13.13-8,27.76-18.12,36.31-34.25,3.47-6.56,6.3-13.21,7.53-20.69,4.28-25.91-8.37-53.73-21-73.29-19.53-30.16-62.15-50.89-116.65-69.87-39.8-13.86-92.07-22.71-151.9-27.12"/><path class="cls-32" d="M297.51,409.78c-16.67-1.3-49.11-6.43-85.07-24.08-11.8-5.78-37-20.22-60.73-45.86-17.62-19-31.89-41.89-43.27-70.76-9.94-25.19-13-50.85-12-62.72,2.35-26.45,12.4-49,19.15-61.43,12.08-22.27,31-39.1,54.4-56.46,19.75-14.61,28.92-19.2,61.26-35.49C265.74,35.63,289.19,24.82,311,12.59c2.65-1.47,5.6-3.52,9-5.54,13.26-7.89,27.95-17.72,36.64-33.59,3.54-6.47,6.46-13.05,7.78-20.5,4.55-25.71-7.85-53.58-20.48-73.16-19.62-30.39-62.63-50.65-116.24-69-39.61-13.59-91.23-21.82-149.93-25.94"/><path class="cls-33" d="M295.18,410.07c-16.54-1.31-48.8-6.43-84.6-23.93a214.61,214.61,0,0,1-60.5-45.44c-17.58-18.87-31.88-41.57-43.33-70.18-10.33-25.8-13.47-51.94-12.45-63.75,2.34-27,12.64-50,19.44-62.49,12-22.1,30.75-39,54.1-56.47,19.6-14.63,29-19.47,60.95-35.65C263,34.86,286.45,24,308.39,12c2.67-1.45,5.62-3.46,9-5.43,13.39-7.76,28.14-17.34,37-32.94,3.61-6.38,6.62-12.89,8-20.31,4.81-25.51-7.32-53.44-19.93-73-19.7-30.61-63.11-50.4-115.82-68.2-39.42-13.31-90.4-20.93-148-24.76"/><path class="cls-34" d="M292.85,410.36c-16.41-1.32-48.49-6.43-84.13-23.78a214.63,214.63,0,0,1-60.27-45C130.9,322.85,116.57,300.3,105.07,272c-10.73-26.42-13.9-53.05-12.91-64.79,2.32-27.6,12.87-51,19.72-63.55,11.92-21.94,30.56-39,53.81-56.49,19.45-14.63,29-19.72,60.63-35.81,33.87-17.23,57.39-28.07,79.46-39.9,2.68-1.43,5.65-3.4,9-5.32,13.51-7.64,28.32-17,37.29-32.29,3.69-6.29,6.78-12.73,8.26-20.12,5.09-25.31-6.79-53.3-19.37-72.91-19.78-30.83-63.59-50.15-115.4-67.37-39.24-13-89.57-20-146-23.58"/><path class="cls-35" d="M290.52,410.65c-16.28-1.33-48.19-6.44-83.66-23.63a214,214,0,0,1-60-44.61c-17.51-18.54-31.88-40.93-43.44-69-11.13-27-14.33-54.15-13.37-65.82,2.31-28.18,13.11-51.93,20-64.6,11.84-21.78,30.37-38.94,53.51-56.51,19.3-14.65,29-20,60.31-36,33.58-17.17,57.13-28,79.33-39.66,2.7-1.4,5.67-3.34,9.06-5.21C325.88-1.87,340.74-10.93,349.86-26c3.76-6.21,6.93-12.58,8.5-19.93,5.35-25.12-6.26-53.17-18.82-72.79-19.87-31.06-64.08-49.9-115-66.54-39.05-12.76-88.73-19.15-144-22.39"/><path class="cls-36" d="M288.19,411C272,409.6,240.31,404.5,205,387.46a213.8,213.8,0,0,1-59.81-44.19c-17.48-18.39-31.88-40.61-43.49-68.41C90.15,247.23,86.93,219.6,87.86,208c2.3-28.75,13.36-52.91,20.3-65.66,11.76-21.62,30.18-38.88,53.22-56.52,19.15-14.67,29.06-20.24,60-36.14,33.27-17.1,56.86-28,79.19-39.41,2.72-1.38,5.7-3.29,9.09-5.1,13.78-7.39,28.7-16.19,38-31,3.84-6.13,7.1-12.41,8.75-19.74,5.61-24.93-5.74-53-18.26-72.67-20-31.28-64.58-49.63-114.58-65.69-38.87-12.49-87.9-18.27-142-21.22"/><path class="cls-37" d="M285.86,411.24c-16-1.35-47.57-6.45-82.72-23.35a213.12,213.12,0,0,1-59.58-43.76C126.12,325.9,111.68,303.84,100,276.3c-12-28.22-15.2-56.35-14.3-67.89,2.29-29.33,13.6-53.89,20.58-66.72,11.69-21.45,30-38.82,52.93-56.54,19-14.67,29.11-20.49,59.68-36.3,33-17,56.59-27.94,79-39.16,2.73-1.35,5.73-3.23,9.11-5C321-2.56,336-11.1,345.35-25.63c3.9-6,7.25-12.25,9-19.55,5.87-24.73-5.21-52.89-17.71-72.54-20-31.51-65.07-49.37-114.16-64.86-38.69-12.21-87.07-17.38-140.08-20"/><path class="cls-38" d="M283.53,411.53c-15.89-1.36-47.27-6.45-82.24-23.2A213.06,213.06,0,0,1,141.93,345c-17.41-18.07-31.88-40-43.61-67.24-12.39-28.83-15.62-57.46-14.75-68.94C85.83,178.91,97.4,154,104.43,141c11.61-21.28,29.8-38.76,52.64-56.55C175.92,69.8,186.21,63.74,216.43,48c32.66-17,56.33-27.91,78.91-38.92,2.75-1.33,5.75-3.17,9.14-4.88,14-7.13,29.08-15.42,38.61-29.67,4-6,7.41-12.1,9.23-19.37,6.14-24.53-4.68-52.75-17.15-72.42-20.12-31.73-65.56-49.1-113.74-64-38.51-11.92-86.24-16.5-138.12-18.86"/><path class="cls-39" d="M281.2,411.82c-15.75-1.37-47-6.45-81.77-23.05a212.8,212.8,0,0,1-59.13-42.93c-17.37-17.9-31.89-39.64-43.66-66.65-12.82-29.42-16.06-58.56-15.22-70,2.24-30.47,14.07-55.85,21.15-68.82,11.53-21.13,29.61-38.71,52.34-56.58,18.71-14.69,29.18-21,59.05-36.62C246.31,30.29,270,19.34,292.74,8.53c2.76-1.31,5.77-3.11,9.16-4.78,14.18-7,29.27-15,38.94-29,4.05-5.87,7.56-11.94,9.47-19.18,6.4-24.33-4.15-52.61-16.6-72.29-20.21-32-66-48.83-113.33-63.19-38.32-11.64-85.4-15.61-136.14-17.67"/><path class="cls-40" d="M278.87,412.11c-15.62-1.38-46.66-6.45-81.3-22.9a212.78,212.78,0,0,1-58.9-42.51C121.33,329,106.78,307.39,95,280.63c-13.26-30-16.49-59.66-15.68-71,2.22-31,14.31-56.83,21.44-69.88,11.45-21,29.42-38.65,52.05-56.59C171.32,68.45,182,61.9,211.49,46.38c32-16.85,55.79-27.82,78.64-38.43,2.78-1.28,5.8-3,9.18-4.67,14.32-6.86,29.47-14.64,39.27-28.36,4.13-5.78,7.73-11.78,9.72-19,6.66-24.13-3.63-52.47-16.05-72.16C312-148.41,265.7-164.79,219.34-178.59c-38.14-11.35-84.57-14.72-134.17-16.49"/><path class="cls-41" d="M276.54,412.4c-15.49-1.39-46.35-6.44-80.83-22.75A212.6,212.6,0,0,1,137,347.56c-17.31-17.59-31.9-39-43.77-65.48-13.71-30.6-16.93-60.76-16.15-72,2.2-31.62,14.55-57.81,21.73-70.94,11.37-20.8,29.23-38.59,51.75-56.6C169,67.78,179.85,61,209,45.55c31.75-16.79,55.53-27.78,78.51-38.18,2.79-1.26,5.83-3,9.21-4.56,14.45-6.72,29.66-14.25,39.6-27.71,4.21-5.69,7.88-11.62,9.95-18.8,6.92-23.93-3.09-52.33-15.48-72-20.38-32.4-67.05-48.27-112.5-61.52-38-11.06-83.74-13.83-132.21-15.31"/><path class="cls-42" d="M274.21,412.7c-15.36-1.41-46-6.45-80.36-22.61a212.56,212.56,0,0,1-58.44-41.67c-17.27-17.43-31.91-38.66-43.83-64.9C77.42,252.35,74.22,221.66,75,210.45c2.17-32.2,14.79-58.79,22-72,11.29-20.64,29-38.54,51.46-56.63,18.26-14.73,29.29-21.78,58.09-37.1C238,28,261.8,17,284.91,6.79c2.81-1.24,5.85-2.92,9.24-4.45,14.59-6.59,29.86-13.86,39.93-27,4.28-5.61,8-11.46,10.19-18.62,7.18-23.73-2.57-52.19-14.93-71.91-20.46-32.63-67.55-48-112.09-60.68-37.79-10.78-82.9-13-130.23-14.14"/><path class="cls-43" d="M271.88,413c-15.23-1.41-45.75-6.45-79.88-22.47a212.09,212.09,0,0,1-58.23-41.25C116.54,332,101.86,311,89.9,285c-14.62-31.76-17.8-63-17.07-74.11,2.13-32.77,15-59.77,22.29-73.05,11.22-20.47,28.86-38.48,51.17-56.64,18.12-14.74,29.33-22,57.78-37.27,31.13-16.66,55-27.69,78.23-37.69,2.83-1.21,5.88-2.86,9.26-4.34,14.73-6.45,30.06-13.48,40.26-26.4,4.36-5.52,8.19-11.3,10.44-18.42,7.43-23.54-2-52.06-14.38-71.8-20.54-32.85-68.06-47.69-111.67-59.84-37.62-10.49-82.07-12.06-128.27-12.95"/><path class="cls-44" d="M269.55,413.28c-15.1-1.42-45.44-6.44-79.41-22.32a212.1,212.1,0,0,1-58-40.83c-17.2-17.1-31.92-38-43.93-63.72C73.13,254.08,70,222.35,70.68,211.27c2.1-33.35,15.26-60.75,22.58-74.11,11.14-20.31,28.66-38.42,50.88-56.65,18-14.75,29.36-22.3,57.46-37.44A855,855,0,0,1,279.69,5.62c2.85-1.18,5.91-2.79,9.29-4.22,14.87-6.31,30.25-13.09,40.59-25.75,4.43-5.43,8.34-11.14,10.68-18.23,7.69-23.35-1.51-51.92-13.83-71.67-20.62-33.08-68.56-47.4-111.25-59-37.45-10.19-81.24-11.17-126.3-11.77"/><path class="cls-45" d="M267.22,413.57c-15-1.43-45.14-6.44-78.94-22.17A212.25,212.25,0,0,1,130.51,351c-17.17-16.94-31.93-37.65-44-63.13C71,255,67.86,222.69,68.53,211.68,70.6,177.75,84,150,91.4,136.51c11.06-20.14,28.47-38.36,50.58-56.67,17.83-14.76,29.4-22.55,57.15-37.59A763.42,763.42,0,0,1,277.08,5C279.94,3.89,283,2.32,286.4.93c15-6.17,30.45-12.7,40.91-25.1,4.51-5.34,8.5-11,10.92-18,7.95-23.15-1-51.78-13.27-71.55-20.7-33.3-69.07-47.09-110.83-58.17-37.28-9.89-80.4-10.28-124.33-10.59"/><path class="cls-46" d="M264.89,413.86c-14.84-1.44-44.84-6.43-78.47-22a212.32,212.32,0,0,1-57.54-40c-17.13-16.78-31.94-37.31-44-62.55-16-33.47-19.1-66.27-18.46-77.22,2-34.49,15.74-62.7,23.16-76.21,11-20,28.28-38.31,50.29-56.69,17.67-14.77,29.43-22.82,56.83-37.76,30.21-16.48,54.18-27.56,77.81-37,2.88-1.13,6-2.66,9.34-4,15.15-6,30.65-12.3,41.25-24.43,4.59-5.26,8.65-10.83,11.16-17.86,8.2-23-.45-51.64-12.71-71.42C302.72-146.79,253.92-160,213.08-170.6,176-180.18,133.52-180,90.72-180"/><path class="cls-47" d="M262.56,414.15c-14.71-1.45-44.53-6.43-78-21.87a212.39,212.39,0,0,1-57.31-39.58c-17.1-16.61-31.95-37-44.09-62-16.53-34-19.54-67.37-18.92-78.25,2-35.07,16-63.68,23.44-77.27,10.9-19.82,28.1-38.25,50-56.71,17.53-14.77,29.47-23.07,56.51-37.91,29.92-16.42,53.93-27.53,77.68-36.72,2.9-1.11,6-2.6,9.37-3.9,15.28-5.87,30.85-11.91,41.57-23.78,4.67-5.17,8.81-10.67,11.41-17.67,8.45-22.76.08-51.5-12.16-71.29-20.87-33.76-70.1-46.47-110-56.51-36.93-9.28-78.73-8.51-120.39-8.22"/><path class="cls-48" d="M260.23,414.45C245.65,413,216,408,182.7,392.71a212.2,212.2,0,0,1-57.08-39.15c-17.07-16.45-32-36.62-44.15-61.37-17-34.58-20-68.47-19.38-79.29,2-35.64,16.21-64.67,23.73-78.33,10.82-19.66,27.91-38.18,49.7-56.72C152.9,63.07,165,54.52,191.71,39.77c29.61-16.36,53.66-27.48,77.54-36.47,2.92-1.08,6-2.53,9.4-3.79C294.07-6.21,309.7-12,320.55-23.62c4.74-5.08,9-10.51,11.64-17.48,8.71-22.56.61-51.36-11.6-71.17-20.95-34-70.61-46.15-109.59-55.66-36.77-9-77.9-7.63-118.42-7"/><path class="cls-49" d="M257.9,414.74c-14.45-1.47-43.93-6.42-77-21.59A212.44,212.44,0,0,1,124,354.42c-17-16.28-32-36.28-44.2-60.79-17.53-35.13-20.42-69.57-19.85-80.32,1.91-36.22,16.45-65.65,24-79.38,10.74-19.5,27.72-38.13,49.4-56.74,17.24-14.8,29.54-23.6,55.88-38.25,29.3-16.29,53.39-27.43,77.4-36.22,2.93-1.06,6.05-2.47,9.42-3.68,15.56-5.57,31.26-11.12,42.23-22.48,4.83-5,9.12-10.35,11.89-17.29,8.95-22.37,1.14-51.22-11.05-71C298.1-146,248-157.6,210-166.6c-36.6-8.66-77.06-6.74-116.45-5.87"/><path class="cls-50" d="M255.57,415c-14.32-1.48-43.63-6.41-76.58-21.44a212.58,212.58,0,0,1-56.63-38.32c-17-16.11-32-35.93-44.26-60.19-18-35.68-20.85-70.68-20.31-81.36,1.86-36.8,16.69-66.63,24.3-80.44,10.66-19.34,27.54-38.07,49.12-56.76,17.09-14.8,29.57-23.85,55.56-38.4,29-16.24,53.12-27.4,77.26-36,3-1,6.08-2.41,9.45-3.57,15.7-5.42,31.45-10.73,42.56-21.82,4.9-4.9,9.26-10.2,12.13-17.1,9.2-22.18,1.67-51.09-10.5-70.93-21.11-34.43-71.64-45.49-108.76-54-36.44-8.34-76.23-5.85-114.48-4.69"/><path class="cls-51" d="M253.24,415.32c-14.19-1.49-43.33-6.41-76.11-21.29a213,213,0,0,1-56.4-37.9,215.73,215.73,0,0,1-44.31-59.61c-18.56-36.22-21.29-71.77-20.78-82.39,1.82-37.37,16.93-67.61,24.59-81.5,10.58-19.17,27.35-38,48.82-56.77C146,61.05,158.67,51.75,184.3,37.29,213,21.12,237.15,9.94,261.43,1.56c3-1,6.09-2.34,9.47-3.46,15.84-5.27,31.65-10.33,42.88-21.17,5-4.81,9.42-10,12.37-16.91,9.45-22,2.2-51-9.93-70.8-21.2-34.66-72.17-45.16-108.35-53.16s-75.4-5-112.51-3.5"/><path class="cls-52" d="M250.91,415.61c-14.06-1.5-43-6.4-75.64-21.14A213.35,213.35,0,0,1,119.1,357a215.56,215.56,0,0,1-44.37-59C55.65,261.21,53,225.09,53.5,214.54,55.26,176.59,70.66,146,78.37,132,88.87,113,105.53,94,126.9,75.2c16.8-14.82,29.65-24.38,54.93-38.73,28.38-16.12,52.58-27.31,77-35.49,3-1,6.12-2.28,9.49-3.35,16-5.12,31.86-9.93,43.22-20.52,5.06-4.72,9.57-9.88,12.61-16.72,9.7-21.8,2.73-50.81-9.38-70.68-21.28-34.88-72.68-44.81-107.93-52.32-36.12-7.69-74.57-4.07-110.55-2.32"/><path class="cls-53" d="M248.58,415.9a256.34,256.34,0,0,1-75.17-21A210.22,210.22,0,0,1,73,299.41c-19.61-37.29-22.16-74-21.69-84.46,1.7-38.52,17.4-69.57,25.16-83.61,10.42-18.85,27-37.89,48.23-56.81,16.66-14.82,29.69-24.63,54.61-38.89,28.08-16,52.32-27.27,76.86-35.24,3-1,6.15-2.21,9.52-3.25,16.12-4.95,32.07-9.53,43.54-19.85,5.15-4.63,9.73-9.73,12.86-16.54,9.94-21.61,3.26-50.67-8.83-70.55-21.36-35.11-73.21-44.47-107.52-51.48-35.95-7.36-73.73-3.19-108.57-1.15"/><path class="cls-54" d="M246.26,416.2a257.31,257.31,0,0,1-74.7-20.86,210.28,210.28,0,0,1-100.2-94.49C51.2,263,48.76,225.77,49.2,215.35c1.65-39.09,17.64-70.54,25.45-84.66C85,112,101.44,92.87,122.59,73.87,139.1,59,152.31,49,176.88,34.82c27.77-16,52.05-27.23,76.72-35,3-.94,6.18-2.14,9.55-3.14,16.26-4.79,32.27-9.13,43.87-19.2,5.22-4.54,9.87-9.57,13.1-16.35,10.18-21.42,3.79-50.53-8.28-70.42-21.43-35.34-73.73-44.11-107.1-50.65-35.8-7-72.9-2.3-106.61,0"/><path class="cls-55" d="M243.93,416.49a258.39,258.39,0,0,1-74.23-20.71,210.39,210.39,0,0,1-100-93.48C49,264,46.64,226.12,47.05,215.76c1.59-39.67,17.88-71.53,25.74-85.72,10.26-18.52,26.6-37.76,47.64-56.83,16.37-14.85,29.76-25.16,54-39.22C201.87,18.05,226.19,6.8,251-.76c3-.92,6.21-2.08,9.57-3C277-8.42,293-12.52,304.76-22.34c5.31-4.44,10-9.41,13.34-16.16,10.44-21.23,4.32-50.39-7.72-70.3-21.51-35.57-74.25-43.75-106.68-49.81-35.64-6.67-72.07-1.41-104.64,1.22"/><path class="cls-56" d="M241.6,416.78a259.18,259.18,0,0,1-73.76-20.56,214.91,214.91,0,0,1-55.26-35.8A213.18,213.18,0,0,1,68,303.74c-21.27-38.85-23.47-77.28-23.08-87.57,1.52-40.24,18.11-72.51,26-86.77C81.11,111,97.34,91.7,118.28,72.54c16.22-14.85,29.79-25.42,53.66-39.38C199.09,17.29,223.45,6,248.38-1.34c3-.89,6.23-2,9.6-2.92,16.54-4.46,32.68-8.33,44.53-17.9,5.38-4.34,10.18-9.26,13.58-16,10.68-21,4.85-50.25-7.16-70.17-21.6-35.8-74.78-43.38-106.28-49-35.48-6.31-71.23-.52-102.66,2.4"/><path class="cls-57" d="M239.27,417.07A260.38,260.38,0,0,1,166,396.66a215.37,215.37,0,0,1-55-35.38A212.72,212.72,0,0,1,66.3,305.19c-21.84-39.36-23.91-78.39-23.54-88.61,1.46-40.82,18.34-73.49,26.3-87.83,10.11-18.2,26.24-37.64,47.06-56.87C132.2,57,146,46.2,169.47,32.34c26.84-15.82,51.25-27.1,76.3-34.26,3.06-.87,6.26-1.94,9.63-2.81C272.08-9,288.28-12.65,300.25-22c5.47-4.26,10.33-9.11,13.83-15.79,10.92-20.85,5.38-50.11-6.61-70.05-21.68-36-75.31-43-105.86-48.14-35.33-5.94-70.4.36-100.7,3.58"/><path class="cls-58" d="M236.94,417.36a261.4,261.4,0,0,1-72.82-20.27,215.66,215.66,0,0,1-54.8-35,211.56,211.56,0,0,1-44.7-55.5c-22.42-39.86-24.35-79.48-24-89.64C42,175.6,59.19,142.52,67.2,128.1c10-18,26.05-37.57,46.77-56.89,15.93-14.86,29.86-25.94,53-39.7,26.54-15.76,51-27.06,76.17-34,3.08-.85,6.29-1.88,9.65-2.7,16.83-4.13,33.1-7.52,45.19-16.59,5.54-4.16,10.48-8.95,14.06-15.59C323.23-58,318-87.37,306-107.31c-21.75-36.25-75.84-42.62-105.44-47.31-35.18-5.56-69.57,1.25-98.73,4.76"/><path class="cls-59" d="M234.61,417.65a262.36,262.36,0,0,1-72.35-20.12A216.63,216.63,0,0,1,107.69,363a211.06,211.06,0,0,1-44.76-54.92c-23-40.35-24.78-80.58-24.47-90.67,1.32-42,18.82-75.45,26.88-89.95,9.94-17.87,25.87-37.5,46.47-56.9a280.11,280.11,0,0,1,52.71-39.86c26.24-15.71,50.72-27,76-33.77,3.1-.82,6.32-1.81,9.68-2.59,17-4,33.3-7.11,45.52-15.94,5.62-4.06,10.62-8.79,14.3-15.4,11.41-20.49,6.45-49.85-5.5-69.81-21.83-36.47-76.36-42.22-105-46.46-35-5.19-68.74,2.13-96.76,5.94"/><path class="cls-60" d="M232.28,418a263.74,263.74,0,0,1-71.87-20,217.81,217.81,0,0,1-54.36-34.12,210.61,210.61,0,0,1-44.8-54.33C37.65,268.68,36,227.84,36.31,217.81c1.24-42.55,19.06-76.43,27.17-91,9.86-17.72,25.68-37.45,46.18-56.92a279.43,279.43,0,0,1,52.39-40C188,14.22,212.5,2.89,237.94-3.66c3.11-.8,6.34-1.74,9.71-2.49,17.1-3.78,33.5-6.7,45.84-15.28A46.65,46.65,0,0,0,308-36.64c11.64-20.3,7-49.71-5-69.68-21.9-36.7-76.89-41.83-104.61-45.63-34.87-4.79-67.9,3-94.79,7.12"/><path class="cls-61" d="M230,418.24a265.21,265.21,0,0,1-71.4-19.83,218.77,218.77,0,0,1-54.13-33.7A209.94,209.94,0,0,1,59.56,311c-24.19-41.32-25.66-82.78-25.39-92.74,1.16-43.12,19.26-77.43,27.45-92.06,9.74-17.57,25.5-37.38,45.88-56.94A279.7,279.7,0,0,1,159.58,29C185.2,13.45,209.76,2.1,235.33-4.24c3.13-.77,6.37-1.67,9.73-2.38,17.24-3.6,33.71-6.29,46.18-14.62a46.42,46.42,0,0,0,14.79-15c11.88-20.12,7.5-49.57-4.39-69.55-22-36.94-77.43-41.43-104.2-44.8-34.73-4.37-67.06,3.91-92.82,8.3"/><path class="cls-62" d="M227.62,418.53a266.77,266.77,0,0,1-70.93-19.68,220,220,0,0,1-53.9-33.29,208.79,208.79,0,0,1-44.91-53.15C33.07,270.61,31.77,228.52,32,218.62c1.08-43.69,19.5-78.4,27.74-93.11,9.67-17.4,25.31-37.31,45.59-56.95a279.27,279.27,0,0,1,51.76-40.35c25.31-15.53,49.91-26.89,75.61-33,3.15-.75,6.4-1.61,9.76-2.27,17.38-3.43,33.92-5.88,46.5-14A45.68,45.68,0,0,0,304-35.9c12.13-19.94,8-49.43-3.83-69.43-22.07-37.16-78-41-103.78-44-34.58-4-66.23,4.8-90.85,9.48"/><path class="cls-63" d="M225.29,418.82a268,268,0,0,1-70.46-19.53,221,221,0,0,1-53.67-32.87,208.19,208.19,0,0,1-45-52.57c-25.43-42.26-26.54-85-26.32-94.82,1-44.26,19.74-79.38,28-94.16,9.59-17.25,25.13-37.26,45.29-57a279.75,279.75,0,0,1,51.45-40.52c25-15.47,49.64-26.84,75.48-32.78,3.16-.73,6.42-1.54,9.78-2.16C257.41-10.81,274-13,286.73-20.88A45.35,45.35,0,0,0,302-35.53c12.37-19.76,8.57-49.29-3.28-69.3-22.14-37.39-78.48-40.59-103.37-43.13-34.42-3.5-65.39,5.69-88.88,10.67"/><path class="cls-64" d="M223,419.11a269,269,0,0,1-70-19.39,222.09,222.09,0,0,1-53.44-32.44,207.29,207.29,0,0,1-45-52c-26.06-42.72-27-86.09-26.79-95.86.91-44.84,20-80.36,28.31-95.22,9.52-17.08,25-37.19,45-57a280.23,280.23,0,0,1,51.12-40.67C176.85,11.14,201.54-.25,227.51-6c3.17-.7,6.44-1.47,9.8-2,17.66-3.07,34.33-5.06,47.16-12.66A45,45,0,0,0,300-35.16c12.6-19.58,9.14-49.17-2.73-69.18-22.15-37.65-79-40.16-102.95-42.28-34.27-3-64.56,6.57-86.91,11.84"/><path class="cls-65" d="M220.63,419.4a270.27,270.27,0,0,1-69.51-19.24,223.36,223.36,0,0,1-53.22-32,206.51,206.51,0,0,1-45.08-51.4c-26.69-43.17-27.42-87.19-27.24-96.89.81-45.41,20.21-81.35,28.59-96.28,9.44-16.91,24.78-37.12,44.71-57a281.09,281.09,0,0,1,50.81-40.84C174.07,10.37,198.8-1,224.9-6.56c3.19-.68,6.47-1.4,9.83-1.94,17.79-2.88,34.53-4.64,47.49-12A44.66,44.66,0,0,0,298-34.78c12.85-19.41,9.67-49-2.17-69.06-22.23-37.88-79.52-39.72-102.53-41.45-34.12-2.57-63.73,7.46-84.94,13"/><path class="cls-66" d="M218.3,419.7a272.3,272.3,0,0,1-69-19.1,224.9,224.9,0,0,1-53-31.61,205.13,205.13,0,0,1-45.13-50.81C23.8,274.57,23.28,229.9,23.43,220.26c.72-46,20.45-82.33,28.88-97.34,9.36-16.75,24.59-37,44.42-57a281.17,281.17,0,0,1,50.49-41C171.29,9.6,196.07-1.81,222.29-7.15c3.21-.65,6.5-1.32,9.86-1.82,17.92-2.7,34.73-4.23,47.81-11.36a44.24,44.24,0,0,0,16-14.08c13.08-19.23,10.19-48.9-1.61-68.94C272-141.45,214.3-142.62,192.22-144c-34-2.06-62.89,8.34-83,14.2"/><path class="cls-67" d="M216,420A274.3,274.3,0,0,1,147.4,401a226.71,226.71,0,0,1-52.76-31.19,204.53,204.53,0,0,1-45.19-50.22c-28-44.05-28.3-89.39-28.17-99,.62-46.56,20.69-83.31,29.17-98.39,9.28-16.59,24.41-37,44.12-57a279.47,279.47,0,0,1,50.18-41.16C168.48,8.78,193.33-2.6,219.68-7.73c3.22-.62,6.52-1.25,9.88-1.72,18.07-2.5,34.94-3.8,48.15-10.7A43.88,43.88,0,0,0,294-34c13.32-19.05,10.72-48.76-1.06-68.81-22.4-38.33-80.57-38.82-101.71-39.78-33.81-1.53-62.06,9.23-81,15.39"/><path class="cls-68" d="M213.64,420.28a276,276,0,0,1-68.1-18.8A228.76,228.76,0,0,1,93,370.71a203.19,203.19,0,0,1-45.24-49.64C19.1,276.59,19,230.59,19.13,221.08c.52-47.14,20.94-84.29,29.46-99.45,9.2-16.43,24.23-36.92,43.83-57a280.33,280.33,0,0,1,49.86-41.33C165.71,8,190.59-3.38,217.07-8.31c3.24-.6,6.55-1.18,9.91-1.61,18.2-2.31,35.14-3.38,48.47-10a43.71,43.71,0,0,0,16.49-13.71c13.55-18.88,11.24-48.62-.51-68.68-22.49-38.56-81.08-38.36-101.29-39-33.65-1-61.23,10.12-79,16.57"/><path class="cls-69" d="M211.31,420.57a277.4,277.4,0,0,1-67.63-18.66,230.83,230.83,0,0,1-52.3-30.34,202.61,202.61,0,0,1-45.3-49.05c-29.34-44.9-29.18-91.59-29.09-101C17.4,173.78,38.16,136.22,46.73,121c9.12-16.26,24.08-36.82,43.53-57.07a284.11,284.11,0,0,1,49.55-41.48c23.12-15.17,48-26.59,74.65-31.32,3.26-.57,6.57-1.11,9.94-1.5,18.33-2.12,35.34-3,48.8-9.39A43.2,43.2,0,0,0,289.92-33.3c13.8-18.7,11.78-48.48.05-68.56C267.4-140.63,208.39-139.75,189.1-140c-33.49-.37-60.4,11-77.07,17.75"/><path class="cls-70" d="M209,420.86a276.45,276.45,0,0,1-67.15-18.51,231.14,231.14,0,0,1-52.08-29.93A201.29,201.29,0,0,1,44.39,324c-30-45.31-29.61-92.68-29.55-102.07.3-48.27,21.41-86.24,30-101.55,9-16.1,23.89-36.77,43.24-57.09A285.17,285.17,0,0,1,137.33,21.6C160.15,6.49,185.11-4.95,211.85-9.47c3.28-.55,6.6-1,10-1.39,18.47-1.93,35.55-2.55,49.13-8.74a42.94,42.94,0,0,0,17-13.33c14-18.53,12.3-48.34.6-68.43-22.65-39-82.08-37.41-100.46-37.27-33.3.25-59.56,11.89-75.09,18.92"/><path class="cls-71" d="M206.65,421.15A279.43,279.43,0,0,1,140,402.79a233.3,233.3,0,0,1-51.85-29.51,199.37,199.37,0,0,1-45.41-47.87C12,279.69,12.64,231.62,12.69,222.3c.1-48.85,21.65-87.22,30.31-102.61C52,103.75,66.71,83,86,62.59a286.08,286.08,0,0,1,48.91-41.81c22.51-15,47.51-26.51,74.38-30.83,3.29-.53,6.62-1,10-1.28,18.6-1.73,35.75-2.13,49.46-8.09A42.79,42.79,0,0,0,285.9-32.56c14.24-18.38,12.83-48.2,1.16-68.31C264.32-140.09,204.48-137.79,187-137.3c-33.12.92-58.73,12.78-73.13,20.11"/><path class="cls-72" d="M204.32,421.45C180,417.85,92.12,401.84,41,326.85,9.61,280.74,10.53,232,10.54,222.71c.07-49.42,21.89-88.2,30.6-103.67,24.23-43,91.08-123.92,175.5-130.84,27.77-2.28,52.22-1.55,67.24-20.38,14.51-18.19,13.36-48.06,1.72-68.19C262.77-139.82,202.54-136.8,186-136a159.33,159.33,0,0,0-71.16,21.29"/> </g></svg>