<svg xmlns="http://www.w3.org/2000/svg" xmlns:xlink="http://www.w3.org/1999/xlink" viewBox="0 0 150.2 340.33"><defs><style>.cls-1,.cls-10,.cls-11,.cls-12,.cls-13,.cls-14,.cls-15,.cls-16,.cls-17,.cls-18,.cls-19,.cls-2,.cls-20,.cls-21,.cls-22,.cls-23,.cls-24,.cls-25,.cls-26,.cls-27,.cls-28,.cls-29,.cls-3,.cls-30,.cls-31,.cls-32,.cls-33,.cls-34,.cls-35,.cls-36,.cls-37,.cls-4,.cls-5,.cls-6,.cls-7,.cls-8,.cls-9{fill:none;stroke-miterlimit:10;}.cls-1{stroke:#fff;}.cls-1,.cls-10,.cls-11,.cls-12,.cls-13,.cls-14,.cls-15,.cls-16,.cls-17,.cls-18,.cls-19,.cls-2,.cls-20,.cls-21,.cls-22,.cls-23,.cls-24,.cls-25,.cls-26,.cls-27,.cls-28,.cls-29,.cls-30,.cls-31,.cls-32,.cls-33,.cls-34,.cls-35,.cls-36,.cls-37,.cls-4,.cls-5,.cls-6,.cls-7,.cls-8,.cls-9{stroke-width:0.2px;}.cls-2{stroke:url(#Безымянный_градиент_151);}.cls-3{stroke-width:0.2px;stroke:url(#Безымянный_градиент_150);}.cls-4{stroke:url(#Безымянный_градиент_149);}.cls-5{stroke:url(#Безымянный_градиент_148);}.cls-6{stroke:url(#Безымянный_градиент_147);}.cls-7{stroke:url(#Безымянный_градиент_146);}.cls-8{stroke:url(#Безымянный_градиент_145);}.cls-9{stroke:url(#Безымянный_градиент_144);}.cls-10{stroke:url(#Безымянный_градиент_143);}.cls-11{stroke:url(#Безымянный_градиент_142);}.cls-12{stroke:url(#Безымянный_градиент_141);}.cls-13{stroke:url(#Безымянный_градиент_140);}.cls-14{stroke:url(#Безымянный_градиент_139);}.cls-15{stroke:url(#Безымянный_градиент_138);}.cls-16{stroke:url(#Безымянный_градиент_137);}.cls-17{stroke:url(#Безымянный_градиент_136);}.cls-18{stroke:url(#Безымянный_градиент_135);}.cls-19{stroke:url(#Безымянный_градиент_134);}.cls-20{stroke:url(#Безымянный_градиент_133);}.cls-21{stroke:url(#Безымянный_градиент_132);}.cls-22{stroke:url(#Безымянный_градиент_131);}.cls-23{stroke:url(#Безымянный_градиент_130);}.cls-24{stroke:url(#Безымянный_градиент_129);}.cls-25{stroke:url(#Безымянный_градиент_128);}.cls-26{stroke:url(#Безымянный_градиент_127);}.cls-27{stroke:url(#Безымянный_градиент_126);}.cls-28{stroke:url(#Безымянный_градиент_125);}.cls-29{stroke:url(#Безымянный_градиент_124);}.cls-30{stroke:url(#Безымянный_градиент_123);}.cls-31{stroke:url(#Безымянный_градиент_122);}.cls-32{stroke:url(#Безымянный_градиент_121);}.cls-33{stroke:url(#Безымянный_градиент_120);}.cls-34{stroke:url(#Безымянный_градиент_119);}.cls-35{stroke:url(#Безымянный_градиент_118);}.cls-36{stroke:url(#Безымянный_градиент_117);}.cls-37{stroke:url(#Градієнт_без_назви_1235);}</style><linearGradient id="Безымянный_градиент_151" x1="28.33" y1="168.72" x2="149.18" y2="168.72" gradientTransform="translate(0 11.85) scale(1 0.94)" gradientUnits="userSpaceOnUse"><stop offset="0" stop-color="#f9fbfe"/><stop offset="0.5" stop-color="#f9f7fb"/><stop offset="1" stop-color="#fdfcfd"/></linearGradient><linearGradient id="Безымянный_градиент_150" x1="27.58" y1="165.43" x2="148.16" y2="165.43" gradientTransform="translate(0 23.71) scale(1 0.89)" gradientUnits="userSpaceOnUse"><stop offset="0" stop-color="#f4f9fd"/><stop offset="0.5" stop-color="#f4f0f8"/><stop offset="1" stop-color="#fcf9fc"/></linearGradient><linearGradient id="Безымянный_градиент_149" x1="26.82" y1="161.71" x2="147.15" y2="161.71" gradientTransform="translate(0 35.56) scale(1 0.83)" gradientUnits="userSpaceOnUse"><stop offset="0" stop-color="#f0f6fc"/><stop offset="0.5" stop-color="#efeaf5"/><stop offset="1" stop-color="#faf6fa"/></linearGradient><linearGradient id="Безымянный_градиент_148" x1="26.06" y1="157.46" x2="146.16" y2="157.46" gradientTransform="translate(0 47.41) scale(1 0.78)" gradientUnits="userSpaceOnUse"><stop offset="0" stop-color="#ecf3fc"/><stop offset="0.5" stop-color="#ebe4f2"/><stop offset="1" stop-color="#f9f4f9"/></linearGradient><linearGradient id="Безымянный_градиент_147" x1="25.29" y1="152.56" x2="145.18" y2="152.56" gradientTransform="translate(0 59.27) scale(1 0.72)" gradientUnits="userSpaceOnUse"><stop offset="0" stop-color="#e8f1fb"/><stop offset="0.5" stop-color="#e7deee"/><stop offset="1" stop-color="#f7f2f8"/></linearGradient><linearGradient id="Безымянный_градиент_146" x1="24.52" y1="146.84" x2="144.23" y2="146.84" gradientTransform="translate(0 71.12) scale(1 0.67)" gradientUnits="userSpaceOnUse"><stop offset="0" stop-color="#e4effa"/><stop offset="0.5" stop-color="#e3d9eb"/><stop offset="1" stop-color="#f6f0f7"/></linearGradient><linearGradient id="Безымянный_градиент_145" x1="23.74" y1="140.08" x2="143.31" y2="140.08" gradientTransform="translate(0 82.98) scale(1 0.61)" gradientUnits="userSpaceOnUse"><stop offset="0" stop-color="#e0ecfa"/><stop offset="0.5" stop-color="#e0d3e8"/><stop offset="1" stop-color="#f5edf6"/></linearGradient><linearGradient id="Безымянный_градиент_144" x1="22.96" y1="131.96" x2="142.42" y2="131.96" gradientTransform="translate(0 94.83) scale(1 0.56)" gradientUnits="userSpaceOnUse"><stop offset="0" stop-color="#ddeaf9"/><stop offset="0.5" stop-color="#dccee6"/><stop offset="1" stop-color="#f4ebf5"/></linearGradient><linearGradient id="Безымянный_градиент_143" x1="22.17" y1="122.05" x2="141.56" y2="122.05" gradientTransform="translate(0 106.68) scale(1 0.5)" gradientUnits="userSpaceOnUse"><stop offset="0" stop-color="#d9e8f8"/><stop offset="0.5" stop-color="#d8c8e3"/><stop offset="1" stop-color="#f3e9f3"/></linearGradient><linearGradient id="Безымянный_градиент_142" x1="21.38" y1="109.65" x2="140.74" y2="109.65" gradientTransform="translate(0 118.54) scale(1 0.44)" gradientUnits="userSpaceOnUse"><stop offset="0" stop-color="#d5e5f7"/><stop offset="0.5" stop-color="#d5c3e0"/><stop offset="1" stop-color="#f1e7f2"/></linearGradient><linearGradient id="Безымянный_градиент_141" x1="20.58" y1="93.71" x2="139.95" y2="93.71" gradientTransform="translate(0 130.39) scale(1 0.39)" gradientUnits="userSpaceOnUse"><stop offset="0" stop-color="#d1e3f7"/><stop offset="0.5" stop-color="#d1bedd"/><stop offset="1" stop-color="#f0e5f1"/></linearGradient><linearGradient id="Безымянный_градиент_140" x1="19.78" y1="72.46" x2="139.2" y2="72.46" gradientTransform="translate(0 142.24) scale(1 0.33)" gradientUnits="userSpaceOnUse"><stop offset="0" stop-color="#cde1f6"/><stop offset="0.5" stop-color="#ceb9da"/><stop offset="1" stop-color="#efe3f0"/></linearGradient><linearGradient id="Безымянный_градиент_139" x1="18.98" y1="42.71" x2="139.06" y2="42.71" gradientTransform="translate(0 154.1) scale(1 0.28)" gradientUnits="userSpaceOnUse"><stop offset="0" stop-color="#cadff6"/><stop offset="0.5" stop-color="#cab4d7"/><stop offset="1" stop-color="#eee1ef"/></linearGradient><linearGradient id="Безымянный_градиент_138" x1="18.17" y1="-1.93" x2="138.95" y2="-1.93" gradientTransform="translate(0 165.95) scale(1 0.22)" gradientUnits="userSpaceOnUse"><stop offset="0" stop-color="#c6ddf5"/><stop offset="0.5" stop-color="#c7afd4"/><stop offset="1" stop-color="#eddfee"/></linearGradient><linearGradient id="Безымянный_градиент_137" x1="17.36" y1="-76.32" x2="138.84" y2="-76.32" gradientTransform="translate(0 177.81) scale(1 0.17)" gradientUnits="userSpaceOnUse"><stop offset="0" stop-color="#c2dbf4"/><stop offset="0.5" stop-color="#c4abd1"/><stop offset="1" stop-color="#ecddec"/></linearGradient><linearGradient id="Безымянный_градиент_136" x1="16.55" y1="-225.1" x2="138.74" y2="-225.1" gradientTransform="translate(0 189.66) scale(1 0.11)" gradientUnits="userSpaceOnUse"><stop offset="0" stop-color="#bfd9f4"/><stop offset="0.5" stop-color="#c1a6cf"/><stop offset="1" stop-color="#ebdbeb"/></linearGradient><linearGradient id="Безымянный_градиент_135" x1="15.74" y1="-671.45" x2="138.63" y2="-671.45" gradientTransform="translate(0 201.51) scale(1 0.06)" gradientUnits="userSpaceOnUse"><stop offset="0" stop-color="#bbd7f3"/><stop offset="0.5" stop-color="#bea2cc"/><stop offset="1" stop-color="#ead9ea"/></linearGradient><linearGradient id="Безымянный_градиент_134" x1="14.93" y1="163.79" x2="138.51" y2="163.79" gradientTransform="translate(0 213.37) scale(1 0)" gradientUnits="userSpaceOnUse"><stop offset="0" stop-color="#b7d5f2"/><stop offset="0.5" stop-color="#bb9ec9"/><stop offset="1" stop-color="#e9d7e9"/></linearGradient><linearGradient id="Безымянный_градиент_133" x1="14.11" y1="1113.93" x2="138.41" y2="1113.93" gradientTransform="matrix(1, 0, 0, -0.06, 0, 225.22)" gradientUnits="userSpaceOnUse"><stop offset="0" stop-color="#b4d3f2"/><stop offset="0.5" stop-color="#b89ac7"/><stop offset="1" stop-color="#e8d5e8"/></linearGradient><linearGradient id="Безымянный_градиент_132" x1="13.29" y1="667.59" x2="138.3" y2="667.59" gradientTransform="matrix(1, 0, 0, -0.11, 0, 237.07)" gradientUnits="userSpaceOnUse"><stop offset="0" stop-color="#b0d1f1"/><stop offset="0.5" stop-color="#b596c5"/><stop offset="1" stop-color="#e7d3e7"/></linearGradient><linearGradient id="Безымянный_градиент_131" x1="12.47" y1="518.8" x2="138.2" y2="518.8" gradientTransform="matrix(1, 0, 0, -0.17, 0, 248.93)" gradientUnits="userSpaceOnUse"><stop offset="0" stop-color="#adcff0"/><stop offset="0.5" stop-color="#b292c2"/><stop offset="1" stop-color="#e6d1e6"/></linearGradient><linearGradient id="Безымянный_градиент_130" x1="11.64" y1="444.41" x2="138.09" y2="444.41" gradientTransform="matrix(1, 0, 0, -0.22, 0, 260.78)" gradientUnits="userSpaceOnUse"><stop offset="0" stop-color="#a9cdf0"/><stop offset="0.5" stop-color="#af8fc0"/><stop offset="1" stop-color="#e5cfe4"/></linearGradient><linearGradient id="Безымянный_градиент_129" x1="10.82" y1="399.78" x2="137.98" y2="399.78" gradientTransform="matrix(1, 0, 0, -0.28, 0, 272.64)" gradientUnits="userSpaceOnUse"><stop offset="0" stop-color="#a5cbef"/><stop offset="0.5" stop-color="#ac8bbe"/><stop offset="1" stop-color="#e4cde3"/></linearGradient><linearGradient id="Безымянный_градиент_128" x1="9.99" y1="370.02" x2="137.87" y2="370.02" gradientTransform="matrix(1, 0, 0, -0.33, 0, 284.49)" gradientUnits="userSpaceOnUse"><stop offset="0" stop-color="#a2c9ee"/><stop offset="0.5" stop-color="#aa88bc"/><stop offset="1" stop-color="#e3cbe2"/></linearGradient><linearGradient id="Безымянный_градиент_127" x1="9.17" y1="348.76" x2="137.76" y2="348.76" gradientTransform="matrix(1, 0, 0, -0.39, 0, 296.34)" gradientUnits="userSpaceOnUse"><stop offset="0" stop-color="#9fc7ee"/><stop offset="0.5" stop-color="#a785ba"/><stop offset="1" stop-color="#e2c9e1"/></linearGradient><linearGradient id="Безымянный_градиент_126" x1="8.34" y1="332.82" x2="137.65" y2="332.82" gradientTransform="matrix(1, 0, 0, -0.44, 0, 308.2)" gradientUnits="userSpaceOnUse"><stop offset="0" stop-color="#9bc5ed"/><stop offset="0.5" stop-color="#a581b8"/><stop offset="1" stop-color="#e1c7e0"/></linearGradient><linearGradient id="Безымянный_градиент_125" x1="7.51" y1="320.42" x2="137.54" y2="320.42" gradientTransform="matrix(1, 0, 0, -0.5, 0, 320.05)" gradientUnits="userSpaceOnUse"><stop offset="0" stop-color="#98c4ec"/><stop offset="0.5" stop-color="#a27fb6"/><stop offset="1" stop-color="#e0c5df"/></linearGradient><linearGradient id="Безымянный_градиент_124" x1="6.68" y1="310.51" x2="137.43" y2="310.51" gradientTransform="matrix(1, 0, 0, -0.56, 0, 331.9)" gradientUnits="userSpaceOnUse"><stop offset="0" stop-color="#95c2ec"/><stop offset="0.5" stop-color="#a07cb4"/><stop offset="1" stop-color="#dfc3de"/></linearGradient><linearGradient id="Безымянный_градиент_123" x1="5.85" y1="302.39" x2="137.32" y2="302.39" gradientTransform="matrix(1, 0, 0, -0.61, 0, 343.76)" gradientUnits="userSpaceOnUse"><stop offset="0" stop-color="#92c1eb"/><stop offset="0.5" stop-color="#9d79b3"/><stop offset="1" stop-color="#dec2dd"/></linearGradient><linearGradient id="Безымянный_градиент_122" x1="5.01" y1="295.63" x2="137.21" y2="295.63" gradientTransform="matrix(1, 0, 0, -0.67, 0, 355.61)" gradientUnits="userSpaceOnUse"><stop offset="0" stop-color="#8fbfeb"/><stop offset="0.5" stop-color="#9b77b1"/><stop offset="1" stop-color="#ddc0dc"/></linearGradient><linearGradient id="Безымянный_градиент_121" x1="4.18" y1="289.91" x2="137.1" y2="289.91" gradientTransform="matrix(1, 0, 0, -0.72, 0, 367.47)" gradientUnits="userSpaceOnUse"><stop offset="0" stop-color="#8cbeea"/><stop offset="0.5" stop-color="#9974b0"/><stop offset="1" stop-color="#ddbeda"/></linearGradient><linearGradient id="Безымянный_градиент_120" x1="3.35" y1="285" x2="136.99" y2="285" gradientTransform="matrix(1, 0, 0, -0.78, 0, 379.32)" gradientUnits="userSpaceOnUse"><stop offset="0" stop-color="#8abcea"/><stop offset="0.5" stop-color="#9772af"/><stop offset="1" stop-color="#dcbcd9"/></linearGradient><linearGradient id="Безымянный_градиент_119" x1="2.51" y1="280.75" x2="136.88" y2="280.75" gradientTransform="matrix(1, 0, 0, -0.83, 0, 391.17)" gradientUnits="userSpaceOnUse"><stop offset="0" stop-color="#87bbe9"/><stop offset="0.5" stop-color="#9570ad"/><stop offset="1" stop-color="#dbbad8"/></linearGradient><linearGradient id="Безымянный_градиент_118" x1="1.67" y1="277.03" x2="136.77" y2="277.03" gradientTransform="matrix(1, 0, 0, -0.89, 0, 403.03)" gradientUnits="userSpaceOnUse"><stop offset="0" stop-color="#84b9e8"/><stop offset="0.5" stop-color="#926eac"/><stop offset="1" stop-color="#dab8d7"/></linearGradient><linearGradient id="Безымянный_градиент_117" x1="0.84" y1="273.75" x2="136.66" y2="273.75" gradientTransform="matrix(1, 0, 0, -0.94, 0, 414.88)" gradientUnits="userSpaceOnUse"><stop offset="0" stop-color="#82b8e8"/><stop offset="0.5" stop-color="#906cab"/><stop offset="1" stop-color="#d9b7d6"/></linearGradient><linearGradient id="Градієнт_без_назви_1235" y1="270.83" x2="136.55" y2="270.83" gradientTransform="matrix(1, 0, 0, -1, 0, 426.73)" gradientUnits="userSpaceOnUse"><stop offset="0" stop-color="#7fb7e7"/><stop offset="0.5" stop-color="#8e6aaa"/><stop offset="1" stop-color="#d8b5d5"/></linearGradient></defs><g id="Слой_2" data-name="Слой 2"><g id="Слой_1-2" data-name="Слой 1"><g id="ОБРАНИЙ"><path class="cls-1" d="M97.23,3C87.06,16.6,74.89,26.24,63.46,37.34S40.94,61.69,34.62,79.84c-10.26,29.43-5.39,67.95,9.41,92.57,6.49,10.8,14.55,19.15,22.66,27.08A574.41,574.41,0,0,0,124.36,249c8.5,6.35,17.61,13.07,22.34,25.48,3.83,10,4.11,22.47,2.4,33.76s-5.24,21.75-8.74,32.07"/><path class="cls-2" d="M140.25,339.5c3-10.39,6.3-20.85,7.86-32.09.45-3.25.75-6.58.89-9.9.34-8.33-.38-16.69-2.94-24a44.89,44.89,0,0,0-11.61-17.58,122.1,122.1,0,0,0-9.77-8.29l-3-2.37c-4.43-3.55-8.93-7.09-13.4-10.67-14.23-11.41-28.23-23.26-41.86-36-1.76-1.65-3.51-3.31-5.26-5a113,113,0,0,1-17.88-21.69,104.24,104.24,0,0,1-12.88-35.09C26.94,117.69,28,97.2,34.12,79.8,39.6,64.33,48.45,52.35,57.86,42.14c1.52-1.66,3.07-3.27,4.62-4.83,11-11.11,22.76-20.78,32.27-34.39"/><path class="cls-3" d="M140.14,338.71c2.52-10.47,5.57-20.95,7-32.12.42-3.29.7-6.64.84-10,.35-8.32-.15-16.64-2.54-24.12a45.37,45.37,0,0,0-11-17.78,118.39,118.39,0,0,0-9.43-8.5c-1-.81-1.94-1.61-2.92-2.43-4.37-3.66-8.88-7.26-13.37-10.83-14.41-11.45-28.65-22.91-42.53-35.35q-2.7-2.4-5.37-4.89c-6.56-6.17-13-12.91-18.26-21.45a101,101,0,0,1-13-34.86c-3.46-19-2.18-39.33,4.07-56.65C39.14,64.43,47.87,52.44,57,42.13c1.48-1.66,3-3.29,4.48-4.86C72.12,26.17,83.41,16.46,92.27,2.84"/><path class="cls-4" d="M140,337.92c2-10.56,4.84-21,6.11-32.16.37-3.32.63-6.69.78-10,.37-8.32.07-16.59-2.15-24.23a45.53,45.53,0,0,0-10.37-18,108.3,108.3,0,0,0-9.07-8.71c-.94-.84-1.9-1.66-2.86-2.5-4.3-3.78-8.83-7.42-13.33-11-14.59-11.5-29.09-22.56-43.22-34.68-1.83-1.56-3.66-3.14-5.47-4.77-6.69-6-13.24-12.64-18.64-21.2a98.3,98.3,0,0,1-13.1-34.64c-3.44-19-1.9-39.1,4.43-56.34,5.53-15.19,14.16-27.18,23-37.6q2.14-2.5,4.33-4.88C70.74,26.14,81.59,16.39,89.79,2.75"/><path class="cls-5" d="M139.93,337.12c1.53-10.63,4.1-21.13,5.22-32.18.34-3.36.57-6.75.73-10.09.38-8.31.29-16.52-1.75-24.32a46.34,46.34,0,0,0-9.76-18.16,106,106,0,0,0-8.72-8.92c-.91-.85-1.86-1.69-2.8-2.56-4.22-3.9-8.77-7.59-13.29-11.15-14.77-11.54-29.52-22.21-43.9-34q-2.79-2.28-5.57-4.66c-6.82-5.87-13.52-12.37-19-21a95.78,95.78,0,0,1-13.22-34.42,107.87,107.87,0,0,1,4.8-56c5.56-15.06,14.08-27.05,22.71-37.57q2.07-2.52,4.18-4.91C69.36,26.11,79.77,16.32,87.31,2.67"/><path class="cls-6" d="M139.82,336.33c1-10.72,3.36-21.23,4.34-32.22.31-3.39.51-6.8.68-10.14.4-8.31.51-16.46-1.35-24.43a47.09,47.09,0,0,0-9.15-18.35,97.13,97.13,0,0,0-8.37-9.12c-.88-.88-1.81-1.74-2.73-2.63A163.75,163.75,0,0,0,110,228.14C95,216.55,80,206.26,65.41,194.8c-1.9-1.48-3.8-3-5.68-4.53-6.95-5.74-13.8-12.11-19.4-20.72A93.14,93.14,0,0,1,27,135.36a106.47,106.47,0,0,1,5.16-55.71c5.62-14.92,14-26.92,22.37-37.55,1.32-1.68,2.66-3.33,4-4.93C68,26.09,78,16.25,84.84,2.59"/><path class="cls-7" d="M139.71,335.54c.55-10.8,2.62-21.33,3.46-32.25.27-3.43.46-6.86.63-10.21.42-8.3.73-16.38-1-24.52A47.93,47.93,0,0,0,134.31,250a89.77,89.77,0,0,0-8-9.33c-.85-.9-1.76-1.78-2.66-2.7a131.86,131.86,0,0,0-13.23-11.46C95.28,214.89,80,205,65.15,193.86q-2.91-2.15-5.78-4.41C52.3,183.86,45.29,177.61,39.59,169a90.77,90.77,0,0,1-13.44-34,104.92,104.92,0,0,1,5.51-55.4c5.67-14.78,13.93-26.78,22-37.51q1.92-2.55,3.88-5c9-11.07,18.56-21,24.79-34.62"/><path class="cls-8" d="M139.6,334.74c.07-10.87,1.88-21.42,2.59-32.28.22-3.46.39-6.91.57-10.26.43-8.3.94-16.31-.55-24.62a49.15,49.15,0,0,0-7.93-18.74,85.36,85.36,0,0,0-7.66-9.54c-.83-.92-1.72-1.82-2.6-2.76a108.27,108.27,0,0,0-13.2-11.62c-15.27-11.71-30.79-21.21-45.93-32-2-1.4-3.93-2.82-5.88-4.29-7.2-5.45-14.36-11.58-20.16-20.23a88.65,88.65,0,0,1-13.56-33.75c-3.35-18.94-.71-38.17,5.88-55.09C36.87,64.93,45,52.94,52.86,42.09c1.23-1.7,2.47-3.37,3.73-5C65.22,26,74.3,16.11,79.88,2.43"/><path class="cls-9" d="M139.5,334c-.43-11,1.12-21.52,1.7-32.31.19-3.51.33-7,.52-10.33.45-8.29,1.15-16.23-.16-24.72a50.64,50.64,0,0,0-7.3-18.93,81,81,0,0,0-7.32-9.74c-.8-.95-1.67-1.86-2.53-2.83a94.6,94.6,0,0,0-13.17-11.78C95.79,211.55,80,202.44,64.63,192c-2-1.36-4-2.73-6-4.17-7.33-5.3-14.63-11.31-20.54-20a86.36,86.36,0,0,1-13.67-33.53c-3.33-18.92-.42-37.94,6.24-54.78C36.42,65,44.44,53,52,42.08c1.18-1.7,2.36-3.39,3.58-5C63.84,26,72.48,16,77.4,2.35"/><path class="cls-10" d="M139.39,333.16c-.92-11,.37-21.62.82-32.35.15-3.54.27-7,.47-10.38.46-8.29,1.36-16.15.24-24.82a52.06,52.06,0,0,0-6.69-19.12,75.47,75.47,0,0,0-7-10c-.77-1-1.62-1.9-2.46-2.88a82.38,82.38,0,0,0-13.14-12C96,209.89,80,201.18,64.38,191.05c-2-1.31-4.08-2.65-6.09-4-7.46-5.17-14.91-11-20.92-19.74A84.37,84.37,0,0,1,23.59,134c-3.31-18.91-.14-37.72,6.6-54.48C36,65.13,43.87,53.15,51.2,42.07c1.13-1.71,2.26-3.4,3.43-5C62.46,26,70.66,16,74.92,2.27"/><path class="cls-11" d="M139.28,332.36c-1.41-11.11-.38-21.71-.06-32.37.11-3.58.22-7.08.42-10.45.48-8.28,1.56-16.07.64-24.92a53.78,53.78,0,0,0-6.08-19.31,72,72,0,0,0-6.62-10.16c-.74-1-1.57-1.94-2.39-3a73.79,73.79,0,0,0-13.11-12.1c-15.8-11.86-32.07-20.18-48-30-2.07-1.28-4.14-2.57-6.2-3.93-7.57-5-15.18-10.79-21.29-19.5a82.32,82.32,0,0,1-13.9-33.07c-3.28-18.89.16-37.49,7-54.17,5.8-14.22,13.61-26.19,20.66-37.38,1.09-1.72,2.17-3.43,3.29-5.08C61.08,26,68.84,15.9,72.44,2.18"/><path class="cls-12" d="M139.17,331.57c-1.9-11.2-1.13-21.81-.93-32.4.06-3.62.15-7.14.36-10.51.5-8.28,1.75-16,1-25a55.91,55.91,0,0,0-5.47-19.51,68.18,68.18,0,0,0-6.26-10.36c-.72-1-1.53-2-2.33-3a67,67,0,0,0-13.08-12.26c-16-11.91-32.5-19.84-48.64-29.31-2.1-1.23-4.21-2.49-6.3-3.81-7.7-4.87-15.45-10.52-21.67-19.25a80.28,80.28,0,0,1-14-32.85c-3.26-18.86.44-37.27,7.32-53.86,5.84-14.08,13.54-26,20.33-37.35,1-1.72,2.06-3.44,3.14-5.11C59.71,26,67,15.83,70,2.1"/><path class="cls-13" d="M139.07,330.77c-2.4-11.27-1.89-21.9-1.82-32.43,0-3.65.09-7.19.31-10.57.51-8.27,1.94-15.89,1.44-25.12A58,58,0,0,0,134.14,243a63.38,63.38,0,0,0-5.91-10.58c-.69-1-1.48-2-2.26-3.08a62,62,0,0,0-13-12.42C96.77,204.93,80,197.39,63.61,188.24c-2.14-1.19-4.29-2.4-6.41-3.68-7.83-4.73-15.73-10.26-22.06-19A78.5,78.5,0,0,1,21,132.92c-3.24-18.84.73-37,7.68-53.55,5.87-13.94,13.46-25.89,20-37.32,1-1.73,2-3.45,3-5.13C58.34,26,65.2,15.76,67.49,2"/><path class="cls-14" d="M139,330c-2.89-11.35-2.65-22-2.7-32.46,0-3.69,0-7.25.26-10.63.53-8.27,2.13-15.81,1.83-25.22a60.44,60.44,0,0,0-4.23-19.89A61.16,61.16,0,0,0,128.55,231c-.66-1.05-1.43-2.07-2.19-3.15a57.43,57.43,0,0,0-13-12.58c-16.32-12-33.36-19.15-50-28-2.17-1.15-4.35-2.33-6.51-3.57-8-4.58-16-10-22.44-18.76a76.71,76.71,0,0,1-14.23-32.41c-3.22-18.82,1-36.81,8-53.24C34.13,65.52,41.61,53.59,47.87,42c.93-1.73,1.86-3.46,2.83-5.16C57,26,63.37,15.69,65,1.94"/><path class="cls-15" d="M138.85,329.19c-3.38-11.44-3.41-22.11-3.57-32.5-.06-3.73,0-7.3.19-10.69.55-8.26,2.32-15.71,2.24-25.32a63.53,63.53,0,0,0-3.62-20.08,58.12,58.12,0,0,0-5.22-11c-.63-1.06-1.38-2.11-2.13-3.21a53.17,53.17,0,0,0-13-12.74c-16.5-12-33.79-18.8-50.67-27.29-2.21-1.11-4.42-2.24-6.61-3.44-8.08-4.45-16.27-9.74-22.82-18.52-6.31-8.48-12.13-19.22-14.34-32.19-3.2-18.8,1.3-36.58,8.41-52.93C33.67,65.62,41,53.71,47,42c.89-1.73,1.77-3.48,2.69-5.18C55.6,26,61.55,15.62,62.53,1.86"/><path class="cls-16" d="M138.74,328.39c-3.86-11.51-4.17-22.2-4.45-32.52-.11-3.77-.09-7.36.14-10.75.57-8.26,2.49-15.63,2.64-25.42a66.53,66.53,0,0,0-3-20.27,55.63,55.63,0,0,0-4.86-11.2c-.61-1.09-1.34-2.16-2.07-3.28-3.43-5.3-8.19-9.44-12.94-12.89C97.51,200,80,193.6,62.84,185.43c-2.25-1.07-4.5-2.16-6.72-3.32-8.21-4.3-16.54-9.48-23.2-18.28-6.33-8.36-12.26-19-14.45-32-3.18-18.78,1.59-36.35,8.77-52.62,6-13.53,13.24-25.42,19-37.22.84-1.74,1.66-3.5,2.54-5.22,5.5-10.79,11-21.26,11.31-35"/><path class="cls-17" d="M138.64,327.6C134.28,316,133.7,305.3,133.3,295a98.83,98.83,0,0,1,.09-10.8c.58-8.26,2.66-15.54,3-25.53a70,70,0,0,0-2.4-20.46,52.87,52.87,0,0,0-4.51-11.4c-.58-1.11-1.29-2.2-2-3.35-3.36-5.43-8.13-9.61-12.91-13.05-16.86-12.14-34.66-18.11-52-25.95-2.28-1-4.56-2.08-6.82-3.21-8.34-4.15-16.81-9.21-23.58-18-6.34-8.26-12.39-18.77-14.57-31.73-3.15-18.77,1.88-36.13,9.13-52.32C32.75,65.82,39.92,54,45.37,42c.79-1.74,1.56-3.51,2.39-5.24C52.88,26,57.91,15.47,57.57,1.7"/><path class="cls-18" d="M138.53,326.81c-4.85-11.68-5.71-22.41-6.22-32.59a89.19,89.19,0,0,1,0-10.87c.6-8.25,2.82-15.44,3.44-25.62A74.29,74.29,0,0,0,134,237.07a50.75,50.75,0,0,0-4.16-11.61c-.55-1.12-1.24-2.24-1.93-3.41-3.28-5.55-8.08-9.77-12.88-13.21-17-12.19-35.09-17.77-52.71-25.28-2.31-1-4.63-2-6.92-3.08-8.47-4-17.09-9-24-17.79-6.35-8.16-12.51-18.56-14.68-31.51-3.13-18.75,2.16-35.9,9.49-52,6-13.25,13.12-25.1,18.29-37.16.75-1.75,1.46-3.52,2.24-5.27C51.52,26,56.09,15.4,55.09,1.61"/><path class="cls-19" d="M138.42,326c-5.34-11.75-6.47-22.5-7.09-32.62a81.27,81.27,0,0,1,0-10.92c.62-8.25,3-15.36,3.84-25.73A78.45,78.45,0,0,0,134,235.9a48.68,48.68,0,0,0-3.81-11.82c-.53-1.15-1.19-2.28-1.86-3.48-3.21-5.68-8-9.94-12.85-13.37C98.24,195,79.93,189.81,62.07,182.62c-2.35-.94-4.7-1.91-7-3-8.59-3.86-17.34-8.7-24.33-17.54-6.36-8.06-12.64-18.34-14.79-31.29-3.12-18.72,2.44-35.67,9.85-51.7C31.83,66,38.81,54.19,43.7,42c.71-1.75,1.37-3.53,2.1-5.29,4.37-10.65,8.46-21.38,6.81-35.18"/><path class="cls-20" d="M138.31,325.22c-5.83-11.84-7.24-22.6-8-32.65a73.65,73.65,0,0,1-.07-11c.63-8.24,3.13-15.26,4.23-25.82a83.21,83.21,0,0,0-.55-21,47.75,47.75,0,0,0-3.46-12c-.51-1.17-1.15-2.33-1.8-3.54-3.13-5.82-8-10.12-12.82-13.53-17.39-12.28-35.95-17.08-54.06-23.94-2.39-.91-4.77-1.83-7.14-2.84C46,175.12,37.06,170.4,30,161.55c-6.38-8-12.77-18.12-14.9-31.07C12,111.78,17.78,95,25.27,79.09c6.09-13,13-24.78,17.6-37.1.66-1.75,1.27-3.54,1.94-5.32,4-10.6,7.63-21.41,5.33-35.22"/><path class="cls-21" d="M138.2,324.43c-6.32-11.92-8-22.7-8.85-32.68a68.54,68.54,0,0,1-.12-11.05c.65-8.24,3.28-15.18,4.63-25.93a88.45,88.45,0,0,0,.06-21.23,46,46,0,0,0-3.11-12.23c-.48-1.18-1.1-2.37-1.73-3.6-3.06-6-7.93-10.28-12.79-13.69-17.57-12.33-36.38-16.73-54.74-23.27-2.42-.86-4.84-1.75-7.24-2.72-8.84-3.58-17.88-8.18-25.09-17.06-6.39-7.85-12.89-17.9-15-30.84-3.07-18.68,3-35.22,10.58-51.08C30.9,66.21,37.71,54.43,42,42c.61-1.76,1.17-3.56,1.79-5.35,3.65-10.54,6.79-21.45,3.83-35.27"/><path class="cls-22" d="M138.1,323.63c-6.82-12-8.79-22.8-9.74-32.71a63.22,63.22,0,0,1-.17-11.11c.66-8.23,3.41-15.09,5-26a94.35,94.35,0,0,0,.67-21.43,44.41,44.41,0,0,0-2.76-12.43c-.45-1.21-1-2.41-1.66-3.67-3-6.08-7.88-10.45-12.76-13.85C99,190,79.9,186,61.29,179.81c-2.45-.82-4.9-1.66-7.34-2.59-9-3.44-18.15-7.93-25.47-16.82-6.4-7.75-13-17.68-15.13-30.62-3-18.66,3.29-35,10.94-50.77,6.15-12.7,12.87-24.45,16.92-37,.56-1.76,1.07-3.57,1.64-5.38,3.28-10.48,5.95-21.48,2.33-35.31"/><path class="cls-23" d="M138,322.84c-7.31-12.08-9.57-22.9-10.61-32.74a59.7,59.7,0,0,1-.23-11.17c.68-8.23,3.55-15,5.43-26.12a101.51,101.51,0,0,0,1.28-21.62,43.38,43.38,0,0,0-2.41-12.65c-.43-1.22-1-2.45-1.59-3.73-2.91-6.21-7.83-10.61-12.73-14-17.92-12.41-37.24-16-56.09-21.92-2.49-.78-5-1.59-7.45-2.48-9.1-3.29-18.41-7.67-25.85-16.57-6.4-7.66-13.15-17.46-15.24-30.4-3-18.64,3.57-34.76,11.29-50.46C30,66.4,36.62,54.68,40.37,42c.52-1.76,1-3.57,1.5-5.41C44.8,26.14,47,15.05,42.7,1.21"/><path class="cls-24" d="M137.88,322.05a73.78,73.78,0,0,1-11.49-32.78,55.82,55.82,0,0,1-.28-11.23c.7-8.22,3.67-14.92,5.83-26.22A108.84,108.84,0,0,0,133.83,230a42.55,42.55,0,0,0-2.05-12.85,38.85,38.85,0,0,0-1.54-3.8c-2.82-6.34-7.77-10.78-12.69-14.17-18.1-12.45-37.67-15.68-56.77-21.25-2.52-.74-5.05-1.5-7.55-2.36C44,172.43,34.55,168.17,27,159.26,20.59,151.7,13.73,142,11.64,129.09c-3-18.63,3.86-34.54,11.66-50.16C29.52,66.5,36.08,54.81,39.54,42c.48-1.76.89-3.58,1.35-5.43,2.58-10.36,4.26-21.55-.67-35.4"/><path class="cls-25" d="M137.77,321.25a72.33,72.33,0,0,1-12.37-32.8,52.55,52.55,0,0,1-.33-11.29c.71-8.22,3.79-14.85,6.22-26.32a116.32,116.32,0,0,0,2.52-22,41.84,41.84,0,0,0-1.71-13.05,36.56,36.56,0,0,0-1.47-3.87c-2.74-6.47-7.72-10.95-12.66-14.32-18.28-12.5-38.1-15.34-57.45-20.59-2.56-.69-5.11-1.42-7.65-2.23-9.35-3-18.94-7.17-26.61-16.08-6.42-7.46-13.4-17-15.47-29.95-3-18.6,4.14-34.32,12-49.85,6.24-12.29,12.73-24,15.9-36.94.43-1.76.79-3.59,1.2-5.46,2.23-10.3,3.42-21.58-2.17-35.44"/><path class="cls-26" d="M137.67,320.46a71.24,71.24,0,0,1-13.26-32.84,50.26,50.26,0,0,1-.38-11.35c.73-8.21,3.91-14.77,6.62-26.42a124.65,124.65,0,0,0,3.13-22.19,40.65,40.65,0,0,0-1.36-13.27,37.32,37.32,0,0,0-1.4-3.93c-2.67-6.6-7.67-11.11-12.63-14.48-18.46-12.55-38.53-15-58.12-19.91-2.6-.66-5.19-1.34-7.76-2.12-9.48-2.86-19.2-6.91-27-15.84-6.43-7.36-13.53-16.8-15.58-29.72C7,109.81,14.36,94.3,22.32,78.86,28.59,66.69,35,55.06,37.88,42c.38-1.77.7-3.61,1-5.49C40.82,26.22,41.51,14.84,35.26,1"/><path class="cls-27" d="M137.56,319.66c-9.27-12.39-12.69-23.28-14.13-32.86a47.77,47.77,0,0,1-.44-11.41c.74-8.21,4-14.7,7-26.52a135.36,135.36,0,0,0,3.74-22.39,40,40,0,0,0-1-13.47,35.33,35.33,0,0,0-1.33-4c-2.59-6.73-7.62-11.28-12.59-14.64-18.64-12.59-39-14.63-58.81-19.24-2.63-.61-5.26-1.26-7.86-2-9.61-2.72-19.47-6.66-27.37-15.6C18.35,150.28,11.13,141,9.08,128c-2.94-18.56,4.7-33.87,12.75-49.22,6.29-12,12.64-23.64,15.21-36.88.35-1.78.61-3.62.9-5.52C39.5,26.24,39.69,14.77,32.79.88"/><path class="cls-28" d="M137.45,318.87c-9.76-12.47-13.47-23.38-15-32.89A45.6,45.6,0,0,1,122,274.5c.76-8.2,4.12-14.63,7.42-26.62a144.68,144.68,0,0,0,4.35-22.58,39.67,39.67,0,0,0-.65-13.68,36.13,36.13,0,0,0-1.27-4.06c-2.51-6.86-7.57-11.44-12.56-14.8-18.82-12.63-39.4-14.28-59.49-18.57-2.66-.56-5.32-1.17-8-1.87C42.05,169.75,32.06,165.91,24,157c-6.43-7.17-13.77-16.37-15.8-29.28-2.92-18.54,5-33.64,13.1-48.91,6.33-11.89,12.61-23.47,14.88-36.85.3-1.78.52-3.63.75-5.54C38.19,26.26,37.87,14.7,30.31.8"/><path class="cls-29" d="M137.34,318.08c-10.25-12.56-14.25-23.48-15.89-32.93a43.54,43.54,0,0,1-.54-11.53c.78-8.2,4.22-14.57,7.82-26.72a157.78,157.78,0,0,0,5-22.77,38.92,38.92,0,0,0-.3-13.89,36.34,36.34,0,0,0-1.2-4.13c-2.43-7-7.52-11.6-12.53-15-19-12.64-39.84-13.9-60.16-17.9q-4.06-.78-8.08-1.75c-9.85-2.44-20-6.16-28.13-15.11-6.44-7.07-13.89-16.15-15.91-29.06-2.9-18.52,5.25-33.41,13.46-48.6C27.19,67,33.42,55.43,35.38,41.92c.26-1.78.43-3.64.6-5.57.9-10.07.07-21.72-8.15-35.63"/><path class="cls-30" d="M137.24,317.28c-10.75-12.63-15.05-23.57-16.78-32.95a41.46,41.46,0,0,1-.59-11.6c.79-8.19,4.32-14.5,8.21-26.82a169.07,169.07,0,0,0,5.59-23,38.9,38.9,0,0,0,0-14.09,34.66,34.66,0,0,0-1.13-4.2c-2.35-7.12-7.47-11.76-12.5-15.11-19.2-12.68-40.27-13.55-60.84-17.23-2.74-.48-5.47-1-8.18-1.63-10-2.29-20.24-5.91-28.51-14.86-6.44-7-14-15.93-16-28.84C3.64,108.49,12.06,93.8,20.35,78.7c6.38-11.62,12.54-23.14,14.2-36.79.21-1.78.34-3.64.45-5.59.58-10-.78-21.76-9.65-35.68"/><path class="cls-31" d="M137.13,316.49c-11.24-12.71-15.83-23.67-17.65-33a39.87,39.87,0,0,1-.65-11.65c.81-8.19,4.41-14.45,8.61-26.92a184,184,0,0,0,6.2-23.16,38.49,38.49,0,0,0,.39-14.3,34.7,34.7,0,0,0-1.06-4.25c-2.27-7.26-7.42-11.94-12.47-15.28-19.38-12.73-40.7-13.2-61.52-16.56-2.77-.43-5.53-.92-8.28-1.51-10.11-2.14-20.49-5.66-28.89-14.62-6.44-6.88-14.15-15.71-16.14-28.6-2.86-18.49,5.81-33,14.19-48,6.4-11.49,12.51-23,13.85-36.75.18-1.79.26-3.66.31-5.63.26-10-1.62-21.79-11.15-35.72"/><path class="cls-32" d="M137,315.7c-11.72-12.8-16.62-23.76-18.53-33a38.54,38.54,0,0,1-.7-11.72c.82-8.18,4.49-14.39,9-27a198.19,198.19,0,0,0,6.81-23.34,38.34,38.34,0,0,0,.75-14.51,33.41,33.41,0,0,0-1-4.32c-2.19-7.39-7.37-12.11-12.44-15.44-19.56-12.77-41.13-12.85-62.2-15.88-2.8-.4-5.6-.85-8.38-1.39-10.24-2-20.75-5.42-29.27-14.38C14.62,147.89,6.8,139.19,4.82,126.3,2,107.84,10.91,93.55,19.37,78.62,25.8,67.27,31.85,55.8,32.88,41.9c.13-1.79.17-3.67.16-5.65C33,26.34,30.58,14.42,20.39.48"/><path class="cls-33" d="M136.91,314.9c-12.21-12.87-17.4-23.85-19.41-33a37.21,37.21,0,0,1-.75-11.77c.84-8.18,4.57-14.34,9.41-27.12a218,218,0,0,0,7.42-23.54,38.23,38.23,0,0,0,1.1-14.72,30.73,30.73,0,0,0-.94-4.38c-2.1-7.52-7.31-12.27-12.4-15.6-19.73-12.81-41.56-12.5-62.87-15.21-2.84-.35-5.68-.76-8.49-1.27-10.36-1.86-21-5.17-29.65-14.13C13.88,147.42,5.93,138.84,4,126c-2.81-18.44,6.37-32.53,14.91-47.37,6.46-11.22,12.47-22.66,13.18-36.69.09-1.79.08-3.68,0-5.68-.37-9.86-3.3-21.86-14.15-35.82"/><path class="cls-34" d="M136.81,314.11c-12.71-12.95-18.2-23.94-20.3-33.08a35.85,35.85,0,0,1-.8-11.84c.85-8.17,4.65-14.29,9.81-27.22a235.4,235.4,0,0,0,8-23.73A37.92,37.92,0,0,0,135,203.32a31.42,31.42,0,0,0-.87-4.45c-2-7.65-7.26-12.44-12.37-15.75-19.91-12.87-42-12.16-63.55-14.55-2.87-.31-5.74-.68-8.59-1.14-10.49-1.72-21.26-4.93-30-13.89-6.45-6.6-14.53-15.06-16.48-27.94C.32,107.18,9.73,93.28,18.38,78.54,24.84,67.44,30.83,56,31.22,41.88c.05-1.79,0-3.7-.15-5.7C30.4,26.35,26.94,14.28,15.44.31"/><path class="cls-35" d="M136.7,313.32c-13.2-13-19-24-21.17-33.12a34.79,34.79,0,0,1-.86-11.89c.87-8.17,4.73-14.25,10.2-27.32a251.75,251.75,0,0,0,8.65-23.92,37.79,37.79,0,0,0,1.8-15.13,30.5,30.5,0,0,0-.8-4.52c-1.93-7.78-7.21-12.61-12.34-15.91C102.09,168.6,79.77,169.7,58,167.64c-2.91-.27-5.81-.6-8.69-1C38.64,165,27.74,161.93,18.85,153c-6.46-6.51-14.65-14.84-16.59-27.72-2.78-18.4,6.9-32.09,15.63-46.75,6.49-11,12.43-22.34,12.49-36.63a52.59,52.59,0,0,0-.29-5.73c-1-9.78-5-21.94-17.13-35.91"/><path class="cls-36" d="M136.59,312.52c-13.69-13.11-19.78-24.12-22-33.14a33.65,33.65,0,0,1-.91-12c.89-8.16,4.8-14.21,10.6-27.42,2.74-6.22,5.87-13.93,9.27-24.11a38.31,38.31,0,0,0,2.15-15.34,32.26,32.26,0,0,0-.74-4.58c-1.85-7.91-7.15-12.77-12.31-16.07-20.26-13-42.84-11.47-64.9-13.2-3-.23-5.88-.52-8.8-.9-10.75-1.43-21.76-4.46-30.79-13.41C11.66,146,3.33,137.78,1.4,124.9-1.35,106.52,8.59,93,17.4,78.46c6.52-10.82,12.41-22.19,12.15-36.59a50.31,50.31,0,0,0-.44-5.77c-1.29-9.74-5.82-22-18.63-35.95"/><path class="cls-37" d="M136.48,311.73c-21.34-19.86-25-34.79-23.89-45.19,1.32-12,9.21-19.32,20.88-51.83,1.67-4.65,3.68-11.83,1.83-20.19-1.78-8-7.1-12.94-12.28-16.23C99.85,163.56,73.61,167.94,48.53,165c-10.86-1.28-22-4.2-31.16-13.16-6.46-6.33-14.91-14.4-16.82-27.27-4.74-31.9,29.54-48.46,28.17-82.69C28.3,31.46,24.31,17,8,.07"/></g></g></g></svg>