<svg xmlns="http://www.w3.org/2000/svg" xmlns:xlink="http://www.w3.org/1999/xlink" viewBox="0 0 350.03 205.38"><defs><style>.cls-1,.cls-10,.cls-11,.cls-12,.cls-13,.cls-14,.cls-15,.cls-16,.cls-17,.cls-18,.cls-19,.cls-2,.cls-20,.cls-21,.cls-22,.cls-23,.cls-24,.cls-25,.cls-26,.cls-27,.cls-28,.cls-29,.cls-3,.cls-30,.cls-31,.cls-32,.cls-33,.cls-34,.cls-35,.cls-36,.cls-37,.cls-38,.cls-39,.cls-4,.cls-40,.cls-41,.cls-42,.cls-43,.cls-44,.cls-45,.cls-46,.cls-47,.cls-48,.cls-49,.cls-5,.cls-50,.cls-51,.cls-52,.cls-53,.cls-54,.cls-55,.cls-56,.cls-57,.cls-58,.cls-59,.cls-6,.cls-60,.cls-61,.cls-62,.cls-63,.cls-64,.cls-65,.cls-66,.cls-67,.cls-7,.cls-8,.cls-9{fill:none;stroke-miterlimit:10;stroke-width:0.25px;}.cls-1{stroke:url(#Градієнт_без_назви_1756);}.cls-2{stroke:url(#Безымянный_градиент_3183);}.cls-3{stroke:url(#Безымянный_градиент_3182);}.cls-4{stroke:url(#Безымянный_градиент_3181);}.cls-5{stroke:url(#Безымянный_градиент_3180);}.cls-6{stroke:url(#Безымянный_градиент_3179);}.cls-7{stroke:url(#Безымянный_градиент_3178);}.cls-8{stroke:url(#Безымянный_градиент_3177);}.cls-9{stroke:url(#Безымянный_градиент_3176);}.cls-10{stroke:url(#Безымянный_градиент_3175);}.cls-11{stroke:url(#Безымянный_градиент_3174);}.cls-12{stroke:url(#Безымянный_градиент_3173);}.cls-13{stroke:url(#Безымянный_градиент_3172);}.cls-14{stroke:url(#Безымянный_градиент_3171);}.cls-15{stroke:url(#Безымянный_градиент_3170);}.cls-16{stroke:url(#Безымянный_градиент_3169);}.cls-17{stroke:url(#Безымянный_градиент_3168);}.cls-18{stroke:url(#Безымянный_градиент_3167);}.cls-19{stroke:url(#Безымянный_градиент_3166);}.cls-20{stroke:url(#Безымянный_градиент_3165);}.cls-21{stroke:url(#Безымянный_градиент_3164);}.cls-22{stroke:url(#Безымянный_градиент_3163);}.cls-23{stroke:url(#Безымянный_градиент_1405);}.cls-24{stroke:url(#Безымянный_градиент_3162);}.cls-25{stroke:url(#Безымянный_градиент_3161);}.cls-26{stroke:url(#Безымянный_градиент_3160);}.cls-27{stroke:url(#Безымянный_градиент_3159);}.cls-28{stroke:url(#Безымянный_градиент_3158);}.cls-29{stroke:url(#Безымянный_градиент_3157);}.cls-30{stroke:url(#Безымянный_градиент_3156);}.cls-31{stroke:url(#Безымянный_градиент_3155);}.cls-32{stroke:url(#Безымянный_градиент_3154);}.cls-33{stroke:url(#Безымянный_градиент_3153);}.cls-34{stroke:url(#Безымянный_градиент_3152);}.cls-35{stroke:url(#Безымянный_градиент_3151);}.cls-36{stroke:url(#Безымянный_градиент_3150);}.cls-37{stroke:url(#Безымянный_градиент_3149);}.cls-38{stroke:url(#Безымянный_градиент_3148);}.cls-39{stroke:url(#Безымянный_градиент_3147);}.cls-40{stroke:url(#Безымянный_градиент_3146);}.cls-41{stroke:url(#Безымянный_градиент_3145);}.cls-42{stroke:url(#Безымянный_градиент_3144);}.cls-43{stroke:url(#Безымянный_градиент_3143);}.cls-44{stroke:url(#Безымянный_градиент_3142);}.cls-45{stroke:url(#Безымянный_градиент_1378);}.cls-46{stroke:url(#Безымянный_градиент_3141);}.cls-47{stroke:url(#Безымянный_градиент_3140);}.cls-48{stroke:url(#Безымянный_градиент_3139);}.cls-49{stroke:url(#Безымянный_градиент_3138);}.cls-50{stroke:url(#Безымянный_градиент_3137);}.cls-51{stroke:url(#Безымянный_градиент_3136);}.cls-52{stroke:url(#Безымянный_градиент_3135);}.cls-53{stroke:url(#Безымянный_градиент_3134);}.cls-54{stroke:url(#Безымянный_градиент_3133);}.cls-55{stroke:url(#Безымянный_градиент_3132);}.cls-56{stroke:url(#Безымянный_градиент_3131);}.cls-57{stroke:url(#Безымянный_градиент_3130);}.cls-58{stroke:url(#Безымянный_градиент_3129);}.cls-59{stroke:url(#Безымянный_градиент_3128);}.cls-60{stroke:url(#Безымянный_градиент_3127);}.cls-61{stroke:url(#Безымянный_градиент_3126);}.cls-62{stroke:url(#Безымянный_градиент_3125);}.cls-63{stroke:url(#Безымянный_градиент_3124);}.cls-64{stroke:url(#Безымянный_градиент_3123);}.cls-65{stroke:url(#Безымянный_градиент_3122);}.cls-66{stroke:url(#Безымянный_градиент_3121);}.cls-67{stroke:#fff;}</style><linearGradient id="Градієнт_без_назви_1756" x1="-545.85" y1="738.59" x2="-337.22" y2="738.59" gradientTransform="translate(-593.33 -311.35) rotate(-91.84)" gradientUnits="userSpaceOnUse"><stop offset="0" stop-color="#7fb7e7"/><stop offset="0.26" stop-color="#7eb1e3"/><stop offset="0.7" stop-color="#8e6aaa"/><stop offset="1" stop-color="#d8b5d5"/></linearGradient><linearGradient id="Безымянный_градиент_3183" x1="-535.01" y1="750.18" x2="-325.83" y2="750.18" gradientTransform="translate(-584.34 -306.63) rotate(-90.96) scale(0.98)" gradientUnits="userSpaceOnUse"><stop offset="0" stop-color="#81b7e8"/><stop offset="0.26" stop-color="#80b2e3"/><stop offset="0.7" stop-color="#8f6bab"/><stop offset="1" stop-color="#d9b6d6"/></linearGradient><linearGradient id="Безымянный_градиент_3182" x1="-523.39" y1="761.87" x2="-313.78" y2="761.87" gradientTransform="translate(-575.35 -301.92) rotate(-90.05) scale(0.97)" gradientUnits="userSpaceOnUse"><stop offset="0" stop-color="#82b8e8"/><stop offset="0.26" stop-color="#81b2e4"/><stop offset="0.7" stop-color="#916cab"/><stop offset="1" stop-color="#d9b7d6"/></linearGradient><linearGradient id="Безымянный_градиент_3181" x1="-510.93" y1="773.62" x2="-301.04" y2="773.62" gradientTransform="translate(-566.36 -297.2) rotate(-89.11) scale(0.95)" gradientUnits="userSpaceOnUse"><stop offset="0" stop-color="#83b9e8"/><stop offset="0.26" stop-color="#82b3e4"/><stop offset="0.7" stop-color="#926dac"/><stop offset="1" stop-color="#dab8d7"/></linearGradient><linearGradient id="Безымянный_градиент_3180" x1="-497.6" y1="785.42" x2="-287.6" y2="785.42" gradientTransform="translate(-557.37 -292.48) rotate(-88.14) scale(0.94)" gradientUnits="userSpaceOnUse"><stop offset="0" stop-color="#85bae9"/><stop offset="0.26" stop-color="#84b4e4"/><stop offset="0.7" stop-color="#936eac"/><stop offset="1" stop-color="#dab9d7"/></linearGradient><linearGradient id="Безымянный_градиент_3179" x1="-483.36" y1="797.22" x2="-273.41" y2="797.22" gradientTransform="translate(-548.38 -287.76) rotate(-87.14) scale(0.92)" gradientUnits="userSpaceOnUse"><stop offset="0" stop-color="#86bae9"/><stop offset="0.26" stop-color="#85b5e5"/><stop offset="0.7" stop-color="#9470ad"/><stop offset="1" stop-color="#dbbad8"/></linearGradient><linearGradient id="Безымянный_градиент_3178" x1="-468.16" y1="808.99" x2="-258.46" y2="808.99" gradientTransform="translate(-539.39 -283.05) rotate(-86.11) scale(0.91)" gradientUnits="userSpaceOnUse"><stop offset="0" stop-color="#88bbe9"/><stop offset="0.26" stop-color="#87b6e5"/><stop offset="0.7" stop-color="#9571ae"/><stop offset="1" stop-color="#dbbbd8"/></linearGradient><linearGradient id="Безымянный_градиент_3177" x1="-451.97" y1="820.68" x2="-242.74" y2="820.68" gradientTransform="matrix(0.08, -0.89, 0.89, 0.08, -530.4, -278.33)" gradientUnits="userSpaceOnUse"><stop offset="0" stop-color="#89bce9"/><stop offset="0.26" stop-color="#88b6e5"/><stop offset="0.7" stop-color="#9672ae"/><stop offset="1" stop-color="#dcbcd9"/></linearGradient><linearGradient id="Безымянный_градиент_3176" x1="-438.01" y1="832.23" x2="-226.2" y2="832.23" gradientTransform="matrix(0.09, -0.88, 0.88, 0.09, -521.41, -273.61)" gradientUnits="userSpaceOnUse"><stop offset="0" stop-color="#8bbdea"/><stop offset="0.26" stop-color="#89b7e6"/><stop offset="0.7" stop-color="#9773af"/><stop offset="1" stop-color="#dcbdda"/></linearGradient><linearGradient id="Безымянный_градиент_3175" x1="-427.86" y1="843.6" x2="-208.84" y2="843.6" gradientTransform="translate(-512.42 -268.89) rotate(-82.82) scale(0.87)" gradientUnits="userSpaceOnUse"><stop offset="0" stop-color="#8cbdea"/><stop offset="0.26" stop-color="#8bb8e6"/><stop offset="0.7" stop-color="#9974b0"/><stop offset="1" stop-color="#dcbeda"/></linearGradient><linearGradient id="Безымянный_градиент_3174" x1="-417.03" y1="854.72" x2="-190.64" y2="854.72" gradientTransform="matrix(0.12, -0.85, 0.85, 0.12, -503.43, -264.18)" gradientUnits="userSpaceOnUse"><stop offset="0" stop-color="#8ebeea"/><stop offset="0.26" stop-color="#8cb9e7"/><stop offset="0.7" stop-color="#9a75b1"/><stop offset="1" stop-color="#ddbfdb"/></linearGradient><linearGradient id="Безымянный_градиент_3173" x1="-405.48" y1="865.52" x2="-171.59" y2="865.52" gradientTransform="translate(-494.44 -259.46) rotate(-80.46) scale(0.84)" gradientUnits="userSpaceOnUse"><stop offset="0" stop-color="#8fbfeb"/><stop offset="0.26" stop-color="#8ebae7"/><stop offset="0.7" stop-color="#9b77b1"/><stop offset="1" stop-color="#ddc0dc"/></linearGradient><linearGradient id="Безымянный_градиент_3172" x1="-393.2" y1="875.94" x2="-151.7" y2="875.94" gradientTransform="translate(-485.45 -254.74) rotate(-79.23) scale(0.83)" gradientUnits="userSpaceOnUse"><stop offset="0" stop-color="#91c0eb"/><stop offset="0.26" stop-color="#90bbe7"/><stop offset="0.7" stop-color="#9c78b2"/><stop offset="1" stop-color="#dec1dc"/></linearGradient><linearGradient id="Безымянный_градиент_3171" x1="-380.19" y1="885.88" x2="-130.97" y2="885.88" gradientTransform="matrix(0.17, -0.8, 0.8, 0.17, -476.46, -250.02)" gradientUnits="userSpaceOnUse"><stop offset="0" stop-color="#93c1eb"/><stop offset="0.26" stop-color="#91bce8"/><stop offset="0.7" stop-color="#9e79b3"/><stop offset="1" stop-color="#dec2dd"/></linearGradient><linearGradient id="Безымянный_градиент_3170" x1="-366.42" y1="895.27" x2="-109.4" y2="895.27" gradientTransform="translate(-467.47 -245.31) rotate(-76.65) scale(0.81)" gradientUnits="userSpaceOnUse"><stop offset="0" stop-color="#94c2ec"/><stop offset="0.26" stop-color="#93bde8"/><stop offset="0.7" stop-color="#9f7bb4"/><stop offset="1" stop-color="#dfc3dd"/></linearGradient><linearGradient id="Безымянный_градиент_3169" x1="-351.9" y1="904.02" x2="-87.01" y2="904.02" gradientTransform="matrix(0.2, -0.77, 0.77, 0.2, -458.48, -240.59)" gradientUnits="userSpaceOnUse"><stop offset="0" stop-color="#96c2ec"/><stop offset="0.26" stop-color="#95bee9"/><stop offset="0.7" stop-color="#a07cb5"/><stop offset="1" stop-color="#dfc4de"/></linearGradient><linearGradient id="Безымянный_градиент_3168" x1="-336.62" y1="912.03" x2="-63.84" y2="912.03" gradientTransform="translate(-449.49 -235.87) rotate(-73.93) scale(0.79)" gradientUnits="userSpaceOnUse"><stop offset="0" stop-color="#97c3ec"/><stop offset="0.26" stop-color="#96bfe9"/><stop offset="0.7" stop-color="#a27eb6"/><stop offset="1" stop-color="#e0c5df"/></linearGradient><linearGradient id="Безымянный_градиент_3167" x1="-320.61" y1="919.2" x2="-39.92" y2="919.2" gradientTransform="translate(-440.5 -231.15) rotate(-72.51) scale(0.78)" gradientUnits="userSpaceOnUse"><stop offset="0" stop-color="#99c4ed"/><stop offset="0.26" stop-color="#98c0e9"/><stop offset="0.7" stop-color="#a37fb7"/><stop offset="1" stop-color="#e1c6df"/></linearGradient><linearGradient id="Безымянный_градиент_3166" x1="-303.87" y1="925.44" x2="-15.3" y2="925.44" gradientTransform="matrix(0.25, -0.73, 0.73, 0.25, -431.51, -226.44)" gradientUnits="userSpaceOnUse"><stop offset="0" stop-color="#9bc5ed"/><stop offset="0.26" stop-color="#9ac1ea"/><stop offset="0.7" stop-color="#a481b8"/><stop offset="1" stop-color="#e1c7e0"/></linearGradient><linearGradient id="Безымянный_градиент_3165" x1="-286.43" y1="930.64" x2="9.95" y2="930.64" gradientTransform="translate(-422.52 -221.72) rotate(-69.58) scale(0.76)" gradientUnits="userSpaceOnUse"><stop offset="0" stop-color="#9dc6ed"/><stop offset="0.26" stop-color="#9bc2ea"/><stop offset="0.7" stop-color="#a683b9"/><stop offset="1" stop-color="#e2c8e0"/></linearGradient><linearGradient id="Безымянный_градиент_3164" x1="-268.33" y1="934.69" x2="35.77" y2="934.69" gradientTransform="matrix(0.28, -0.7, 0.7, 0.28, -413.53, -217)" gradientUnits="userSpaceOnUse"><stop offset="0" stop-color="#9ec7ee"/><stop offset="0.26" stop-color="#9dc3eb"/><stop offset="0.7" stop-color="#a784ba"/><stop offset="1" stop-color="#e2c9e1"/></linearGradient><linearGradient id="Безымянный_градиент_3163" x1="-249.62" y1="937.5" x2="62.05" y2="937.5" gradientTransform="translate(-404.54 -212.28) rotate(-66.5) scale(0.74)" gradientUnits="userSpaceOnUse"><stop offset="0" stop-color="#a0c8ee"/><stop offset="0.26" stop-color="#9fc4eb"/><stop offset="0.7" stop-color="#a886bb"/><stop offset="1" stop-color="#e3cae2"/></linearGradient><linearGradient id="Безымянный_градиент_1405" x1="-230.35" y1="938.97" x2="88.7" y2="938.97" gradientTransform="translate(-395.55 -207.57) rotate(-64.91) scale(0.74)" gradientUnits="userSpaceOnUse"><stop offset="0" stop-color="#a2c9ee"/><stop offset="0.26" stop-color="#a1c5eb"/><stop offset="0.7" stop-color="#aa88bc"/><stop offset="1" stop-color="#e3cbe2"/></linearGradient><linearGradient id="Безымянный_градиент_3162" x1="-210.6" y1="936.79" x2="115.6" y2="936.79" gradientTransform="translate(-386.56 -202.85) rotate(-63.29) scale(0.73)" gradientUnits="userSpaceOnUse"><stop offset="0" stop-color="#a4caef"/><stop offset="0.26" stop-color="#a3c6ec"/><stop offset="0.7" stop-color="#ab8abd"/><stop offset="1" stop-color="#e4cce3"/></linearGradient><linearGradient id="Безымянный_градиент_3161" x1="-190.44" y1="931.99" x2="142.62" y2="931.99" gradientTransform="translate(-377.57 -198.13) rotate(-61.65) scale(0.72)" gradientUnits="userSpaceOnUse"><stop offset="0" stop-color="#a6cbef"/><stop offset="0.26" stop-color="#a4c7ec"/><stop offset="0.7" stop-color="#ad8bbe"/><stop offset="1" stop-color="#e4cde3"/></linearGradient><linearGradient id="Безымянный_градиент_3160" x1="-169.97" y1="925.5" x2="169.6" y2="925.5" gradientTransform="translate(-368.58 -193.41) rotate(-59.97) scale(0.72)" gradientUnits="userSpaceOnUse"><stop offset="0" stop-color="#a8ccef"/><stop offset="0.26" stop-color="#a6c8ed"/><stop offset="0.7" stop-color="#ae8dbf"/><stop offset="1" stop-color="#e5cee4"/></linearGradient><linearGradient id="Безымянный_градиент_3159" x1="-149.28" y1="917.29" x2="196.41" y2="917.29" gradientTransform="translate(-359.59 -188.7) rotate(-58.27) scale(0.71)" gradientUnits="userSpaceOnUse"><stop offset="0" stop-color="#aacdf0"/><stop offset="0.26" stop-color="#a8c9ed"/><stop offset="0.7" stop-color="#b08fc0"/><stop offset="1" stop-color="#e5cfe5"/></linearGradient><linearGradient id="Безымянный_градиент_3158" x1="-128.48" y1="907.33" x2="222.86" y2="907.33" gradientTransform="matrix(0.39, -0.59, 0.59, 0.39, -350.6, -183.98)" gradientUnits="userSpaceOnUse"><stop offset="0" stop-color="#accef0"/><stop offset="0.26" stop-color="#aacaed"/><stop offset="0.7" stop-color="#b191c2"/><stop offset="1" stop-color="#e6d0e5"/></linearGradient><linearGradient id="Безымянный_градиент_3157" x1="-107.69" y1="895.6" x2="248.8" y2="895.6" gradientTransform="translate(-341.61 -179.26) rotate(-54.81) scale(0.7)" gradientUnits="userSpaceOnUse"><stop offset="0" stop-color="#adcff0"/><stop offset="0.26" stop-color="#accbee"/><stop offset="0.7" stop-color="#b393c3"/><stop offset="1" stop-color="#e6d1e6"/></linearGradient><linearGradient id="Безымянный_градиент_3156" x1="-87.02" y1="882.13" x2="274.04" y2="882.13" gradientTransform="translate(-332.62 -174.54) rotate(-53.05) scale(0.7)" gradientUnits="userSpaceOnUse"><stop offset="0" stop-color="#afd0f1"/><stop offset="0.26" stop-color="#aeccee"/><stop offset="0.7" stop-color="#b495c4"/><stop offset="1" stop-color="#e7d2e7"/></linearGradient><linearGradient id="Безымянный_градиент_3155" x1="-66.61" y1="866.95" x2="298.42" y2="866.95" gradientTransform="translate(-323.63 -169.83) rotate(-51.28) scale(0.7)" gradientUnits="userSpaceOnUse"><stop offset="0" stop-color="#b1d1f1"/><stop offset="0.26" stop-color="#b0ceef"/><stop offset="0.7" stop-color="#b697c5"/><stop offset="1" stop-color="#e7d4e7"/></linearGradient><linearGradient id="Безымянный_градиент_3154" x1="-46.58" y1="850.1" x2="321.77" y2="850.1" gradientTransform="translate(-314.64 -165.11) rotate(-49.5) scale(0.7)" gradientUnits="userSpaceOnUse"><stop offset="0" stop-color="#b3d2f2"/><stop offset="0.26" stop-color="#b2cfef"/><stop offset="0.7" stop-color="#b799c7"/><stop offset="1" stop-color="#e8d5e8"/></linearGradient><linearGradient id="Безымянный_градиент_3153" x1="-27.05" y1="831.67" x2="343.92" y2="831.67" gradientTransform="matrix(0.47, -0.51, 0.51, 0.47, -305.65, -160.39)" gradientUnits="userSpaceOnUse"><stop offset="0" stop-color="#b5d3f2"/><stop offset="0.26" stop-color="#b4d0f0"/><stop offset="0.7" stop-color="#b99cc8"/><stop offset="1" stop-color="#e8d6e8"/></linearGradient><linearGradient id="Безымянный_градиент_3152" x1="-8.15" y1="811.75" x2="364.74" y2="811.75" gradientTransform="matrix(0.48, -0.5, 0.5, 0.48, -296.66, -155.68)" gradientUnits="userSpaceOnUse"><stop offset="0" stop-color="#b7d5f2"/><stop offset="0.26" stop-color="#b6d1f0"/><stop offset="0.7" stop-color="#bb9ec9"/><stop offset="1" stop-color="#e9d7e9"/></linearGradient><linearGradient id="Безымянный_градиент_3151" x1="10.03" y1="790.45" x2="384.09" y2="790.45" gradientTransform="translate(-287.67 -150.96) rotate(-44.13) scale(0.7)" gradientUnits="userSpaceOnUse"><stop offset="0" stop-color="#b9d6f3"/><stop offset="0.26" stop-color="#b8d2f0"/><stop offset="0.7" stop-color="#bca0cb"/><stop offset="1" stop-color="#ead8ea"/></linearGradient><linearGradient id="Безымянный_градиент_3150" x1="27.36" y1="767.9" x2="401.86" y2="767.9" gradientTransform="translate(-278.68 -146.24) rotate(-42.34) scale(0.7)" gradientUnits="userSpaceOnUse"><stop offset="0" stop-color="#bbd7f3"/><stop offset="0.26" stop-color="#bad3f1"/><stop offset="0.7" stop-color="#bea2cc"/><stop offset="1" stop-color="#ead9ea"/></linearGradient><linearGradient id="Безымянный_градиент_3149" x1="43.77" y1="744.24" x2="417.94" y2="744.24" gradientTransform="translate(-269.69 -141.52) rotate(-40.56) scale(0.7)" gradientUnits="userSpaceOnUse"><stop offset="0" stop-color="#bdd8f3"/><stop offset="0.26" stop-color="#bcd5f1"/><stop offset="0.7" stop-color="#bfa5ce"/><stop offset="1" stop-color="#ebdaeb"/></linearGradient><linearGradient id="Безымянный_градиент_3148" x1="59.17" y1="719.63" x2="432.28" y2="719.63" gradientTransform="translate(-260.7 -136.81) rotate(-38.78) scale(0.7)" gradientUnits="userSpaceOnUse"><stop offset="0" stop-color="#bfd9f4"/><stop offset="0.26" stop-color="#bed6f2"/><stop offset="0.7" stop-color="#c1a7cf"/><stop offset="1" stop-color="#ebdbec"/></linearGradient><linearGradient id="Безымянный_градиент_3147" x1="73.49" y1="694.23" x2="444.8" y2="694.23" gradientTransform="translate(-251.72 -132.09) rotate(-37.03) scale(0.7)" gradientUnits="userSpaceOnUse"><stop offset="0" stop-color="#c1daf4"/><stop offset="0.26" stop-color="#c0d7f2"/><stop offset="0.7" stop-color="#c3aad1"/><stop offset="1" stop-color="#ecdcec"/></linearGradient><linearGradient id="Безымянный_градиент_3146" x1="86.67" y1="668.2" x2="455.5" y2="668.2" gradientTransform="translate(-242.73 -127.37) rotate(-35.29) scale(0.71)" gradientUnits="userSpaceOnUse"><stop offset="0" stop-color="#c3dbf4"/><stop offset="0.26" stop-color="#c2d8f2"/><stop offset="0.7" stop-color="#c5acd2"/><stop offset="1" stop-color="#ecdded"/></linearGradient><linearGradient id="Безымянный_градиент_3145" x1="98.69" y1="641.7" x2="464.35" y2="641.7" gradientTransform="translate(-233.74 -122.65) rotate(-33.56) scale(0.71)" gradientUnits="userSpaceOnUse"><stop offset="0" stop-color="#c5dcf5"/><stop offset="0.26" stop-color="#c4daf3"/><stop offset="0.7" stop-color="#c6afd4"/><stop offset="1" stop-color="#eddeed"/></linearGradient><linearGradient id="Безымянный_градиент_3144" x1="109.51" y1="614.91" x2="471.38" y2="614.91" gradientTransform="translate(-224.75 -117.94) rotate(-31.86) scale(0.72)" gradientUnits="userSpaceOnUse"><stop offset="0" stop-color="#c7def5"/><stop offset="0.26" stop-color="#c6dbf3"/><stop offset="0.7" stop-color="#c8b1d5"/><stop offset="1" stop-color="#ede0ee"/></linearGradient><linearGradient id="Безымянный_градиент_3143" x1="119.12" y1="587.97" x2="476.61" y2="587.97" gradientTransform="translate(-215.76 -113.22) rotate(-30.19) scale(0.72)" gradientUnits="userSpaceOnUse"><stop offset="0" stop-color="#c9dff5"/><stop offset="0.26" stop-color="#c8dcf4"/><stop offset="0.7" stop-color="#cab4d7"/><stop offset="1" stop-color="#eee1ef"/></linearGradient><linearGradient id="Безымянный_градиент_3142" x1="127.54" y1="561.04" x2="480.11" y2="561.04" gradientTransform="translate(-206.77 -108.5) rotate(-28.54) scale(0.73)" gradientUnits="userSpaceOnUse"><stop offset="0" stop-color="#cbe0f6"/><stop offset="0.26" stop-color="#caddf4"/><stop offset="0.7" stop-color="#ccb6d8"/><stop offset="1" stop-color="#efe2ef"/></linearGradient><linearGradient id="Безымянный_градиент_1378" x1="134.76" y1="534.26" x2="481.92" y2="534.26" gradientTransform="translate(-197.78 -103.78) rotate(-26.93) scale(0.74)" gradientUnits="userSpaceOnUse"><stop offset="0" stop-color="#cde1f6"/><stop offset="0.26" stop-color="#ccdff5"/><stop offset="0.7" stop-color="#ceb9da"/><stop offset="1" stop-color="#efe3f0"/></linearGradient><linearGradient id="Безымянный_градиент_3141" x1="140.83" y1="507.77" x2="482.15" y2="507.77" gradientTransform="translate(-188.79 -99.07) rotate(-25.34) scale(0.74)" gradientUnits="userSpaceOnUse"><stop offset="0" stop-color="#cfe2f7"/><stop offset="0.26" stop-color="#cfe0f5"/><stop offset="0.7" stop-color="#cfbcdb"/><stop offset="1" stop-color="#f0e4f1"/></linearGradient><linearGradient id="Безымянный_градиент_3140" x1="145.77" y1="481.67" x2="484.23" y2="481.67" gradientTransform="translate(-179.8 -94.35) rotate(-23.78) scale(0.75)" gradientUnits="userSpaceOnUse"><stop offset="0" stop-color="#d1e3f7"/><stop offset="0.26" stop-color="#d1e1f5"/><stop offset="0.7" stop-color="#d1bfdd"/><stop offset="1" stop-color="#f0e5f1"/></linearGradient><linearGradient id="Безымянный_градиент_3139" x1="149.64" y1="456.07" x2="487.12" y2="456.07" gradientTransform="translate(-170.81 -89.63) rotate(-22.26) scale(0.76)" gradientUnits="userSpaceOnUse"><stop offset="0" stop-color="#d4e5f7"/><stop offset="0.26" stop-color="#d3e2f6"/><stop offset="0.7" stop-color="#d3c1de"/><stop offset="1" stop-color="#f1e6f2"/></linearGradient><linearGradient id="Безымянный_градиент_3138" x1="152.48" y1="431.06" x2="488.38" y2="431.06" gradientTransform="translate(-161.82 -84.91) rotate(-20.78) scale(0.77)" gradientUnits="userSpaceOnUse"><stop offset="0" stop-color="#d6e6f8"/><stop offset="0.26" stop-color="#d5e4f6"/><stop offset="0.7" stop-color="#d5c4e0"/><stop offset="1" stop-color="#f2e8f3"/></linearGradient><linearGradient id="Безымянный_градиент_3137" x1="154.35" y1="406.73" x2="488.12" y2="406.73" gradientTransform="matrix(0.73, -0.26, 0.26, 0.73, -152.83, -80.2)" gradientUnits="userSpaceOnUse"><stop offset="0" stop-color="#d8e7f8"/><stop offset="0.26" stop-color="#d7e5f7"/><stop offset="0.7" stop-color="#d7c7e2"/><stop offset="1" stop-color="#f2e9f3"/></linearGradient><linearGradient id="Безымянный_градиент_3136" x1="155.31" y1="383.13" x2="486.44" y2="383.13" gradientTransform="translate(-143.84 -75.48) rotate(-17.91) scale(0.79)" gradientUnits="userSpaceOnUse"><stop offset="0" stop-color="#dae8f8"/><stop offset="0.26" stop-color="#d9e6f7"/><stop offset="0.7" stop-color="#d9cae3"/><stop offset="1" stop-color="#f3eaf4"/></linearGradient><linearGradient id="Безымянный_градиент_3135" x1="155.43" y1="360.31" x2="483.47" y2="360.31" gradientTransform="matrix(0.77, -0.23, 0.23, 0.77, -134.85, -70.76)" gradientUnits="userSpaceOnUse"><stop offset="0" stop-color="#dce9f9"/><stop offset="0.26" stop-color="#dbe8f8"/><stop offset="0.7" stop-color="#dbcde5"/><stop offset="1" stop-color="#f4ebf4"/></linearGradient><linearGradient id="Безымянный_градиент_3134" x1="154.76" y1="338.32" x2="479.3" y2="338.32" gradientTransform="translate(-125.86 -66.04) rotate(-15.19) scale(0.81)" gradientUnits="userSpaceOnUse"><stop offset="0" stop-color="#deebf9"/><stop offset="0.26" stop-color="#dde9f8"/><stop offset="0.7" stop-color="#ddd0e7"/><stop offset="1" stop-color="#f4ecf5"/></linearGradient><linearGradient id="Безымянный_градиент_3133" x1="153.37" y1="317.18" x2="474.05" y2="317.18" gradientTransform="translate(-116.87 -61.33) rotate(-13.88) scale(0.82)" gradientUnits="userSpaceOnUse"><stop offset="0" stop-color="#e0ecf9"/><stop offset="0.26" stop-color="#dfeaf8"/><stop offset="0.7" stop-color="#dfd3e8"/><stop offset="1" stop-color="#f5edf6"/></linearGradient><linearGradient id="Безымянный_градиент_3132" x1="151.32" y1="296.91" x2="467.83" y2="296.91" gradientTransform="translate(-107.88 -56.61) rotate(-12.61) scale(0.83)" gradientUnits="userSpaceOnUse"><stop offset="0" stop-color="#e2edfa"/><stop offset="0.26" stop-color="#e2ecf9"/><stop offset="0.7" stop-color="#e1d6ea"/><stop offset="1" stop-color="#f5eef6"/></linearGradient><linearGradient id="Безымянный_градиент_3131" x1="148.69" y1="277.53" x2="460.75" y2="277.53" gradientTransform="translate(-98.89 -51.89) rotate(-11.38) scale(0.84)" gradientUnits="userSpaceOnUse"><stop offset="0" stop-color="#e4effa"/><stop offset="0.26" stop-color="#e4edf9"/><stop offset="0.7" stop-color="#e3d9eb"/><stop offset="1" stop-color="#f6f0f7"/></linearGradient><linearGradient id="Безымянный_градиент_3130" x1="145.51" y1="259.03" x2="452.89" y2="259.03" gradientTransform="translate(-89.9 -47.17) rotate(-10.18) scale(0.86)" gradientUnits="userSpaceOnUse"><stop offset="0" stop-color="#e7f0fb"/><stop offset="0.26" stop-color="#e6eefa"/><stop offset="0.7" stop-color="#e6dced"/><stop offset="1" stop-color="#f7f1f7"/></linearGradient><linearGradient id="Безымянный_градиент_3129" x1="141.86" y1="241.4" x2="444.36" y2="241.4" gradientTransform="translate(-80.91 -42.46) rotate(-9.01) scale(0.87)" gradientUnits="userSpaceOnUse"><stop offset="0" stop-color="#e9f1fb"/><stop offset="0.26" stop-color="#e8f0fa"/><stop offset="0.7" stop-color="#e8dfef"/><stop offset="1" stop-color="#f8f2f8"/></linearGradient><linearGradient id="Безымянный_градиент_3128" x1="137.68" y1="224.64" x2="435.25" y2="224.64" gradientTransform="matrix(0.87, -0.12, 0.12, 0.87, -71.92, -37.74)" gradientUnits="userSpaceOnUse"><stop offset="0" stop-color="#ebf3fb"/><stop offset="0.26" stop-color="#eaf1fb"/><stop offset="0.7" stop-color="#eae2f0"/><stop offset="1" stop-color="#f8f3f9"/></linearGradient><linearGradient id="Безымянный_градиент_3127" x1="132.96" y1="208.75" x2="425.64" y2="208.75" gradientTransform="matrix(0.89, -0.11, 0.11, 0.89, -62.93, -33.02)" gradientUnits="userSpaceOnUse"><stop offset="0" stop-color="#edf4fc"/><stop offset="0.26" stop-color="#edf3fb"/><stop offset="0.7" stop-color="#ece5f2"/><stop offset="1" stop-color="#f9f4f9"/></linearGradient><linearGradient id="Безымянный_градиент_3126" x1="127.79" y1="193.71" x2="415.61" y2="193.71" gradientTransform="translate(-53.94 -28.3) rotate(-5.73) scale(0.91)" gradientUnits="userSpaceOnUse"><stop offset="0" stop-color="#eff5fc"/><stop offset="0.26" stop-color="#eff4fc"/><stop offset="0.7" stop-color="#eee8f4"/><stop offset="1" stop-color="#faf6fa"/></linearGradient><linearGradient id="Безымянный_градиент_3125" x1="122.25" y1="178.74" x2="405.22" y2="178.74" gradientTransform="translate(-44.95 -23.59) rotate(-4.7) scale(0.92)" gradientUnits="userSpaceOnUse"><stop offset="0" stop-color="#f1f7fd"/><stop offset="0.26" stop-color="#f1f6fc"/><stop offset="0.7" stop-color="#f1ecf5"/><stop offset="1" stop-color="#faf7fb"/></linearGradient><linearGradient id="Безымянный_градиент_3124" x1="116.4" y1="166.21" x2="394.54" y2="166.21" gradientTransform="matrix(0.94, -0.06, 0.06, 0.94, -35.96, -18.87)" gradientUnits="userSpaceOnUse"><stop offset="0" stop-color="#f4f8fd"/><stop offset="0.26" stop-color="#f3f7fd"/><stop offset="0.7" stop-color="#f3eff7"/><stop offset="1" stop-color="#fbf8fc"/></linearGradient><linearGradient id="Безымянный_градиент_3123" x1="110.29" y1="155.41" x2="383.63" y2="155.41" gradientTransform="translate(-26.97 -14.15) rotate(-2.73) scale(0.95)" gradientUnits="userSpaceOnUse"><stop offset="0" stop-color="#f6fafd"/><stop offset="0.26" stop-color="#f6f9fd"/><stop offset="0.7" stop-color="#f5f2f9"/><stop offset="1" stop-color="#fcfafc"/></linearGradient><linearGradient id="Безымянный_градиент_3122" x1="103.97" y1="145.2" x2="372.55" y2="145.2" gradientTransform="matrix(0.97, -0.03, 0.03, 0.97, -17.98, -9.43)" gradientUnits="userSpaceOnUse"><stop offset="0" stop-color="#f9fbfe"/><stop offset="0.26" stop-color="#f8fbfe"/><stop offset="0.7" stop-color="#f8f6fb"/><stop offset="1" stop-color="#fdfbfd"/></linearGradient><linearGradient id="Безымянный_градиент_3121" x1="97.5" y1="135.57" x2="361.33" y2="135.57" gradientTransform="translate(-8.99 -4.72) rotate(-0.88) scale(0.98)" gradientUnits="userSpaceOnUse"><stop offset="0" stop-color="#fbfdfe"/><stop offset="0.26" stop-color="#fbfdfe"/><stop offset="0.7" stop-color="#fbfafd"/><stop offset="1" stop-color="#fefdfe"/></linearGradient></defs><g id="Слой_2" data-name="Слой 2"><g id="Слой_4" data-name="Слой 4"><path class="cls-1" d="M0,167.31c12.1-1.43,25.63-3.66,32.73-13.56,4.14-5.78,2.46-8.66,5.89-14.75,10.45-18.56,36.91-10.69,44.94-24.61,7.61-13.2-12.88-26-8.79-51.09,2.3-14.16,12.11-31.76,27.2-37.08,25.27-8.9,43.23,24.28,69.26,16.86,24.49-7,24.44-40.86,45.45-42.86,14.77-1.41,32.3,13.66,38.48,30.63C268.22,66.66,227.44,102,241.81,121c8.37,11.12,23,.17,38.67,14.2,13.47,12.08,9.46,26.36,26,50.69a116.28,116.28,0,0,0,16.6,19.37"/><path class="cls-2" d="M323.53,204.9a97.17,97.17,0,0,1-17-19.19c-16.46-24.13-12.34-38.39-25.74-50.58-15.53-14.1-30.22-3.3-38.51-14.48-14.2-19.06,26.29-54,13.36-89.41C249.5,14.37,231.82-.44,217.05,1c-20.87,2-20.83,35.42-45.22,42.37-25.67,7.31-43.64-25.2-68.78-16.49C87.73,32.18,77.82,49.18,75.39,63.26c-4.26,24.78,16,37.58,8.49,50.62-8,14-33.8,6.28-44,24.87-3.43,6.24-2,9.16-6.2,15.16-7,10-20.34,12.41-32.2,14"/><path class="cls-3" d="M323.93,204.52a83.92,83.92,0,0,1-17.35-19c-16.35-23.92-12.11-38.17-25.44-50.46-15.43-14.18-30.11-3.54-38.34-14.76-14-19.07,26.17-53.62,13.36-88.66C250,14.86,232.17.31,217.41,1.77c-20.73,2-20.7,34.94-45,41.86-25.31,7.21-43.3-24.64-68.3-16.11C88.57,32.82,78.56,49.21,76,63.22c-4.45,24.47,15.49,37.26,8.18,50.15-7.94,14-33.1,6.52-43.09,25.14-3.43,6.39-2.23,9.34-6.52,15.56-7,10.11-20,12.68-31.67,14.36"/><path class="cls-4" d="M324.34,204.13c-5.26-3.63-11.7-10-17.72-18.83-16.24-23.72-11.89-38-25.15-50.35-15.32-14.25-30-3.77-38.18-15-13.81-19.07,26-53.24,13.36-87.9-6.14-16.67-24.13-30.95-38.87-29.46C197.19,4.58,197.2,37,173,43.91,148.06,51,130.06,19.82,105.19,28.16c-15.78,5.3-25.89,21.09-28.56,35-4.63,24.15,15,36.94,7.87,49.67-7.9,14.07-32.4,6.76-42.16,25.4-3.43,6.54-2.48,9.53-6.84,16-6.9,10.21-19.76,13-31.14,14.75"/><path class="cls-5" d="M324.75,203.75c-5.6-3.51-12.1-9.9-18.1-18.65-16.12-23.52-11.66-37.73-24.85-50.24-15.21-14.33-29.93-4-38-15.32-13.62-19.07,25.94-52.87,13.36-87.14-6.13-16.57-24.27-30.59-39-29.08-20.45,2-20.45,34-44.54,40.87C149,51.19,131,20.65,106.26,28.81c-16,5.29-26.22,20.47-29,34.34-4.8,23.84,14.57,36.62,7.57,49.2-7.86,14.12-31.71,7-41.25,25.66-3.42,6.7-2.72,9.72-7.14,16.39C29.58,164.71,17,167.62,5.8,169.54"/><path class="cls-6" d="M325.16,203.37c-5.93-3.39-12.49-9.77-18.48-18.47-16-23.32-11.4-37.55-24.55-50.13-15.07-14.44-29.84-4.23-37.85-15.6-13.44-19.07,25.81-52.5,13.35-86.38C251.51,16.31,233.22,2.57,218.5,4.1c-20.31,2.05-20.32,33.53-44.31,40.36-24.23,6.91-42.27-23-66.86-15C91.08,34.73,80.78,49.31,77.87,63.11c-5,23.53,14.11,36.31,7.26,48.73-7.82,14.18-31,7.26-40.32,25.93-3.42,6.84-3,9.9-7.46,16.79C30.56,165,18.16,168.05,7.25,170.1"/><path class="cls-7" d="M325.56,203c-6.26-3.27-12.88-9.63-18.84-18.28-15.89-23.13-11.18-37.34-24.26-50-15-14.51-29.74-4.44-37.69-15.87-13.25-19.07,25.69-52.13,13.35-85.62C252,16.8,233.57,3.32,218.87,4.88c-20.17,2.05-20.2,33.05-44.09,39.86S132.85,22.28,108.4,30.1a45.12,45.12,0,0,0-29.92,33c-5.14,23.22,13.67,36,7,48.27-7.78,14.22-30.28,7.51-39.39,26.18-3.42,7-3.22,10.08-7.78,17.2-6.73,10.5-18.9,13.77-29.57,15.94"/><path class="cls-8" d="M326,202.6c-6.6-3.15-13.28-9.5-19.22-18.1-15.77-22.93-10.94-37.13-23.95-49.92-14.86-14.59-29.66-4.67-37.54-16.15-13.06-19.07,25.65-51.78,13.36-84.87C252.56,17.27,233.93,4.1,219.23,5.65c-20,2.11-20.07,32.59-43.86,39.37-23.51,6.69-41.59-21.92-65.91-14.27A44.73,44.73,0,0,0,79.1,63c-5.31,22.9,13.21,35.68,6.65,47.79C78,125.1,56.19,118.59,47.28,137.27c-3.41,7.16-3.46,10.27-8.09,17.61-6.68,10.6-18.6,14-29,16.34"/><path class="cls-9" d="M326.38,202.21c-6.93-3-13.68-9.36-19.6-17.91-15.65-22.73-10.71-36.92-23.65-49.81-14.74-14.67-29.57-4.9-37.37-16.43C232.87,99,271.29,66.65,259.11,34c-6-16.2-24.83-29.09-39.52-27.52C199.71,8.55,199.65,38.54,176,45.29c-23.15,6.6-41.26-21.38-65.43-13.89C93.59,36.64,83,49.4,79.72,63c-5.48,22.58,12.76,35.37,6.34,47.32-7.69,14.33-28.83,8-37.54,26.71-3.41,7.31-3.71,10.44-8.4,18-6.63,10.69-18.32,14.32-28.53,16.74"/><path class="cls-10" d="M326.79,201.83c-7.27-2.9-14.08-9.23-20-17.73-15.54-22.53-10.48-36.7-23.36-49.7-14.63-14.75-29.48-5.13-37.21-16.72-12.7-19.05,25.43-51,13.35-83.34-6-16.1-25-28.72-39.64-27.13-19.75,2.13-19.82,31.64-43.41,38.36-22.79,6.49-40.92-20.85-65-13.53C94.43,37.28,83.76,49.42,80.34,63c-5.64,22.27,12.31,35.06,6,46.85-7.66,14.38-28.11,8.29-36.62,27-3.41,7.47-4,10.62-8.72,18.42C34.46,166,23,169.79,13,172.34"/><path class="cls-11" d="M327.19,201.45c-7.59-2.78-14.47-9.09-20.34-17.55-15.42-22.33-10.25-36.49-23.06-49.59-14.52-14.83-29.39-5.35-37-17-12.52-19,25.31-50.67,13.34-82.58-6-16-25.11-28.36-39.77-26.75-19.6,2.15-19.69,31.17-43.18,37.86-22.43,6.4-40.59-20.31-64.47-13.15C95.26,37.91,84.51,49.45,81,62.92c-5.8,22,11.86,34.76,5.73,46.38-7.61,14.43-27.37,8.56-35.69,27.24-3.4,7.62-4.21,10.79-9,18.82-6.53,10.87-17.74,14.87-27.48,17.54"/><path class="cls-12" d="M327.6,201.06c-7.93-2.66-14.87-8.95-20.72-17.37-15.31-22.12-10-36.27-22.76-49.47-14.41-14.91-29.3-5.58-36.88-17.28-12.34-19,25.2-50.3,13.34-81.82-6-15.92-25.25-28-39.9-26.36-19.46,2.16-19.56,30.7-43,37.36-22.07,6.29-40.25-19.79-64-12.78-17.65,5.2-28.48,16.13-32.17,29.55C75.63,84.52,93,97.33,87,108.79c-7.57,14.49-26.64,8.83-34.77,27.5-3.39,7.79-4.46,11-9.34,19.23-6.5,11-17.46,15.14-27,17.94"/><path class="cls-13" d="M328,200.68c-8.27-2.54-15.26-8.82-21.09-17.19-15.2-21.92-9.79-36.06-22.47-49.36-14.29-15-29.21-5.81-36.72-17.56-12.15-19,25.09-49.93,13.35-81.06-6-15.82-25.4-27.62-40-26-19.32,2.17-19.44,30.23-42.73,36.86C156.61,52.58,138.4,27.13,114.81,34,96.93,39.17,86,49.5,82.19,62.85c-6.1,21.31,11,34.13,5.12,45.43-7.53,14.55-25.89,9.1-33.84,27.76a137,137,0,0,1-9.66,19.64c-6.45,11-17.17,15.42-26.43,18.34"/><path class="cls-14" d="M328.42,200.3c-8.6-2.42-15.66-8.69-21.47-17-15.08-21.72-9.56-35.84-22.17-49.25-14.18-15.07-29.12-6-36.55-17.84-12-19,25-49.56,13.34-80.31C255.62,20.17,236,8.64,221.41,10.31c-19.18,2.19-19.31,29.76-42.5,36.36-21.35,6.09-39.59-18.74-63-12C97.76,39.8,86.76,49.52,82.81,62.81c-6.24,21,10.53,33.83,4.82,45-7.49,14.6-25.16,9.37-32.92,28a140.7,140.7,0,0,1-10,20c-6.41,11.14-16.88,15.69-25.9,18.73"/><path class="cls-15" d="M328.82,199.91c-8.93-2.29-16.05-8.55-21.84-16.82-15-21.52-9.32-35.63-21.87-49.14-14.07-15.15-29-6.26-36.39-18.12-11.8-19,24.87-49.19,13.34-79.55-5.93-15.63-25.67-26.88-40.29-25.19-19,2.2-19.17,29.29-42.27,35.86-21,6-39.26-18.23-62.56-11.68C98.59,40.43,87.52,49.54,83.43,62.78,77,83.45,93.51,96.29,87.94,107.26c-7.45,14.66-24.41,9.65-32,28.29-3.36,8.27-5.21,11.51-10.29,20.45-6.36,11.22-16.59,16-25.38,19.13"/><path class="cls-16" d="M329.23,199.53c-9.26-2.17-16.45-8.42-22.21-16.64-14.85-21.33-9.1-35.42-21.57-49-14-15.23-28.95-6.48-36.23-18.4-11.62-19,24.75-48.82,13.33-78.79-5.92-15.53-25.81-26.52-40.41-24.8-18.9,2.21-19,28.81-42,35.36C159.46,53.11,141.16,29.52,118,35.92c-18.59,5.14-29.74,13.64-34,26.82-6.53,20.35,9.64,33.21,4.2,44-7.41,14.72-23.65,9.93-31.07,28.56-3.36,8.43-5.47,11.67-10.6,20.85-6.33,11.31-16.3,16.24-24.86,19.53"/><path class="cls-17" d="M329.64,199.14c-9.6-2-16.85-8.28-22.59-16.45-14.73-21.13-8.87-35.2-21.27-48.92-13.86-15.31-28.86-6.71-36.07-18.68-11.44-19,24.64-48.45,13.33-78-5.9-15.44-26-26.15-40.54-24.42C203.74,14.87,203.58,41,180.68,47.5c-20.27,5.78-38.6-17.19-61.6-10.93-18.83,5.12-30,13-34.42,26.13-6.66,20,9.21,32.91,3.9,43.54C81.2,121,65.66,116.45,58.42,135.06c-3.35,8.59-5.73,11.85-10.92,21.26-6.29,11.39-16,16.51-24.33,19.93"/><path class="cls-18" d="M330.05,198.76c-9.94-1.93-17.25-8.15-23-16.27-14.61-20.93-8.63-35-21-48.81-13.75-15.39-28.77-6.93-35.91-19-11.26-19,24.53-48.08,13.34-77.27-5.89-15.35-26.1-25.78-40.68-24-18.61,2.24-18.79,27.87-41.59,34.36C161.36,53.46,143,31.1,120.15,37.21,101.08,42.32,89.78,49.6,85.28,62.66,78.49,82.38,94,95.27,88.87,105.73c-7.32,14.83-22.14,10.49-29.22,29.08-3.33,8.76-6,12-11.23,21.67C42.17,168,32.7,173.27,24.61,176.81"/><path class="cls-19" d="M330.45,198.38c-10.26-1.81-17.64-8-23.33-16.09-14.5-20.73-8.41-34.77-20.68-48.7-13.63-15.47-28.68-7.16-35.74-19.24-11.09-19,24.41-47.71,13.33-76.51-5.87-15.25-26.24-25.42-40.8-23.64-18.48,2.25-18.67,27.4-41.37,33.86-19.55,5.57-38-16.18-60.64-10.2C101.91,43,90.54,49.62,85.9,62.63,79,82,94.22,94.93,89.19,105.22,81.9,120.11,67.81,116,60.89,134.57c-3.32,8.92-6.24,12.2-11.55,22.08-6.21,11.55-15.43,17-23.28,20.72"/><path class="cls-20" d="M330.86,198c-10.6-1.68-18.05-7.86-23.71-15.9-14.43-20.5-8.18-34.56-20.38-48.59-13.52-15.54-28.6-7.38-35.58-19.52-10.91-19,24.3-47.34,13.33-75.76-5.85-15.15-26.37-25-40.93-23.25-18.33,2.26-18.54,26.93-41.14,33.36-19.19,5.47-37.62-15.66-60.16-9.82-19.55,5.06-31,11.12-35.77,24.08-7,19.07,7.89,32,3,42.13-7.24,14.94-20.62,11-27.37,29.6-3.31,9.08-6.5,12.38-11.86,22.49-6.19,11.63-15.15,17.33-22.76,21.12"/><path class="cls-21" d="M331.27,197.61c-10.93-1.56-18.45-7.73-24.09-15.73-14.31-20.29-7.95-34.34-20.08-48.47-13.41-15.62-28.51-7.6-35.41-19.8-10.74-19,24.18-47,13.32-75-5.83-15-26.51-24.68-41.06-22.86C205.76,18,205.54,42.21,183,48.61c-18.83,5.37-37.3-15.16-59.68-9.46-19.79,5-31.29,10.5-36.22,23.4C80,81.3,94.59,94.25,89.81,104.21c-7.2,15-19.85,11.34-26.45,29.86-3.29,9.25-6.75,12.55-12.17,22.9C45,168.69,36.33,174.57,29,178.49"/><path class="cls-22" d="M331.68,197.23c-11.27-1.44-18.85-7.6-24.47-15.55-14.19-20.09-7.71-34.12-19.78-48.36-13.3-15.7-28.42-7.83-35.25-20.08C241.62,94.29,276.25,66.64,265.5,39c-5.81-15-26.65-24.31-41.18-22.47-18.06,2.28-18.29,26-40.68,32.36-18.48,5.26-37-14.66-59.21-9.09-20,5-31.6,9.87-36.68,22.71-7.28,18.43,7,31.4,2.37,41.19C83,118.77,71,115.33,64.6,133.83c-3.28,9.41-7,12.72-12.49,23.3C46,168.93,37.54,175,30.4,179.05"/><path class="cls-23" d="M332.08,196.84c-11.6-1.32-19.24-7.46-24.83-15.36-14.08-19.89-7.49-33.91-19.49-48.25-13.19-15.77-28.33-8-35.09-20.36-10.38-18.94,24-46.23,13.33-73.48-5.81-14.87-26.8-24-41.32-22.09-17.91,2.3-18.16,25.52-40.45,31.86-18.12,5.17-36.66-14.15-58.74-8.71-20.26,5-31.89,9.23-37.12,22C81,80.59,95,93.57,90.43,103.19c-7.11,15.13-18.3,11.92-24.59,30.39-3.26,9.58-7.27,12.89-12.81,23.71a53.81,53.81,0,0,1-21.18,22.32"/><path class="cls-24" d="M332.49,196.46c-11.93-1.2-19.64-7.33-25.21-15.18-14-19.69-7.26-33.69-19.19-48.14-13.08-15.85-28.25-8.27-34.92-20.64C243,93.57,277,66.64,266.49,39.78,260.7,25,239.55,16.2,225,18.08c-17.77,2.3-18,25-40.22,31.36-17.76,5.06-36.34-13.66-58.26-8.35-20.5,5-32.2,8.61-37.57,21.35-7.5,17.79,6.16,30.8,1.76,40.24-7.08,15.19-17.54,12.21-23.68,30.66-3.24,9.74-7.52,13.06-13.11,24.11a56.15,56.15,0,0,1-20.67,22.71"/><path class="cls-25" d="M332.9,196.07c-12.27-1.07-20-7.19-25.59-15-13.85-19.49-7-33.48-18.88-48-13-15.93-28.17-8.49-34.77-20.92-10-18.91,23.73-45.49,13.32-72C261.21,25.49,239.9,17,225.41,18.86c-17.63,2.31-17.91,24.57-40,30.86-17.4,5-36-13.16-57.78-8-20.75,4.94-32.5,8-38,20.66C82,79.87,95.33,92.9,91.06,102.17c-7,15.25-16.76,12.5-22.75,30.92-3.22,9.91-7.79,13.23-13.43,24.52a58.75,58.75,0,0,1-20.14,23.11"/><path class="cls-26" d="M333.31,195.69c-12.6-.95-20.44-7.05-26-14.81-13.74-19.29-6.81-33.26-18.59-47.92-12.87-16-28.09-8.71-34.6-21.2-9.87-18.9,23.61-45.12,13.31-71.21-5.75-14.57-27.22-22.84-41.7-20.92C208.28,22,208,43.74,186,50c-17,4.86-35.69-12.66-57.3-7.61-21,4.92-32.8,7.35-38.47,20-7.71,17.16,5.29,30.2,1.14,39.3-7,15.32-16,12.79-21.82,31.18-3.21,10.08-8,13.41-13.75,24.93a62,62,0,0,1-19.61,23.51"/><path class="cls-27" d="M333.71,195.31c-12.93-.83-20.83-6.92-26.33-14.63-13.62-19.09-6.57-33-18.29-47.81-12.77-16.08-28-8.94-34.44-21.48C245,92.51,278.14,66.64,268,40.94c-5.73-14.48-27.35-22.48-41.83-20.53C208.78,22.74,208.48,44,186.59,50.27,169.91,55,151.22,38.1,129.77,43c-21.23,4.88-33.09,6.71-38.93,19.3-7.8,16.83,4.87,29.9.84,38.82-6.94,15.38-15.19,13.08-20.9,31.45-3.18,10.24-8.31,13.57-14.06,25.33a65.86,65.86,0,0,1-19.08,23.91"/><path class="cls-28" d="M334.12,194.92c-13.26-.71-21.23-6.78-26.71-14.44-13.5-18.89-6.34-32.83-18-47.7-12.66-16.16-27.91-9.16-34.28-21.77-9.52-18.86,23.38-44.37,13.32-69.68-5.73-14.39-27.5-22.12-42-20.14-17.2,2.34-17.52,23.16-39.31,29.36-16.32,4.65-35.05-11.68-56.34-6.87-21.48,4.85-33.39,6.08-39.38,18.61-7.9,16.52,4.44,29.61.53,38.35-6.9,15.44-14.41,13.38-20,31.71-3.16,10.42-8.57,13.75-14.37,25.74-5.94,12.28-12.84,19.52-18.57,24.31"/><path class="cls-29" d="M334.53,194.54c-13.6-.59-21.62-6.65-27.08-14.26-13.4-18.69-6.12-32.61-17.7-47.59-12.55-16.23-27.83-9.38-34.11-22-9.35-18.85,23.26-44,13.31-68.92C263.24,27.43,241.31,20,226.86,22c-17.07,2.36-17.4,22.69-39.09,28.86-16,4.55-34.73-11.19-55.86-6.5-21.72,4.82-33.68,5.45-39.83,17.93-8,16.2,4,29.31.23,37.88-6.86,15.51-13.63,13.67-19,32-3.14,10.58-8.84,13.91-14.69,26.14S46,178.05,40.53,183"/><path class="cls-30" d="M334.94,194.15c-13.94-.46-22-6.51-27.46-14.08-13.28-18.48-5.89-32.39-17.4-47.47-12.44-16.31-27.75-9.6-33.95-22.33C247,91.44,279.28,66.64,269.44,42.11c-5.69-14.2-27.78-21.39-42.22-19.37C210.3,25.1,210,45,188.36,51.1,172.76,55.54,154,40.4,133,45c-22,4.79-34,4.82-40.27,17.24-8.07,15.89,3.59,29-.08,37.41-6.82,15.58-12.84,14-18.13,32.24-3.11,10.75-9.1,14.08-15,26.55S47.23,178.48,42,183.52"/><path class="cls-31" d="M335.34,193.77c-14.26-.34-22.41-6.38-27.83-13.9-13.16-18.28-5.66-32.17-17.1-47.36-12.33-16.38-27.66-9.82-33.79-22.61-9-18.81,23-43.26,13.31-67.41-5.67-14.09-27.92-21-42.35-19C210.8,25.89,210.44,45.26,189,51.38c-15.24,4.34-34.09-10.22-54.91-5.76-22.2,4.75-34.25,4.19-40.72,16.56-8.16,15.57,3.17,28.72-.39,36.93-6.77,15.64-12,14.26-17.2,32.5-3.09,10.92-9.37,14.26-15.32,27-5.85,12.51-12,20.35-17,25.51"/><path class="cls-32" d="M335.75,193.39c-14.6-.22-22.81-6.25-28.2-13.72-13.05-18.08-5.44-31.95-16.81-47.25-12.22-16.46-27.58-10-33.62-22.89-8.84-18.8,22.91-42.89,13.3-66.65-5.66-14-28.06-20.65-42.47-18.59-16.65,2.38-17,21.28-38.41,27.36-14.88,4.24-33.77-9.72-54.43-5.39C112.67,51,100.58,49.82,93.93,62.14,85.7,77.4,96.69,90.57,93.24,98.6,86.52,114.31,82,113.16,77,131.37c-3.06,11.09-9.64,14.42-15.63,27.36-5.84,12.59-11.69,20.62-16.47,25.91"/><path class="cls-33" d="M336.16,193c-14.93-.09-23.21-6.1-28.58-13.53-12.93-17.88-5.21-31.73-16.5-47.14-12.13-16.53-27.51-10.26-33.47-23.17-8.67-18.78,22.79-42.52,13.31-65.89-5.65-13.91-28.21-20.29-42.61-18.2-16.5,2.39-16.88,20.8-38.18,26.86-14.52,4.14-33.45-9.24-53.95-5-22.69,4.67-34.82,2.93-41.63,15.19-8.3,14.95,2.33,28.14-1,36-6.69,15.77-10.46,14.84-15.36,33-3,11.26-9.9,14.59-15.94,27.78-5.81,12.66-11.39,20.88-15.94,26.3"/><path class="cls-34" d="M336.57,192.62c-15.27,0-23.61-6-29-13.35-12.81-17.69-5-31.52-16.2-47-12-16.61-27.42-10.48-33.3-23.45C249.6,90,280.78,66.64,271.41,43.66c-5.63-13.81-28.34-19.92-42.74-17.82-16.36,2.4-16.75,20.34-37.95,26.37-14.16,4-33.13-8.76-53.47-4.65-22.94,4.63-35.1,2.3-42.08,14.5-8.37,14.64,1.91,27.85-1.3,35.53-6.64,15.84-9.67,15.14-14.43,33.28-3,11.43-10.17,14.76-16.26,28.19-5.78,12.74-11.1,21.16-15.42,26.7"/><path class="cls-35" d="M337,192.24c-15.6.14-24-5.84-29.32-13.17-12.71-17.49-4.76-31.3-15.91-46.92-11.91-16.68-27.34-10.7-33.14-23.73-8.34-18.75,22.55-41.77,13.3-64.37C266.28,30.33,243.42,24.49,229,26.62,212.82,29,212.41,46.48,191.31,52.48c-13.8,3.93-32.81-8.28-53-4.28C115.14,52.8,103,49.88,95.79,62c-8.44,14.33,1.49,27.55-1.61,35.05-6.59,15.91-8.87,15.44-13.5,33.55-3,11.6-10.44,14.93-16.58,28.59C58.34,172,53.29,180.65,49.21,186.31"/><path class="cls-36" d="M337.38,191.85c-15.93.27-24.4-5.7-29.7-13-12.59-17.29-4.53-31.08-15.61-46.81-11.8-16.75-27.26-10.92-33-24-8.17-18.73,22.44-41.4,13.3-63.62-5.6-13.61-28.62-19.19-43-17-16.08,2.41-16.5,19.39-37.5,25.36-13.44,3.83-32.5-7.8-52.51-3.91-23.43,4.55-35.65,1-43,13.14-8.51,14,1.08,27.26-1.92,34.58-6.54,16-8.07,15.73-12.58,33.81-2.93,11.77-10.7,15.1-16.88,29-5.74,12.89-10.53,21.71-14.37,27.49"/><path class="cls-37" d="M337.79,191.47c-16.27.39-24.8-5.57-30.08-12.8-12.47-17.09-4.3-30.87-15.31-46.7-11.7-16.83-27.18-11.14-32.81-24.29-8-18.71,22.31-41,13.29-62.86C267.3,31.3,244.12,26,229.76,28.17,213.82,30.6,213.39,47.09,192.49,53c-13.08,3.72-32.18-7.32-52-3.54C116.78,54,104.54,49.92,97,62c-8.56,13.72.67,27-2.22,34.11-6.49,16-7.26,16-11.65,34.08-2.9,11.93-11,15.26-17.2,29.4-5.71,13-10.24,22-13.84,27.89"/><path class="cls-38" d="M338.2,191.08c-16.6.52-25.19-5.43-30.45-12.61-12.36-16.89-4.08-30.65-15-46.59-11.59-16.9-27.1-11.36-32.65-24.57-7.85-18.69,22.2-40.66,13.3-62.1C267.8,31.79,244.47,26.75,230.13,29c-15.8,2.43-16.25,18.45-37,24.36-12.72,3.63-31.86-6.84-51.56-3.17-23.91,4.46-36.18-.2-43.88,11.78C89,75.33,97.89,88.6,95.12,95.55c-6.45,16.12-6.47,16.33-10.73,34.34C81.52,142,73.14,145.32,66.87,159.7,61.18,172.75,56.92,182,53.55,188"/><path class="cls-39" d="M338.6,190.7c-16.93.63-25.58-5.3-30.82-12.44-12.24-16.68-3.86-30.42-14.72-46.47-11.49-17-27-11.57-32.48-24.85-7.69-18.67,22.07-40.29,13.29-61.34-5.56-13.33-29.05-18.1-43.38-15.87-15.66,2.43-16.12,18-36.82,23.86-12.36,3.52-31.54-6.37-51.08-2.8C118.43,55.2,106.14,50,98.26,61.88,89.59,75,98.1,88.27,95.43,95c-6.39,16.19-5.66,16.63-9.81,34.6-2.83,12.28-11.51,15.6-17.83,30.22C62.13,173,58.13,182.39,55,188.55"/><path class="cls-40" d="M339,190.32c-17.27.75-26-5.17-31.2-12.26-12.12-16.48-3.63-30.2-14.42-46.36-11.38-17-26.94-11.79-32.32-25.13C253.55,87.91,283,66.65,274.36,46c-5.55-13.23-29.19-17.74-43.51-15.49C215.33,33,214.86,48,194.26,53.87c-12,3.42-31.23-5.9-50.6-2.44C119.25,55.79,107,50,98.88,61.84c-8.72,12.81-.57,26.1-3.14,32.69-6.34,16.26-4.85,16.93-8.88,34.87C84.07,141.85,75.07,145.16,68.72,160c-5.65,13.2-9.38,22.81-12.27,29.09"/><path class="cls-41" d="M339.42,189.93c-17.6.88-26.38-5-31.57-12.07-12-16.28-3.41-30-14.13-46.25-11.27-17.12-26.86-12-32.16-25.41-7.36-18.64,21.84-39.54,13.29-59.82-5.53-13.14-29.32-17.38-43.63-15.1-15.38,2.45-15.87,17-36.37,22.86-11.64,3.32-30.91-5.42-50.12-2.06-24.66,4.31-37-2.06-45.23,9.72-8.77,12.52-1,25.82-3.45,32.22-6.28,16.34-4,17.22-8,35.13-2.76,12.62-12.06,15.93-18.46,31-5.63,13.28-9.08,23.08-11.75,29.49"/><path class="cls-42" d="M339.83,189.55c-17.94,1-26.78-4.89-31.95-11.89-11.89-16.08-3.18-29.76-13.82-46.14-11.18-17.2-26.79-12.23-32-25.69-7.2-18.62,21.71-39.17,13.28-59.07-5.52-13-29.46-17-43.76-14.7-15.24,2.45-15.74,16.56-36.14,22.36-11.28,3.21-30.59-5-49.64-1.69-24.9,4.25-37.23-2.68-45.69,9C91.3,74,98.73,87.29,96.36,93.51c-6.23,16.41-3.24,17.52-7,35.4C86.62,141.7,77,145,70.56,160.34c-5.6,13.36-8.79,23.35-11.22,29.89"/><path class="cls-43" d="M340.23,189.17c-18.26,1.12-27.17-4.76-32.32-11.71-11.77-15.89-3-29.55-13.52-46-11.07-17.27-26.72-12.45-31.84-26-7-18.6,21.59-38.8,13.29-58.31-5.51-12.94-29.61-16.64-43.9-14.32C216.85,35.3,216.33,48.93,196,54.7c-10.92,3.11-30.27-4.48-49.16-1.33-25.15,4.2-37.49-3.29-46.14,8.36C91.88,73.65,98.94,87,96.68,93c-6.18,16.49-2.43,17.82-6.11,35.66-2.67,13-12.61,16.26-19.09,31.84-5.58,13.43-8.5,23.63-10.69,30.29"/><path class="cls-44" d="M340.64,188.78C322,190,313.07,184.16,308,177.26c-11.66-15.69-2.74-29.33-13.23-45.92-11-17.34-26.64-12.66-31.67-26.25-6.88-18.58,21.46-38.42,13.28-57.55-5.5-12.84-29.75-16.28-44-13.93-15,2.47-15.49,15.62-35.69,21.36-10.56,3-30-4-48.68-.95-25.4,4.14-37.74-3.91-46.59,7.67s-2.2,25-4.36,30.8c-6.12,16.57-1.62,18.12-5.18,35.92-2.63,13.14-12.88,16.43-19.4,32.25a258.07,258.07,0,0,0-10.18,30.69"/><path class="cls-45" d="M341.05,188.4c-18.94,1.36-28-4.49-33.07-11.34-11.54-15.49-2.51-29.11-12.93-45.81-10.87-17.41-26.56-12.88-31.51-26.53-6.72-18.56,21.34-38,13.28-56.79C271.34,35.18,246.93,32,232.67,34.39c-14.82,2.47-15.36,15.15-35.46,20.86-10.2,2.91-29.64-3.54-48.2-.58-25.65,4.07-38-4.52-47,7C93,73,99.36,86.32,97.3,92c-6,16.64-.81,18.41-4.25,36.19-2.59,13.31-13.16,16.59-19.72,32.65a204.88,204.88,0,0,0-9.65,31.08"/><path class="cls-46" d="M341.46,188c-19.27,1.49-28.36-4.35-33.45-11.15-11.42-15.29-2.28-28.89-12.63-45.7-10.76-17.49-26.49-13.1-31.35-26.82-6.56-18.53,21.22-37.67,13.28-56-5.47-12.65-30-15.56-44.28-13.16-14.67,2.48-15.23,14.68-35.23,20.37-9.84,2.8-29.32-3.07-47.73-.22-25.89,4-38.23-5.12-47.48,6.31-9,11.06-3,24.38-5,29.86-6,16.71,0,18.7-3.33,36.44-2.53,13.48-13.43,16.76-20,33.06a171.14,171.14,0,0,0-9.12,31.48"/><path class="cls-47" d="M341.86,187.63c-19.6,1.61-28.75-4.22-33.81-11C296.74,161.57,306,148,295.71,131.07c-10.66-17.56-26.41-13.32-31.18-27.1-6.41-18.51,21.09-37.29,13.27-55.27-5.46-12.55-30.17-15.19-44.4-12.76-14.54,2.48-15.11,14.21-35,19.86-9.48,2.7-29-2.6-47.25.16-26.14,3.95-38.47-5.72-47.94,5.62-9,10.78-3.41,24.1-5.28,29.39-5.92,16.79.82,19-2.4,36.7C93,141.33,81.81,144.6,75.17,161.15A147.4,147.4,0,0,0,66.58,193"/><path class="cls-48" d="M342.27,187.25c-19.93,1.73-29.15-4.09-34.19-10.8C296.89,161.56,306.24,148,296,131c-10.55-17.63-26.34-13.53-31-27.38-6.25-18.49,21-36.92,13.28-54.51C272.85,36.64,248,34.26,233.76,36.72c-14.4,2.49-15,13.73-34.78,19.36-9.12,2.6-28.69-2.13-46.77.53-26.39,3.88-38.71-6.33-48.39,4.93C94.8,72,100,85.35,98.24,90.46c-5.86,16.87,1.63,19.3-1.48,37-2.44,13.82-14,17.09-20.66,33.88A130.47,130.47,0,0,0,68,193.58"/><path class="cls-49" d="M342.68,186.86c-20.27,1.86-29.55-4-34.57-10.61C297,161.56,306.49,148,296.37,130.89c-10.45-17.7-26.27-13.75-30.85-27.66-6.1-18.47,20.84-36.55,13.27-53.75-5.44-12.36-30.46-14.47-44.67-12s-14.85,13.27-34.55,18.87c-8.76,2.49-28.37-1.67-46.29.89-26.64,3.82-38.95-6.91-48.84,4.25C95.39,71.72,100.23,85,98.55,90c-5.79,17,2.45,19.59-.56,37.23-2.38,14-14.26,17.26-21,34.29a117.83,117.83,0,0,0-7.55,32.67"/><path class="cls-50" d="M343.09,186.48c-20.61,2-29.95-3.82-34.94-10.43-11-14.49-1.4-28-11.45-45.25-10.35-17.78-26.19-14-30.69-27.94-5.94-18.45,20.71-36.17,13.27-53-5.43-12.26-30.6-14.11-44.79-11.6s-14.73,12.8-34.33,18.36c-8.4,2.4-28.06-1.2-45.81,1.27-26.89,3.74-39.19-7.51-49.29,3.57-9.07,9.94-4.61,23.24-6.2,28-5.71,17,3.27,19.89.37,37.5-2.34,14.16-14.54,17.42-21.29,34.69a107.66,107.66,0,0,0-7,33.07"/><path class="cls-51" d="M343.49,186.1c-20.93,2.09-30.33-3.69-35.31-10.25C297.34,161.56,307,148.07,297,130.71c-10.25-17.85-26.13-14.18-30.54-28.22-5.78-18.43,20.59-35.8,13.27-52.23C274.35,38.1,249,36.51,234.85,39.05c-14,2.5-14.59,12.32-34.1,17.86-8,2.29-27.74-.74-45.33,1.64-27.14,3.66-39.42-8.1-49.74,2.88-9.1,9.67-5,23-6.51,27.5-5.63,17.12,4.09,20.19,1.3,37.76-2.28,14.34-14.83,17.59-21.61,35.1a99.88,99.88,0,0,0-6.5,33.47"/><path class="cls-52" d="M343.9,185.71c-21.27,2.22-30.73-3.55-35.69-10.06-10.72-14.09-.95-27.56-10.84-45-10.15-17.92-26.06-14.4-30.37-28.5-5.64-18.41,20.46-35.42,13.26-51.47-5.4-12.07-30.87-13.39-45-10.83-13.83,2.51-14.46,11.86-33.87,17.37-7.68,2.18-27.42-.28-44.85,2-27.39,3.59-39.65-8.67-50.2,2.2-9.12,9.41-5.4,22.68-6.8,27-5.55,17.21,4.9,20.48,2.21,38C99.48,141,86.6,144.19,79.79,162a93.12,93.12,0,0,0-6,33.87"/><path class="cls-53" d="M344.31,185.33c-21.6,2.34-31.13-3.42-36.06-9.88-10.61-13.9-.73-27.34-10.55-44.92-10.05-18-26-14.62-30.21-28.78C262,83.36,287.82,66.7,280.76,51c-5.4-12-31-13-45.19-10.43C221.88,43.11,221.24,52,201.93,57.46c-7.32,2.09-27.1.19-44.38,2.38-27.63,3.51-39.86-9.26-50.64,1.51-9.14,9.15-5.8,22.4-7.11,26.56-5.46,17.3,5.72,20.78,3.14,38.29-2.17,14.68-15.38,17.91-22.23,35.91a87.71,87.71,0,0,0-5.45,34.27"/><path class="cls-54" d="M344.72,184.94c-21.94,2.47-31.53-3.28-36.44-9.69-10.49-13.7-.51-27.12-10.25-44.81-9.95-18.06-25.92-14.83-30-29.06-5.32-18.37,20.21-34.67,13.27-50-5.39-11.86-31.16-12.67-45.31-10-13.56,2.51-14.21,10.91-33.42,16.36-7,2-26.79.64-43.9,2.74-27.88,3.43-40.09-9.82-51.09.84-9.16,8.88-6.2,22.11-7.42,26.08-5.36,17.39,6.55,21.07,4.07,38.55-2.11,14.86-15.66,18.08-22.55,36.32a83.45,83.45,0,0,0-4.93,34.67"/><path class="cls-55" d="M345.12,184.56c-22.26,2.58-31.92-3.15-36.81-9.51-10.37-13.5-.29-26.9-9.95-44.7-9.85-18.14-25.85-15-29.88-29.34-5.18-18.34,20.08-34.3,13.26-49.2C276.36,40,250.44,39.5,236.3,42.15,222.88,44.67,222.22,52.59,203.11,58c-6.6,1.88-26.47,1.1-43.42,3.11-28.13,3.34-40.31-10.39-51.54.15-9.19,8.62-6.59,21.83-7.73,25.61-5.26,17.48,7.37,21.37,5,38.82-2,15-15.94,18.24-22.86,36.72a79.6,79.6,0,0,0-4.4,35.06"/><path class="cls-56" d="M345.53,184.18c-22.6,2.7-32.31-3-37.18-9.33-10.26-13.3-.07-26.68-9.66-44.59C289,112.05,272.91,115,269,100.64c-5-18.32,19.95-33.92,13.26-48.44-5.37-11.67-31.44-12-45.57-9.27-13.27,2.52-13.95,10-33,15.36-6.24,1.78-26.15,1.56-42.94,3.49-28.38,3.25-40.52-11-52-.54-9.21,8.37-7,21.55-8,25.14-5.14,17.57,8.2,21.66,5.92,39.08-2,15.2-16.22,18.41-23.17,37.13-5.35,14.42-4.76,27.19-3.88,35.46"/><path class="cls-57" d="M345.94,183.79c-22.94,2.83-32.71-2.88-37.56-9.15-10.13-13.1.15-26.46-9.36-44.47-9.64-18.28-25.71-15.48-29.55-29.9-4.88-18.3,19.81-33.54,13.25-47.68C277.35,41,251.14,41,237,43.71c-13.14,2.52-13.83,9.49-32.74,14.86-5.88,1.67-25.83,2-42.46,3.85-28.63,3.16-40.74-11.51-52.44-1.21-9.23,8.11-7.38,21.26-8.34,24.66-5,17.67,9,22,6.84,39.34C106,140.58,91.38,143.79,84.4,162.75c-5.33,14.5-4.46,27.46-3.36,35.86"/><path class="cls-58" d="M346.35,183.41c-23.27,3-33.11-2.74-37.94-9-10-12.9.37-26.24-9.06-44.36-9.54-18.35-25.64-15.7-29.39-30.18C265.23,81.62,289.65,66.73,283.22,53c-5.37-11.46-31.73-11.23-45.83-8.49-13,2.53-13.7,9-32.51,14.37-5.52,1.57-25.52,2.47-42,4.22C134,66.13,122,51,110,61.17c-9.24,7.86-7.76,21-8.64,24.19-4.89,17.77,9.84,22.25,7.76,39.61-1.86,15.54-16.79,18.73-23.8,37.94-5.32,14.57-4.17,27.74-2.83,36.26"/><path class="cls-59" d="M346.75,183c-23.6,3.08-33.5-2.6-38.3-8.78-9.9-12.7.59-26-8.76-44.25-9.45-18.42-25.59-15.92-29.24-30.46C265.87,81.27,290,66.74,283.71,53.36c-5.36-11.37-31.87-10.87-46-8.1-12.85,2.53-13.57,8.55-32.28,13.86-5.16,1.47-25.2,2.94-41.5,4.6-29.13,3-41.16-12.61-53.35-2.59-9.27,7.62-8.15,20.71-9,23.72-4.74,17.87,10.67,22.55,8.69,39.87-1.79,15.71-17.07,18.9-24.12,38.35-5.3,14.65-3.88,28-2.3,36.66"/><path class="cls-60" d="M347.16,182.64c-23.93,3.19-33.88-2.48-38.68-8.6-9.76-12.53.81-25.8-8.46-44.14-9.35-18.5-25.52-16.13-29.07-30.74-4.44-18.24,19.42-32.41,13.25-45.41-5.35-11.27-32-10.51-46.08-7.71-12.72,2.53-13.45,8.08-32.06,13.36-4.8,1.37-24.88,3.39-41,5-29.38,2.87-41.37-13.14-53.8-3.27C102,68.47,102.7,81.52,102,84.35c-4.57,18,11.49,22.83,9.62,40.13-1.73,15.88-17.36,19.06-24.43,38.75-5.29,14.73-3.6,28.28-1.78,37.06"/><path class="cls-61" d="M347.57,182.26c-24.27,3.31-34.28-2.35-39.06-8.42-9.64-12.33,1-25.57-8.16-44s-25.46-16.35-28.91-31c-4.28-18.22,19.29-32,13.25-44.65C279.34,43,252.54,44,238.48,46.81c-12.58,2.54-13.32,7.61-31.83,12.87-4.44,1.26-24.56,3.84-40.55,5.33-29.62,2.76-41.57-13.67-54.24-4-9.32,7.14-8.93,20.14-9.57,22.78-4.38,18.08,12.32,23.12,10.54,40.39-1.65,16-17.64,19.23-24.74,39.17-5.27,14.79-3.31,28.55-1.26,37.45"/><path class="cls-62" d="M348,181.87c-24.61,3.44-34.68-2.21-39.43-8.23-9.53-12.13,1.24-25.35-7.87-43.92s-25.39-16.57-28.74-31.3c-4.14-18.2,19.15-31.66,13.24-43.89-5.34-11.07-32.29-9.8-46.34-6.94-12.44,2.53-13.19,7.14-31.6,12.36-4.08,1.17-24.24,4.3-40.07,5.71-29.87,2.65-41.78-14.2-54.69-4.64-9.34,6.91-9.31,19.86-9.87,22.31-4.17,18.19,13.14,23.41,11.46,40.65-1.58,16.23-17.92,19.39-25.06,39.58-5.25,14.87-3,28.82-.73,37.85"/><path class="cls-63" d="M348.38,181.49c-24.93,3.56-35.07-2.08-39.8-8.05-9.41-11.93,1.44-25.12-7.57-43.81S275.68,112.85,272.43,98c-4-18.17,19-31.27,13.25-43.12-5.35-11-32.44-9.45-46.47-6.55-12.3,2.53-13.07,6.67-31.38,11.86-3.72,1.06-23.92,4.75-39.59,6.07-30.12,2.54-42-14.71-55.15-5.32-9.36,6.68-9.69,19.58-10.17,21.84-3.92,18.31,14,23.71,12.39,40.92-1.51,16.39-18.21,19.55-25.37,40-5.25,14.95-2.74,29.1-.21,38.25"/><path class="cls-64" d="M348.79,181.11c-25.27,3.68-35.47-2-40.18-7.87-9.29-11.73,1.66-24.9-7.27-43.7s-25.26-17-28.42-31.87c-3.85-18.15,18.89-30.89,13.25-42.37-5.35-10.86-32.59-9.11-46.6-6.16-12.17,2.52-12.94,6.2-31.15,11.37A294.51,294.51,0,0,1,169.31,67c-30.37,2.42-42.18-15.22-55.6-6-9.39,6.45-10.07,19.3-10.48,21.37-3.62,18.43,14.8,24,13.31,41.18-1.43,16.57-18.49,19.72-25.68,40.39-5.23,15-2.45,29.37.31,38.65"/><path class="cls-65" d="M349.2,180.72c-25.6,3.81-35.86-1.81-40.55-7.69-9.18-11.52,1.88-24.68-7-43.58s-25.2-17.22-28.25-32.15c-3.71-18.13,18.75-30.51,13.24-41.61-5.35-10.75-32.73-8.74-46.73-5.77-12,2.52-12.81,5.73-30.92,10.86-3,.86-23.28,5.66-38.63,6.82-30.62,2.3-42.39-15.73-56-6.69-9.42,6.22-10.46,19-10.79,20.89-3.27,18.56,15.64,24.29,14.24,41.44C116.42,140,99,143.11,91.78,164c-5.24,15.09-2.16,29.65.84,39.05"/><path class="cls-66" d="M349.61,180.34c-25.94,3.92-36.26-1.68-40.93-7.51-9.06-11.32,2.11-24.46-6.68-43.47s-25.16-17.43-28.09-32.43c-3.59-18.11,18.61-30.12,13.24-40.85S254.28,47.7,240.3,50.7c-11.89,2.53-12.69,5.25-30.7,10.36-2.64.75-23,6.11-38.15,7.18C140.58,70.42,128.86,52,115,60.87c-9.45,6-10.84,18.73-11.1,20.42C101,100,120.32,105.87,119,123c-1.29,16.91-19.09,20-26.32,41.2-5.21,15.17-1.86,29.92,1.37,39.44"/><path class="cls-67" d="M350,180c-26.27,4.05-36.65-1.54-41.3-7.32-8.94-11.12,2.34-24.24-6.38-43.36s-25.08-17.65-27.92-32.71c-3.43-18.1,18.48-29.75,13.23-40.09-5.35-10.55-33-8-47-5-11.75,2.54-12.56,4.79-30.47,9.87-2.28.65-22.64,6.56-37.67,7.55-31.12,2-42.79-16.71-57-8.06-9.49,5.79-11.22,18.44-11.4,20-2.32,18.83,17.29,24.87,16.08,42S100.9,143,93.63,164.36c-5.19,15.25-1.58,30.2,1.88,39.84"/></g></g></svg>