<svg xmlns="http://www.w3.org/2000/svg" xmlns:xlink="http://www.w3.org/1999/xlink" viewBox="0 0 150.04 231.58"><defs><style>.cls-1,.cls-10,.cls-11,.cls-12,.cls-13,.cls-14,.cls-15,.cls-16,.cls-17,.cls-18,.cls-19,.cls-2,.cls-20,.cls-21,.cls-22,.cls-23,.cls-24,.cls-25,.cls-26,.cls-27,.cls-28,.cls-29,.cls-3,.cls-30,.cls-31,.cls-32,.cls-33,.cls-34,.cls-35,.cls-36,.cls-37,.cls-38,.cls-39,.cls-4,.cls-40,.cls-41,.cls-42,.cls-43,.cls-44,.cls-45,.cls-46,.cls-47,.cls-48,.cls-49,.cls-5,.cls-50,.cls-51,.cls-52,.cls-6,.cls-7,.cls-8,.cls-9{fill:none;stroke-width:0.15px;}.cls-1,.cls-10,.cls-11,.cls-12,.cls-13,.cls-14,.cls-15,.cls-16,.cls-17,.cls-18,.cls-19,.cls-20,.cls-21,.cls-22,.cls-23,.cls-24,.cls-25,.cls-26,.cls-27,.cls-28,.cls-29,.cls-30,.cls-31,.cls-32,.cls-33,.cls-34,.cls-35,.cls-36,.cls-37,.cls-38,.cls-39,.cls-40,.cls-41,.cls-42,.cls-43,.cls-44,.cls-45,.cls-46,.cls-47,.cls-48,.cls-49,.cls-5,.cls-50,.cls-51,.cls-52,.cls-6,.cls-8,.cls-9{stroke-miterlimit:10;}.cls-1{stroke:url(#Градієнт_без_назви_1872);}.cls-2,.cls-3,.cls-4{stroke-miterlimit:10;}.cls-2{stroke:url(#Безымянный_градиент_3298);}.cls-3{stroke:url(#Безымянный_градиент_3297);}.cls-4{stroke:url(#Безымянный_градиент_3296);}.cls-5{stroke:url(#Безымянный_градиент_3295);}.cls-6{stroke:url(#Безымянный_градиент_3294);}.cls-7{stroke-miterlimit:10;stroke:url(#Безымянный_градиент_3293);}.cls-8{stroke:url(#Безымянный_градиент_3292);}.cls-9{stroke:url(#Безымянный_градиент_3291);}.cls-10{stroke:url(#Безымянный_градиент_3290);}.cls-11{stroke:url(#Безымянный_градиент_3289);}.cls-12{stroke:url(#Безымянный_градиент_3288);}.cls-13{stroke:url(#Безымянный_градиент_3287);}.cls-14{stroke:url(#Безымянный_градиент_3286);}.cls-15{stroke:url(#Безымянный_градиент_3285);}.cls-16{stroke:url(#Безымянный_градиент_3284);}.cls-17{stroke:url(#Безымянный_градиент_3283);}.cls-18{stroke:url(#Безымянный_градиент_3282);}.cls-19{stroke:url(#Безымянный_градиент_3281);}.cls-20{stroke:url(#Безымянный_градиент_3280);}.cls-21{stroke:url(#Безымянный_градиент_3279);}.cls-22{stroke:url(#Безымянный_градиент_3278);}.cls-23{stroke:url(#Безымянный_градиент_3277);}.cls-24{stroke:url(#Безымянный_градиент_3276);}.cls-25{stroke:url(#Безымянный_градиент_3275);}.cls-26{stroke:url(#Безымянный_градиент_3274);}.cls-27{stroke:url(#Безымянный_градиент_3273);}.cls-28{stroke:url(#Безымянный_градиент_3272);}.cls-29{stroke:url(#Безымянный_градиент_3271);}.cls-30{stroke:url(#Безымянный_градиент_3270);}.cls-31{stroke:url(#Безымянный_градиент_3269);}.cls-32{stroke:url(#Безымянный_градиент_3268);}.cls-33{stroke:url(#Безымянный_градиент_3267);}.cls-34{stroke:url(#Безымянный_градиент_3266);}.cls-35{stroke:url(#Безымянный_градиент_3265);}.cls-36{stroke:url(#Безымянный_градиент_3264);}.cls-37{stroke:url(#Безымянный_градиент_3263);}.cls-38{stroke:url(#Безымянный_градиент_3262);}.cls-39{stroke:url(#Безымянный_градиент_3261);}.cls-40{stroke:url(#Безымянный_градиент_3260);}.cls-41{stroke:url(#Безымянный_градиент_3259);}.cls-42{stroke:url(#Безымянный_градиент_3258);}.cls-43{stroke:url(#Безымянный_градиент_3257);}.cls-44{stroke:url(#Безымянный_градиент_3256);}.cls-45{stroke:url(#Безымянный_градиент_3255);}.cls-46{stroke:url(#Безымянный_градиент_3254);}.cls-47{stroke:url(#Безымянный_градиент_3253);}.cls-48{stroke:url(#Безымянный_градиент_3252);}.cls-49{stroke:url(#Безымянный_градиент_3251);}.cls-50{stroke:url(#Безымянный_градиент_3250);}.cls-51{stroke:url(#Безымянный_градиент_3249);}.cls-52{stroke:#fff;}</style><linearGradient id="Градієнт_без_назви_1872" x1="30.2" y1="73.59" x2="122.56" y2="73.59" gradientUnits="userSpaceOnUse"><stop offset="0" stop-color="#81b0db"/><stop offset="0.5" stop-color="#8a6aa3"/><stop offset="1" stop-color="#d4b4d1"/></linearGradient><linearGradient id="Безымянный_градиент_3298" x1="30.95" y1="74.7" x2="123.1" y2="74.7" gradientUnits="userSpaceOnUse"><stop offset="0" stop-color="#82b1dc"/><stop offset="0.5" stop-color="#8c6ba4"/><stop offset="1" stop-color="#d5b5d2"/></linearGradient><linearGradient id="Безымянный_градиент_3297" x1="31.7" y1="75.81" x2="123.64" y2="75.81" gradientUnits="userSpaceOnUse"><stop offset="0" stop-color="#84b2dc"/><stop offset="0.5" stop-color="#8d6da5"/><stop offset="1" stop-color="#d6b6d3"/></linearGradient><linearGradient id="Безымянный_градиент_3296" x1="32.44" y1="76.92" x2="124.18" y2="76.92" gradientUnits="userSpaceOnUse"><stop offset="0" stop-color="#86b4dd"/><stop offset="0.5" stop-color="#8e6ea6"/><stop offset="1" stop-color="#d6b8d4"/></linearGradient><linearGradient id="Безымянный_градиент_3295" x1="33.19" y1="78.03" x2="124.71" y2="78.03" gradientUnits="userSpaceOnUse"><stop offset="0" stop-color="#88b5de"/><stop offset="0.5" stop-color="#9070a7"/><stop offset="1" stop-color="#d7b9d4"/></linearGradient><linearGradient id="Безымянный_градиент_3294" x1="33.93" y1="79.14" x2="125.25" y2="79.14" gradientUnits="userSpaceOnUse"><stop offset="0" stop-color="#89b6de"/><stop offset="0.5" stop-color="#9271a8"/><stop offset="1" stop-color="#d8bad5"/></linearGradient><linearGradient id="Безымянный_градиент_3293" x1="34.67" y1="80.24" x2="125.79" y2="80.24" gradientUnits="userSpaceOnUse"><stop offset="0" stop-color="#8bb7df"/><stop offset="0.5" stop-color="#9372a9"/><stop offset="1" stop-color="#d9bcd6"/></linearGradient><linearGradient id="Безымянный_градиент_3292" x1="35.41" y1="81.35" x2="126.33" y2="81.35" gradientUnits="userSpaceOnUse"><stop offset="0" stop-color="#8db8df"/><stop offset="0.5" stop-color="#9574aa"/><stop offset="1" stop-color="#d9bdd7"/></linearGradient><linearGradient id="Безымянный_градиент_3291" x1="35.28" y1="82.45" x2="126.87" y2="82.45" gradientUnits="userSpaceOnUse"><stop offset="0" stop-color="#8fb9e0"/><stop offset="0.5" stop-color="#9676ab"/><stop offset="1" stop-color="#dabed8"/></linearGradient><linearGradient id="Безымянный_градиент_3290" x1="34.46" y1="83.55" x2="127.41" y2="83.55" gradientUnits="userSpaceOnUse"><stop offset="0" stop-color="#91bae1"/><stop offset="0.5" stop-color="#9877ac"/><stop offset="1" stop-color="#dbc0d9"/></linearGradient><linearGradient id="Безымянный_градиент_3289" x1="33.64" y1="84.65" x2="127.94" y2="84.65" gradientUnits="userSpaceOnUse"><stop offset="0" stop-color="#93bbe1"/><stop offset="0.5" stop-color="#9a79ad"/><stop offset="1" stop-color="#dbc1d9"/></linearGradient><linearGradient id="Безымянный_градиент_3288" x1="32.82" y1="85.75" x2="128.48" y2="85.75" gradientUnits="userSpaceOnUse"><stop offset="0" stop-color="#95bde2"/><stop offset="0.5" stop-color="#9b7bae"/><stop offset="1" stop-color="#dcc2da"/></linearGradient><linearGradient id="Безымянный_градиент_3287" x1="32" y1="86.85" x2="129.02" y2="86.85" gradientUnits="userSpaceOnUse"><stop offset="0" stop-color="#98bee2"/><stop offset="0.5" stop-color="#9d7daf"/><stop offset="1" stop-color="#ddc3db"/></linearGradient><linearGradient id="Безымянный_градиент_3286" x1="31.18" y1="87.95" x2="129.56" y2="87.95" gradientUnits="userSpaceOnUse"><stop offset="0" stop-color="#9abfe3"/><stop offset="0.5" stop-color="#9f7fb1"/><stop offset="1" stop-color="#dec5dc"/></linearGradient><linearGradient id="Безымянный_градиент_3285" x1="30.36" y1="89.06" x2="130.1" y2="89.06" gradientUnits="userSpaceOnUse"><stop offset="0" stop-color="#9cc0e4"/><stop offset="0.5" stop-color="#a181b2"/><stop offset="1" stop-color="#dec6dd"/></linearGradient><linearGradient id="Безымянный_градиент_3284" x1="29.54" y1="90.15" x2="130.64" y2="90.15" gradientUnits="userSpaceOnUse"><stop offset="0" stop-color="#9ec2e4"/><stop offset="0.5" stop-color="#a383b3"/><stop offset="1" stop-color="#dfc8de"/></linearGradient><linearGradient id="Безымянный_градиент_3283" x1="28.72" y1="91.25" x2="131.18" y2="91.25" gradientUnits="userSpaceOnUse"><stop offset="0" stop-color="#a0c3e5"/><stop offset="0.5" stop-color="#a585b5"/><stop offset="1" stop-color="#e0c9de"/></linearGradient><linearGradient id="Безымянный_градиент_3282" x1="27.9" y1="92.35" x2="131.71" y2="92.35" gradientUnits="userSpaceOnUse"><stop offset="0" stop-color="#a3c4e6"/><stop offset="0.5" stop-color="#a787b6"/><stop offset="1" stop-color="#e0cadf"/></linearGradient><linearGradient id="Безымянный_градиент_3281" x1="27.08" y1="93.45" x2="132.25" y2="93.45" gradientUnits="userSpaceOnUse"><stop offset="0" stop-color="#a5c6e6"/><stop offset="0.5" stop-color="#a98ab8"/><stop offset="1" stop-color="#e1cce0"/></linearGradient><linearGradient id="Безымянный_градиент_3280" x1="26.26" y1="94.55" x2="132.79" y2="94.55" gradientUnits="userSpaceOnUse"><stop offset="0" stop-color="#a7c7e7"/><stop offset="0.5" stop-color="#aa8cb9"/><stop offset="1" stop-color="#e2cde1"/></linearGradient><linearGradient id="Безымянный_градиент_3279" x1="25.44" y1="95.65" x2="133.33" y2="95.65" gradientUnits="userSpaceOnUse"><stop offset="0" stop-color="#aac9e8"/><stop offset="0.5" stop-color="#ac8fbb"/><stop offset="1" stop-color="#e3cee2"/></linearGradient><linearGradient id="Безымянный_градиент_3278" x1="24.62" y1="96.75" x2="133.87" y2="96.75" gradientUnits="userSpaceOnUse"><stop offset="0" stop-color="#accae8"/><stop offset="0.5" stop-color="#af91bd"/><stop offset="1" stop-color="#e3d0e3"/></linearGradient><linearGradient id="Безымянный_градиент_3277" x1="23.8" y1="97.85" x2="134.41" y2="97.85" gradientUnits="userSpaceOnUse"><stop offset="0" stop-color="#afcce9"/><stop offset="0.5" stop-color="#b194be"/><stop offset="1" stop-color="#e4d1e4"/></linearGradient><linearGradient id="Безымянный_градиент_3276" x1="22.98" y1="98.95" x2="134.94" y2="98.95" gradientUnits="userSpaceOnUse"><stop offset="0" stop-color="#b1cdea"/><stop offset="0.5" stop-color="#b396c0"/><stop offset="1" stop-color="#e5d3e4"/></linearGradient><linearGradient id="Безымянный_градиент_3275" x1="22.16" y1="100.05" x2="135.48" y2="100.05" gradientUnits="userSpaceOnUse"><stop offset="0" stop-color="#b4cfea"/><stop offset="0.5" stop-color="#b599c2"/><stop offset="1" stop-color="#e6d4e5"/></linearGradient><linearGradient id="Безымянный_градиент_3274" x1="21.33" y1="101.14" x2="136.02" y2="101.14" gradientUnits="userSpaceOnUse"><stop offset="0" stop-color="#b6d0eb"/><stop offset="0.5" stop-color="#b79cc4"/><stop offset="1" stop-color="#e7d5e6"/></linearGradient><linearGradient id="Безымянный_градиент_3273" x1="20.51" y1="102.24" x2="136.56" y2="102.24" gradientUnits="userSpaceOnUse"><stop offset="0" stop-color="#b9d2ec"/><stop offset="0.5" stop-color="#b99fc6"/><stop offset="1" stop-color="#e7d7e7"/></linearGradient><linearGradient id="Безымянный_градиент_3272" x1="19.69" y1="103.34" x2="137.1" y2="103.34" gradientUnits="userSpaceOnUse"><stop offset="0" stop-color="#bbd3ec"/><stop offset="0.5" stop-color="#bba2c8"/><stop offset="1" stop-color="#e8d8e8"/></linearGradient><linearGradient id="Безымянный_градиент_3271" x1="18.87" y1="104.44" x2="137.64" y2="104.44" gradientUnits="userSpaceOnUse"><stop offset="0" stop-color="#bed5ed"/><stop offset="0.5" stop-color="#bea5ca"/><stop offset="1" stop-color="#e9dae9"/></linearGradient><linearGradient id="Безымянный_градиент_3270" x1="18.05" y1="105.54" x2="138.18" y2="105.54" gradientUnits="userSpaceOnUse"><stop offset="0" stop-color="#c1d6ee"/><stop offset="0.5" stop-color="#c0a8cb"/><stop offset="1" stop-color="#eadbea"/></linearGradient><linearGradient id="Безымянный_градиент_3269" x1="17.23" y1="106.64" x2="138.72" y2="106.64" gradientUnits="userSpaceOnUse"><stop offset="0" stop-color="#c3d8ee"/><stop offset="0.5" stop-color="#c2abcd"/><stop offset="1" stop-color="#ebddeb"/></linearGradient><linearGradient id="Безымянный_градиент_3268" x1="16.41" y1="107.73" x2="139.25" y2="107.73" gradientUnits="userSpaceOnUse"><stop offset="0" stop-color="#c6daef"/><stop offset="0.5" stop-color="#c5aed0"/><stop offset="1" stop-color="#ebdeeb"/></linearGradient><linearGradient id="Безымянный_градиент_3267" x1="15.59" y1="108.83" x2="139.79" y2="108.83" gradientUnits="userSpaceOnUse"><stop offset="0" stop-color="#c8dbf0"/><stop offset="0.5" stop-color="#c7b2d2"/><stop offset="1" stop-color="#ecdfec"/></linearGradient><linearGradient id="Безымянный_градиент_3266" x1="14.77" y1="109.93" x2="140.33" y2="109.93" gradientUnits="userSpaceOnUse"><stop offset="0" stop-color="#cbddf1"/><stop offset="0.5" stop-color="#c9b5d4"/><stop offset="1" stop-color="#ede1ed"/></linearGradient><linearGradient id="Безымянный_градиент_3265" x1="13.95" y1="111.03" x2="140.87" y2="111.03" gradientUnits="userSpaceOnUse"><stop offset="0" stop-color="#cddef1"/><stop offset="0.5" stop-color="#ccb9d6"/><stop offset="1" stop-color="#eee2ee"/></linearGradient><linearGradient id="Безымянный_градиент_3264" x1="13.13" y1="112.13" x2="141.41" y2="112.13" gradientUnits="userSpaceOnUse"><stop offset="0" stop-color="#d0e0f2"/><stop offset="0.5" stop-color="#cebcd8"/><stop offset="1" stop-color="#efe4ef"/></linearGradient><linearGradient id="Безымянный_градиент_3263" x1="12.31" y1="113.22" x2="141.95" y2="113.22" gradientUnits="userSpaceOnUse"><stop offset="0" stop-color="#d3e2f3"/><stop offset="0.5" stop-color="#d1c0da"/><stop offset="1" stop-color="#efe5f0"/></linearGradient><linearGradient id="Безымянный_градиент_3262" x1="11.49" y1="114.32" x2="142.49" y2="114.32" gradientUnits="userSpaceOnUse"><stop offset="0" stop-color="#d5e3f3"/><stop offset="0.5" stop-color="#d4c3dd"/><stop offset="1" stop-color="#f0e7f1"/></linearGradient><linearGradient id="Безымянный_градиент_3261" x1="10.67" y1="115.42" x2="143.03" y2="115.42" gradientUnits="userSpaceOnUse"><stop offset="0" stop-color="#d8e5f4"/><stop offset="0.5" stop-color="#d6c7df"/><stop offset="1" stop-color="#f1e8f2"/></linearGradient><linearGradient id="Безымянный_градиент_3260" x1="9.85" y1="116.52" x2="143.56" y2="116.52" gradientUnits="userSpaceOnUse"><stop offset="0" stop-color="#dbe7f5"/><stop offset="0.5" stop-color="#d9cbe1"/><stop offset="1" stop-color="#f2eaf3"/></linearGradient><linearGradient id="Безымянный_градиент_3259" x1="9.03" y1="117.62" x2="144.1" y2="117.62" gradientUnits="userSpaceOnUse"><stop offset="0" stop-color="#dde8f6"/><stop offset="0.5" stop-color="#dccfe3"/><stop offset="1" stop-color="#f3ebf4"/></linearGradient><linearGradient id="Безымянный_градиент_3258" x1="8.21" y1="118.71" x2="144.64" y2="118.71" gradientUnits="userSpaceOnUse"><stop offset="0" stop-color="#e0eaf6"/><stop offset="0.5" stop-color="#ded2e6"/><stop offset="1" stop-color="#f4edf5"/></linearGradient><linearGradient id="Безымянный_градиент_3257" x1="7.39" y1="119.81" x2="145.18" y2="119.81" gradientUnits="userSpaceOnUse"><stop offset="0" stop-color="#e3ecf7"/><stop offset="0.5" stop-color="#e1d6e8"/><stop offset="1" stop-color="#f5eef5"/></linearGradient><linearGradient id="Безымянный_градиент_3256" x1="6.56" y1="120.91" x2="145.72" y2="120.91" gradientUnits="userSpaceOnUse"><stop offset="0" stop-color="#e6eef8"/><stop offset="0.5" stop-color="#e4daea"/><stop offset="1" stop-color="#f6f0f6"/></linearGradient><linearGradient id="Безымянный_градиент_3255" x1="5.74" y1="122.01" x2="146.26" y2="122.01" gradientUnits="userSpaceOnUse"><stop offset="0" stop-color="#e9f0f9"/><stop offset="0.5" stop-color="#e7deed"/><stop offset="1" stop-color="#f7f2f7"/></linearGradient><linearGradient id="Безымянный_градиент_3254" x1="4.92" y1="123.1" x2="146.8" y2="123.1" gradientUnits="userSpaceOnUse"><stop offset="0" stop-color="#ebf2f9"/><stop offset="0.5" stop-color="#eae3ef"/><stop offset="1" stop-color="#f8f3f8"/></linearGradient><linearGradient id="Безымянный_градиент_3253" x1="4.1" y1="124.2" x2="147.34" y2="124.2" gradientUnits="userSpaceOnUse"><stop offset="0" stop-color="#eef3fa"/><stop offset="0.5" stop-color="#ede7f2"/><stop offset="1" stop-color="#f9f5f9"/></linearGradient><linearGradient id="Безымянный_градиент_3252" x1="3.28" y1="125.3" x2="147.88" y2="125.3" gradientUnits="userSpaceOnUse"><stop offset="0" stop-color="#f1f5fb"/><stop offset="0.5" stop-color="#f0ebf4"/><stop offset="1" stop-color="#faf7fa"/></linearGradient><linearGradient id="Безымянный_градиент_3251" x1="2.46" y1="126.4" x2="148.42" y2="126.4" gradientUnits="userSpaceOnUse"><stop offset="0" stop-color="#f4f7fc"/><stop offset="0.5" stop-color="#f3eff6"/><stop offset="1" stop-color="#fbf8fb"/></linearGradient><linearGradient id="Безымянный_градиент_3250" x1="1.64" y1="127.49" x2="148.96" y2="127.49" gradientUnits="userSpaceOnUse"><stop offset="0" stop-color="#f7fafd"/><stop offset="0.5" stop-color="#f6f4f9"/><stop offset="1" stop-color="#fcfafc"/></linearGradient><linearGradient id="Безымянный_градиент_3249" x1="0.82" y1="128.59" x2="149.5" y2="128.59" gradientUnits="userSpaceOnUse"><stop offset="0" stop-color="#fafcfe"/><stop offset="0.5" stop-color="#faf9fc"/><stop offset="1" stop-color="#fefdfe"/></linearGradient></defs><g id="Слой_2" data-name="Слой 2"><g id="Слой_2-2" data-name="Слой 2"><path class="cls-1" d="M41.85.37A60.79,60.79,0,0,1,69.19,3.93c8,3,19.09,7.24,24.36,18.42,6.12,13,.73,27.69-5.31,35.91a38.7,38.7,0,0,1-13,11.29A191.07,191.07,0,0,1,43.59,83.82c-4,1.4-8.37,2.83-11,6.22-3.27,4.26-2.76,10.43-.58,15.34,4.89,11,15.42,17.47,24.9,21.79,13.59,6.19,35.31,14.49,65.62,19.93"/><path class="cls-2" d="M41,.91A66.11,66.11,0,0,1,64.4,3c1.72.48,3.48,1,5.26,1.73C77.57,7.79,88.56,12,93.74,23.07c4.05,8.74,2.83,18.2-.24,26a43.47,43.47,0,0,1-5.42,9.83,40,40,0,0,1-13,11.3Q68.69,73.79,62.15,77A195,195,0,0,1,43.93,84.8c-3.94,1.44-8.16,2.94-10.68,6.34-3.17,4.27-2.62,10.4-.42,15.32a32,32,0,0,0,2.65,4.78C41,119.4,49.7,124.59,57.69,128.33c13.8,6.48,35.61,15,65.4,20.43"/><path class="cls-3" d="M40.21,1.45A70.83,70.83,0,0,1,64.64,3.72a55.07,55.07,0,0,1,5.49,1.82C78,8.63,88.88,12.8,93.93,23.79c4,8.73,2.64,18.17-.52,25.87a43.93,43.93,0,0,1-5.5,9.77,41.14,41.14,0,0,1-13,11.31q-6.32,3.7-12.77,7c-5.89,3-11.81,5.71-17.84,8.06-3.83,1.5-7.94,3-10.38,6.46-3.05,4.28-2.48,10.38-.25,15.3a32.09,32.09,0,0,0,2.67,4.78c5.47,8.14,14.18,13.35,22.14,17.18a254.85,254.85,0,0,0,65.18,20.91"/><path class="cls-4" d="M39.39,2A75.82,75.82,0,0,1,64.88,4.44a51.75,51.75,0,0,1,5.72,1.9c7.78,3.12,18.57,7.27,23.51,18.17,4,8.74,2.43,18.13-.79,25.79A44.83,44.83,0,0,1,87.74,60a42.44,42.44,0,0,1-13,11.33c-4.18,2.5-8.41,4.86-12.64,7.11-5.81,3.07-11.59,5.88-17.46,8.31-3.73,1.55-7.73,3.14-10.09,6.58-2.94,4.29-2.33,10.36-.08,15.29a33.06,33.06,0,0,0,2.68,4.77c5.47,8.12,14.16,13.34,22.09,17.27a246.82,246.82,0,0,0,65,21.4"/><path class="cls-5" d="M38.57,2.53A80.84,80.84,0,0,1,65.12,5.16a50,50,0,0,1,5.95,2c7.71,3.15,18.4,7.29,23.23,18.09,3.91,8.74,2.23,18.1-1.07,25.71a46.39,46.39,0,0,1-5.66,9.66,44.19,44.19,0,0,1-13,11.34c-4.16,2.52-8.35,4.93-12.52,7.23-5.72,3.15-11.36,6.06-17.07,8.57-3.64,1.6-7.51,3.25-9.79,6.7-2.83,4.3-2.2,10.33.08,15.27a34.67,34.67,0,0,0,2.69,4.77c5.47,8.09,14.13,13.35,22,17.36a240.15,240.15,0,0,0,64.74,21.88"/><path class="cls-6" d="M37.75,3.07A85.6,85.6,0,0,1,65.36,5.88,48.22,48.22,0,0,1,71.54,8c7.65,3.16,18.23,7.29,22.95,18,3.86,8.74,2,18.06-1.35,25.64a47.62,47.62,0,0,1-5.73,9.59,46.14,46.14,0,0,1-13,11.36c-4.14,2.55-8.3,5-12.4,7.36-5.63,3.22-11.12,6.23-16.68,8.82-3.54,1.65-7.3,3.35-9.5,6.82-2.72,4.31-2.06,10.31.25,15.25a34,34,0,0,0,2.7,4.76c5.47,8.08,14.1,13.36,22,17.45a233.76,233.76,0,0,0,64.52,22.38"/><path class="cls-7" d="M36.93,3.61a90.57,90.57,0,0,1,28.66,3A46.53,46.53,0,0,1,72,8.75c7.58,3.18,18,7.31,22.67,17.92,3.8,8.74,1.83,18-1.63,25.56A46.76,46.76,0,0,1,74.2,73.14c-4.13,2.58-8.25,5.07-12.29,7.48C56.37,83.92,51,87,45.61,89.7c-3.43,1.7-7.08,3.45-9.19,6.94-2.62,4.32-1.92,10.29.41,15.23a34.72,34.72,0,0,0,2.72,4.76C45,124.69,53.61,130,61.48,134.17A228,228,0,0,0,125.78,157"/><path class="cls-8" d="M36.11,4.14A95.39,95.39,0,0,1,65.83,7.32a48.1,48.1,0,0,1,6.65,2.23c7.52,3.2,17.88,7.32,22.39,17.84,3.75,8.74,1.63,18-1.91,25.48a49.38,49.38,0,0,1-5.89,9.48A50,50,0,0,1,74,73.74c-4.11,2.61-8.19,5.14-12.17,7.61C56.41,84.72,51.21,87.92,46,90.68c-3.33,1.74-6.87,3.55-8.9,7.07-2.5,4.32-1.77,10.25.58,15.21a36.37,36.37,0,0,0,2.73,4.75c5.46,8,14,13.37,21.88,17.63,15,8.16,37.44,18.31,64.08,23.35"/><path class="cls-9" d="M35.29,4.68A100.49,100.49,0,0,1,66.07,8,48.91,48.91,0,0,1,73,10.35c7.45,3.22,17.69,7.34,22.1,17.76,3.7,8.75,1.43,18-2.19,25.4a50.16,50.16,0,0,1-6,9.42,51.82,51.82,0,0,1-13,11.4c-4.09,2.64-8.13,5.21-12,7.75-5.37,3.44-10.43,6.74-15.53,9.58-3.23,1.79-6.65,3.65-8.61,7.19-2.39,4.32-1.62,10.22.75,15.19a36.43,36.43,0,0,0,2.74,4.75c5.46,8,14,13.38,21.83,17.72,15.23,8.45,37.75,18.85,63.85,23.84"/><path class="cls-10" d="M34.47,5.22A105.26,105.26,0,0,1,66.31,8.76a48.1,48.1,0,0,1,7.12,2.4c7.39,3.22,17.51,7.35,21.81,17.67,3.65,8.75,1.24,17.92-2.46,25.33a51.14,51.14,0,0,1-6,9.36,54.26,54.26,0,0,1-13,11.41c-4.06,2.67-8.07,5.28-11.92,7.87-5.28,3.53-10.19,6.91-15.14,9.83-3.14,1.85-6.44,3.76-8.31,7.32-2.28,4.33-1.49,10.2.91,15.17A37.93,37.93,0,0,0,42,119.87c5.45,8,14,13.39,21.77,17.8,15.43,8.75,38.05,19.41,63.63,24.33"/><path class="cls-11" d="M33.65,5.76a110.36,110.36,0,0,1,32.9,3.72A47.45,47.45,0,0,1,73.9,12c7.33,3.24,17.34,7.37,21.53,17.59,3.6,8.75,1,17.89-2.74,25.25a53.11,53.11,0,0,1-6.12,9.3,57,57,0,0,1-13,11.43c-4,2.7-8,5.35-11.8,8-5.19,3.6-10,7.08-14.76,10.08-3,1.9-6.22,3.86-8,7.44-2.17,4.34-1.34,10.18,1.09,15.16A37.3,37.3,0,0,0,42.8,121c5.45,8,13.94,13.4,21.71,17.89,15.64,9,38.36,19.95,63.42,24.82"/><path class="cls-12" d="M32.83,6.3a115.46,115.46,0,0,1,34,3.9,48,48,0,0,1,7.58,2.56C81.64,16,91.53,20.14,95.62,30.27c3.54,8.76.85,17.85-3,25.17a53.71,53.71,0,0,1-6.2,9.24A59.49,59.49,0,0,1,73.35,76.13c-4,2.73-7.95,5.42-11.68,8.12C56.57,87.93,52,91.51,47.3,94.59c-2.93,2-6,4-7.71,7.56-2.07,4.34-1.21,10.15,1.25,15.14A36.57,36.57,0,0,0,43.61,122c5.46,8,13.91,13.42,21.66,18,15.84,9.33,38.67,20.49,63.2,25.3"/><path class="cls-13" d="M32,6.84a120.13,120.13,0,0,1,35,4.08,48.31,48.31,0,0,1,7.82,2.64c7.21,3.26,17,7.4,21,17.43,3.49,8.76.65,17.82-3.3,25.09a55.68,55.68,0,0,1-6.28,9.19,62.68,62.68,0,0,1-13,11.46c-4,2.75-7.9,5.49-11.56,8.25-5,3.75-9.48,7.42-14,10.59-2.83,2-5.79,4.06-7.42,7.68-1.95,4.35-1.06,10.13,1.42,15.12a36.63,36.63,0,0,0,2.78,4.73C49.88,131,58.29,136.53,66,141.18c16,9.63,39,21,63,25.79"/><path class="cls-14" d="M31.18,7.38c10.19-.47,22.72.82,36.08,4.26a46.85,46.85,0,0,1,8,2.73C82.47,17.63,92.11,21.78,96,31.7c3.43,8.77.45,17.79-3.58,25a57.18,57.18,0,0,1-6.36,9.12A66,66,0,0,1,73,77.33c-4,2.78-7.84,5.56-11.44,8.38C56.65,89.53,52.32,93.3,48,96.55c-2.73,2-5.58,4.16-7.13,7.8-1.84,4.35-.92,10.11,1.59,15.1a37.46,37.46,0,0,0,2.8,4.73c5.45,7.91,13.83,13.44,21.55,18.16,16.24,9.93,39.27,21.59,62.75,26.28"/><path class="cls-15" d="M30.36,7.92c10.6-.47,23.47.93,37.14,4.44a46.72,46.72,0,0,1,8.28,2.81c7.1,3.27,16.62,7.43,20.41,17.25,3.38,8.78.25,17.76-3.86,24.95a59.08,59.08,0,0,1-6.43,9.06A69,69,0,0,1,72.84,77.92c-4,2.82-7.77,5.64-11.31,8.51-4.84,3.92-9,7.76-13.21,11.1-2.63,2.09-5.37,4.25-6.83,7.92-1.74,4.35-.78,10.08,1.75,15.09a39.41,39.41,0,0,0,2.81,4.72c5.45,7.89,13.8,13.46,21.5,18.25,16.44,10.23,39.58,22.13,62.53,26.77"/><path class="cls-16" d="M29.54,8.46c11-.47,24.22,1,38.2,4.62A47.44,47.44,0,0,1,76.25,16c7,3.28,16.44,7.45,20.12,17.17,3.33,8.78.06,17.72-4.13,24.87a61.08,61.08,0,0,1-6.51,9,73.3,73.3,0,0,1-13.06,11.5c-3.93,2.85-7.71,5.71-11.19,8.64-4.75,4-8.78,7.92-12.83,11.35-2.52,2.14-5.15,4.35-6.53,8-1.63,4.36-.64,10.06,1.92,15.07a40.29,40.29,0,0,0,2.82,4.72c5.45,7.86,13.77,13.48,21.45,18.34,16.63,10.53,39.88,22.67,62.31,27.25"/><path class="cls-17" d="M28.72,9c11.42-.47,25,1.16,39.26,4.8a48.17,48.17,0,0,1,8.74,3c7,3.28,16.26,7.47,19.84,17.09,3.27,8.79-.13,17.69-4.42,24.79a61.07,61.07,0,0,1-6.58,8.95A77.87,77.87,0,0,1,72.5,79.12C68.59,82,64.85,84.9,61.43,87.88,56.77,92,52.88,96,49,99.49c-2.42,2.18-4.94,4.45-6.23,8.16-1.53,4.36-.5,10,2.08,15a42.7,42.7,0,0,0,2.83,4.72c5.45,7.84,13.73,13.49,21.4,18.43,16.83,10.84,40.18,23.22,62.09,27.74"/><path class="cls-18" d="M27.9,9.54c11.83-.47,25.72,1.28,40.32,5a48.21,48.21,0,0,1,9,3.06c6.93,3.28,16.08,7.48,19.56,17,3.22,8.79-.33,17.65-4.7,24.72a63.08,63.08,0,0,1-6.66,8.88,83.44,83.44,0,0,1-13,11.54c-3.9,2.9-7.6,5.85-11,8.89-4.57,4.14-8.31,8.26-12.05,11.86C47,102.7,44.6,105,43.39,108.75c-1.42,4.36-.36,10,2.25,15a40.4,40.4,0,0,0,2.85,4.71C53.93,136.32,62.18,142,69.83,147c17,11.14,40.49,23.76,61.87,28.22"/><path class="cls-19" d="M27.08,10.08c12.24-.47,26.47,1.4,41.37,5.16a48.22,48.22,0,0,1,9.22,3.14c6.86,3.28,15.88,7.5,19.27,16.92,3.16,8.8-.53,17.62-5,24.64a66.3,66.3,0,0,1-6.73,8.83A90.49,90.49,0,0,1,72.17,80.32a130.53,130.53,0,0,0-10.84,9c-4.48,4.21-8.07,8.42-11.66,12.11-2.22,2.27-4.52,4.64-5.65,8.41-1.31,4.35-.21,10,2.42,15a42.69,42.69,0,0,0,2.86,4.7c5.44,7.81,13.65,13.54,21.28,18.61,17.23,11.46,40.8,24.31,61.66,28.72"/><path class="cls-20" d="M26.26,10.62c12.65-.47,27.22,1.51,42.43,5.34a48.35,48.35,0,0,1,9.45,3.22C85,22.46,93.84,26.7,97.13,36c3.1,8.81-.72,17.59-5.26,24.56a68.22,68.22,0,0,1-6.81,8.77A96.22,96.22,0,0,1,72,80.92a118.07,118.07,0,0,0-10.71,9.14c-4.4,4.3-7.84,8.59-11.29,12.36-2.11,2.33-4.3,4.75-5.34,8.54-1.21,4.36-.08,10,2.58,15a42.78,42.78,0,0,0,2.87,4.7c5.44,7.78,13.62,13.56,21.23,18.7,17.42,11.76,41.1,24.85,61.43,29.2"/><path class="cls-21" d="M25.44,11.16c13.06-.47,28,1.63,43.49,5.52A48.55,48.55,0,0,1,78.61,20c6.75,3.28,15.52,7.53,18.7,16.75,3,8.81-.91,17.55-5.53,24.48a69.55,69.55,0,0,1-6.89,8.71A104,104,0,0,1,71.83,81.51a110.31,110.31,0,0,0-10.59,9.28c-4.31,4.37-7.61,8.75-10.9,12.61-2,2.37-4.09,4.84-5.05,8.66-1.1,4.36.07,9.93,2.75,15a43.92,43.92,0,0,0,2.89,4.7c5.44,7.76,13.57,13.58,21.17,18.79,17.61,12.07,41.41,25.4,61.21,29.69"/><path class="cls-22" d="M24.62,11.7c13.47-.47,28.72,1.74,44.55,5.7a49.37,49.37,0,0,1,9.91,3.39c6.7,3.28,15.33,7.55,18.42,16.67,3,8.82-1.1,17.52-5.81,24.41a72.33,72.33,0,0,1-7,8.65A113.21,113.21,0,0,1,71.66,82.11a101.16,101.16,0,0,0-10.47,9.4C57,96,53.82,100.43,50.68,104.38c-1.92,2.41-3.88,4.94-4.76,8.78-1,4.36.21,9.91,2.92,15a46,46,0,0,0,2.9,4.69c5.44,7.74,13.54,13.6,21.12,18.88,17.8,12.38,41.71,25.94,61,30.17"/><path class="cls-23" d="M23.8,12.24c13.88-.47,29.47,1.86,45.61,5.88a48.59,48.59,0,0,1,10.14,3.47c6.64,3.28,15.15,7.58,18.14,16.59,2.93,8.82-1.3,17.48-6.09,24.33a74.75,74.75,0,0,1-7,8.59A124.36,124.36,0,0,1,71.49,82.71a92.51,92.51,0,0,0-10.35,9.53A148,148,0,0,0,51,105.36c-1.82,2.46-3.67,5-4.46,8.9-.89,4.36.34,9.88,3.08,14.94a46.61,46.61,0,0,0,2.91,4.68c5.44,7.73,13.5,13.63,21.07,19,18,12.71,42,26.49,60.77,30.67"/><path class="cls-24" d="M23,12.78c14.29-.47,30.21,2,46.67,6.06A49.44,49.44,0,0,1,80,22.39C86.61,25.67,95,30,97.88,38.9s-1.49,17.45-6.37,24.25a78.44,78.44,0,0,1-7.12,8.53A137.82,137.82,0,0,1,71.32,83.31,86.06,86.06,0,0,0,61.09,93c-4,4.59-6.9,9.24-9.74,13.37a22.26,22.26,0,0,0-4.16,9c-.79,4.36.49,9.86,3.25,14.92A47.88,47.88,0,0,0,53.36,135c5.44,7.7,13.47,13.65,21,19.06,18.18,13,42.32,27,60.55,31.15"/><path class="cls-25" d="M22.16,13.32c14.7-.47,31,2.09,47.72,6.24A49.66,49.66,0,0,1,80.49,23.2C87,26.47,95.26,30.81,98.07,39.62S96.38,57,91.42,63.79a81.33,81.33,0,0,1-7.2,8.48A154.61,154.61,0,0,1,71.15,83.91a80.33,80.33,0,0,0-10.1,9.78c-4,4.67-6.68,9.4-9.36,13.63a22.68,22.68,0,0,0-3.86,9.14c-.69,4.36.62,9.84,3.41,14.9A46.24,46.24,0,0,0,54.18,136c5.43,7.68,13.42,13.68,21,19.15,18.37,13.34,42.62,27.58,60.33,31.64"/><path class="cls-26" d="M21.34,13.86c15.11-.48,31.71,2.21,48.78,6.41A50.55,50.55,0,0,1,81,24c6.48,3.27,14.58,7.63,17.3,16.34s-1.88,17.38-6.93,24.1a86.91,86.91,0,0,1-7.28,8.41A173.51,173.51,0,0,1,71,84.51a74.84,74.84,0,0,0-10,9.91c-3.87,4.75-6.44,9.56-9,13.88a23.6,23.6,0,0,0-3.57,9.26c-.58,4.36.77,9.81,3.58,14.89a49.29,49.29,0,0,0,3,4.67c5.43,7.66,13.38,13.7,20.9,19.24C94.46,170,118.83,184.48,136,188.48"/><path class="cls-27" d="M20.52,14.4C36,13.92,53,16.72,70.36,21A50.69,50.69,0,0,1,81.43,24.8c6.43,3.27,14.4,7.66,17,16.26,2.7,8.85-2.07,17.35-7.2,24a87.92,87.92,0,0,1-7.36,8.35c-4.41,4.46-8.78,8-13.07,11.67a72.24,72.24,0,0,0-9.86,10c-3.78,4.83-6.21,9.73-8.58,14.14a24.21,24.21,0,0,0-3.28,9.38c-.48,4.36.91,9.79,3.75,14.87a50.72,50.72,0,0,0,3,4.67c5.43,7.63,13.34,13.72,20.85,19.32,18.75,14,43.24,28.68,59.89,32.62"/><path class="cls-28" d="M19.7,14.94c15.93-.48,33.21,2.44,50.9,6.77A51.3,51.3,0,0,1,81.91,25.6c6.36,3.27,14.2,7.68,16.72,16.18,2.64,8.86-2.26,17.32-7.48,23.94A94.81,94.81,0,0,1,83.72,74c-4.44,4.42-8.82,8-13.08,11.68A68.32,68.32,0,0,0,60.9,95.87c-3.69,4.9-6,9.88-8.19,14.39a25.08,25.08,0,0,0-3,9.5c-.39,4.36,1,9.77,3.91,14.85a54.58,54.58,0,0,0,3,4.67c5.43,7.61,13.3,13.75,20.8,19.41,18.93,14.3,43.54,29.22,59.67,33.1"/><path class="cls-29" d="M18.88,15.48c16.34-.48,34,2.55,52,7a51.69,51.69,0,0,1,11.54,4c6.31,3.26,14,7.69,16.44,16.09,2.57,8.87-2.45,17.29-7.76,23.86a97.64,97.64,0,0,1-7.51,8.24c-4.45,4.39-8.84,8-13.07,11.7a64,64,0,0,0-9.63,10.3c-3.6,5-5.74,10-7.81,14.63a26.25,26.25,0,0,0-2.68,9.63c-.28,4.36,1.19,9.75,4.08,14.83a50.94,50.94,0,0,0,3,4.66c5.42,7.6,13.25,13.78,20.74,19.51,19.12,14.62,43.85,29.76,59.45,33.59"/><path class="cls-30" d="M18.05,16c16.75-.48,34.72,2.67,53,7.13a51.9,51.9,0,0,1,11.77,4.06c6.26,3.26,13.82,7.72,16.16,16,2.51,8.89-2.65,17.26-8,23.8a104.12,104.12,0,0,1-7.59,8.17c-4.47,4.36-8.86,8-13.07,11.72a60.07,60.07,0,0,0-9.5,10.42c-3.52,5.05-5.52,10.2-7.43,14.89A27.4,27.4,0,0,0,51,122c-.19,4.35,1.32,9.71,4.24,14.81a54.69,54.69,0,0,0,3,4.65C63.67,149,71.46,155.24,78.93,161c19.3,14.94,44.15,30.3,59.23,34.08"/><path class="cls-31" d="M17.23,16.56c17.16-.48,35.47,2.78,54.08,7.31a51.75,51.75,0,0,1,12,4.14C89.52,31.27,97,35.75,99.2,43.93c2.44,8.9-2.84,17.23-8.32,23.72-2.42,2.86-5.06,5.6-7.67,8.12-4.48,4.32-8.89,8-13.07,11.73a57.42,57.42,0,0,0-9.38,10.55c-3.43,5.12-5.29,10.36-7,15.14a28.51,28.51,0,0,0-2.09,9.88c-.09,4.35,1.47,9.69,4.41,14.79q1.37,2.35,3,4.65c5.43,7.55,13.18,13.83,20.64,19.68,19.48,15.28,44.45,30.86,59,34.57"/><path class="cls-32" d="M16.41,17.1C34,16.62,52.63,20,71.55,24.59a52,52,0,0,1,12.24,4.23c6.15,3.24,13.43,7.76,15.59,15.83,2.39,8.91-3,17.2-8.59,23.64-2.45,2.84-5.11,5.55-7.75,8.06C78.55,80.64,74.13,84.28,70,88.1a55.27,55.27,0,0,0-9.26,10.67c-3.34,5.2-5.06,10.52-6.65,15.4a30,30,0,0,0-1.8,10c0,4.35,1.61,9.67,4.58,14.77.92,1.57,1.92,3.12,3,4.65,5.42,7.53,13.13,13.86,20.58,19.77,19.66,15.6,44.76,31.4,58.78,35.06"/><path class="cls-33" d="M15.59,17.64c18-.48,37,3,56.2,7.67a52.48,52.48,0,0,1,12.47,4.31c6.1,3.24,13.24,7.78,15.31,15.75,2.32,8.92-3.22,17.17-8.87,23.56-2.48,2.81-5.17,5.5-7.82,8-4.52,4.26-8.95,7.92-13.08,11.77a53.39,53.39,0,0,0-9.14,10.8c-3.25,5.28-4.84,10.68-6.27,15.65a31.65,31.65,0,0,0-1.49,10.12c.1,4.35,1.74,9.64,4.75,14.75a54.24,54.24,0,0,0,3,4.65c5.42,7.51,13.09,13.88,20.53,19.86,19.83,15.93,45.06,31.94,58.56,35.54"/><path class="cls-34" d="M14.77,18.18C33.16,17.7,52.49,21.31,72,26a52.79,52.79,0,0,1,12.7,4.39c6,3.24,13,7.81,15,15.67C102,55,96.35,63.23,90.61,69.58c-2.51,2.77-5.22,5.44-7.9,7.94-4.53,4.22-9,7.89-13.08,11.77a51.68,51.68,0,0,0-9,10.94c-3.16,5.35-4.61,10.83-5.88,15.9a33.51,33.51,0,0,0-1.2,10.24,33.24,33.24,0,0,0,4.92,14.74c.92,1.56,1.93,3.1,3,4.64,5.42,7.49,13,13.91,20.47,19.95,20,16.26,45.37,32.49,58.35,36"/><path class="cls-35" d="M14,18.72c18.8-.48,38.47,3.25,58.32,8A53.25,53.25,0,0,1,85.2,31.22c6,3.23,12.85,7.83,14.75,15.59,2.18,8.94-3.6,17.11-9.43,23.41-2.54,2.74-5.28,5.39-8,7.88C78,82.29,73.55,86,69.46,89.89A49.44,49.44,0,0,0,60.57,101c-3.08,5.43-4.39,11-5.5,16.16a35.23,35.23,0,0,0-.91,10.36,34.55,34.55,0,0,0,5.09,14.72c.92,1.55,1.94,3.1,3,4.63,5.42,7.47,13,14,20.42,20.05,20.2,16.59,45.68,33,58.13,36.51"/><path class="cls-36" d="M13.13,19.26c19.21-.48,39.22,3.36,59.38,8.21A53.19,53.19,0,0,1,85.67,32c5.94,3.22,12.66,7.85,14.47,15.5,2.12,8.95-3.79,17.07-9.71,23.33-2.57,2.72-5.33,5.34-8.06,7.82-4.56,4.17-9,7.86-13.08,11.81a47.31,47.31,0,0,0-8.77,11.19c-3,5.5-4.17,11.15-5.11,16.41a36.75,36.75,0,0,0-.61,10.48,35.83,35.83,0,0,0,5.25,14.7c.93,1.55,2,3.1,3.07,4.63,5.41,7.45,12.95,14,20.36,20.13,20.37,16.93,46,33.58,57.91,37"/><path class="cls-37" d="M12.31,19.8c19.62-.48,40,3.48,60.44,8.39a53.68,53.68,0,0,1,13.39,4.64C92,36.05,98.6,40.7,100.33,48.25c2,9-4,17-10,23.25-2.6,2.69-5.39,5.29-8.13,7.77-4.58,4.13-9,7.84-13.09,11.82a46,46,0,0,0-8.65,11.31c-2.91,5.58-3.94,11.32-4.73,16.67a39.62,39.62,0,0,0-.31,10.6,37.59,37.59,0,0,0,5.42,14.69q1.4,2.31,3.08,4.62c5.41,7.43,12.91,14,20.31,20.22,20.54,17.26,46.29,34.13,57.69,37.49"/><path class="cls-38" d="M11.49,20.34c20-.48,40.72,3.59,61.49,8.57a54.18,54.18,0,0,1,13.64,4.72c5.83,3.21,12.25,7.9,13.89,15.34,2,9-4.16,17-10.26,23.18-2.63,2.65-5.44,5.23-8.21,7.7C77.44,84,73,87.67,69,91.69a44.33,44.33,0,0,0-8.53,11.44c-2.83,5.65-3.72,11.48-4.34,16.91a41.57,41.57,0,0,0,0,10.73,39,39,0,0,0,5.58,14.67q1.41,2.31,3.09,4.62c5.41,7.4,12.87,14,20.26,20.31,20.71,17.59,46.59,34.67,57.46,38"/><path class="cls-39" d="M10.67,20.88c20.44-.48,41.47,3.71,62.55,8.75,4.76,1.13,9.56,2.42,13.87,4.8,5.78,3.21,12,7.92,13.61,15.26,1.91,9-4.36,17-10.54,23.1-2.66,2.63-5.5,5.18-8.29,7.64-4.61,4.07-9.1,7.81-13.09,11.86a43,43,0,0,0-8.41,11.57c-2.74,5.72-3.49,11.63-3.95,17.16a43.5,43.5,0,0,0,.28,10.85,40.82,40.82,0,0,0,5.75,14.65c.94,1.54,2,3.08,3.11,4.62,5.41,7.38,12.81,14.06,20.2,20.4C106.64,189.46,132.65,206.75,143,210"/><path class="cls-40" d="M9.85,21.42c20.85-.48,42.22,3.83,63.61,8.93,4.84,1.15,9.73,2.45,14.1,4.89,5.73,3.19,11.85,7.94,13.33,15.17,1.83,9-4.55,17-10.82,23C87.38,76,84.52,78.56,81.7,81c-4.63,4-9.12,7.79-13.08,11.86a42,42,0,0,0-8.3,11.7c-2.65,5.8-3.27,11.8-3.56,17.42a46,46,0,0,0,.57,11,42.76,42.76,0,0,0,5.92,14.63c1,1.54,2,3.08,3.12,4.61,5.41,7.37,12.77,14.1,20.15,20.49,21,18.26,47.2,35.76,57,39"/><path class="cls-41" d="M9,22c21.26-.48,43,3.94,64.67,9.11,4.93,1.17,9.9,2.48,14.33,5,5.68,3.19,11.66,8,13,15.09,1.76,9-4.74,16.92-11.1,22.94-2.72,2.57-5.61,5.09-8.44,7.53-4.65,4-9.16,7.77-13.09,11.88a40.66,40.66,0,0,0-8.17,11.83c-2.57,5.87-3.06,12-3.19,17.67a49.09,49.09,0,0,0,.88,11.1,44.77,44.77,0,0,0,6.08,14.61q1.42,2.3,3.13,4.6c5.41,7.35,12.73,14.12,20.1,20.58,21.22,18.6,47.5,36.31,56.8,39.44"/><path class="cls-42" d="M8.21,22.5c21.67-.48,43.72,4.06,65.73,9.29C79,33,84,34.3,88.5,36.84c5.63,3.18,11.45,8,12.77,15,1.68,9-4.93,16.9-11.38,22.87-2.75,2.54-5.66,5-8.52,7.46a167.53,167.53,0,0,0-13.09,11.9,39.76,39.76,0,0,0-8.05,12c-2.48,6-2.83,12.13-2.8,17.93a52.08,52.08,0,0,0,1.17,11.22,47.07,47.07,0,0,0,6.25,14.59c1,1.52,2,3.06,3.14,4.6,5.41,7.32,12.68,14.15,20,20.67,21.4,18.94,47.81,36.85,56.59,39.93"/><path class="cls-43" d="M7.39,23c22.08-.48,44.47,4.17,66.79,9.47,5.09,1.2,10.23,2.54,14.79,5.13,5.58,3.18,11.25,8,12.49,14.93,1.6,9-5.12,16.87-11.66,22.79-2.78,2.51-5.72,5-8.6,7.41A145.91,145.91,0,0,0,68.11,94.68a38.74,38.74,0,0,0-7.93,12.08c-2.39,6-2.61,12.29-2.41,18.18a53.92,53.92,0,0,0,1.47,11.34,49.28,49.28,0,0,0,6.41,14.57c1,1.52,2,3.06,3.16,4.6,5.4,7.3,12.63,14.18,20,20.76,21.56,19.27,48.12,37.39,56.37,40.41"/><path class="cls-44" d="M6.57,23.58c22.49-.49,45.22,4.29,67.84,9.65,5.18,1.22,10.41,2.57,15,5.22,5.53,3.16,11,8,12.2,14.84,1.53,9-5.3,16.84-11.93,22.71-2.81,2.48-5.77,4.93-8.68,7.35A134,134,0,0,0,67.94,95.28a37.74,37.74,0,0,0-7.81,12.21c-2.3,6.1-2.39,12.44-2,18.43a57.18,57.18,0,0,0,1.76,11.46,52,52,0,0,0,6.58,14.55c1,1.52,2,3,3.17,4.6,5.4,7.28,12.59,14.21,19.93,20.84C111.27,197,138,215.32,145.69,218.28"/><path class="cls-45" d="M5.75,24.12c22.9-.49,46,4.4,68.9,9.83,5.26,1.24,10.57,2.6,15.26,5.3,5.48,3.16,10.85,8.06,11.92,14.76,1.45,9-5.49,16.81-12.21,22.63-2.84,2.46-5.83,4.88-8.76,7.3A121.85,121.85,0,0,0,67.77,95.88a37.2,37.2,0,0,0-7.69,12.33c-2.21,6.18-2.17,12.61-1.63,18.69a59.75,59.75,0,0,0,2,11.58A54.76,54.76,0,0,0,67.25,153q1.45,2.26,3.18,4.59c5.4,7.26,12.54,14.24,19.88,20.93,21.89,20,48.72,38.49,55.92,41.39"/><path class="cls-46" d="M4.93,24.66c23.31-.49,46.71,4.52,70,10,5.34,1.26,10.74,2.62,15.49,5.38C95.81,43.2,101,48.13,102,54.72c1.37,9.06-5.68,16.79-12.49,22.57-2.87,2.42-5.88,4.82-8.83,7.23a112.8,112.8,0,0,0-13.1,12A36.44,36.44,0,0,0,60,108.94c-2.13,6.25-2,12.77-1.26,18.94a63.52,63.52,0,0,0,2.36,11.7,57.65,57.65,0,0,0,6.91,14.52q1.47,2.27,3.19,4.58c5.4,7.24,12.5,14.28,19.83,21,22.05,20.3,49,39,55.7,41.88"/><path class="cls-47" d="M4.1,25.2c23.73-.49,47.47,4.64,71,10.19C80.55,36.66,86,38,90.85,40.86,96.23,44,101.29,49,102.21,55.44c1.28,9.07-5.87,16.77-12.77,22.49-2.89,2.4-5.94,4.77-8.91,7.17a104.86,104.86,0,0,0-13.1,12A35.74,35.74,0,0,0,60,109.66c-2,6.33-1.73,13-.87,19.2a67.3,67.3,0,0,0,2.65,11.82,61.28,61.28,0,0,0,7.08,14.5q1.47,2.26,3.21,4.58c5.39,7.22,12.44,14.31,19.77,21.12,22.21,20.64,49.33,39.57,55.48,42.36"/><path class="cls-48" d="M3.28,25.74c24.14-.49,48.22,4.75,72.09,10.37,5.5,1.29,11.08,2.68,16,5.55,5.32,3.13,10.22,8.12,11.07,14.5,1.19,9.08-6.06,16.74-13.05,22.41-2.92,2.37-6,4.72-9,7.12a98,98,0,0,0-13.1,12,35.05,35.05,0,0,0-7.32,12.72c-2,6.4-1.51,13.11-.48,19.44a70.05,70.05,0,0,0,2.95,11.95,64.43,64.43,0,0,0,7.24,14.49q1.48,2.25,3.22,4.57c5.39,7.2,12.4,14.34,19.72,21.2,22.37,21,49.63,40.13,55.26,42.86"/><path class="cls-49" d="M2.46,26.28c24.55-.49,49,4.87,73.15,10.55,5.58,1.31,11.25,2.7,16.19,5.63,5.27,3.13,10,8.15,10.78,14.42C103.7,66,96.34,73.59,89.26,79.21c-3,2.35-6,4.68-9.07,7.06a92.58,92.58,0,0,0-13.1,12,34.49,34.49,0,0,0-7.2,12.85c-1.87,6.48-1.29,13.27-.09,19.69A74.07,74.07,0,0,0,63,142.88a69.09,69.09,0,0,0,7.41,14.47q1.48,2.25,3.23,4.57a178.17,178.17,0,0,0,19.67,21.29c22.53,21.33,49.94,40.67,55,43.34"/><path class="cls-50" d="M1.64,26.82c25-.49,49.72,5,74.2,10.73,5.67,1.33,11.43,2.73,16.43,5.71,5.22,3.12,9.81,8.17,10.5,14.34,1,9.1-6.42,16.7-13.6,22.26-3,2.32-6.1,4.62-9.14,7a86.3,86.3,0,0,0-13.1,12,33.9,33.9,0,0,0-7.09,13c-1.78,6.56-1.07,13.44.29,19.95A78.07,78.07,0,0,0,63.67,144a73.81,73.81,0,0,0,7.58,14.45c1,1.49,2.08,3,3.25,4.57a184.19,184.19,0,0,0,19.6,21.38c22.69,21.68,50.25,41.21,54.82,43.83"/><path class="cls-51" d="M.82,27.36c25.36-.49,50.47,5.1,75.26,10.91,5.75,1.34,11.6,2.74,16.66,5.8s9.6,8.18,10.22,14.25c.93,9.12-6.62,16.67-13.88,22.18-3,2.29-6.15,4.57-9.22,6.94a81.18,81.18,0,0,0-13.1,12,33.4,33.4,0,0,0-7,13.1c-1.7,6.63-.87,13.61.67,20.2a79.9,79.9,0,0,0,3.84,12.31,79,79,0,0,0,7.74,14.43q1.5,2.24,3.26,4.56a189.16,189.16,0,0,0,19.55,21.48c22.82,22,50.56,41.76,54.6,44.31"/><path class="cls-52" d="M0,27.9C25.77,27.41,51.22,33.11,76.32,39c5.83,1.36,11.77,2.78,16.89,5.88s9.39,8.21,9.94,14.17C104,68.17,96.34,75.67,89,81.14,77.1,90,63.2,98.88,59.75,113.3c-1.61,6.7-.64,13.77,1.06,20.45,2.12,8.35,5.73,18.75,15.31,31.4,22.36,29.52,69.24,63.08,73.88,66.37"/></g></g></svg>