<svg width="52.000000" height="52.000000" viewBox="0 0 52 52" fill="none" xmlns="http://www.w3.org/2000/svg" xmlns:xlink="http://www.w3.org/1999/xlink">
	<desc>
			Created with Pixso.
	</desc>
	<defs>
		<clipPath id="clip8_515">
			<rect id="ri:behance-fill" width="24.000000" height="24.000000" transform="translate(14.000000 14.000000)" fill="white" fill-opacity="0"/>
		</clipPath>
	</defs>
	<circle id="Ellipse 12" cx="26.000000" cy="26.000000" r="25.500000" stroke="#E8E8E8" stroke-opacity="1.000000" stroke-width="1.000000"/>
	<rect id="ri:behance-fill" width="24.000000" height="24.000000" transform="translate(14.000000 14.000000)" fill="#FFFFFF" fill-opacity="0"/>
	<g clip-path="url(#clip8_515)">
		<path id="Vector" d="M21.4434 19.3496C22.082 19.3496 22.6738 19.3994 23.2129 19.5479C23.7539 19.6465 24.1973 19.8447 24.5898 20.0918C24.9844 20.3389 25.2793 20.6855 25.4746 21.1309C25.6719 21.5752 25.7715 22.1211 25.7715 22.7139C25.7715 23.4062 25.623 24 25.2793 24.4443C24.9844 24.8906 24.4922 25.2852 23.9023 25.583C24.7383 25.8311 25.377 26.2754 25.7715 26.8682C26.1641 27.4629 26.4102 28.2051 26.4102 29.0459C26.4102 29.7383 26.2617 30.332 26.0156 30.8262C25.7715 31.3213 25.377 31.7666 24.9336 32.0635C24.4531 32.3818 23.9199 32.6162 23.3613 32.7559C22.7715 32.9043 22.1816 33.0039 21.5918 33.0039L15 33.0039L15 19.3496L21.4434 19.3496ZM21.0488 24.8896C21.5898 24.8896 22.0332 24.7412 22.377 24.4941C22.7207 24.248 22.8691 23.8018 22.8691 23.2578C22.8691 22.9609 22.8184 22.6641 22.7207 22.4668C22.623 22.2686 22.4746 22.1191 22.2793 21.9717C22.0781 21.8594 21.8633 21.7764 21.6387 21.7246C21.3926 21.6748 21.1484 21.6748 20.8516 21.6748L18 21.6748L18 24.8906L21.0488 24.8896ZM21.1973 30.7275C21.4922 30.7275 21.7871 30.6777 22.0332 30.6289C22.2793 30.5781 22.5254 30.4805 22.7207 30.332C22.9219 30.1865 23.0898 30.002 23.2129 29.7881C23.3105 29.541 23.4102 29.2432 23.4102 28.8975C23.4102 28.2051 23.2129 27.71 22.8203 27.3633C22.4258 27.0664 21.8848 26.9189 21.2461 26.9189L18 26.9189L18 30.7285L21.1973 30.7275ZM30.6895 30.6777C31.082 31.0732 31.6719 31.2715 32.459 31.2715C33 31.2715 33.4922 31.124 33.8848 30.877C34.2793 30.5801 34.5254 30.2822 34.623 29.9854L37.0332 29.9854C36.6387 31.1729 36.0488 32.0137 35.2637 32.5576C34.4746 33.0527 33.541 33.3496 32.4102 33.3496C31.6855 33.3516 30.9688 33.2178 30.2949 32.9531C29.6895 32.7266 29.1484 32.3525 28.7207 31.8652C28.2637 31.4102 27.9258 30.8496 27.7383 30.2324C27.4922 29.5898 27.3926 28.8975 27.3926 28.1055C27.3926 27.3633 27.4922 26.6719 27.7383 26.0273C27.9746 25.4072 28.3242 24.8369 28.7715 24.3457C29.2129 23.9004 29.7539 23.5059 30.3438 23.2578C31 22.9941 31.7031 22.8594 32.4102 22.8613C33.2461 22.8613 33.9844 23.0107 34.623 23.3564C35.2637 23.7021 35.7539 24.0986 36.1465 24.6924C36.541 25.2363 36.8379 25.8799 37.0332 26.5723C37.1309 27.2646 37.1797 27.958 37.1309 28.749L30 28.749C30 29.541 30.2949 30.2822 30.6895 30.6787L30.6895 30.6777ZM33.7871 25.4844C33.4434 25.1387 32.9023 24.9404 32.2617 24.9404C31.8867 24.9346 31.5156 25.0195 31.1797 25.1875C30.8848 25.3369 30.6895 25.5342 30.4922 25.7324C30.3105 25.9238 30.1914 26.165 30.1484 26.4248C30.0977 26.6729 30.0488 26.8691 30.0488 27.0674L34.4746 27.0674C34.377 26.3252 34.1309 25.832 33.7871 25.4844ZM29.459 20.29L34.9668 20.29L34.9668 21.626L29.4609 21.626L29.459 20.29Z" fill="#E8E8E8" fill-opacity="1.000000" fill-rule="nonzero"/>
	</g>
</svg>
