<svg width="24.000000" height="24.000000" viewBox="0 0 24 24" fill="none" xmlns="http://www.w3.org/2000/svg" xmlns:xlink="http://www.w3.org/1999/xlink">
	<desc>
			Created with Pixso.
	</desc>
	<defs>
		<clipPath id="clip39_1882">
			<rect id="fxemoji:radiobutton" width="24.000000" height="24.000000" fill="white" fill-opacity="0"/>
		</clipPath>
	</defs>
	<rect id="fxemoji:radiobutton" width="24.000000" height="24.000000" fill="#FFFFFF" fill-opacity="0"/>
	<g clip-path="url(#clip39_1882)">
		<path id="Vector" d="M23.2969 12C23.2969 18.2393 18.2383 23.2969 12 23.2969C5.76172 23.2969 0.703125 18.2393 0.703125 12C0.703125 5.76074 5.76172 0.703125 12 0.703125C18.2383 0.703125 23.2969 5.76074 23.2969 12Z" fill="#646768" fill-opacity="1.000000" fill-rule="evenodd"/>
		<path id="Vector" d="M12 1.82812C18.0508 1.82812 22.9883 6.58496 23.2812 12.5625C23.293 12.376 23.2969 12.1885 23.2969 12C23.2969 5.76074 18.2383 0.703125 12 0.703125C5.76172 0.703125 0.703125 5.76074 0.703125 12C0.703125 12.1885 0.707031 12.376 0.71875 12.5625C1.01172 6.58496 5.94922 1.82812 12 1.82812Z" fill="#464A4C" fill-opacity="1.000000" fill-rule="nonzero"/>
		<path id="Vector" d="M12 17.5439C9.0625 17.5439 6.65234 15.2715 6.4375 12.3877C6.42578 12.5283 6.42188 12.6689 6.42188 12.8096C6.42188 15.8906 8.91797 18.3877 12 18.3877C15.082 18.3877 17.5781 15.8906 17.5781 12.8096C17.5781 12.668 17.5742 12.5273 17.5625 12.3877C17.3477 15.2715 14.9375 17.5439 12 17.5439Z" fill="#464A4C" fill-opacity="1.000000" fill-rule="nonzero"/>
		<path id="Vector" d="M17.5781 12C17.5781 15.0811 15.082 17.5781 12 17.5781C8.91797 17.5781 6.42188 15.0811 6.42188 12C6.42188 8.91895 8.91797 6.42188 12 6.42188C15.082 6.42188 17.5781 8.91895 17.5781 12Z" fill="#F4F3EF" fill-opacity="1.000000" fill-rule="evenodd"/>
		<path id="Vector" d="M8.57812 11.2471C8.48438 11.2471 8.39062 11.2314 8.29688 11.1973C7.87109 11.041 7.65234 10.5693 7.80859 10.1445C8.23438 8.98242 9.29688 8.02734 10.6523 7.58887C11.0859 7.44922 11.5469 7.68555 11.6875 8.11719C11.8281 8.54785 11.5898 9.01074 11.1602 9.15039C10.125 9.48535 9.54297 10.1748 9.34766 10.709C9.22656 11.041 8.91406 11.2471 8.57812 11.2471Z" fill="#E8E8E8" fill-opacity="1.000000" fill-rule="nonzero"/>
	</g>
</svg>
