<svg width="52.000000" height="52.000000" viewBox="0 0 52 52" fill="none" xmlns="http://www.w3.org/2000/svg" xmlns:xlink="http://www.w3.org/1999/xlink">
	<desc>
			Created with Pixso.
	</desc>
	<defs>
		<clipPath id="clip8_511">
			<rect id="typcn:social-facebook" width="27.000000" height="27.000000" transform="translate(12.000000 12.000000)" fill="white" fill-opacity="0"/>
		</clipPath>
	</defs>
	<circle id="Ellipse 11" cx="26.000000" cy="26.000000" r="25.500000" stroke="#E8E8E8" stroke-opacity="1.000000" stroke-width="1.000000"/>
	<rect id="typcn:social-facebook" width="27.000000" height="27.000000" transform="translate(12.000000 12.000000)" fill="#FFFFFF" fill-opacity="0"/>
	<g clip-path="url(#clip8_511)">
		<path id="Vector" d="M26.625 23.25L30 23.25L30 26.625L26.625 26.625L26.625 34.5L23.25 34.5L23.25 26.625L19.875 26.625L19.875 23.25L23.25 23.25L23.25 21.8379C23.25 20.501 23.6699 18.8105 24.5078 17.8867C25.3457 16.9609 26.3906 16.5 27.6426 16.5L30 16.5L30 19.875L27.6367 19.875C27.0781 19.875 26.625 20.3271 26.625 20.8867L26.625 23.25Z" fill="#E8E8E8" fill-opacity="1.000000" fill-rule="nonzero"/>
	</g>
</svg>
