<svg width="241" height="121" viewBox="0 0 241 121" fill="none" xmlns="http://www.w3.org/2000/svg">
<path d="M73.4089 68.822C73.4089 68.7783 73.4089 68.738 73.4089 68.6943C73.2951 66.839 73.1211 64.2476 71.5914 61.7805C70.9901 60.8231 70.2513 59.96 69.399 59.2193C66.7212 56.8733 62.8406 55.7003 57.7573 55.7003H46.8186V38.7266C46.8186 38.0848 46.5647 37.4693 46.1127 37.0154C45.6608 36.5616 45.0478 36.3066 44.4086 36.3066H39.7225C39.0833 36.3066 38.4703 36.5616 38.0184 37.0154C37.5664 37.4693 37.3125 38.0848 37.3125 38.7266V82.1354C37.3125 82.7772 37.5664 83.3927 38.0184 83.8466C38.4703 84.3004 39.0833 84.5554 39.7225 84.5554H57.7573C62.8451 84.5554 66.7257 83.3812 69.399 81.0329C70.2513 80.2922 70.9901 79.4292 71.5914 78.4718C73.2215 75.8501 73.3353 73.2856 73.4156 71.4336C73.4156 71.3899 73.4156 71.3462 73.4156 71.3025C73.4156 71.0673 73.4156 70.8387 73.4458 70.6303V70.4925C73.4525 70.0051 73.4458 69.4438 73.4089 68.822ZM61.6669 75.0199C60.328 76.1403 58.3933 76.7005 55.8628 76.7005H46.8253V63.4375H55.8026C58.3197 63.4375 60.2655 64.0179 61.6401 65.1786C61.9563 65.4459 62.2414 65.748 62.4903 66.0794C62.5098 66.0983 62.5267 66.1198 62.5405 66.1432C63.0738 66.8721 63.4271 67.7176 63.5715 68.6103C63.6367 68.9757 63.677 69.3451 63.692 69.7161C63.692 69.8505 63.692 69.9883 63.692 70.1261C63.6939 70.4743 63.6749 70.8222 63.6351 71.1681C63.5778 71.9091 63.3743 72.6313 63.0364 73.2926C62.6985 73.9539 62.233 74.5411 61.6669 75.0199Z" fill="white"/>
<path d="M66.9444 45.3745C66.9644 46.9818 66.5639 48.5661 65.7829 49.9692C65.0174 51.3318 63.8929 52.4563 62.5328 53.2194C61.0813 54.0005 59.46 54.4092 57.8132 54.4092C56.1664 54.4092 54.5451 54.0005 53.0936 53.2194C51.7292 52.4586 50.6009 51.3337 49.8334 49.9692C49.0711 48.5587 48.6719 46.9793 48.6719 45.3745C48.6719 43.7697 49.0711 42.1904 49.8334 40.7799C50.5999 39.4146 51.7284 38.2895 53.0936 37.5297C54.5451 36.7486 56.1664 36.3398 57.8132 36.3398C59.46 36.3398 61.0813 36.7486 62.5328 37.5297C63.8936 38.2918 65.0184 39.4166 65.7829 40.7799C66.5642 42.1828 66.9647 43.7673 66.9444 45.3745Z" fill="url(#paint0_linear_2816_3400)"/>
<path d="M111.698 39.4129C115.318 41.415 118.319 44.3806 120.371 47.9837C122.486 51.6518 123.544 55.7972 123.544 60.4198C123.544 65.0424 122.486 69.1979 120.371 72.8862C118.326 76.5035 115.325 79.4817 111.698 81.4906C107.925 83.5046 103.717 84.5578 99.4438 84.5578C95.1706 84.5578 90.9628 83.5046 87.1896 81.4906C83.5632 79.4823 80.5624 76.5039 78.5203 72.8862C76.4004 69.1979 75.3415 65.0424 75.3438 60.4198C75.346 55.7972 76.4048 51.6518 78.5203 47.9837C80.5695 44.3801 83.5694 41.4142 87.1896 39.4129C90.9628 37.3989 95.1706 36.3457 99.4438 36.3457C103.717 36.3457 107.925 37.3989 111.698 39.4129ZM92.0029 46.8812C89.8449 48.1465 88.1004 50.0151 86.982 52.259C85.7726 54.5961 85.169 57.3197 85.1712 60.4299C85.1734 63.54 85.777 66.2625 86.982 68.5974C88.0994 70.842 89.8442 72.7108 92.0029 73.9752C94.2935 75.1998 96.8487 75.8404 99.4438 75.8404C102.039 75.8404 104.594 75.1998 106.885 73.9752C109.042 72.7094 110.787 70.841 111.905 68.5974C113.11 66.2625 113.713 63.54 113.713 60.4299C113.713 57.3197 113.11 54.5961 111.905 52.259C110.786 50.0161 109.041 48.1479 106.885 46.8812C104.594 45.6566 102.039 45.016 99.4438 45.016C96.8487 45.016 94.2935 45.6566 92.0029 46.8812Z" fill="white"/>
<path d="M164.993 47.7281C163.155 44.1623 160.29 41.2345 156.773 39.3253C153.18 37.3445 148.913 36.3552 143.973 36.3574H129.754C129.438 36.3565 129.125 36.4182 128.833 36.5389C128.541 36.6596 128.275 36.8369 128.051 37.0607C127.827 37.2845 127.65 37.5505 127.528 37.8433C127.407 38.1361 127.344 38.4501 127.344 38.7673V82.1459C127.344 82.4631 127.407 82.7771 127.528 83.0699C127.65 83.3627 127.827 83.6287 128.051 83.8525C128.275 84.0763 128.541 84.2537 128.833 84.3743C129.125 84.495 129.438 84.5567 129.754 84.5558H143.973C148.913 84.5558 153.18 83.5474 156.773 81.5308C160.291 79.5782 163.153 76.6195 164.993 73.0305C166.883 69.3871 167.83 65.1756 167.832 60.3961C167.832 55.5606 166.886 51.3379 164.993 47.7281ZM154.58 71.8676C151.902 74.599 148.109 75.9659 143.2 75.9681H136.88V44.7434H143.196C148.105 44.7434 151.899 46.1091 154.577 48.8406C157.255 51.5721 158.593 55.4194 158.593 60.3827C158.605 65.3011 157.267 69.1249 154.58 71.8541V71.8676Z" fill="white"/>
<path d="M181.186 36.6953L175.762 39.2351C174.556 39.7999 174.034 41.2398 174.597 42.4511L193.498 83.1544C194.061 84.3657 195.495 84.8898 196.701 84.325L202.125 81.7852C203.332 81.2203 203.853 79.7805 203.291 78.5692L184.389 37.8658C183.827 36.6545 182.393 36.1304 181.186 36.6953Z" fill="white"/>
<path d="M186.969 75.4075C187.036 77.0137 186.679 78.6092 185.935 80.0324C185.213 81.4033 184.123 82.5433 182.788 83.3229C181.373 84.145 179.764 84.5709 178.129 84.5564C176.473 84.5943 174.836 84.1944 173.383 83.3968C171.995 82.6416 170.838 81.5216 170.035 80.1567C169.221 78.7583 168.78 77.172 168.757 75.552C168.695 73.9414 169.06 72.3432 169.814 70.9204C170.536 69.5461 171.63 68.4052 172.971 67.6299C174.395 66.805 176.013 66.379 177.657 66.3963C179.302 66.364 180.927 66.7649 182.37 67.5593C183.746 68.3207 184.893 69.4399 185.69 70.7994C186.505 72.1992 186.945 73.7865 186.969 75.4075Z" fill="url(#paint1_linear_2816_3400)"/>
<defs>
<linearGradient id="paint0_linear_2816_3400" x1="51.3229" y1="51.9018" x2="64.3673" y2="38.9114" gradientUnits="userSpaceOnUse">
<stop stop-color="#00C3FF"/>
<stop offset="0.03" stop-color="#0EC0FC"/>
<stop offset="0.17" stop-color="#43B3EE"/>
<stop offset="0.32" stop-color="#71A8E3"/>
<stop offset="0.46" stop-color="#979FDA"/>
<stop offset="0.6" stop-color="#B498D2"/>
<stop offset="0.73" stop-color="#C893CD"/>
<stop offset="0.87" stop-color="#D590CA"/>
<stop offset="1" stop-color="#D98FC9"/>
</linearGradient>
<linearGradient id="paint1_linear_2816_3400" x1="171.441" y1="81.9415" x2="184.361" y2="69.0715" gradientUnits="userSpaceOnUse">
<stop stop-color="#D98FC9"/>
<stop offset="0.13" stop-color="#D590CA"/>
<stop offset="0.27" stop-color="#C893CD"/>
<stop offset="0.4" stop-color="#B498D2"/>
<stop offset="0.54" stop-color="#979FDA"/>
<stop offset="0.68" stop-color="#71A8E3"/>
<stop offset="0.83" stop-color="#43B3EE"/>
<stop offset="0.97" stop-color="#0EC0FC"/>
<stop offset="1" stop-color="#00C3FF"/>
</linearGradient>
</defs>
</svg>
