<svg width="35.000000" height="35.000000" viewBox="0 0 35 35" fill="none" xmlns="http://www.w3.org/2000/svg" xmlns:xlink="http://www.w3.org/1999/xlink">
	<desc>
			Created with Pixso.
	</desc>
	<defs>
		<clipPath id="clip2_1868">
			<rect id="clarity:world-line" width="35.000000" height="35.000000" fill="white" fill-opacity="0"/>
		</clipPath>
	</defs>
	<rect id="clarity:world-line" width="35.000000" height="35.000000" fill="#FFFFFF" fill-opacity="0"/>
	<g clip-path="url(#clip2_1868)">
		<path id="Vector" d="M25.8027 17.5C25.7988 16.1927 25.6582 14.8894 25.3848 13.6111L28.8848 13.6111C28.7051 13.0779 28.4863 12.5581 28.2324 12.0555L24.9766 12.0555C24.3633 10.01 23.4141 8.08118 22.166 6.34863C21.3691 6.01343 20.5371 5.76562 19.6875 5.60974C21.3965 7.44653 22.6875 9.63245 23.4688 12.0167L18.2285 12.0167L18.2285 5.44446L16.7715 5.44446L16.7715 12.0264L11.5312 12.0264C12.3145 9.63794 13.6074 7.44836 15.3223 5.60974C14.4746 5.76306 13.6465 6.00757 12.8535 6.33887C11.5996 8.06421 10.6445 9.98645 10.0234 12.0264L6.74609 12.0264C6.48828 12.5381 6.26758 13.0677 6.08594 13.6111L9.61523 13.6111C9.3418 14.8894 9.20117 16.1927 9.19727 17.5C9.19922 18.9299 9.36328 20.3551 9.68359 21.7487L6.24219 21.7487C6.44336 22.2936 6.68359 22.8232 6.96094 23.3334L10.1016 23.3334C10.6973 25.1959 11.5781 26.9541 12.7168 28.5444C13.5312 28.8939 14.3828 29.1515 15.2539 29.3125C13.668 27.5818 12.4473 25.5479 11.666 23.3334L16.7812 23.3334L16.7812 29.4972L18.2383 29.4972L18.2383 23.3334L23.334 23.3334C22.5508 25.5488 21.3262 27.5828 19.7363 29.3125C20.6113 29.146 21.4668 28.8818 22.2832 28.525C23.4199 26.9407 24.3008 25.1891 24.8984 23.3334L28.0098 23.3334C28.2871 22.8326 28.5273 22.3127 28.7285 21.7778L25.2773 21.7778C25.6133 20.3762 25.7891 18.9412 25.8027 17.5ZM16.7715 21.7487L11.1895 21.7487C10.5059 19.0729 10.4766 16.2717 11.1035 13.5819L16.7715 13.5819L16.7715 21.7487ZM23.8086 21.7487L18.2285 21.7487L18.2285 13.6111L23.8965 13.6111C24.1758 14.8884 24.3125 16.1926 24.3047 17.5C24.3125 18.9312 24.1465 20.3578 23.8086 21.7487Z" fill="#2F2F2F" fill-opacity="1.000000" fill-rule="nonzero"/>
		<path id="Vector" d="M17.5 1.94446C14.4238 1.94446 11.416 2.85681 8.85938 4.56604C6.30078 6.27527 4.30664 8.70471 3.12891 11.5471C1.95117 14.3895 1.64453 17.5172 2.24414 20.5348C2.84375 23.5522 4.32617 26.324 6.50195 28.4995C8.67773 30.6749 11.4492 32.1565 14.4668 32.7567C17.4844 33.3569 20.6113 33.0488 23.4531 31.8715C26.2969 30.6941 28.7246 28.7003 30.4355 26.1422C32.1445 23.5841 33.0566 20.5767 33.0566 17.5C33.0566 13.3744 31.418 9.41785 28.5 6.50061C25.584 3.58337 21.627 1.94446 17.5 1.94446ZM17.5 31.1111C14.8086 31.1111 12.1777 30.3129 9.93945 28.8173C7.70117 27.3217 5.95508 25.1959 4.92578 22.7087C3.89648 20.2217 3.62695 17.4849 4.15039 14.8446C4.67578 12.2043 5.97266 9.77905 7.87695 7.87549C9.7793 5.97192 12.2051 4.67566 14.8457 4.15039C17.4863 3.62524 20.2227 3.89478 22.709 4.92493C25.1973 5.9552 27.3223 7.69971 28.8184 9.93811C30.3145 12.1764 31.1113 14.808 31.1113 17.5C31.1113 21.1099 29.6777 24.5719 27.125 27.1245C24.5723 29.6771 21.1113 31.1111 17.5 31.1111Z" fill="#2F2F2F" fill-opacity="1.000000" fill-rule="nonzero"/>
	</g>
</svg>
