<svg width="52.000000" height="52.000000" viewBox="0 0 52 52" fill="none" xmlns="http://www.w3.org/2000/svg" xmlns:xlink="http://www.w3.org/1999/xlink">
	<desc>
			Created with Pixso.
	</desc>
	<defs>
		<clipPath id="clip8_525">
			<rect id="typcn:social-linkedin" width="27.000000" height="27.000000" transform="translate(12.000000 12.000000)" fill="white" fill-opacity="0"/>
		</clipPath>
	</defs>
	<circle id="Ellipse 10" cx="26.000000" cy="26.000000" r="25.500000" stroke="#E8E8E8" stroke-opacity="1.000000" stroke-width="1.000000"/>
	<rect id="typcn:social-linkedin" width="27.000000" height="27.000000" transform="translate(12.000000 12.000000)" fill="#FFFFFF" fill-opacity="0"/>
	<g clip-path="url(#clip8_525)">
		<path id="Vector" d="M21 33.375L17.625 33.375L17.625 22.125L21 22.125L21 33.375ZM33.375 33.375L30 33.375L30 27.3652C30 25.7988 29.4414 25.0195 28.3359 25.0195C27.459 25.0195 26.9043 25.4561 26.625 26.3301L26.625 33.375L23.25 33.375C23.25 33.375 23.2949 23.25 23.25 22.125L25.9141 22.125L26.1191 24.375L26.1895 24.375C26.8809 23.25 27.9883 22.4873 29.5039 22.4873C30.6562 22.4873 31.5898 22.8076 32.3008 23.6133C33.0176 24.4199 33.375 25.502 33.375 27.0225L33.375 33.375Z" fill="#E8E8E8" fill-opacity="1.000000" fill-rule="nonzero"/>
		<path id="Vector" d="M21.0566 19.3125C21.0566 20.2441 20.2754 21 19.3125 21C18.3496 21 17.5684 20.2441 17.5684 19.3125C17.5684 18.3809 18.3496 17.625 19.3125 17.625C20.2754 17.625 21.0566 18.3809 21.0566 19.3125Z" fill="#E8E8E8" fill-opacity="1.000000" fill-rule="evenodd"/>
	</g>
</svg>
