<svg width="52.000000" height="52.000000" viewBox="0 0 52 52" fill="none" xmlns="http://www.w3.org/2000/svg" xmlns:xlink="http://www.w3.org/1999/xlink">
	<desc>
			Created with Pixso.
	</desc>
	<defs>
		<clipPath id="clip8_520">
			<rect id="basil:instagram-solid" width="24.000000" height="24.000000" transform="translate(14.000000 14.000000)" fill="white" fill-opacity="0"/>
		</clipPath>
	</defs>
	<circle id="Ellipse 9" cx="26.000000" cy="26.000000" r="25.500000" stroke="#E8E8E8" stroke-opacity="1.000000" stroke-width="1.000000"/>
	<rect id="basil:instagram-solid" width="24.000000" height="24.000000" transform="translate(14.000000 14.000000)" fill="#FFFFFF" fill-opacity="0"/>
	<g clip-path="url(#clip8_520)">
		<path id="Vector" d="M26 22.75C25.1387 22.75 24.3105 23.0928 23.7012 23.7021C23.0918 24.3115 22.75 25.1377 22.75 26C22.75 26.8623 23.0918 27.6885 23.7012 28.2979C24.3105 28.9072 25.1387 29.25 26 29.25C26.8613 29.25 27.6895 28.9072 28.2988 28.2979C28.9082 27.6885 29.25 26.8623 29.25 26C29.25 25.1377 28.9082 24.3115 28.2988 23.7021C27.6895 23.0928 26.8613 22.75 26 22.75Z" fill="#E8E8E8" fill-opacity="1.000000" fill-rule="nonzero"/>
		<path id="Vector" d="M20.7715 17.082C24.2461 16.6963 27.7539 16.6963 31.2305 17.082C33.1289 17.2939 34.6602 18.7891 34.8848 20.6953C35.2969 24.2197 35.2969 27.7803 34.8848 31.3047C34.6602 33.2109 33.1289 34.7061 31.2324 34.9189C27.7559 35.3047 24.248 35.3047 20.7715 34.9189C18.8711 34.7061 17.3398 33.2109 17.1172 31.3057C16.7051 27.7812 16.7051 24.2197 17.1172 20.6953C17.3398 18.7891 18.8711 17.2939 20.7715 17.082ZM31 20C30.7363 20 30.4805 20.1055 30.293 20.293C30.1055 20.4805 30 20.7344 30 21C30 21.2656 30.1055 21.5195 30.293 21.707C30.4805 21.8945 30.7363 22 31 22C31.2656 22 31.5195 21.8945 31.707 21.707C31.8945 21.5195 32 21.2656 32 21C32 20.7344 31.8945 20.4805 31.707 20.293C31.5195 20.1055 31.2656 20 31 20ZM21.25 26C21.25 24.7402 21.752 23.5322 22.6426 22.6416C23.5332 21.75 24.7402 21.25 26 21.25C27.2598 21.25 28.4688 21.75 29.3594 22.6416C30.25 23.5322 30.75 24.7402 30.75 26C30.75 27.2598 30.25 28.4678 29.3594 29.3584C28.4688 30.249 27.2598 30.75 26 30.75C24.7402 30.75 23.5332 30.249 22.6426 29.3584C21.752 28.4678 21.25 27.2598 21.25 26Z" fill="#E8E8E8" fill-opacity="1.000000" fill-rule="evenodd"/>
	</g>
</svg>
