<svg width="110" height="55" viewBox="0 0 110 55" fill="none" xmlns="http://www.w3.org/2000/svg">
<path d="M33.5068 31.2827C33.5068 31.2628 33.5068 31.2445 33.5068 31.2246C33.4549 30.3813 33.3754 29.2033 32.6772 28.082C32.4028 27.6468 32.0656 27.2545 31.6765 26.9178C30.4543 25.8514 28.6831 25.3182 26.3629 25.3182H21.3701V17.6029C21.3701 17.3112 21.2542 17.0314 21.048 16.8251C20.8417 16.6188 20.5619 16.5029 20.2701 16.5029H18.1312C17.8395 16.5029 17.5597 16.6188 17.3534 16.8251C17.1471 17.0314 17.0312 17.3112 17.0312 17.6029V37.3342C17.0313 37.6259 17.1471 37.9057 17.3534 38.112C17.5597 38.3183 17.8395 38.4342 18.1312 38.4342H26.3629C28.6851 38.4342 30.4563 37.9005 31.6765 36.8331C32.0656 36.4964 32.4028 36.1041 32.6772 35.6689C33.4213 34.4772 33.4732 33.3115 33.5099 32.4697C33.5099 32.4499 33.5099 32.43 33.5099 32.4102C33.5099 32.3032 33.5099 32.1993 33.5236 32.1046V32.042C33.5267 31.8204 33.5236 31.5653 33.5068 31.2827ZM28.1474 34.0999C27.5363 34.6091 26.6532 34.8638 25.4982 34.8638H21.3732V28.8352H25.4707C26.6196 28.8352 27.5077 29.0989 28.1351 29.6265C28.2794 29.748 28.4096 29.8854 28.5232 30.036C28.5321 30.0446 28.5398 30.0543 28.5461 30.065C28.7895 30.3963 28.9508 30.7806 29.0167 31.1864C29.0465 31.3525 29.0648 31.5204 29.0717 31.689C29.0717 31.7502 29.0717 31.8128 29.0717 31.8754C29.0725 32.0337 29.0639 32.1918 29.0457 32.349C29.0196 32.6859 28.9267 33.0141 28.7725 33.3147C28.6182 33.6153 28.4057 33.8822 28.1474 34.0999Z" fill="#2F2F2F"/>
<path d="M30.5589 20.6252C30.568 21.3558 30.3852 22.0759 30.0288 22.7137C29.6794 23.3331 29.1661 23.8442 28.5453 24.1911C27.8828 24.5461 27.1428 24.7319 26.3911 24.7319C25.6395 24.7319 24.8995 24.5461 24.237 24.1911C23.6142 23.8453 23.0992 23.334 22.7489 22.7137C22.401 22.0726 22.2187 21.3547 22.2188 20.6252C22.2188 19.8958 22.401 19.1779 22.7489 18.5368C23.0988 17.9162 23.6139 17.4048 24.237 17.0594C24.8995 16.7043 25.6395 16.5186 26.3911 16.5186C27.1428 16.5186 27.8828 16.7043 28.5453 17.0594C29.1664 17.4058 29.6798 17.9171 30.0288 18.5368C30.3854 19.1745 30.5682 19.8947 30.5589 20.6252Z" fill="url(#paint0_linear_1568_3156)"/>
<path d="M50.9838 17.9147C52.6363 18.8247 54.006 20.1727 54.9423 21.8105C55.9078 23.4778 56.3906 25.3621 56.3906 27.4633C56.3906 29.5645 55.9078 31.4533 54.9423 33.1298C54.0093 34.774 52.6392 36.1278 50.9838 37.0409C49.2616 37.9564 47.341 38.4351 45.3906 38.4351C43.4402 38.4351 41.5196 37.9564 39.7974 37.0409C38.1423 36.1281 36.7726 34.7742 35.8405 33.1298C34.8729 31.4533 34.3896 29.5645 34.3906 27.4633C34.3916 25.3621 34.8749 23.4778 35.8405 21.8105C36.7758 20.1725 38.1451 18.8244 39.7974 17.9147C41.5196 16.9992 43.4402 16.5205 45.3906 16.5205C47.341 16.5205 49.2616 16.9992 50.9838 17.9147ZM41.9944 21.3094C41.0094 21.8845 40.2132 22.7339 39.7027 23.7538C39.1507 24.8161 38.8752 26.0542 38.8762 27.4679C38.8772 28.8816 39.1527 30.1191 39.7027 31.1804C40.2127 32.2006 41.0091 33.0501 41.9944 33.6248C43.0399 34.1815 44.2062 34.4726 45.3906 34.4726C46.5751 34.4726 47.7414 34.1815 48.7869 33.6248C49.7717 33.0495 50.5679 32.2002 51.0785 31.1804C51.6285 30.1191 51.9035 28.8816 51.9035 27.4679C51.9035 26.0542 51.6285 24.8161 51.0785 23.7538C50.5674 22.7343 49.7713 21.8851 48.7869 21.3094C47.7414 20.7527 46.5751 20.4616 45.3906 20.4616C44.2062 20.4616 43.0399 20.7527 41.9944 21.3094Z" fill="#2F2F2F"/>
<path d="M75.3094 21.6948C74.4703 20.074 73.1629 18.7432 71.5572 17.8754C69.9174 16.975 67.97 16.5254 65.715 16.5264H59.225C59.0808 16.526 58.938 16.554 58.8046 16.6088C58.6713 16.6637 58.5501 16.7443 58.4479 16.846C58.3457 16.9478 58.2646 17.0687 58.2092 17.2018C58.1538 17.3349 58.1252 17.4776 58.125 17.6218V37.3393C58.1252 37.4835 58.1538 37.6262 58.2092 37.7593C58.2646 37.8924 58.3457 38.0133 58.4479 38.115C58.5501 38.2168 58.6713 38.2974 58.8046 38.3522C58.938 38.4071 59.0808 38.4351 59.225 38.4347H65.715C67.97 38.4347 69.9174 37.9764 71.5572 37.0597C73.1633 36.1722 74.4693 34.8273 75.3094 33.196C76.1721 31.5398 76.604 29.6255 76.605 27.453C76.605 25.2551 76.1731 23.3357 75.3094 21.6948ZM70.5565 32.6673C69.3343 33.9089 67.6028 34.5302 65.3621 34.5312H62.4776V20.3382H65.3606C67.6013 20.3382 69.3328 20.959 70.555 22.2005C71.7772 23.4421 72.3883 25.1909 72.3883 27.4469C72.3934 29.6826 71.7828 31.4207 70.5565 32.6612V32.6673Z" fill="#2F2F2F"/>
<path d="M82.6992 16.6795L80.2235 17.834C79.6729 18.0907 79.4347 18.7452 79.6914 19.2958L88.3188 37.7973C88.5756 38.3479 89.2301 38.5861 89.7807 38.3293L92.2564 37.1749C92.807 36.9181 93.0452 36.2637 92.7884 35.7131L84.161 17.2116C83.9043 16.661 83.2498 16.4228 82.6992 16.6795Z" fill="#2F2F2F"/>
<path d="M85.3391 34.2755C85.3698 35.0056 85.2069 35.7308 84.867 36.3777C84.5377 37.0009 84.0402 37.5191 83.4309 37.8734C82.7849 38.2471 82.0505 38.4407 81.3043 38.4341C80.5484 38.4513 79.8013 38.2696 79.1379 37.907C78.5045 37.5637 77.9764 37.0546 77.6101 36.4343C77.2382 35.7986 77.0372 35.0776 77.0265 34.3412C76.9984 33.6091 77.165 32.8826 77.5093 32.2359C77.8385 31.6113 78.3381 31.0927 78.95 30.7402C79.5999 30.3653 80.3386 30.1717 81.0889 30.1795C81.8398 30.1648 82.5814 30.3471 83.24 30.7081C83.8681 31.0543 84.3916 31.563 84.7555 32.1809C85.1272 32.8172 85.3282 33.5387 85.3391 34.2755Z" fill="url(#paint1_linear_1568_3156)"/>
<defs>
<linearGradient id="paint0_linear_1568_3156" x1="23.4288" y1="23.5922" x2="29.3581" y2="17.6629" gradientUnits="userSpaceOnUse">
<stop stop-color="#00C3FF"/>
<stop offset="0.03" stop-color="#0EC0FC"/>
<stop offset="0.17" stop-color="#43B3EE"/>
<stop offset="0.32" stop-color="#71A8E3"/>
<stop offset="0.46" stop-color="#979FDA"/>
<stop offset="0.6" stop-color="#B498D2"/>
<stop offset="0.73" stop-color="#C893CD"/>
<stop offset="0.87" stop-color="#D590CA"/>
<stop offset="1" stop-color="#D98FC9"/>
</linearGradient>
<linearGradient id="paint1_linear_1568_3156" x1="78.2518" y1="37.2455" x2="84.1245" y2="31.3712" gradientUnits="userSpaceOnUse">
<stop stop-color="#D98FC9"/>
<stop offset="0.13" stop-color="#D590CA"/>
<stop offset="0.27" stop-color="#C893CD"/>
<stop offset="0.4" stop-color="#B498D2"/>
<stop offset="0.54" stop-color="#979FDA"/>
<stop offset="0.68" stop-color="#71A8E3"/>
<stop offset="0.83" stop-color="#43B3EE"/>
<stop offset="0.97" stop-color="#0EC0FC"/>
<stop offset="1" stop-color="#00C3FF"/>
</linearGradient>
</defs>
</svg>
