<svg width="177" height="88" viewBox="0 0 177 88" fill="none" xmlns="http://www.w3.org/2000/svg">
<path d="M53.9169 50.0528C53.9169 50.0211 53.9169 49.9917 53.9169 49.9599C53.8333 48.6106 53.7055 46.7259 52.582 44.9317C52.1404 44.2354 51.5978 43.6078 50.9718 43.0691C49.0052 41.3628 46.1551 40.5097 42.4218 40.5097H34.3879V28.1653C34.3879 27.6985 34.2014 27.2508 33.8695 26.9208C33.5376 26.5907 33.0873 26.4053 32.6179 26.4053H29.1762C28.7068 26.4053 28.2566 26.5907 27.9247 26.9208C27.5927 27.2508 27.4062 27.6985 27.4062 28.1653V59.7353C27.4063 60.2021 27.5927 60.6497 27.9247 60.9798C28.2566 61.3098 28.7068 61.4953 29.1762 61.4953H42.4218C46.1584 61.4953 49.0084 60.6414 50.9718 58.9335C51.5978 58.3948 52.1404 57.7671 52.582 57.0708C53.7793 55.1642 53.8628 53.2991 53.9218 51.9522C53.9218 51.9204 53.9218 51.8886 53.9218 51.8568C53.9218 51.6857 53.9218 51.5195 53.944 51.3679V51.2677C53.9489 50.9133 53.944 50.5051 53.9169 50.0528ZM45.2931 54.5604C44.3097 55.3752 42.8888 55.7826 41.0303 55.7826H34.3928V46.1368H40.9861C42.8348 46.1368 44.2639 46.5589 45.2734 47.4031C45.5056 47.5974 45.7151 47.8172 45.8978 48.0582C45.9122 48.0719 45.9246 48.0875 45.9347 48.1046C46.3263 48.6347 46.5858 49.2496 46.6919 49.8988C46.7398 50.1646 46.7694 50.4333 46.7804 50.7031C46.7804 50.8008 46.7804 50.9011 46.7804 51.0013C46.7818 51.2545 46.7678 51.5075 46.7386 51.7591C46.6965 52.298 46.5471 52.8232 46.2989 53.3042C46.0508 53.7851 45.7088 54.2121 45.2931 54.5604Z" fill="#2F2F2F"/>
<path d="M49.1701 33.0004C49.1848 34.1693 48.8906 35.3215 48.317 36.3419C47.7548 37.3329 46.9289 38.1507 45.93 38.7057C44.864 39.2738 43.6732 39.5711 42.4638 39.5711C41.2543 39.5711 40.0635 39.2738 38.9975 38.7057C37.9954 38.1524 37.1667 37.3343 36.6031 36.3419C36.0432 35.3161 35.75 34.1675 35.75 33.0004C35.75 31.8332 36.0432 30.6846 36.6031 29.6588C37.166 28.6659 37.9949 27.8476 38.9975 27.295C40.0635 26.727 41.2543 26.4297 42.4638 26.4297C43.6732 26.4297 44.864 26.727 45.93 27.295C46.9295 27.8493 47.7555 28.6673 48.317 29.6588C48.8908 30.6791 49.185 31.8315 49.1701 33.0004Z" fill="url(#paint0_linear_1374_3896)"/>
<path d="M82.0359 28.6633C84.6949 30.1194 86.8988 32.2762 88.4054 34.8966C89.9591 37.5643 90.7359 40.5791 90.7359 43.9411C90.7359 47.303 89.9591 50.3251 88.4054 53.0075C86.9042 55.6383 84.6995 57.8042 82.0359 59.2653C79.2647 60.73 76.1743 61.4959 73.0359 61.4959C69.8976 61.4959 66.8072 60.73 64.036 59.2653C61.3727 57.8047 59.1687 55.6386 57.6689 53.0075C56.112 50.3251 55.3343 47.303 55.3359 43.9411C55.3376 40.5791 56.1152 37.5643 57.6689 34.8966C59.1739 32.2758 61.3772 30.1188 64.036 28.6633C66.8072 27.1986 69.8976 26.4326 73.0359 26.4326C76.1743 26.4326 79.2647 27.1986 82.0359 28.6633ZM67.5711 34.0948C65.9862 35.015 64.7049 36.374 63.8836 38.0059C62.9953 39.7056 62.552 41.6865 62.5536 43.9484C62.5552 46.2103 62.9986 48.1903 63.8836 49.8884C64.7042 51.5208 65.9857 52.88 67.5711 53.7995C69.2534 54.6902 71.13 55.156 73.0359 55.156C74.9418 55.156 76.8185 54.6902 78.5008 53.7995C80.0854 52.879 81.3666 51.5201 82.1883 49.8884C83.0733 48.1903 83.5158 46.2103 83.5158 43.9484C83.5158 41.6865 83.0733 39.7056 82.1883 38.0059C81.3659 36.3747 80.0849 35.016 78.5008 34.0948C76.8185 33.2042 74.9418 32.7383 73.0359 32.7383C71.13 32.7383 69.2534 33.2042 67.5711 34.0948Z" fill="#2F2F2F"/>
<path d="M121.175 34.711C119.824 32.1177 117.721 29.9884 115.137 28.5999C112.498 27.1593 109.365 26.4398 105.736 26.4414H95.2934C95.0614 26.4408 94.8316 26.4856 94.617 26.5734C94.4025 26.6611 94.2074 26.7901 94.043 26.9529C93.8786 27.1157 93.7481 27.3091 93.659 27.522C93.5698 27.735 93.5238 27.9634 93.5234 28.1941V59.7421C93.5238 59.9728 93.5698 60.2011 93.659 60.4141C93.7481 60.6271 93.8786 60.8205 94.043 60.9833C94.2074 61.1461 94.4025 61.275 94.617 61.3628C94.8316 61.4506 95.0614 61.4954 95.2934 61.4948H105.736C109.365 61.4948 112.498 60.7614 115.137 59.2948C117.721 57.8747 119.823 55.7229 121.175 53.1127C122.563 50.463 123.258 47.4001 123.259 43.9241C123.259 40.4073 122.565 37.3363 121.175 34.711ZM113.527 52.267C111.56 54.2535 108.774 55.2476 105.169 55.2492H100.527V32.5403H105.166C108.772 32.5403 111.558 33.5336 113.524 35.5201C115.491 37.5066 116.474 40.3047 116.474 43.9143C116.483 47.4913 115.5 50.2723 113.527 52.2572V52.267Z" fill="#2F2F2F"/>
<path d="M133.072 26.6884L129.089 28.5355C128.203 28.9463 127.819 29.9934 128.232 30.8744L142.115 60.4768C142.528 61.3578 143.581 61.7389 144.467 61.3281L148.451 59.481C149.337 59.0702 149.72 58.023 149.307 57.1421L135.424 27.5397C135.011 26.6587 133.958 26.2776 133.072 26.6884Z" fill="#2F2F2F"/>
<path d="M137.318 54.841C137.367 56.0092 137.105 57.1695 136.559 58.2046C136.029 59.2016 135.228 60.0307 134.248 60.5977C133.208 61.1955 132.027 61.5053 130.826 61.4948C129.61 61.5223 128.407 61.2315 127.34 60.6515C126.321 60.1022 125.471 59.2876 124.881 58.295C124.283 57.278 123.96 56.1243 123.942 54.9461C123.897 53.7748 124.165 52.6124 124.719 51.5777C125.249 50.5782 126.053 49.7485 127.037 49.1846C128.083 48.5847 129.272 48.2748 130.479 48.2875C131.687 48.2639 132.881 48.5555 133.94 49.1332C134.951 49.687 135.793 50.5009 136.379 51.4897C136.977 52.5077 137.301 53.6621 137.318 54.841Z" fill="url(#paint1_linear_1374_3896)"/>
<defs>
<linearGradient id="paint0_linear_1374_3896" x1="37.697" y1="37.7475" x2="47.1838" y2="28.2068" gradientUnits="userSpaceOnUse">
<stop stop-color="#00C3FF"/>
<stop offset="0.03" stop-color="#0EC0FC"/>
<stop offset="0.17" stop-color="#43B3EE"/>
<stop offset="0.32" stop-color="#71A8E3"/>
<stop offset="0.46" stop-color="#979FDA"/>
<stop offset="0.6" stop-color="#B498D2"/>
<stop offset="0.73" stop-color="#C893CD"/>
<stop offset="0.87" stop-color="#D590CA"/>
<stop offset="1" stop-color="#D98FC9"/>
</linearGradient>
<linearGradient id="paint1_linear_1374_3896" x1="125.914" y1="59.593" x2="135.31" y2="50.1409" gradientUnits="userSpaceOnUse">
<stop stop-color="#D98FC9"/>
<stop offset="0.13" stop-color="#D590CA"/>
<stop offset="0.27" stop-color="#C893CD"/>
<stop offset="0.4" stop-color="#B498D2"/>
<stop offset="0.54" stop-color="#979FDA"/>
<stop offset="0.68" stop-color="#71A8E3"/>
<stop offset="0.83" stop-color="#43B3EE"/>
<stop offset="0.97" stop-color="#0EC0FC"/>
<stop offset="1" stop-color="#00C3FF"/>
</linearGradient>
</defs>
</svg>
