<svg id="Слой_1" data-name="Слой 1" xmlns="http://www.w3.org/2000/svg" xmlns:xlink="http://www.w3.org/1999/xlink" viewBox="0 0 595.28 841.89"><defs><style>.cls-1,.cls-10,.cls-11,.cls-12,.cls-13,.cls-14,.cls-15,.cls-16,.cls-17,.cls-18,.cls-19,.cls-2,.cls-20,.cls-21,.cls-22,.cls-23,.cls-24,.cls-25,.cls-26,.cls-27,.cls-28,.cls-29,.cls-3,.cls-30,.cls-31,.cls-32,.cls-33,.cls-34,.cls-35,.cls-36,.cls-37,.cls-38,.cls-39,.cls-4,.cls-40,.cls-41,.cls-42,.cls-43,.cls-44,.cls-45,.cls-46,.cls-47,.cls-48,.cls-49,.cls-5,.cls-50,.cls-51,.cls-52,.cls-6,.cls-7,.cls-8,.cls-9{fill:none;}.cls-1{stroke:#fff;}.cls-1,.cls-10,.cls-11,.cls-12,.cls-13,.cls-14,.cls-15,.cls-16,.cls-17,.cls-18,.cls-19,.cls-20,.cls-21,.cls-22,.cls-23,.cls-24,.cls-25,.cls-26,.cls-27,.cls-28,.cls-29,.cls-30,.cls-31,.cls-32,.cls-33,.cls-34,.cls-35,.cls-36,.cls-37,.cls-38,.cls-39,.cls-40,.cls-41,.cls-42,.cls-43,.cls-44,.cls-45,.cls-46,.cls-47,.cls-48,.cls-49,.cls-5,.cls-50,.cls-51,.cls-52,.cls-6,.cls-8,.cls-9{stroke-miterlimit:10;}.cls-1,.cls-10,.cls-11,.cls-12,.cls-13,.cls-14,.cls-15,.cls-16,.cls-17,.cls-18,.cls-19,.cls-20,.cls-21,.cls-22,.cls-23,.cls-24,.cls-25,.cls-26,.cls-27,.cls-28,.cls-29,.cls-30,.cls-31,.cls-32,.cls-33,.cls-34,.cls-35,.cls-36,.cls-37,.cls-38,.cls-39,.cls-40,.cls-41,.cls-42,.cls-43,.cls-44,.cls-45,.cls-46,.cls-47,.cls-48,.cls-49,.cls-5,.cls-50,.cls-51,.cls-52,.cls-6,.cls-7,.cls-8,.cls-9{stroke-width:0.2px;}.cls-2,.cls-3,.cls-4{stroke-miterlimit:10;stroke-width:0.2px;}.cls-2{stroke:url(#Безымянный_градиент_1381);}.cls-3{stroke:url(#Безымянный_градиент_1380);}.cls-4{stroke:url(#Безымянный_градиент_1379);}.cls-5{stroke:url(#Безымянный_градиент_1378);}.cls-6{stroke:url(#Безымянный_градиент_1377);}.cls-7{stroke-miterlimit:10;stroke:url(#Безымянный_градиент_1376);}.cls-8{stroke:url(#Безымянный_градиент_1375);}.cls-9{stroke:url(#Безымянный_градиент_1374);}.cls-10{stroke:url(#Безымянный_градиент_1373);}.cls-11{stroke:url(#Безымянный_градиент_1372);}.cls-12{stroke:url(#Безымянный_градиент_1371);}.cls-13{stroke:url(#Безымянный_градиент_1370);}.cls-14{stroke:url(#Безымянный_градиент_1369);}.cls-15{stroke:url(#Безымянный_градиент_1368);}.cls-16{stroke:url(#Безымянный_градиент_1367);}.cls-17{stroke:url(#Безымянный_градиент_1366);}.cls-18{stroke:url(#Безымянный_градиент_1365);}.cls-19{stroke:url(#Безымянный_градиент_1364);}.cls-20{stroke:url(#Безымянный_градиент_1363);}.cls-21{stroke:url(#Безымянный_градиент_1362);}.cls-22{stroke:url(#Безымянный_градиент_1361);}.cls-23{stroke:url(#Безымянный_градиент_1360);}.cls-24{stroke:url(#Безымянный_градиент_1359);}.cls-25{stroke:url(#Безымянный_градиент_1358);}.cls-26{stroke:url(#Безымянный_градиент_1357);}.cls-27{stroke:url(#Безымянный_градиент_1356);}.cls-28{stroke:url(#Безымянный_градиент_1355);}.cls-29{stroke:url(#Безымянный_градиент_1354);}.cls-30{stroke:url(#Безымянный_градиент_1353);}.cls-31{stroke:url(#Безымянный_градиент_1352);}.cls-32{stroke:url(#Безымянный_градиент_1351);}.cls-33{stroke:url(#Безымянный_градиент_1350);}.cls-34{stroke:url(#Безымянный_градиент_1349);}.cls-35{stroke:url(#Безымянный_градиент_1348);}.cls-36{stroke:url(#Безымянный_градиент_1347);}.cls-37{stroke:url(#Безымянный_градиент_1346);}.cls-38{stroke:url(#Безымянный_градиент_1345);}.cls-39{stroke:url(#Безымянный_градиент_1344);}.cls-40{stroke:url(#Безымянный_градиент_1343);}.cls-41{stroke:url(#Безымянный_градиент_1342);}.cls-42{stroke:url(#Безымянный_градиент_1341);}.cls-43{stroke:url(#Безымянный_градиент_1340);}.cls-44{stroke:url(#Безымянный_градиент_1339);}.cls-45{stroke:url(#Безымянный_градиент_1338);}.cls-46{stroke:url(#Безымянный_градиент_1337);}.cls-47{stroke:url(#Безымянный_градиент_1336);}.cls-48{stroke:url(#Безымянный_градиент_1335);}.cls-49{stroke:url(#Безымянный_градиент_1334);}.cls-50{stroke:url(#Безымянный_градиент_1333);}.cls-51{stroke:url(#Безымянный_градиент_1332);}.cls-52{stroke:url(#Градієнт_без_назви_1235);}</style><linearGradient id="Безымянный_градиент_1381" x1="130.21" y1="424.91" x2="565.36" y2="424.91" gradientUnits="userSpaceOnUse"><stop offset="0" stop-color="#fafcfe"/><stop offset="0.5" stop-color="#faf9fc"/><stop offset="1" stop-color="#fefdfe"/></linearGradient><linearGradient id="Безымянный_градиент_1380" x1="128.97" y1="425.97" x2="562.09" y2="425.97" gradientUnits="userSpaceOnUse"><stop offset="0" stop-color="#f7fafe"/><stop offset="0.5" stop-color="#f7f4f9"/><stop offset="1" stop-color="#fdfbfd"/></linearGradient><linearGradient id="Безымянный_градиент_1379" x1="127.72" y1="427.03" x2="558.9" y2="427.03" gradientUnits="userSpaceOnUse"><stop offset="0" stop-color="#f4f8fd"/><stop offset="0.5" stop-color="#f3eff7"/><stop offset="1" stop-color="#fbf9fc"/></linearGradient><linearGradient id="Безымянный_градиент_1378" x1="126.44" y1="428.09" x2="555.81" y2="428.09" gradientUnits="userSpaceOnUse"><stop offset="0" stop-color="#f1f6fd"/><stop offset="0.5" stop-color="#f0ebf5"/><stop offset="1" stop-color="#faf7fb"/></linearGradient><linearGradient id="Безымянный_градиент_1377" x1="125.15" y1="429.15" x2="552.81" y2="429.15" gradientUnits="userSpaceOnUse"><stop offset="0" stop-color="#eef5fc"/><stop offset="0.5" stop-color="#ede7f3"/><stop offset="1" stop-color="#f9f5fa"/></linearGradient><linearGradient id="Безымянный_градиент_1376" x1="123.83" y1="430.21" x2="549.9" y2="430.21" gradientUnits="userSpaceOnUse"><stop offset="0" stop-color="#ebf3fb"/><stop offset="0.5" stop-color="#eae3f1"/><stop offset="1" stop-color="#f8f3f9"/></linearGradient><linearGradient id="Безымянный_градиент_1375" x1="122.49" y1="431.27" x2="547.09" y2="431.27" gradientUnits="userSpaceOnUse"><stop offset="0" stop-color="#e9f1fb"/><stop offset="0.5" stop-color="#e8dfef"/><stop offset="1" stop-color="#f7f2f8"/></linearGradient><linearGradient id="Безымянный_градиент_1374" x1="121.13" y1="432.33" x2="544.37" y2="432.33" gradientUnits="userSpaceOnUse"><stop offset="0" stop-color="#e6effa"/><stop offset="0.5" stop-color="#e5dbed"/><stop offset="1" stop-color="#f7f0f7"/></linearGradient><linearGradient id="Безымянный_градиент_1373" x1="119.73" y1="433.39" x2="541.76" y2="433.39" gradientUnits="userSpaceOnUse"><stop offset="0" stop-color="#e3eefa"/><stop offset="0.5" stop-color="#e2d7ea"/><stop offset="1" stop-color="#f6eff6"/></linearGradient><linearGradient id="Безымянный_градиент_1372" x1="118.31" y1="434.45" x2="539.25" y2="434.45" gradientUnits="userSpaceOnUse"><stop offset="0" stop-color="#e0ecf9"/><stop offset="0.5" stop-color="#dfd3e8"/><stop offset="1" stop-color="#f5edf6"/></linearGradient><linearGradient id="Безымянный_градиент_1371" x1="116.87" y1="435.51" x2="536.84" y2="435.51" gradientUnits="userSpaceOnUse"><stop offset="0" stop-color="#ddeaf9"/><stop offset="0.5" stop-color="#ddcfe6"/><stop offset="1" stop-color="#f4ecf5"/></linearGradient><linearGradient id="Безымянный_градиент_1370" x1="115.39" y1="436.57" x2="534.54" y2="436.57" gradientUnits="userSpaceOnUse"><stop offset="0" stop-color="#dbe9f8"/><stop offset="0.5" stop-color="#dacbe4"/><stop offset="1" stop-color="#f3eaf4"/></linearGradient><linearGradient id="Безымянный_градиент_1369" x1="113.88" y1="437.63" x2="532.33" y2="437.63" gradientUnits="userSpaceOnUse"><stop offset="0" stop-color="#d8e7f8"/><stop offset="0.5" stop-color="#d8c7e2"/><stop offset="1" stop-color="#f2e9f3"/></linearGradient><linearGradient id="Безымянный_градиент_1368" x1="112.33" y1="438.69" x2="530.23" y2="438.69" gradientUnits="userSpaceOnUse"><stop offset="0" stop-color="#d5e6f8"/><stop offset="0.5" stop-color="#d5c4e0"/><stop offset="1" stop-color="#f2e7f2"/></linearGradient><linearGradient id="Безымянный_градиент_1367" x1="110.75" y1="439.75" x2="528.23" y2="439.75" gradientUnits="userSpaceOnUse"><stop offset="0" stop-color="#d3e4f7"/><stop offset="0.5" stop-color="#d2c0de"/><stop offset="1" stop-color="#f1e6f2"/></linearGradient><linearGradient id="Безымянный_градиент_1366" x1="109.13" y1="440.81" x2="526.34" y2="440.81" gradientUnits="userSpaceOnUse"><stop offset="0" stop-color="#d0e3f7"/><stop offset="0.5" stop-color="#d0bddc"/><stop offset="1" stop-color="#f0e4f1"/></linearGradient><linearGradient id="Безымянный_градиент_1365" x1="107.47" y1="441.87" x2="524.58" y2="441.87" gradientUnits="userSpaceOnUse"><stop offset="0" stop-color="#cde1f6"/><stop offset="0.5" stop-color="#ceb9da"/><stop offset="1" stop-color="#efe3f0"/></linearGradient><linearGradient id="Безымянный_градиент_1364" x1="105.78" y1="442.93" x2="522.96" y2="442.93" gradientUnits="userSpaceOnUse"><stop offset="0" stop-color="#cbe0f6"/><stop offset="0.5" stop-color="#cbb6d8"/><stop offset="1" stop-color="#eee1ef"/></linearGradient><linearGradient id="Безымянный_градиент_1363" x1="104.04" y1="443.99" x2="521.47" y2="443.99" gradientUnits="userSpaceOnUse"><stop offset="0" stop-color="#c8def5"/><stop offset="0.5" stop-color="#c9b2d6"/><stop offset="1" stop-color="#eee0ee"/></linearGradient><linearGradient id="Безымянный_градиент_1362" x1="102.26" y1="445.05" x2="520.11" y2="445.05" gradientUnits="userSpaceOnUse"><stop offset="0" stop-color="#c6ddf5"/><stop offset="0.5" stop-color="#c7afd4"/><stop offset="1" stop-color="#eddfed"/></linearGradient><linearGradient id="Безымянный_градиент_1361" x1="100.43" y1="446.11" x2="518.9" y2="446.11" gradientUnits="userSpaceOnUse"><stop offset="0" stop-color="#c3dbf4"/><stop offset="0.5" stop-color="#c4acd2"/><stop offset="1" stop-color="#ecdded"/></linearGradient><linearGradient id="Безымянный_градиент_1360" x1="98.56" y1="447.17" x2="517.83" y2="447.17" gradientUnits="userSpaceOnUse"><stop offset="0" stop-color="#c0daf4"/><stop offset="0.5" stop-color="#c2a8d0"/><stop offset="1" stop-color="#ebdcec"/></linearGradient><linearGradient id="Безымянный_градиент_1359" x1="96.65" y1="448.23" x2="516.89" y2="448.23" gradientUnits="userSpaceOnUse"><stop offset="0" stop-color="#bed8f3"/><stop offset="0.5" stop-color="#c0a5ce"/><stop offset="1" stop-color="#ebdaeb"/></linearGradient><linearGradient id="Безымянный_градиент_1358" x1="94.69" y1="449.29" x2="516.08" y2="449.29" gradientUnits="userSpaceOnUse"><stop offset="0" stop-color="#bbd7f3"/><stop offset="0.5" stop-color="#bea2cc"/><stop offset="1" stop-color="#ead9ea"/></linearGradient><linearGradient id="Безымянный_градиент_1357" x1="92.68" y1="450.35" x2="515.4" y2="450.35" gradientUnits="userSpaceOnUse"><stop offset="0" stop-color="#b9d5f2"/><stop offset="0.5" stop-color="#bc9fca"/><stop offset="1" stop-color="#e9d7e9"/></linearGradient><linearGradient id="Безымянный_градиент_1356" x1="90.63" y1="451.42" x2="514.85" y2="451.42" gradientUnits="userSpaceOnUse"><stop offset="0" stop-color="#b6d4f2"/><stop offset="0.5" stop-color="#ba9cc9"/><stop offset="1" stop-color="#e9d6e9"/></linearGradient><linearGradient id="Безымянный_градиент_1355" x1="88.52" y1="452.48" x2="514.41" y2="452.48" gradientUnits="userSpaceOnUse"><stop offset="0" stop-color="#b3d2f2"/><stop offset="0.5" stop-color="#b79ac7"/><stop offset="1" stop-color="#e8d5e8"/></linearGradient><linearGradient id="Безымянный_градиент_1354" x1="86.38" y1="453.54" x2="514.08" y2="453.54" gradientUnits="userSpaceOnUse"><stop offset="0" stop-color="#b1d1f1"/><stop offset="0.5" stop-color="#b597c5"/><stop offset="1" stop-color="#e7d3e7"/></linearGradient><linearGradient id="Безымянный_градиент_1353" x1="84.18" y1="454.61" x2="513.85" y2="454.61" gradientUnits="userSpaceOnUse"><stop offset="0" stop-color="#aed0f1"/><stop offset="0.5" stop-color="#b394c3"/><stop offset="1" stop-color="#e7d2e6"/></linearGradient><linearGradient id="Безымянный_градиент_1352" x1="81.94" y1="455.67" x2="513.69" y2="455.67" gradientUnits="userSpaceOnUse"><stop offset="0" stop-color="#accef0"/><stop offset="0.5" stop-color="#b192c2"/><stop offset="1" stop-color="#e6d0e5"/></linearGradient><linearGradient id="Безымянный_градиент_1351" x1="79.66" y1="456.74" x2="513.6" y2="456.74" gradientUnits="userSpaceOnUse"><stop offset="0" stop-color="#a9cdf0"/><stop offset="0.5" stop-color="#b08fc0"/><stop offset="1" stop-color="#e5cfe5"/></linearGradient><linearGradient id="Безымянный_градиент_1350" x1="77.33" y1="457.8" x2="513.56" y2="457.8" gradientUnits="userSpaceOnUse"><stop offset="0" stop-color="#a7ccef"/><stop offset="0.5" stop-color="#ae8cbf"/><stop offset="1" stop-color="#e4cee4"/></linearGradient><linearGradient id="Безымянный_градиент_1349" x1="74.95" y1="458.87" x2="513.56" y2="458.87" gradientUnits="userSpaceOnUse"><stop offset="0" stop-color="#a4caef"/><stop offset="0.5" stop-color="#ac8abd"/><stop offset="1" stop-color="#e4cce3"/></linearGradient><linearGradient id="Безымянный_градиент_1348" x1="72.54" y1="459.93" x2="513.6" y2="459.93" gradientUnits="userSpaceOnUse"><stop offset="0" stop-color="#a2c9ee"/><stop offset="0.5" stop-color="#aa88bc"/><stop offset="1" stop-color="#e3cbe2"/></linearGradient><linearGradient id="Безымянный_градиент_1347" x1="70.09" y1="460.99" x2="513.68" y2="460.99" gradientUnits="userSpaceOnUse"><stop offset="0" stop-color="#a0c8ee"/><stop offset="0.5" stop-color="#a885ba"/><stop offset="1" stop-color="#e2cae1"/></linearGradient><linearGradient id="Безымянный_градиент_1346" x1="67.59" y1="462.06" x2="513.78" y2="462.06" gradientUnits="userSpaceOnUse"><stop offset="0" stop-color="#9dc6ed"/><stop offset="0.5" stop-color="#a683b9"/><stop offset="1" stop-color="#e2c8e1"/></linearGradient><linearGradient id="Безымянный_градиент_1345" x1="65.06" y1="463.12" x2="513.91" y2="463.12" gradientUnits="userSpaceOnUse"><stop offset="0" stop-color="#9bc5ed"/><stop offset="0.5" stop-color="#a481b8"/><stop offset="1" stop-color="#e1c7e0"/></linearGradient><linearGradient id="Безымянный_градиент_1344" x1="62.5" y1="464.18" x2="514.06" y2="464.18" gradientUnits="userSpaceOnUse"><stop offset="0" stop-color="#99c4ed"/><stop offset="0.5" stop-color="#a37fb6"/><stop offset="1" stop-color="#e0c6df"/></linearGradient><linearGradient id="Безымянный_градиент_1343" x1="59.9" y1="465.25" x2="514.24" y2="465.25" gradientUnits="userSpaceOnUse"><stop offset="0" stop-color="#97c3ec"/><stop offset="0.5" stop-color="#a17db5"/><stop offset="1" stop-color="#e0c4de"/></linearGradient><linearGradient id="Безымянный_градиент_1342" x1="57.26" y1="466.31" x2="514.43" y2="466.31" gradientUnits="userSpaceOnUse"><stop offset="0" stop-color="#95c2ec"/><stop offset="0.5" stop-color="#9f7bb4"/><stop offset="1" stop-color="#dfc3de"/></linearGradient><linearGradient id="Безымянный_градиент_1341" x1="54.6" y1="467.37" x2="514.65" y2="467.37" gradientUnits="userSpaceOnUse"><stop offset="0" stop-color="#92c1eb"/><stop offset="0.5" stop-color="#9e79b3"/><stop offset="1" stop-color="#dec2dd"/></linearGradient><linearGradient id="Безымянный_градиент_1340" x1="51.91" y1="468.44" x2="514.88" y2="468.44" gradientUnits="userSpaceOnUse"><stop offset="0" stop-color="#90c0eb"/><stop offset="0.5" stop-color="#9c78b2"/><stop offset="1" stop-color="#dec0dc"/></linearGradient><linearGradient id="Безымянный_градиент_1339" x1="49.19" y1="469.5" x2="515.12" y2="469.5" gradientUnits="userSpaceOnUse"><stop offset="0" stop-color="#8ebfeb"/><stop offset="0.5" stop-color="#9a76b1"/><stop offset="1" stop-color="#ddbfdb"/></linearGradient><linearGradient id="Безымянный_градиент_1338" x1="46.44" y1="470.56" x2="515.38" y2="470.56" gradientUnits="userSpaceOnUse"><stop offset="0" stop-color="#8cbdea"/><stop offset="0.5" stop-color="#9974b0"/><stop offset="1" stop-color="#ddbeda"/></linearGradient><linearGradient id="Безымянный_градиент_1337" x1="43.66" y1="471.63" x2="515.65" y2="471.63" gradientUnits="userSpaceOnUse"><stop offset="0" stop-color="#8abcea"/><stop offset="0.5" stop-color="#9773af"/><stop offset="1" stop-color="#dcbcda"/></linearGradient><linearGradient id="Безымянный_градиент_1336" x1="40.87" y1="472.69" x2="515.93" y2="472.69" gradientUnits="userSpaceOnUse"><stop offset="0" stop-color="#88bbe9"/><stop offset="0.5" stop-color="#9671ae"/><stop offset="1" stop-color="#dbbbd9"/></linearGradient><linearGradient id="Безымянный_градиент_1335" x1="38.05" y1="473.75" x2="516.22" y2="473.75" gradientUnits="userSpaceOnUse"><stop offset="0" stop-color="#87bae9"/><stop offset="0.5" stop-color="#9470ad"/><stop offset="1" stop-color="#dbbad8"/></linearGradient><linearGradient id="Безымянный_градиент_1334" x1="35.21" y1="474.81" x2="516.52" y2="474.81" gradientUnits="userSpaceOnUse"><stop offset="0" stop-color="#85b9e8"/><stop offset="0.5" stop-color="#936eac"/><stop offset="1" stop-color="#dab9d7"/></linearGradient><linearGradient id="Безымянный_градиент_1333" x1="32.35" y1="475.88" x2="516.83" y2="475.88" gradientUnits="userSpaceOnUse"><stop offset="0" stop-color="#83b8e8"/><stop offset="0.5" stop-color="#916dac"/><stop offset="1" stop-color="#d9b7d6"/></linearGradient><linearGradient id="Безымянный_градиент_1332" x1="29.47" y1="476.94" x2="517.15" y2="476.94" gradientUnits="userSpaceOnUse"><stop offset="0" stop-color="#81b8e8"/><stop offset="0.5" stop-color="#906cab"/><stop offset="1" stop-color="#d9b6d6"/></linearGradient><linearGradient id="Градієнт_без_назви_1235" x1="26.58" y1="478" x2="517.48" y2="478" gradientUnits="userSpaceOnUse"><stop offset="0" stop-color="#7fb7e7"/><stop offset="0.5" stop-color="#8e6aaa"/><stop offset="1" stop-color="#d8b5d5"/></linearGradient></defs><g id="ОБРАНИЙ"><path class="cls-1" d="M377.5,827.71c-36.76-32.58-80.75-55.66-122-82.25s-81.39-58.31-104.27-101.78C114.1,573.22,131.73,481,185.22,422c23.46-25.87,52.59-45.85,81.9-64.83A2077.35,2077.35,0,0,1,475.56,238.62c30.72-15.2,63.67-31.31,80.75-61,13.83-24.06,14.85-53.81,8.67-80.86S546,44.66,533.38,20"/><path class="cls-2" d="M527.91,21.94c13.16,24.78,26.29,49.8,33,76.68a143.5,143.5,0,0,1,4,25c1.38,19.38-1.48,38.81-10.5,55.6-8.07,15-20.15,26.69-34,36.66a259.74,259.74,0,0,1-28.25,17.34c-5.34,2.88-10.75,5.64-16.13,8.35q-10.15,5.11-20.33,10.25C401,279.5,347.31,308.57,295.06,340.2q-15.21,9.21-30.26,18.73c-12.35,7.83-24.66,15.87-36.51,24.52-16.62,12.13-32.5,25.43-46.15,40.79-52.4,59-68.82,150-31.81,220,16,30.3,40.26,54.94,67.17,76.22,11.43,9,23.34,17.45,35.34,25.39,40.23,26.61,83.06,49.58,118.33,82"/><path class="cls-3" d="M522.44,23.93c13.68,24.86,27.16,49.87,34.37,76.57a149.26,149.26,0,0,1,4.6,24.94c1.8,19.3-.45,38.64-8.86,55.45-7.51,15-19,26.86-32.38,37.12a238.7,238.7,0,0,1-27.55,18c-5.29,3-10.71,5.84-16.11,8.62-6.8,3.48-13.67,6.94-20.51,10.38-55.26,27.8-109.79,56.09-162.81,87.23q-15.44,9.06-30.7,18.5c-12.53,7.76-25,15.8-37,24.51-16.76,12.19-32.86,25.66-46.44,41.28-51.32,59-66.52,148.71-29.59,218.23,16,30.08,39.93,54.65,66.28,76,11.19,9,22.79,17.51,34.49,25.47,39.15,26.61,80.82,49.48,114.61,81.81"/><path class="cls-4" d="M517,25.91c14.19,25,28,50,35.75,76.47a151.85,151.85,0,0,1,5.17,24.85c2.24,19.23.57,38.47-7.22,55.31-7,15.07-17.89,27-30.74,37.57a219.11,219.11,0,0,1-26.85,18.57c-5.24,3.12-10.66,6-16.1,8.89-6.83,3.57-13.77,7.06-20.68,10.52-55.84,28-111.2,55.45-165,86.1q-15.66,8.93-31.14,18.27c-12.72,7.71-25.36,15.73-37.46,24.5-16.9,12.26-33.23,25.9-46.74,41.78-50.25,59-64.22,147.45-27.36,216.5C164.55,675.1,188.16,699.67,214,721c10.93,9,22.24,17.56,33.64,25.53,38.07,26.63,78.58,49.4,110.89,81.6"/><path class="cls-5" d="M511.5,27.9c14.7,25,28.91,50,37.14,76.36A155.75,155.75,0,0,1,554.36,129c2.69,19.15,1.61,38.3-5.57,55.16-6.41,15.1-16.75,27.2-29.09,38a200.43,200.43,0,0,1-26.16,19.2c-5.19,3.23-10.62,6.25-16.08,9.16-6.87,3.64-13.88,7.17-20.86,10.65-56.42,28.11-112.6,54.81-167.15,85q-15.87,8.77-31.58,18.05c-12.9,7.64-25.71,15.65-37.94,24.49-17,12.32-33.58,26.13-47,42.27C123.7,490,111,577.18,147.76,645.75c15.9,29.65,39.19,54.17,64.48,75.52,10.69,9,21.71,17.62,32.8,25.6,37,26.63,76.34,49.31,107.16,81.39"/><path class="cls-6" d="M506,29.89C521.25,55,535.83,80,544.56,106.14a160.58,160.58,0,0,1,6.28,24.67c3.14,19.08,2.63,38.13-3.93,55-5.85,15.12-15.62,27.36-27.45,38.47A184.3,184.3,0,0,1,494,244.11c-5.14,3.35-10.56,6.46-16.06,9.43-6.9,3.72-14,7.3-21,10.79-57,28.26-114,54.17-169.33,83.84-10.72,5.76-21.42,11.67-32,17.82-13.08,7.58-26,15.58-38.41,24.49-17.17,12.37-33.94,26.36-47.33,42.75-48.14,59-59.61,144.94-22.9,213,15.85,29.44,38.84,53.9,63.58,75.29,10.44,9,21.16,17.66,31.95,25.66,35.91,26.64,74.1,49.22,103.44,81.18"/><path class="cls-7" d="M500.56,31.87c15.73,25.2,30.69,50.2,39.91,76.15a166.45,166.45,0,0,1,6.85,24.57c3.59,19,3.66,38-2.29,54.89-5.3,15.14-14.49,27.53-25.81,38.91a169.05,169.05,0,0,1-24.77,20.44c-5.09,3.46-10.52,6.67-16,9.7-6.93,3.79-14.09,7.41-21.21,10.92C399.62,295.87,341.79,321,285.7,350.16c-10.87,5.67-21.72,11.49-32.46,17.59a433.87,433.87,0,0,0-38.89,24.48c-17.3,12.44-34.3,26.59-47.62,43.25-47.1,58.94-57.31,143.67-20.68,211.31,15.81,29.22,38.49,53.63,62.69,75.05,10.19,9,20.61,17.72,31.09,25.74,34.83,26.63,71.87,49.12,99.72,80.95"/><path class="cls-8" d="M495.09,33.86c16.24,25.28,31.58,50.28,41.3,76a171.6,171.6,0,0,1,7.4,24.48c4.05,19,4.69,37.81-.64,54.74-4.75,15.17-13.36,27.7-24.17,39.37a155.5,155.5,0,0,1-24.07,21.06,174.23,174.23,0,0,1-16,10c-7,3.87-14.19,7.52-21.37,11.06-58.17,28.56-116.82,52.89-173.68,81.58-11,5.56-22,11.31-32.9,17.36A407.06,407.06,0,0,0,211.56,394c-17.43,12.5-34.66,26.82-47.91,43.74-46.08,58.87-55,142.41-18.45,209.58,15.77,29,38.14,53.36,61.78,74.82,10,9,20.07,17.76,30.25,25.8,33.74,26.63,69.63,49,96,80.74"/><path class="cls-9" d="M489.62,35.85c16.76,25.36,32.48,50.36,42.68,75.93a177.24,177.24,0,0,1,8,24.39c4.49,18.88,5.72,37.64,1,54.6-4.19,15.19-12.2,27.89-22.53,39.81a142.12,142.12,0,0,1-23.37,21.68,153.93,153.93,0,0,1-16,10.24c-7,3.95-14.29,7.65-21.54,11.2C399.06,302.42,339.58,326,282,354.15c-11.17,5.47-22.32,11.13-33.35,17.13a385.86,385.86,0,0,0-39.84,24.47c-17.57,12.56-35,27-48.2,44.23-45.06,58.8-52.7,141.15-16.23,207.84,15.73,28.8,37.79,53.1,60.89,74.59,9.7,9,19.51,17.81,29.4,25.87,32.65,26.62,67.39,49,92.28,80.53"/><path class="cls-10" d="M484.15,37.83c17.27,25.45,33.38,50.45,44.07,75.83a184,184,0,0,1,8.52,24.3c5,18.81,6.75,37.47,2.65,54.46-3.64,15.22-11.06,28.05-20.89,40.26A132.27,132.27,0,0,1,495.83,255a143.42,143.42,0,0,1-16,10.51c-7,4-14.4,7.76-21.72,11.33-59.33,28.87-119.63,51.61-178,79.32-11.32,5.38-22.62,11-33.79,16.91A364.38,364.38,0,0,0,206,397.51c-17.7,12.62-35.39,27.25-48.49,44.71-44.06,58.72-50.4,139.9-14,206.12,15.69,28.58,37.44,52.82,60,74.35,9.45,9,19,17.86,28.55,25.94,31.56,26.61,65.15,48.86,88.55,80.32"/><path class="cls-11" d="M478.68,39.82c17.78,25.53,34.29,50.53,45.45,75.72a190.46,190.46,0,0,1,9.09,24.21c5.41,18.74,7.78,37.3,4.29,54.31-3.09,15.25-9.92,28.23-19.25,40.72a122.76,122.76,0,0,1-22,22.91,129.9,129.9,0,0,1-16,10.78c-7.06,4.1-14.5,7.89-21.89,11.47-59.92,29-121,51-180.19,78.19-11.46,5.28-22.92,10.78-34.23,16.68a347.74,347.74,0,0,0-40.8,24.45c-17.83,12.68-35.75,27.47-48.78,45.21-43.07,58.61-48.1,138.64-11.78,204.39,15.65,28.36,37.09,52.55,59.1,74.12,9.2,9,18.41,17.9,27.7,26,30.46,26.58,62.91,48.76,84.83,80.09"/><path class="cls-12" d="M473.21,41.81c18.29,25.61,35.2,50.6,46.84,75.61a201,201,0,0,1,9.65,24.12c5.86,18.67,8.8,37.13,5.93,54.17C533.1,211,526.84,224.1,518,236.87a114.77,114.77,0,0,1-21.28,23.54,121.1,121.1,0,0,1-16,11c-7.09,4.17-14.61,8-22.07,11.6-60.5,29.18-122.44,50.34-182.36,77.06-11.61,5.19-23.22,10.61-34.68,16.46A333.21,333.21,0,0,0,200.4,401c-18,12.74-36.12,27.68-49.08,45.7-42.08,58.5-45.79,137.38-9.54,202.66,15.61,28.14,36.74,52.28,58.19,73.88,9,9,17.86,18,26.85,26.08,29.38,26.55,60.69,48.68,81.12,79.88"/><path class="cls-13" d="M467.74,43.79c18.81,25.7,36.11,50.69,48.22,75.51a207.86,207.86,0,0,1,10.21,24c6.33,18.6,9.84,37,7.58,54-2,15.29-7.65,28.56-16,41.61a107.31,107.31,0,0,1-20.58,24.16,113.37,113.37,0,0,1-16,11.32c-7.12,4.25-14.71,8.11-22.24,11.73-61.08,29.33-123.84,49.7-184.54,75.94-11.75,5.08-23.51,10.42-35.11,16.22a321,321,0,0,0-41.75,24.44c-18.1,12.8-36.48,27.89-49.37,46.18-41.11,58.38-43.49,136.13-7.32,200.94,15.57,27.93,36.39,52,57.3,73.65,8.71,9,17.3,18,26,26.14,28.28,26.52,58.45,48.59,77.39,79.67"/><path class="cls-14" d="M462.26,45.78c19.33,25.78,37,50.77,49.62,75.4a219.46,219.46,0,0,1,10.77,23.94c6.78,18.53,10.87,36.8,9.22,53.88-1.43,15.32-6.52,28.73-14.32,42.06a101,101,0,0,1-19.88,24.78,106.75,106.75,0,0,1-15.94,11.59c-7.16,4.33-14.82,8.24-22.42,11.87-61.66,29.49-125.25,49.07-186.71,74.81-11.9,5-23.81,10.25-35.55,16a307.58,307.58,0,0,0-42.22,24.43c-18.25,12.86-36.86,28.09-49.67,46.67C105,509.45,104,586.07,140.07,650.41c15.53,27.72,36,51.73,56.4,73.42,8.47,9,16.75,18,25.15,26.21,27.18,26.49,56.21,48.5,73.67,79.46"/><path class="cls-15" d="M456.79,47.77c19.84,25.86,38,50.85,51,75.29a232.69,232.69,0,0,1,11.33,23.84c7.24,18.48,11.89,36.64,10.86,53.75-.87,15.34-5.38,28.9-12.68,42.51a95.12,95.12,0,0,1-19.18,25.4,101,101,0,0,1-15.93,11.86,248.46,248.46,0,0,1-22.59,12C397.37,322.06,333,340.85,270.73,366.1c-12.05,4.9-24.12,10.07-36,15.77A298.28,298.28,0,0,0,192,406.29c-18.38,12.92-37.23,28.3-50,47.17-39.2,58.09-38.89,133.6-2.87,197.47,15.49,27.5,35.69,51.45,55.51,73.19,8.22,9,16.19,18.06,24.3,26.28,26.08,26.43,54,48.41,69.94,79.23"/><path class="cls-16" d="M451.32,49.76c20.36,25.93,38.89,50.92,52.39,75.18a241.31,241.31,0,0,1,11.89,23.75c7.71,18.41,12.93,36.47,12.51,53.6-.32,15.37-4.24,29.07-11,43a90,90,0,0,1-18.49,26,94.75,94.75,0,0,1-15.91,12.12,232.43,232.43,0,0,1-22.76,12.15c-62.82,29.79-128.06,47.78-191,72.54-12.2,4.8-24.42,9.89-36.44,15.55a287.19,287.19,0,0,0-43.17,24.41c-18.51,13-37.6,28.5-50.25,47.66-38.26,57.93-36.59,132.34-.64,195.74,15.44,27.29,35.34,51.17,54.6,72.95,8,9,15.64,18.1,23.45,26.35,25,26.38,51.74,48.32,66.23,79"/><path class="cls-17" d="M445.85,51.74c20.87,26,39.82,51,53.78,75.08a258.42,258.42,0,0,1,12.45,23.66c8.17,18.34,13.95,36.3,14.15,53.46.23,15.4-3.11,29.23-9.4,43.41A85.3,85.3,0,0,1,499,274a90.67,90.67,0,0,1-15.89,12.4,219,219,0,0,1-22.94,12.28c-63.4,29.94-129.46,47.14-193.22,71.41-12.34,4.71-24.72,9.72-36.88,15.32a279.39,279.39,0,0,0-43.65,24.41c-18.65,13-38,28.7-50.54,48.14C98.59,515.72,101.63,589,137.5,652c15.41,27.07,35,50.89,53.71,72.72,7.73,9,15.08,18.12,22.6,26.41,23.89,26.32,49.5,48.23,62.51,78.81"/><path class="cls-18" d="M440.38,53.73c21.38,26.1,40.76,51.08,55.16,75,4.92,8.16,9.42,16,13,23.57,8.63,18.27,15,36.13,15.79,53.32.79,15.42-2,29.39-7.76,43.86-3.65,9.14-8.69,18.58-17.09,27.26a87.18,87.18,0,0,1-15.88,12.67,209.78,209.78,0,0,1-23.11,12.41c-64,30.09-130.86,46.51-195.39,70.29-12.49,4.61-25,9.53-37.33,15.09a272.93,272.93,0,0,0-44.12,24.39c-18.78,13.11-38.36,28.9-50.84,48.64-36.41,57.59-32,129.83,3.82,192.28C152,679.34,171.29,703.1,189.46,725c7.48,9,14.52,18.16,21.75,26.48C234,777.7,258.47,799.59,270,830.05"/><path class="cls-19" d="M434.91,55.72c21.9,26.18,41.69,51.15,56.55,74.86,5.1,8.15,9.8,15.93,13.57,23.48,9.11,18.2,16,36,17.44,53.17,1.34,15.45-.84,29.57-6.11,44.31-3.34,9.32-8.1,19-16.4,27.88a83.2,83.2,0,0,1-15.86,12.94,201.07,201.07,0,0,1-23.29,12.55c-64.56,30.25-132.27,45.87-197.56,69.16-12.64,4.51-25.32,9.36-37.77,14.86-15.43,6.8-30.54,14.64-44.6,24.39-18.91,13.16-38.74,29.09-51.13,49.13-35.5,57.4-29.68,128.57,6,190.55,15.33,26.64,34.29,50.34,51.92,72.26,7.23,9,14,18.18,20.9,26.55,21.7,26.16,45,48.05,55.06,78.37"/><path class="cls-20" d="M429.44,57.7c22.41,26.27,42.63,51.23,57.93,74.76,5.3,8.15,10.18,15.89,14.14,23.39,9.57,18.13,17,35.79,19.08,53,1.89,15.47.29,29.73-4.47,44.76-3,9.49-7.49,19.4-15.7,28.5a80.11,80.11,0,0,1-15.85,13.21A192.41,192.41,0,0,1,461.11,308c-65.15,30.4-133.67,45.23-199.73,68-12.79,4.42-25.62,9.18-38.21,14.64-15.61,6.73-30.89,14.56-45.08,24.38C159,428.3,139,444.36,126.67,464.7,92.06,521.91,99.29,592,134.94,653.52c15.28,26.43,33.94,50.05,51,72,7,9,13.41,18.21,20.06,26.62,20.6,26.07,42.78,48,51.33,78.16"/><path class="cls-21" d="M424,59.69C446.89,86,467.54,111,483.29,134.34c5.49,8.14,10.55,15.85,14.69,23.3,10,18.06,18.07,35.63,20.73,52.89a103.17,103.17,0,0,1-2.83,45.2c-2.69,9.66-6.88,19.81-15,29.13a77.5,77.5,0,0,1-15.83,13.47,183.67,183.67,0,0,1-23.64,12.82c-65.73,30.56-135.08,44.59-201.91,66.9-12.93,4.33-25.91,9-38.65,14.41-15.78,6.67-31.23,14.49-45.55,24.38-19.18,13.28-39.5,29.47-51.71,50.1C89.86,524,98.51,593,134.08,654c15.25,26.21,33.6,49.76,50.12,71.79,6.75,9,12.85,18.22,19.2,26.68,19.52,26,40.55,47.87,47.62,78"/><path class="cls-22" d="M418.5,61.68c23.43,26.43,44.52,51.37,60.71,74.55,5.67,8.13,10.93,15.8,15.25,23.19,10.52,18,19.1,35.47,22.37,52.75a104.35,104.35,0,0,1-1.19,45.66c-2.37,9.83-6.27,20.22-14.3,29.74a74.75,74.75,0,0,1-15.82,13.75,178.1,178.1,0,0,1-23.81,13C395.4,345,325.23,358.23,257.63,380c-13.08,4.23-26.21,8.83-39.09,14.18-16,6.62-31.58,14.43-46,24.37-19.31,13.35-39.89,29.66-52,50.6C87.66,526,97.73,594,133.23,654.56c15.2,26,33.24,49.48,49.22,71.55,6.5,9,12.29,18.24,18.35,26.75,18.43,25.86,38.31,47.79,43.9,77.74"/><path class="cls-23" d="M413,63.66c24,26.52,45.47,51.44,62.09,74.45,5.87,8.12,11.31,15.76,15.82,23.1,11,17.93,20.12,35.3,24,52.61a105.57,105.57,0,0,1,.45,46.1c-2,10-5.67,20.64-13.6,30.37a72.71,72.71,0,0,1-15.8,14,173.66,173.66,0,0,1-24,13.09C395.12,348.25,324.13,360.71,255.76,382c-13.23,4.14-26.51,8.66-39.53,14-16.15,6.55-31.93,14.35-46.51,24.36-19.45,13.4-40.28,29.85-52.29,51.09C85.44,528,97,595,132.37,655.07c15.16,25.79,32.9,49.2,48.33,71.32,6.25,9,11.73,18.26,17.5,26.83,17.35,25.73,36.08,47.69,40.17,77.51"/><path class="cls-24" d="M407.56,65.65C432,92.25,454,117.15,471,140c6.06,8.12,11.69,15.72,16.37,23,11.47,17.85,21.16,35.13,25.66,52.47A106.64,106.64,0,0,1,515.16,262c-1.72,10.18-5.06,21-12.9,31a70.19,70.19,0,0,1-15.79,14.29,168.45,168.45,0,0,1-24.15,13.23c-67.48,31-139.3,42.67-208.43,63.51-13.37,4-26.81,8.47-40,13.72-16.33,6.5-32.27,14.28-47,24.36-19.59,13.46-40.69,30-52.6,51.58C83.21,530,96.17,596,131.52,655.59c15.12,25.57,32.55,48.91,47.42,71.09,6,9,11.18,18.27,16.66,26.89,16.27,25.6,33.84,47.6,36.45,77.3"/><path class="cls-25" d="M402.09,67.64c25,26.68,47.37,51.56,64.86,74.23,6.26,8.11,12.08,15.68,16.94,22.92,11.94,17.78,22.18,35,27.3,52.32a108.18,108.18,0,0,1,3.73,47c-1.4,10.35-4.45,21.45-12.21,31.6a68.34,68.34,0,0,1-15.77,14.56,161.86,161.86,0,0,1-24.32,13.36c-68.06,31.16-140.7,42-210.6,62.38-13.52,3.94-27.11,8.3-40.42,13.5-16.51,6.43-32.62,14.2-47.45,24.34-19.72,13.53-41.09,30.21-52.89,52.07C81,532.05,95.39,597,130.66,656.11c15.08,25.35,32.21,48.61,46.53,70.85,5.77,9,10.62,18.28,15.81,27,15.2,25.46,31.6,47.51,32.73,77.09"/><path class="cls-26" d="M396.62,69.62c25.49,26.77,48.33,51.63,66.25,74.13,6.45,8.1,12.45,15.63,17.5,22.83,12.41,17.71,23.21,34.79,28.94,52.18a109.89,109.89,0,0,1,5.38,47.45c-1.08,10.52-3.85,21.86-11.52,32.23a66.79,66.79,0,0,1-15.75,14.82,157.85,157.85,0,0,1-24.5,13.5c-68.64,31.32-142.11,41.4-212.77,61.25-13.67,3.85-27.41,8.12-40.86,13.27-16.69,6.37-33,14.13-47.93,24.34-19.86,13.59-41.49,30.39-53.18,52.56-29.46,55.88-13.57,119.76,21.63,178.45,15,25.13,31.86,48.32,45.63,70.62,5.52,9,10.06,18.28,14.95,27,14.14,25.29,29.37,47.42,29,76.87"/><path class="cls-27" d="M391.15,71.61c26,26.85,49.28,51.69,67.63,74,6.66,8.09,12.84,15.59,18.06,22.74,12.89,17.63,24.24,34.62,30.59,52a111.57,111.57,0,0,1,7,47.9c-.76,10.69-3.24,22.27-10.82,32.84a65.13,65.13,0,0,1-15.74,15.1,154.37,154.37,0,0,1-24.67,13.63C394,361.35,319.71,370.64,248.28,390c-13.82,3.76-27.71,7.95-41.31,13.05-16.87,6.31-33.31,14.06-48.4,24.33-20,13.64-41.89,30.56-53.47,53.05C76.46,536.07,93.83,598.93,129,657.14c15,24.93,31.53,48,44.74,70.39,5.28,8.94,9.51,18.28,14.1,27.1,13.09,25.13,27.13,47.33,25.29,76.65"/><path class="cls-28" d="M385.68,73.6c26.51,26.93,50.24,51.75,69,73.91,6.85,8.08,13.22,15.55,18.62,22.65,13.36,17.56,25.27,34.46,32.23,51.89a113.26,113.26,0,0,1,8.66,48.35c-.44,10.87-2.64,22.69-10.12,33.47a63.66,63.66,0,0,1-15.72,15.36A150.24,150.24,0,0,1,463.52,333c-69.8,31.63-144.91,40.12-217.11,59-14,3.66-28,7.77-41.75,12.82-17,6.25-33.66,14-48.88,24.33-20.12,13.7-42.31,30.73-53.76,53.53-27.83,55.4-9,117.24,26.08,175,15,24.71,31.18,47.74,43.83,70.16,5,8.92,9,18.27,13.26,27.16,12.05,24.95,24.89,47.24,21.56,76.44"/><path class="cls-29" d="M380.21,75.58c27,27,51.2,51.81,70.4,73.81,7.05,8.07,13.61,15.51,19.19,22.55,13.84,17.49,26.29,34.3,33.87,51.76,6.87,15.69,10.49,31.22,10.3,48.8-.12,11-2,23.09-9.42,34.08a62.44,62.44,0,0,1-15.71,15.64,147.67,147.67,0,0,1-25,13.91C393.43,367.9,317.5,375.61,244.53,394c-14.11,3.56-28.3,7.59-42.18,12.59-17.24,6.19-34,13.91-49.36,24.31-20.26,13.77-42.72,30.91-54.05,54-27,55.14-6.67,116,28.3,173.26,14.92,24.49,30.85,47.44,42.94,69.92,4.8,8.92,8.42,18.27,12.41,27.23,11,24.77,22.65,47.16,17.84,76.23"/><path class="cls-30" d="M374.74,77.57c27.54,27.09,52.16,51.86,71.79,73.7,7.25,8.06,14,15.46,19.74,22.46,14.32,17.41,27.33,34.13,35.52,51.61,7.42,15.73,11.62,31.39,11.94,49.26.21,11.21-1.42,23.5-8.72,34.7a61.56,61.56,0,0,1-15.69,15.91,144.73,144.73,0,0,1-25.2,14c-71,31.92-147.72,38.84-221.46,56.73A443.17,443.17,0,0,0,200,408.34c-17.41,6.13-34.35,13.84-49.83,24.31-20.39,13.83-43.14,31.07-54.35,54.52-26.23,54.88-4.36,114.72,30.54,171.53,14.87,24.28,30.51,47.14,42,69.69,4.56,8.9,7.88,18.25,11.56,27.3,10,24.56,20.41,47.06,14.12,76"/><path class="cls-31" d="M369.27,79.56c28.05,27.17,53.13,51.91,73.18,73.59,7.44,8,14.36,15.42,20.3,22.37,14.8,17.34,28.35,34,37.16,51.47,8,15.75,12.75,31.55,13.58,49.7.53,11.39-.81,23.91-8,35.33a60.3,60.3,0,0,1-15.68,16.17,141,141,0,0,1-25.37,14.18c-71.55,32.08-149.13,38.2-223.63,55.6a432.4,432.4,0,0,0-43.07,12.14c-17.59,6.07-34.69,13.76-50.31,24.3-20.52,13.88-43.56,31.24-54.64,55C67.32,544,90.71,602.88,125.53,659.22c14.84,24.06,30.17,46.84,41.15,69.45,4.31,8.9,7.34,18.24,10.7,27.37,9,24.36,18.18,47,10.4,75.79"/><path class="cls-32" d="M363.8,81.54c28.56,27.26,54.09,52,74.56,73.49,7.65,8,14.75,15.38,20.86,22.28,15.28,17.26,29.39,33.79,38.81,51.33,8.53,15.77,13.88,31.72,15.22,50.15.85,11.55-.21,24.32-7.32,35.94a59.22,59.22,0,0,1-15.67,16.45c-7.73,5.7-16.69,10.35-25.54,14.31-72.13,32.23-150.53,37.56-225.8,54.47a430.25,430.25,0,0,0-43.51,11.91c-17.78,6-35,13.7-50.79,24.29-20.66,13.95-44,31.41-54.93,55.5-24.67,54.36.24,112.21,35,168.07,14.8,23.85,29.85,46.55,40.25,69.23,4.08,8.88,6.81,18.22,9.86,27.43,8,24.15,15.94,46.88,6.68,75.58"/><path class="cls-33" d="M358.32,83.53c29.09,27.34,55.07,52,76,73.38,7.84,8,15.13,15.33,21.42,22.19,15.76,17.18,30.42,33.62,40.45,51.18,9.08,15.8,15,31.89,16.87,50.6,1.16,11.73.39,24.74-6.63,36.57a58.4,58.4,0,0,1-15.65,16.71c-7.77,5.78-16.8,10.48-25.72,14.45C392.31,381,313.09,385.54,237.05,402a424.15,424.15,0,0,0-44,11.69c-18,5.94-35.38,13.62-51.25,24.28-20.8,14-44.43,31.57-55.23,56-23.91,54.09,2.54,111,37.21,166.34,14.76,23.64,29.51,46.25,39.35,69,3.84,8.87,6.28,18.21,9,27.5,7,23.93,13.7,46.8,2.95,75.37"/><path class="cls-34" d="M352.85,85.52c29.6,27.42,56,52.05,77.34,73.27,8.05,8,15.52,15.29,22,22.1,16.24,17.1,31.44,33.46,42.09,51,9.64,15.82,16.14,32.05,18.51,51.05,1.48,11.9,1,25.14-5.94,37.18-3.78,6.61-9.27,12.19-15.63,17-7.79,5.86-16.9,10.59-25.89,14.58C392,384.27,312,388,235.18,404a417.59,417.59,0,0,0-44.4,11.45c-18.14,5.89-35.73,13.55-51.73,24.28-20.93,14.07-44.87,31.73-55.52,56.48C60.37,550,88.38,605.85,123,660.77c14.72,23.42,29.19,46,38.46,68.75,3.6,8.86,5.76,18.2,8.16,27.58,6.06,23.7,11.46,46.7-.77,75.15"/><path class="cls-35" d="M347.38,87.5c30.11,27.51,57,52.11,78.73,73.17,8.24,8,15.9,15.24,22.54,22,16.72,17,32.48,33.29,43.74,50.9,10.19,15.84,17.27,32.22,20.15,51.49,1.8,12.08,1.61,25.56-5.24,37.81-3.73,6.72-9.22,12.39-15.61,17.26-7.83,5.93-17,10.7-26.07,14.71-73.87,32.69-154.74,35.65-232.31,51.09a413.9,413.9,0,0,0-44.84,11.22c-18.32,5.83-36.08,13.48-52.21,24.28-21.07,14.12-45.32,31.89-55.81,57C58,552,87.6,606.83,122.11,661.29c14.68,23.2,28.85,45.65,37.56,68.52,3.36,8.84,5.24,18.17,7.31,27.64,5.11,23.48,9.23,46.61-4.49,74.93"/><path class="cls-36" d="M341.91,89.49c30.63,27.59,58,52.14,80.11,73.06,8.45,8,16.29,15.2,23.11,21.92,17.2,16.93,33.5,33.12,45.38,50.75,10.74,15.87,18.4,32.39,21.79,52,2.12,12.25,2.21,26-4.54,38.43-3.68,6.84-9.18,12.59-15.6,17.52-7.86,6-17.11,10.83-26.24,14.86-74.45,32.84-156.15,35-234.49,49.95a409.4,409.4,0,0,0-45.28,11c-18.49,5.77-36.42,13.4-52.68,24.26-21.2,14.19-45.77,32.06-56.11,57.46-21.67,53.28,9.46,107.17,43.89,161.16,14.64,23,28.53,45.34,36.66,68.28,3.13,8.83,4.74,18.15,6.46,27.71,4.19,23.26,7,46.53-8.21,74.72"/><path class="cls-37" d="M336.44,91.48c31.14,27.67,58.93,52.18,81.5,73,8.65,8,16.67,15.15,23.67,21.82,17.68,16.86,34.53,33,47,50.62,11.3,15.9,19.53,32.55,23.43,52.4,2.45,12.42,2.82,26.37-3.84,39-3.64,7-9.13,12.81-15.58,17.8-7.9,6.08-17.22,10.94-26.42,15-75,33-157.55,34.37-236.66,48.82a406.28,406.28,0,0,0-45.72,10.77C165.16,426.4,147.07,434,130.68,445c-21.33,14.25-46.22,32.21-56.4,57.95-21,53,11.76,105.91,46.12,159.42,14.6,22.78,28.21,45,35.76,68.06,2.89,8.82,4.24,18.13,5.61,27.77,3.27,23,4.76,46.44-11.93,74.51"/><path class="cls-38" d="M331,93.46c31.65,27.76,59.9,52.23,82.88,72.85,8.85,7.94,17,15.11,24.23,21.73,18.17,16.77,35.56,32.79,48.67,50.48,11.85,15.92,20.66,32.72,25.07,52.84,2.77,12.6,3.43,26.79-3.14,39.67-3.59,7.07-9.09,13-15.57,18.06-7.92,6.17-17.32,11.06-26.59,15.13C390.9,397.37,307.57,398,227.69,411.91a403.47,403.47,0,0,0-46.16,10.55c-18.86,5.64-37.12,13.26-53.64,24.25C106.42,461,81.21,479.08,71.2,505.15,51,557.87,85.26,609.8,119.54,662.84c14.56,22.56,27.89,44.74,34.87,67.82,2.66,8.81,3.75,18.11,4.76,27.85,2.37,22.8,2.52,46.34-15.65,74.29"/><path class="cls-39" d="M325.5,95.45c32.17,27.84,60.87,52.26,84.27,72.74,9.05,7.93,17.43,15.06,24.79,21.64,18.64,16.69,36.59,32.62,50.31,50.33,12.4,16,21.75,32.9,26.71,53.3,3.06,12.77,4,27.19-2.44,40.29-3.54,7.18-9,13.21-15.56,18.33-7.95,6.24-17.42,11.18-26.76,15.26-76.2,33.3-160.36,33.09-241,46.57a397.33,397.33,0,0,0-46.61,10.31c-19,5.59-37.46,13.19-54.11,24.25C103.5,462.83,78,481,68.12,507.4c-19.52,52.44,16.36,103.39,50.57,156,14.51,22.34,27.57,44.44,34,67.59,2.42,8.79,3.26,18.09,3.91,27.91,1.49,22.59.28,46.25-19.38,74.07"/><path class="cls-40" d="M320,97.44c32.68,27.92,61.84,52.29,85.66,72.63,9.25,7.91,17.81,15,25.35,21.55,19.12,16.6,37.61,32.45,51.95,50.19,13,16,22.88,33.06,28.36,53.74,3.38,12.95,4.64,27.61-1.75,40.91-3.49,7.31-9,13.42-15.54,18.61-8,6.31-17.53,11.29-26.93,15.39C390.34,403.91,305.36,402.92,224,415.9a395,395,0,0,0-47,10.09c-19.22,5.52-37.81,13.11-54.59,24.23C100.58,464.65,74.68,482.9,65,509.64,46.22,561.81,83.7,611.78,117.83,663.88,132.31,686,145.09,708,150.9,731.23c2.2,8.78,2.79,18.08,3.07,28,.62,22.38-2,46.17-23.1,73.86"/><path class="cls-41" d="M314.56,99.42c33.19,28,62.81,52.33,87,72.53,9.46,7.89,18.2,15,25.91,21.46,19.61,16.51,38.65,32.29,53.6,50,13.51,16,24,33.24,30,54.2,3.7,13.12,5.24,28-1.05,41.53-3.45,7.42-8.95,13.62-15.53,18.87-8,6.39-17.63,11.41-27.1,15.53-77.37,33.61-163.18,31.82-245.35,44.31a392.93,392.93,0,0,0-47.49,9.86c-19.4,5.47-38.16,13-55.07,24.23C97.65,466.47,71.41,484.81,62,511.89c-18.13,51.89,21,100.88,55,152.5,14.43,21.92,27,43.84,32.17,67.13,2,8.76,2.32,18.06,2.21,28-.23,22.18-4.19,46.08-26.82,73.65"/><path class="cls-42" d="M309.09,101.41c33.7,28.09,63.78,52.36,88.43,72.42,9.66,7.87,18.58,14.92,26.47,21.37,20.09,16.42,39.67,32.12,55.24,49.9,14.06,16,25.15,33.4,31.64,54.64,4,13.3,5.85,28.43-.35,42.15-3.4,7.54-8.91,13.83-15.51,19.15-8.06,6.47-17.74,11.53-27.28,15.66-78,33.76-164.58,31.18-247.52,43.18a390.07,390.07,0,0,0-47.94,9.64c-19.58,5.4-38.5,13-55.54,24.22-22,14.55-48.59,33-57.86,60.4-17.43,51.61,23.27,99.61,57.25,150.77,14.4,21.7,26.65,43.53,31.28,66.89,1.73,8.75,1.85,18.05,1.36,28.12-1.07,22-6.43,46-30.54,73.43"/><path class="cls-43" d="M303.62,103.4c34.22,28.16,64.75,52.39,89.81,72.31,9.86,7.85,19,14.87,27,21.28,20.58,16.34,40.71,31.95,56.89,49.76,14.62,16.05,26.28,33.57,33.28,55.09,4.35,13.47,6.46,28.84.34,42.77-3.34,7.65-8.85,14-15.49,19.41-8.08,6.55-17.84,11.65-27.45,15.81-78.53,33.91-166,30.53-249.69,42A388.32,388.32,0,0,0,170,431.28c-19.76,5.34-38.84,12.9-56,24.21-22.15,14.61-49.1,33.14-58.16,60.89-16.76,51.35,25.57,98.36,59.48,149,14.35,21.48,26.34,43.23,30.38,66.66,1.5,8.73,1.4,18,.51,28.18-1.91,21.81-8.67,45.9-34.26,73.21"/><path class="cls-44" d="M298.15,105.39c34.73,28.24,65.72,52.41,91.2,72.2,10.06,7.82,19.35,14.82,27.59,21.18C438,215,458.67,230.56,475.47,248.39c15.17,16.08,27.41,33.74,34.92,55.55,4.67,13.64,7.07,29.24,1,43.39-3.29,7.77-8.81,14.23-15.47,19.68-8.12,6.62-17.95,11.77-27.63,15.94-79.11,34.06-167.39,29.9-251.87,40.91a387,387,0,0,0-48.81,9.19c-20,5.28-39.19,12.82-56.49,24.2-22.28,14.67-49.6,33.28-58.45,61.38C36.62,569.7,80.58,615.73,114.41,666c14.32,21.27,26,42.93,29.48,66.42,1.28,8.73,1,18-.33,28.25-2.73,21.65-10.91,45.81-38,73"/><path class="cls-45" d="M292.68,107.37c35.24,28.33,66.69,52.44,92.58,72.11,10.27,7.79,19.74,14.76,28.16,21.08C435,216.73,456.18,232.18,473.59,250c15.72,16.1,28.54,33.9,36.56,56,5,13.82,7.67,29.66,1.74,44-3.25,7.89-8.76,14.44-15.46,20-8.15,6.69-18.05,11.88-27.8,16.07-79.69,34.22-168.79,29.26-254,39.79a382.48,382.48,0,0,0-49.26,8.95c-20.12,5.22-39.53,12.75-57,24.2C86,473.74,58.27,492.44,49.63,520.88c-15.43,50.8,30.17,95.84,63.93,145.59,14.27,21,25.73,42.63,28.58,66.18,1.05,8.72.51,18.07-1.18,28.32-3.55,21.5-13.15,45.72-41.71,72.79"/><path class="cls-46" d="M287.21,109.36c35.76,28.41,67.66,52.47,94,72,10.47,7.77,20.12,14.72,28.71,21,22,16.07,43.79,31.45,61.82,49.34,16.28,16.12,29.68,34.07,38.2,56.44,5.31,14,8.28,30.06,2.44,44.63-3.2,8-8.72,14.64-15.45,20.22-8.18,6.77-18.15,12-28,16.21-80.27,34.37-170.2,28.62-256.21,38.66a379.6,379.6,0,0,0-49.7,8.73c-20.3,5.16-39.88,12.68-57.44,24.19C83,475.56,55,494.35,46.55,523.13,31.77,573.66,79,617.71,112.7,667c14.23,20.84,25.44,42.34,27.69,66,.82,8.7.07,18.08-2,28.39C134,782.69,123,807,92.92,833.9"/><path class="cls-47" d="M281.74,111.35c36.27,28.49,68.63,52.49,95.36,71.89,10.67,7.74,20.5,14.67,29.27,20.9,22.5,16,44.82,31.28,63.46,49.19,16.83,16.15,30.81,34.24,39.85,56.89,5.63,14.17,8.88,30.48,3.13,45.25-3.15,8.12-8.67,14.85-15.43,20.5-8.21,6.85-18.26,12.12-28.15,16.34-80.86,34.52-171.6,28-258.38,37.53a380.17,380.17,0,0,0-50.14,8.5c-20.49,5.1-40.23,12.61-57.92,24.18-22.68,14.85-51.14,33.74-59.32,62.85C29.34,575.64,78.24,618.7,111.85,667.5c14.19,20.63,25.14,42,26.79,65.72a93.23,93.23,0,0,1-2.89,28.46c-5.17,21.24-17.61,45.54-49.15,72.35"/><path class="cls-48" d="M276.27,113.33c36.78,28.58,69.6,52.52,96.74,71.79,10.88,7.72,20.89,14.62,29.84,20.81,23,15.89,45.84,31.12,65.1,49,17.38,16.17,31.94,34.41,41.49,57.34,5.95,14.34,9.49,30.89,3.83,45.87-3.1,8.24-8.63,15.05-15.42,20.76-8.24,6.93-18.36,12.24-28.32,16.48-81.44,34.68-173,27.35-260.55,36.4a378.26,378.26,0,0,0-50.59,8.27c-20.66,5-40.57,12.54-58.39,24.18-22.81,14.91-51.67,33.88-59.62,63.34C26.9,577.62,77.46,619.69,111,668c14.15,20.41,24.86,41.74,25.89,65.49A90.16,90.16,0,0,1,133.15,762c-6,21.14-19.85,45.45-52.87,72.14"/><path class="cls-49" d="M270.8,115.32C308.1,144,341.37,167.85,368.93,187c11.08,7.69,21.28,14.55,30.39,20.72,23.5,15.75,46.88,30.95,66.75,48.91,17.94,16.19,33.07,34.57,43.13,57.78,6.27,14.52,10.09,31.3,4.53,46.5-3.06,8.35-8.58,15.25-15.4,21-8.28,7-18.47,12.35-28.5,16.61-82,34.83-174.41,26.71-262.72,35.27a377.44,377.44,0,0,0-51,8.05c-20.85,5-40.92,12.46-58.87,24.17-22.95,15-52.21,34-59.91,63.83-12.85,49.74,39.38,90.8,72.84,138.67,14.11,20.19,24.57,41.45,25,65.25a88,88,0,0,1-4.58,28.59c-6.78,21.06-22.09,45.36-56.6,71.93"/><path class="cls-50" d="M265.33,117.31c37.81,28.74,71.54,52.55,99.51,71.57,11.28,7.67,21.66,14.51,31,20.63,24,15.67,47.9,30.78,68.39,48.76C482.68,274.5,498.4,293,509,316.51c6.6,14.69,10.7,31.71,5.23,47.11-3,8.47-8.54,15.46-15.39,21.3-8.31,7.08-18.57,12.48-28.67,16.76-82.6,35-175.81,26.06-264.89,34.14a375.15,375.15,0,0,0-51.47,7.81c-21,4.92-41.27,12.39-59.35,24.16-23.08,15-52.75,34.19-60.2,64.33C22,581.6,75.9,621.66,109.28,669.05c14.07,20,24.28,41.17,24.1,65a86,86,0,0,1-5.44,28.66c-7.58,21-24.32,45.26-60.31,71.71"/><path class="cls-51" d="M259.86,119.29c38.32,28.83,72.53,52.53,100.9,71.47,11.49,7.63,22,14.47,31.52,20.53,24.43,15.6,48.93,30.62,70,48.63,19,16.25,35.34,34.91,46.41,58.69,6.92,14.86,11.31,32.11,5.93,47.73-3,8.58-8.49,15.66-15.37,21.57-8.34,7.16-18.68,12.59-28.85,16.89-83.18,35.13-177.22,25.42-267.06,33a373.44,373.44,0,0,0-51.92,7.59c-21.2,4.86-41.61,12.32-59.82,24.15-23.21,15.1-53.31,34.33-60.49,64.81-11.61,49.23,44,88.29,77.29,135.21,14,19.77,24,40.88,23.2,64.79a84.33,84.33,0,0,1-6.29,28.73c-8.39,20.93-26.56,45.18-64,71.49"/><path class="cls-52" d="M254.38,121.28c54.6,40.64,100.9,70.94,134.37,91.8,47.38,29.53,95.31,56.9,119.73,107.62,7.24,15,11.92,32.53,6.62,48.35-6.43,19.24-25.67,31-44.37,38.87C387,443.2,292.11,432.71,201.49,439.8c-39.28,3.08-79.59,10.06-112.64,31.51C65.49,486.46,35,505.79,28.06,536.61c-15.62,69.6,106.59,117.12,101.81,198-1.52,25.86-16.36,60.72-74.89,100.07"/></g></svg>