<svg width="106.000000" height="106.000000" viewBox="0 0 106 106" fill="none" xmlns="http://www.w3.org/2000/svg" xmlns:xlink="http://www.w3.org/1999/xlink">
	<desc>
			Created with Pixso.
	</desc>
	<defs>
		<clipPath id="clip2_710">
			<rect id="material-symbols-light:slow-motion-video" width="106.000000" height="106.000000" fill="white" fill-opacity="0"/>
		</clipPath>
	</defs>
	<rect id="material-symbols-light:slow-motion-video" width="106.000000" height="106.000000" fill="#FFFFFF" fill-opacity="0"/>
	<g clip-path="url(#clip2_710)">
		<path id="Vector" d="M21.8281 77.7686C19.3125 74.5295 17.3926 71.3054 16.0684 68.0959C14.7422 64.8835 13.8594 61.3237 13.418 57.4165L17.8867 57.4165C18.3301 60.6555 19.1387 63.7295 20.3164 66.6384C21.4941 69.5476 23.041 72.2153 24.9551 74.6416L21.8281 77.7686ZM13.418 48.5833C13.8945 44.676 14.7871 41.1309 16.0938 37.9478C17.4023 34.7678 19.3125 31.5583 21.8281 28.3196L24.9551 31.4421C23.041 33.8713 21.4941 36.5256 20.3164 39.4053C19.1387 42.2852 18.3301 45.3442 17.8867 48.5833L13.418 48.5833ZM48.3633 92.5291C44.1172 91.9165 40.4766 90.9478 37.4453 89.6228C34.4121 88.2979 31.2676 86.4238 28.0098 84.0005L31.1367 80.825C33.543 82.6799 36.1934 84.2478 39.0879 85.5286C41.9727 86.8096 45.0645 87.6707 48.3633 88.1123L48.3633 92.5291ZM31.3594 25.0864L28.1777 21.9153C31.4375 19.4893 34.582 17.6282 37.6133 16.3328C40.6445 15.0371 44.3027 14.0833 48.584 13.4707L48.584 17.8875C45.2715 18.3291 42.1641 19.1755 39.2637 20.427C36.3672 21.6782 33.7324 23.2329 31.3594 25.0911L31.3594 25.0864ZM44.166 68.7983L44.166 37.2014L68.7988 52.9998L44.166 68.7983ZM57.416 92.5291L57.416 88.1123C66.3242 86.8611 73.7031 82.9229 79.5566 76.2979C85.4102 69.6729 88.3359 61.9067 88.334 52.9998C88.334 44.093 85.4082 36.3269 79.5566 29.7019C73.707 23.0769 66.3262 19.1387 57.416 17.8875L57.416 13.4707C67.5625 14.5513 75.9883 18.8547 82.6934 26.3806C89.3984 33.9067 92.75 42.7798 92.75 52.9998C92.75 63.22 89.3984 72.093 82.6934 79.6191C75.9883 87.145 67.5625 91.4485 57.416 92.5291Z" fill="#2F2F2F" fill-opacity="1.000000" fill-rule="nonzero"/>
	</g>
</svg>
