<svg width="42" height="42" viewBox="0 0 42 42" fill="none" xmlns="http://www.w3.org/2000/svg">
<circle cx="21" cy="21" r="20.5" stroke="#E8E8E8"/>
<g clip-path="url(#clip0_1402_3821)">
<path fill-rule="evenodd" clip-rule="evenodd" d="M28.0718 16.2447C28.1067 16.033 28.0842 15.8158 28.0066 15.6157C27.929 15.4156 27.7992 15.24 27.6306 15.1072C27.4621 14.9743 27.261 14.8891 27.0483 14.8604C26.8356 14.8317 26.6192 14.8605 26.4214 14.9439L12.7414 20.7039C11.7878 21.1055 11.739 22.4847 12.7414 22.9007C13.734 23.3147 14.741 23.6931 15.7606 24.0351C16.695 24.3439 17.7142 24.6295 18.531 24.7103C18.7542 24.9775 19.035 25.2351 19.3214 25.4703C19.759 25.8303 20.2854 26.2007 20.8294 26.5559C21.919 27.2679 23.1278 27.9487 23.9422 28.3919C24.9158 28.9199 26.0814 28.3119 26.2558 27.2503L28.0718 16.2447ZM14.275 21.7943L26.3742 16.6999L24.6798 26.9719C23.8806 26.5375 22.7294 25.8871 21.7038 25.2167C21.2311 24.9133 20.7748 24.5851 20.3366 24.2335C20.2195 24.1379 20.1058 24.0381 19.9958 23.9343L23.1646 20.7663C23.3147 20.6163 23.3991 20.4128 23.3992 20.2006C23.3993 19.9884 23.315 19.7849 23.165 19.6347C23.015 19.4846 22.8115 19.4003 22.5993 19.4002C22.3871 19.4001 22.1835 19.4843 22.0334 19.6343L18.5638 23.1039C17.9766 23.0287 17.159 22.8111 16.2614 22.5151C15.5932 22.2925 14.9311 22.0519 14.2758 21.7935L14.275 21.7943Z" fill="#E8E8E8"/>
</g>
<defs>
<clipPath id="clip0_1402_3821">
<rect width="19.2" height="19.2" fill="white" transform="translate(10.6016 11.4004)"/>
</clipPath>
</defs>
</svg>
