<svg width="42" height="42" viewBox="0 0 42 42" fill="none" xmlns="http://www.w3.org/2000/svg">
<circle cx="21" cy="21" r="20.5" stroke="#E8E8E8"/>
<path d="M21.0311 13C16.6631 13 13.1031 16.56 13.1031 20.928C13.1031 22.328 13.4711 23.688 14.1591 24.888L13.0391 29L17.2391 27.896C18.3991 28.528 19.7031 28.864 21.0311 28.864C25.3991 28.864 28.9591 25.304 28.9591 20.936C28.9591 18.816 28.1351 16.824 26.6391 15.328C25.9056 14.5872 25.032 13.9998 24.0692 13.6001C23.1063 13.2004 22.0736 12.9964 21.0311 13ZM21.0391 14.336C22.7991 14.336 24.4471 15.024 25.6951 16.272C26.3075 16.8843 26.7931 17.6115 27.124 18.4119C27.4548 19.2122 27.6244 20.07 27.6231 20.936C27.6231 24.568 24.6631 27.52 21.0311 27.52C19.8471 27.52 18.6871 27.208 17.6791 26.6L17.4391 26.464L14.9431 27.12L15.6071 24.688L15.4471 24.432C14.7862 23.383 14.4367 22.1679 14.4391 20.928C14.4471 17.296 17.3991 14.336 21.0391 14.336ZM18.2231 17.264C18.0951 17.264 17.8791 17.312 17.6951 17.512C17.5191 17.712 16.9991 18.2 16.9991 19.168C16.9991 20.144 17.7111 21.08 17.7991 21.216C17.9111 21.352 19.2071 23.352 21.1991 24.2C21.6711 24.416 22.0391 24.536 22.3271 24.624C22.7991 24.776 23.2311 24.752 23.5751 24.704C23.9591 24.648 24.7431 24.224 24.9111 23.76C25.0791 23.296 25.0791 22.904 25.0311 22.816C24.9751 22.736 24.8471 22.688 24.6471 22.6C24.4471 22.488 23.4711 22.008 23.2951 21.944C23.1111 21.88 22.9991 21.848 22.8471 22.04C22.7191 22.24 22.3351 22.688 22.2231 22.816C22.1031 22.952 21.9911 22.968 21.7991 22.872C21.5911 22.768 20.9511 22.56 20.1991 21.888C19.6071 21.36 19.2151 20.712 19.0951 20.512C18.9991 20.32 19.0871 20.2 19.1831 20.112C19.2711 20.024 19.3991 19.88 19.4791 19.76C19.5831 19.648 19.6151 19.56 19.6791 19.432C19.7431 19.296 19.7111 19.184 19.6631 19.088C19.6151 19 19.2151 18.008 19.0471 17.616C18.8871 17.232 18.7271 17.28 18.5991 17.272C18.4871 17.272 18.3591 17.264 18.2231 17.264Z" fill="#E8E8E8"/>
</svg>
